%
M48
M72
T01C0.0150
T02C0.0354
T03C0.0400
T04C0.1102
%
T01
X24820Y6460
X20940Y6460
X17580Y8860
X14720Y11800
X14040Y12400
X13300Y12700
X16800Y13660
X17360Y14140
X17800Y14520
X17660Y13340
X17580Y12760
X19320Y15760
X21640Y16560
X22940Y16120
X23960Y17300
X7840Y14140
X4360Y14620
X4780Y9900
X4780Y7440
X7320Y2480
X11800Y1640
X15980Y1640
T02
X24540Y7740
X22795Y20669
X21795Y20669
X20795Y20669
X19795Y20669
X18795Y20669
X17795Y20669
X16795Y20669
X15795Y20669
X14795Y20669
X13795Y20669
X12795Y20669
X11795Y20669
X10795Y20669
X9795Y20669
X8795Y20669
X7795Y20669
X6795Y20669
X5795Y20669
X4795Y20669
X3795Y20669
X3795Y21669
X4795Y21669
X5795Y21669
X6795Y21669
X7795Y21669
X8795Y21669
X9795Y21669
X10795Y21669
X11795Y21669
X12795Y21669
X13795Y21669
X14795Y21669
X15795Y21669
X16795Y21669
X17795Y21669
X18795Y21669
X19795Y21669
X20795Y21669
X21795Y21669
X22795Y21669
T03
X3500Y9060
X3500Y10060
X3500Y11060
X3500Y12060
X3500Y13060
X3500Y14060
X5980Y12480
X5980Y11480
X5980Y10480
X6980Y10480
X6980Y11480
X6980Y12480
T04
X24713Y1878
X24713Y21169
X1878Y1878
X1878Y21169
M30
