G75*
%MOIN*%
%OFA0B0*%
%FSLAX25Y25*%
%IPPOS*%
%LPD*%
%AMOC8*
5,1,8,0,0,1.08239X$1,22.5*
%
%ADD10C,0.00000*%
%ADD11C,0.00100*%
%ADD12C,0.00300*%
%ADD13C,0.00200*%
%ADD14R,0.01500X0.00150*%
%ADD15R,0.02250X0.00150*%
%ADD16R,0.02700X0.00150*%
%ADD17R,0.03150X0.00150*%
%ADD18R,0.03450X0.00150*%
%ADD19R,0.03600X0.00150*%
%ADD20R,0.03900X0.00150*%
%ADD21R,0.04050X0.00150*%
%ADD22R,0.04200X0.00150*%
%ADD23R,0.30900X0.00150*%
%ADD24R,0.01950X0.00150*%
%ADD25R,0.33900X0.00150*%
%ADD26R,0.31200X0.00150*%
%ADD27R,0.01650X0.00150*%
%ADD28R,0.33750X0.00150*%
%ADD29R,0.31350X0.00150*%
%ADD30R,0.31500X0.00150*%
%ADD31R,0.01350X0.00150*%
%ADD32R,0.31650X0.00150*%
%ADD33R,0.31800X0.00150*%
%ADD34R,0.34200X0.00150*%
%ADD35R,0.32100X0.00150*%
%ADD36R,0.34350X0.00150*%
%ADD37R,0.32250X0.00150*%
%ADD38R,0.34500X0.00150*%
%ADD39R,0.32400X0.00150*%
%ADD40R,0.34800X0.00150*%
%ADD41R,0.32550X0.00150*%
%ADD42R,0.34950X0.00150*%
%ADD43R,0.32700X0.00150*%
%ADD44R,0.35400X0.00150*%
%ADD45R,0.33000X0.00150*%
%ADD46R,0.35850X0.00150*%
%ADD47R,0.02850X0.00150*%
%ADD48R,0.03000X0.00150*%
%ADD49R,0.02550X0.00150*%
%ADD50R,0.02400X0.00150*%
%ADD51R,0.02100X0.00150*%
%ADD52R,0.01800X0.00150*%
%ADD53R,0.01200X0.00150*%
%ADD54R,0.07500X0.00150*%
%ADD55R,0.06300X0.00150*%
%ADD56R,0.04500X0.00150*%
%ADD57R,0.07800X0.00150*%
%ADD58R,0.07050X0.00150*%
%ADD59R,0.04800X0.00150*%
%ADD60R,0.05100X0.00150*%
%ADD61R,0.05400X0.00150*%
%ADD62R,0.05700X0.00150*%
%ADD63R,0.06000X0.00150*%
%ADD64R,0.03300X0.00150*%
%ADD65R,0.07950X0.00150*%
%ADD66R,0.08250X0.00150*%
%ADD67R,0.06900X0.00150*%
%ADD68R,0.06750X0.00150*%
%ADD69R,0.08400X0.00150*%
%ADD70R,0.08550X0.00150*%
%ADD71R,0.07350X0.00150*%
%ADD72R,0.07200X0.00150*%
%ADD73R,0.08700X0.00150*%
%ADD74R,0.07650X0.00150*%
%ADD75R,0.08850X0.00150*%
%ADD76R,0.09000X0.00150*%
%ADD77R,0.08100X0.00150*%
%ADD78R,0.09300X0.00150*%
%ADD79R,0.09150X0.00150*%
%ADD80R,0.03750X0.00150*%
%ADD81R,0.04650X0.00150*%
%ADD82R,0.05850X0.00150*%
%ADD83R,0.06150X0.00150*%
%ADD84R,0.04350X0.00150*%
%ADD85R,0.06450X0.00150*%
%ADD86R,0.06600X0.00150*%
%ADD87R,0.05250X0.00150*%
%ADD88R,0.04950X0.00150*%
%ADD89R,0.25050X0.00150*%
%ADD90R,0.43950X0.00150*%
%ADD91R,0.24750X0.00150*%
%ADD92R,0.43650X0.00150*%
%ADD93R,0.24450X0.00150*%
%ADD94R,0.43500X0.00150*%
%ADD95R,0.24150X0.00150*%
%ADD96R,0.43350X0.00150*%
%ADD97R,0.23700X0.00150*%
%ADD98R,0.43200X0.00150*%
%ADD99R,0.23550X0.00150*%
%ADD100R,0.42900X0.00150*%
%ADD101R,0.23400X0.00150*%
%ADD102R,0.42750X0.00150*%
%ADD103R,0.23250X0.00150*%
%ADD104R,0.42600X0.00150*%
%ADD105R,0.42450X0.00150*%
%ADD106R,0.22950X0.00150*%
%ADD107R,0.42300X0.00150*%
%ADD108R,0.42000X0.00150*%
%ADD109R,0.41850X0.00150*%
%ADD110C,0.00400*%
%ADD111C,0.00700*%
%ADD112R,0.00200X0.00200*%
%ADD113R,0.02000X0.00200*%
%ADD114R,0.02200X0.00200*%
%ADD115R,0.02400X0.00200*%
%ADD116R,0.02600X0.00200*%
%ADD117R,0.01400X0.00200*%
%ADD118R,0.04200X0.00200*%
%ADD119R,0.01800X0.00200*%
%ADD120R,0.01600X0.00200*%
%ADD121R,0.04600X0.00200*%
%ADD122R,0.05000X0.00200*%
%ADD123R,0.05800X0.00200*%
%ADD124R,0.06000X0.00200*%
%ADD125R,0.06400X0.00200*%
%ADD126R,0.06600X0.00200*%
%ADD127R,0.07000X0.00200*%
%ADD128R,0.08000X0.00200*%
%ADD129R,0.07800X0.00200*%
%ADD130R,0.04800X0.00200*%
%ADD131R,0.07600X0.00200*%
%ADD132R,0.07400X0.00200*%
%ADD133R,0.06200X0.00200*%
%ADD134R,0.07200X0.00200*%
%ADD135R,0.03000X0.00200*%
%ADD136R,0.08800X0.00200*%
%ADD137R,0.08600X0.00200*%
%ADD138R,0.02800X0.00200*%
%ADD139R,0.03400X0.00200*%
%ADD140R,0.00600X0.00200*%
%ADD141R,0.06800X0.00200*%
%ADD142R,0.03800X0.00200*%
%ADD143R,0.03600X0.00200*%
%ADD144R,0.01000X0.00200*%
%ADD145C,0.00800*%
%ADD146C,0.00039*%
%ADD147C,0.00984*%
%ADD148C,0.01200*%
%ADD149C,0.00500*%
%ADD150C,0.00600*%
%ADD151R,0.00787X0.00787*%
%ADD152C,0.01000*%
%ADD153C,0.01000*%
%ADD154C,0.00197*%
D10*
X0016811Y0005000D02*
X0249094Y0005000D01*
X0249379Y0005003D01*
X0249665Y0005014D01*
X0249950Y0005031D01*
X0250234Y0005055D01*
X0250518Y0005086D01*
X0250801Y0005124D01*
X0251082Y0005169D01*
X0251363Y0005220D01*
X0251643Y0005278D01*
X0251921Y0005343D01*
X0252197Y0005415D01*
X0252471Y0005493D01*
X0252744Y0005578D01*
X0253014Y0005670D01*
X0253282Y0005768D01*
X0253548Y0005872D01*
X0253811Y0005983D01*
X0254071Y0006100D01*
X0254329Y0006223D01*
X0254583Y0006353D01*
X0254834Y0006489D01*
X0255082Y0006630D01*
X0255326Y0006778D01*
X0255567Y0006931D01*
X0255803Y0007091D01*
X0256036Y0007256D01*
X0256265Y0007426D01*
X0256490Y0007602D01*
X0256710Y0007784D01*
X0256926Y0007970D01*
X0257137Y0008162D01*
X0257344Y0008359D01*
X0257546Y0008561D01*
X0257743Y0008768D01*
X0257935Y0008979D01*
X0258121Y0009195D01*
X0258303Y0009415D01*
X0258479Y0009640D01*
X0258649Y0009869D01*
X0258814Y0010102D01*
X0258974Y0010338D01*
X0259127Y0010579D01*
X0259275Y0010823D01*
X0259416Y0011071D01*
X0259552Y0011322D01*
X0259682Y0011576D01*
X0259805Y0011834D01*
X0259922Y0012094D01*
X0260033Y0012357D01*
X0260137Y0012623D01*
X0260235Y0012891D01*
X0260327Y0013161D01*
X0260412Y0013434D01*
X0260490Y0013708D01*
X0260562Y0013984D01*
X0260627Y0014262D01*
X0260685Y0014542D01*
X0260736Y0014823D01*
X0260781Y0015104D01*
X0260819Y0015387D01*
X0260850Y0015671D01*
X0260874Y0015955D01*
X0260891Y0016240D01*
X0260902Y0016526D01*
X0260905Y0016811D01*
X0260906Y0016811D02*
X0260906Y0215630D01*
X0260905Y0215630D02*
X0260902Y0215915D01*
X0260891Y0216201D01*
X0260874Y0216486D01*
X0260850Y0216770D01*
X0260819Y0217054D01*
X0260781Y0217337D01*
X0260736Y0217618D01*
X0260685Y0217899D01*
X0260627Y0218179D01*
X0260562Y0218457D01*
X0260490Y0218733D01*
X0260412Y0219007D01*
X0260327Y0219280D01*
X0260235Y0219550D01*
X0260137Y0219818D01*
X0260033Y0220084D01*
X0259922Y0220347D01*
X0259805Y0220607D01*
X0259682Y0220865D01*
X0259552Y0221119D01*
X0259416Y0221370D01*
X0259275Y0221618D01*
X0259127Y0221862D01*
X0258974Y0222103D01*
X0258814Y0222339D01*
X0258649Y0222572D01*
X0258479Y0222801D01*
X0258303Y0223026D01*
X0258121Y0223246D01*
X0257935Y0223462D01*
X0257743Y0223673D01*
X0257546Y0223880D01*
X0257344Y0224082D01*
X0257137Y0224279D01*
X0256926Y0224471D01*
X0256710Y0224657D01*
X0256490Y0224839D01*
X0256265Y0225015D01*
X0256036Y0225185D01*
X0255803Y0225350D01*
X0255567Y0225510D01*
X0255326Y0225663D01*
X0255082Y0225811D01*
X0254834Y0225952D01*
X0254583Y0226088D01*
X0254329Y0226218D01*
X0254071Y0226341D01*
X0253811Y0226458D01*
X0253548Y0226569D01*
X0253282Y0226673D01*
X0253014Y0226771D01*
X0252744Y0226863D01*
X0252471Y0226948D01*
X0252197Y0227026D01*
X0251921Y0227098D01*
X0251643Y0227163D01*
X0251363Y0227221D01*
X0251082Y0227272D01*
X0250801Y0227317D01*
X0250518Y0227355D01*
X0250234Y0227386D01*
X0249950Y0227410D01*
X0249665Y0227427D01*
X0249379Y0227438D01*
X0249094Y0227441D01*
X0016811Y0227441D01*
X0016526Y0227438D01*
X0016240Y0227427D01*
X0015955Y0227410D01*
X0015671Y0227386D01*
X0015387Y0227355D01*
X0015104Y0227317D01*
X0014823Y0227272D01*
X0014542Y0227221D01*
X0014262Y0227163D01*
X0013984Y0227098D01*
X0013708Y0227026D01*
X0013434Y0226948D01*
X0013161Y0226863D01*
X0012891Y0226771D01*
X0012623Y0226673D01*
X0012357Y0226569D01*
X0012094Y0226458D01*
X0011834Y0226341D01*
X0011576Y0226218D01*
X0011322Y0226088D01*
X0011071Y0225952D01*
X0010823Y0225811D01*
X0010579Y0225663D01*
X0010338Y0225510D01*
X0010102Y0225350D01*
X0009869Y0225185D01*
X0009640Y0225015D01*
X0009415Y0224839D01*
X0009195Y0224657D01*
X0008979Y0224471D01*
X0008768Y0224279D01*
X0008561Y0224082D01*
X0008359Y0223880D01*
X0008162Y0223673D01*
X0007970Y0223462D01*
X0007784Y0223246D01*
X0007602Y0223026D01*
X0007426Y0222801D01*
X0007256Y0222572D01*
X0007091Y0222339D01*
X0006931Y0222103D01*
X0006778Y0221862D01*
X0006630Y0221618D01*
X0006489Y0221370D01*
X0006353Y0221119D01*
X0006223Y0220865D01*
X0006100Y0220607D01*
X0005983Y0220347D01*
X0005872Y0220084D01*
X0005768Y0219818D01*
X0005670Y0219550D01*
X0005578Y0219280D01*
X0005493Y0219007D01*
X0005415Y0218733D01*
X0005343Y0218457D01*
X0005278Y0218179D01*
X0005220Y0217899D01*
X0005169Y0217618D01*
X0005124Y0217337D01*
X0005086Y0217054D01*
X0005055Y0216770D01*
X0005031Y0216486D01*
X0005014Y0216201D01*
X0005003Y0215915D01*
X0005000Y0215630D01*
X0005000Y0016811D01*
X0005003Y0016526D01*
X0005014Y0016240D01*
X0005031Y0015955D01*
X0005055Y0015671D01*
X0005086Y0015387D01*
X0005124Y0015104D01*
X0005169Y0014823D01*
X0005220Y0014542D01*
X0005278Y0014262D01*
X0005343Y0013984D01*
X0005415Y0013708D01*
X0005493Y0013434D01*
X0005578Y0013161D01*
X0005670Y0012891D01*
X0005768Y0012623D01*
X0005872Y0012357D01*
X0005983Y0012094D01*
X0006100Y0011834D01*
X0006223Y0011576D01*
X0006353Y0011322D01*
X0006489Y0011071D01*
X0006630Y0010823D01*
X0006778Y0010579D01*
X0006931Y0010338D01*
X0007091Y0010102D01*
X0007256Y0009869D01*
X0007426Y0009640D01*
X0007602Y0009415D01*
X0007784Y0009195D01*
X0007970Y0008979D01*
X0008162Y0008768D01*
X0008359Y0008561D01*
X0008561Y0008359D01*
X0008768Y0008162D01*
X0008979Y0007970D01*
X0009195Y0007784D01*
X0009415Y0007602D01*
X0009640Y0007426D01*
X0009869Y0007256D01*
X0010102Y0007091D01*
X0010338Y0006931D01*
X0010579Y0006778D01*
X0010823Y0006630D01*
X0011071Y0006489D01*
X0011322Y0006353D01*
X0011576Y0006223D01*
X0011834Y0006100D01*
X0012094Y0005983D01*
X0012357Y0005872D01*
X0012623Y0005768D01*
X0012891Y0005670D01*
X0013161Y0005578D01*
X0013434Y0005493D01*
X0013708Y0005415D01*
X0013984Y0005343D01*
X0014262Y0005278D01*
X0014542Y0005220D01*
X0014823Y0005169D01*
X0015104Y0005124D01*
X0015387Y0005086D01*
X0015671Y0005055D01*
X0015955Y0005031D01*
X0016240Y0005014D01*
X0016526Y0005003D01*
X0016811Y0005000D01*
X0013268Y0018780D02*
X0013270Y0018928D01*
X0013276Y0019076D01*
X0013286Y0019224D01*
X0013300Y0019371D01*
X0013318Y0019518D01*
X0013339Y0019664D01*
X0013365Y0019810D01*
X0013395Y0019955D01*
X0013428Y0020099D01*
X0013466Y0020242D01*
X0013507Y0020384D01*
X0013552Y0020525D01*
X0013600Y0020665D01*
X0013653Y0020804D01*
X0013709Y0020941D01*
X0013769Y0021076D01*
X0013832Y0021210D01*
X0013899Y0021342D01*
X0013970Y0021472D01*
X0014044Y0021600D01*
X0014121Y0021726D01*
X0014202Y0021850D01*
X0014286Y0021972D01*
X0014373Y0022091D01*
X0014464Y0022208D01*
X0014558Y0022323D01*
X0014654Y0022435D01*
X0014754Y0022545D01*
X0014856Y0022651D01*
X0014962Y0022755D01*
X0015070Y0022856D01*
X0015181Y0022954D01*
X0015294Y0023050D01*
X0015410Y0023142D01*
X0015528Y0023231D01*
X0015649Y0023316D01*
X0015772Y0023399D01*
X0015897Y0023478D01*
X0016024Y0023554D01*
X0016153Y0023626D01*
X0016284Y0023695D01*
X0016417Y0023760D01*
X0016552Y0023821D01*
X0016688Y0023879D01*
X0016825Y0023934D01*
X0016964Y0023984D01*
X0017105Y0024031D01*
X0017246Y0024074D01*
X0017389Y0024114D01*
X0017533Y0024149D01*
X0017677Y0024181D01*
X0017823Y0024208D01*
X0017969Y0024232D01*
X0018116Y0024252D01*
X0018263Y0024268D01*
X0018410Y0024280D01*
X0018558Y0024288D01*
X0018706Y0024292D01*
X0018854Y0024292D01*
X0019002Y0024288D01*
X0019150Y0024280D01*
X0019297Y0024268D01*
X0019444Y0024252D01*
X0019591Y0024232D01*
X0019737Y0024208D01*
X0019883Y0024181D01*
X0020027Y0024149D01*
X0020171Y0024114D01*
X0020314Y0024074D01*
X0020455Y0024031D01*
X0020596Y0023984D01*
X0020735Y0023934D01*
X0020872Y0023879D01*
X0021008Y0023821D01*
X0021143Y0023760D01*
X0021276Y0023695D01*
X0021407Y0023626D01*
X0021536Y0023554D01*
X0021663Y0023478D01*
X0021788Y0023399D01*
X0021911Y0023316D01*
X0022032Y0023231D01*
X0022150Y0023142D01*
X0022266Y0023050D01*
X0022379Y0022954D01*
X0022490Y0022856D01*
X0022598Y0022755D01*
X0022704Y0022651D01*
X0022806Y0022545D01*
X0022906Y0022435D01*
X0023002Y0022323D01*
X0023096Y0022208D01*
X0023187Y0022091D01*
X0023274Y0021972D01*
X0023358Y0021850D01*
X0023439Y0021726D01*
X0023516Y0021600D01*
X0023590Y0021472D01*
X0023661Y0021342D01*
X0023728Y0021210D01*
X0023791Y0021076D01*
X0023851Y0020941D01*
X0023907Y0020804D01*
X0023960Y0020665D01*
X0024008Y0020525D01*
X0024053Y0020384D01*
X0024094Y0020242D01*
X0024132Y0020099D01*
X0024165Y0019955D01*
X0024195Y0019810D01*
X0024221Y0019664D01*
X0024242Y0019518D01*
X0024260Y0019371D01*
X0024274Y0019224D01*
X0024284Y0019076D01*
X0024290Y0018928D01*
X0024292Y0018780D01*
X0024290Y0018632D01*
X0024284Y0018484D01*
X0024274Y0018336D01*
X0024260Y0018189D01*
X0024242Y0018042D01*
X0024221Y0017896D01*
X0024195Y0017750D01*
X0024165Y0017605D01*
X0024132Y0017461D01*
X0024094Y0017318D01*
X0024053Y0017176D01*
X0024008Y0017035D01*
X0023960Y0016895D01*
X0023907Y0016756D01*
X0023851Y0016619D01*
X0023791Y0016484D01*
X0023728Y0016350D01*
X0023661Y0016218D01*
X0023590Y0016088D01*
X0023516Y0015960D01*
X0023439Y0015834D01*
X0023358Y0015710D01*
X0023274Y0015588D01*
X0023187Y0015469D01*
X0023096Y0015352D01*
X0023002Y0015237D01*
X0022906Y0015125D01*
X0022806Y0015015D01*
X0022704Y0014909D01*
X0022598Y0014805D01*
X0022490Y0014704D01*
X0022379Y0014606D01*
X0022266Y0014510D01*
X0022150Y0014418D01*
X0022032Y0014329D01*
X0021911Y0014244D01*
X0021788Y0014161D01*
X0021663Y0014082D01*
X0021536Y0014006D01*
X0021407Y0013934D01*
X0021276Y0013865D01*
X0021143Y0013800D01*
X0021008Y0013739D01*
X0020872Y0013681D01*
X0020735Y0013626D01*
X0020596Y0013576D01*
X0020455Y0013529D01*
X0020314Y0013486D01*
X0020171Y0013446D01*
X0020027Y0013411D01*
X0019883Y0013379D01*
X0019737Y0013352D01*
X0019591Y0013328D01*
X0019444Y0013308D01*
X0019297Y0013292D01*
X0019150Y0013280D01*
X0019002Y0013272D01*
X0018854Y0013268D01*
X0018706Y0013268D01*
X0018558Y0013272D01*
X0018410Y0013280D01*
X0018263Y0013292D01*
X0018116Y0013308D01*
X0017969Y0013328D01*
X0017823Y0013352D01*
X0017677Y0013379D01*
X0017533Y0013411D01*
X0017389Y0013446D01*
X0017246Y0013486D01*
X0017105Y0013529D01*
X0016964Y0013576D01*
X0016825Y0013626D01*
X0016688Y0013681D01*
X0016552Y0013739D01*
X0016417Y0013800D01*
X0016284Y0013865D01*
X0016153Y0013934D01*
X0016024Y0014006D01*
X0015897Y0014082D01*
X0015772Y0014161D01*
X0015649Y0014244D01*
X0015528Y0014329D01*
X0015410Y0014418D01*
X0015294Y0014510D01*
X0015181Y0014606D01*
X0015070Y0014704D01*
X0014962Y0014805D01*
X0014856Y0014909D01*
X0014754Y0015015D01*
X0014654Y0015125D01*
X0014558Y0015237D01*
X0014464Y0015352D01*
X0014373Y0015469D01*
X0014286Y0015588D01*
X0014202Y0015710D01*
X0014121Y0015834D01*
X0014044Y0015960D01*
X0013970Y0016088D01*
X0013899Y0016218D01*
X0013832Y0016350D01*
X0013769Y0016484D01*
X0013709Y0016619D01*
X0013653Y0016756D01*
X0013600Y0016895D01*
X0013552Y0017035D01*
X0013507Y0017176D01*
X0013466Y0017318D01*
X0013428Y0017461D01*
X0013395Y0017605D01*
X0013365Y0017750D01*
X0013339Y0017896D01*
X0013318Y0018042D01*
X0013300Y0018189D01*
X0013286Y0018336D01*
X0013276Y0018484D01*
X0013270Y0018632D01*
X0013268Y0018780D01*
X0005000Y0053000D02*
X0005000Y0128000D01*
X0024685Y0144764D02*
X0024683Y0144888D01*
X0024677Y0145011D01*
X0024668Y0145135D01*
X0024654Y0145257D01*
X0024637Y0145380D01*
X0024615Y0145502D01*
X0024590Y0145623D01*
X0024561Y0145743D01*
X0024529Y0145862D01*
X0024492Y0145981D01*
X0024452Y0146098D01*
X0024409Y0146213D01*
X0024361Y0146328D01*
X0024310Y0146440D01*
X0024256Y0146551D01*
X0024198Y0146661D01*
X0024137Y0146768D01*
X0024072Y0146874D01*
X0024004Y0146977D01*
X0023933Y0147078D01*
X0023859Y0147177D01*
X0023782Y0147274D01*
X0023701Y0147368D01*
X0023618Y0147459D01*
X0023532Y0147548D01*
X0023443Y0147634D01*
X0023352Y0147717D01*
X0023258Y0147798D01*
X0023161Y0147875D01*
X0023062Y0147949D01*
X0022961Y0148020D01*
X0022858Y0148088D01*
X0022752Y0148153D01*
X0022645Y0148214D01*
X0022535Y0148272D01*
X0022424Y0148326D01*
X0022312Y0148377D01*
X0022197Y0148425D01*
X0022082Y0148468D01*
X0021965Y0148508D01*
X0021846Y0148545D01*
X0021727Y0148577D01*
X0021607Y0148606D01*
X0021486Y0148631D01*
X0021364Y0148653D01*
X0021241Y0148670D01*
X0021119Y0148684D01*
X0020995Y0148693D01*
X0020872Y0148699D01*
X0020748Y0148701D01*
X0005000Y0148701D01*
X0024685Y0144764D02*
X0024685Y0085709D01*
X0024683Y0085585D01*
X0024677Y0085462D01*
X0024668Y0085338D01*
X0024654Y0085216D01*
X0024637Y0085093D01*
X0024615Y0084971D01*
X0024590Y0084850D01*
X0024561Y0084730D01*
X0024529Y0084611D01*
X0024492Y0084492D01*
X0024452Y0084375D01*
X0024409Y0084260D01*
X0024361Y0084145D01*
X0024310Y0084033D01*
X0024256Y0083922D01*
X0024198Y0083812D01*
X0024137Y0083705D01*
X0024072Y0083599D01*
X0024004Y0083496D01*
X0023933Y0083395D01*
X0023859Y0083296D01*
X0023782Y0083199D01*
X0023701Y0083105D01*
X0023618Y0083014D01*
X0023532Y0082925D01*
X0023443Y0082839D01*
X0023352Y0082756D01*
X0023258Y0082675D01*
X0023161Y0082598D01*
X0023062Y0082524D01*
X0022961Y0082453D01*
X0022858Y0082385D01*
X0022752Y0082320D01*
X0022645Y0082259D01*
X0022535Y0082201D01*
X0022424Y0082147D01*
X0022312Y0082096D01*
X0022197Y0082048D01*
X0022082Y0082005D01*
X0021965Y0081965D01*
X0021846Y0081928D01*
X0021727Y0081896D01*
X0021607Y0081867D01*
X0021486Y0081842D01*
X0021364Y0081820D01*
X0021241Y0081803D01*
X0021119Y0081789D01*
X0020995Y0081780D01*
X0020872Y0081774D01*
X0020748Y0081772D01*
X0005394Y0081772D01*
X0005000Y0082000D02*
X0005000Y0082500D01*
X0013268Y0211693D02*
X0013270Y0211841D01*
X0013276Y0211989D01*
X0013286Y0212137D01*
X0013300Y0212284D01*
X0013318Y0212431D01*
X0013339Y0212577D01*
X0013365Y0212723D01*
X0013395Y0212868D01*
X0013428Y0213012D01*
X0013466Y0213155D01*
X0013507Y0213297D01*
X0013552Y0213438D01*
X0013600Y0213578D01*
X0013653Y0213717D01*
X0013709Y0213854D01*
X0013769Y0213989D01*
X0013832Y0214123D01*
X0013899Y0214255D01*
X0013970Y0214385D01*
X0014044Y0214513D01*
X0014121Y0214639D01*
X0014202Y0214763D01*
X0014286Y0214885D01*
X0014373Y0215004D01*
X0014464Y0215121D01*
X0014558Y0215236D01*
X0014654Y0215348D01*
X0014754Y0215458D01*
X0014856Y0215564D01*
X0014962Y0215668D01*
X0015070Y0215769D01*
X0015181Y0215867D01*
X0015294Y0215963D01*
X0015410Y0216055D01*
X0015528Y0216144D01*
X0015649Y0216229D01*
X0015772Y0216312D01*
X0015897Y0216391D01*
X0016024Y0216467D01*
X0016153Y0216539D01*
X0016284Y0216608D01*
X0016417Y0216673D01*
X0016552Y0216734D01*
X0016688Y0216792D01*
X0016825Y0216847D01*
X0016964Y0216897D01*
X0017105Y0216944D01*
X0017246Y0216987D01*
X0017389Y0217027D01*
X0017533Y0217062D01*
X0017677Y0217094D01*
X0017823Y0217121D01*
X0017969Y0217145D01*
X0018116Y0217165D01*
X0018263Y0217181D01*
X0018410Y0217193D01*
X0018558Y0217201D01*
X0018706Y0217205D01*
X0018854Y0217205D01*
X0019002Y0217201D01*
X0019150Y0217193D01*
X0019297Y0217181D01*
X0019444Y0217165D01*
X0019591Y0217145D01*
X0019737Y0217121D01*
X0019883Y0217094D01*
X0020027Y0217062D01*
X0020171Y0217027D01*
X0020314Y0216987D01*
X0020455Y0216944D01*
X0020596Y0216897D01*
X0020735Y0216847D01*
X0020872Y0216792D01*
X0021008Y0216734D01*
X0021143Y0216673D01*
X0021276Y0216608D01*
X0021407Y0216539D01*
X0021536Y0216467D01*
X0021663Y0216391D01*
X0021788Y0216312D01*
X0021911Y0216229D01*
X0022032Y0216144D01*
X0022150Y0216055D01*
X0022266Y0215963D01*
X0022379Y0215867D01*
X0022490Y0215769D01*
X0022598Y0215668D01*
X0022704Y0215564D01*
X0022806Y0215458D01*
X0022906Y0215348D01*
X0023002Y0215236D01*
X0023096Y0215121D01*
X0023187Y0215004D01*
X0023274Y0214885D01*
X0023358Y0214763D01*
X0023439Y0214639D01*
X0023516Y0214513D01*
X0023590Y0214385D01*
X0023661Y0214255D01*
X0023728Y0214123D01*
X0023791Y0213989D01*
X0023851Y0213854D01*
X0023907Y0213717D01*
X0023960Y0213578D01*
X0024008Y0213438D01*
X0024053Y0213297D01*
X0024094Y0213155D01*
X0024132Y0213012D01*
X0024165Y0212868D01*
X0024195Y0212723D01*
X0024221Y0212577D01*
X0024242Y0212431D01*
X0024260Y0212284D01*
X0024274Y0212137D01*
X0024284Y0211989D01*
X0024290Y0211841D01*
X0024292Y0211693D01*
X0024290Y0211545D01*
X0024284Y0211397D01*
X0024274Y0211249D01*
X0024260Y0211102D01*
X0024242Y0210955D01*
X0024221Y0210809D01*
X0024195Y0210663D01*
X0024165Y0210518D01*
X0024132Y0210374D01*
X0024094Y0210231D01*
X0024053Y0210089D01*
X0024008Y0209948D01*
X0023960Y0209808D01*
X0023907Y0209669D01*
X0023851Y0209532D01*
X0023791Y0209397D01*
X0023728Y0209263D01*
X0023661Y0209131D01*
X0023590Y0209001D01*
X0023516Y0208873D01*
X0023439Y0208747D01*
X0023358Y0208623D01*
X0023274Y0208501D01*
X0023187Y0208382D01*
X0023096Y0208265D01*
X0023002Y0208150D01*
X0022906Y0208038D01*
X0022806Y0207928D01*
X0022704Y0207822D01*
X0022598Y0207718D01*
X0022490Y0207617D01*
X0022379Y0207519D01*
X0022266Y0207423D01*
X0022150Y0207331D01*
X0022032Y0207242D01*
X0021911Y0207157D01*
X0021788Y0207074D01*
X0021663Y0206995D01*
X0021536Y0206919D01*
X0021407Y0206847D01*
X0021276Y0206778D01*
X0021143Y0206713D01*
X0021008Y0206652D01*
X0020872Y0206594D01*
X0020735Y0206539D01*
X0020596Y0206489D01*
X0020455Y0206442D01*
X0020314Y0206399D01*
X0020171Y0206359D01*
X0020027Y0206324D01*
X0019883Y0206292D01*
X0019737Y0206265D01*
X0019591Y0206241D01*
X0019444Y0206221D01*
X0019297Y0206205D01*
X0019150Y0206193D01*
X0019002Y0206185D01*
X0018854Y0206181D01*
X0018706Y0206181D01*
X0018558Y0206185D01*
X0018410Y0206193D01*
X0018263Y0206205D01*
X0018116Y0206221D01*
X0017969Y0206241D01*
X0017823Y0206265D01*
X0017677Y0206292D01*
X0017533Y0206324D01*
X0017389Y0206359D01*
X0017246Y0206399D01*
X0017105Y0206442D01*
X0016964Y0206489D01*
X0016825Y0206539D01*
X0016688Y0206594D01*
X0016552Y0206652D01*
X0016417Y0206713D01*
X0016284Y0206778D01*
X0016153Y0206847D01*
X0016024Y0206919D01*
X0015897Y0206995D01*
X0015772Y0207074D01*
X0015649Y0207157D01*
X0015528Y0207242D01*
X0015410Y0207331D01*
X0015294Y0207423D01*
X0015181Y0207519D01*
X0015070Y0207617D01*
X0014962Y0207718D01*
X0014856Y0207822D01*
X0014754Y0207928D01*
X0014654Y0208038D01*
X0014558Y0208150D01*
X0014464Y0208265D01*
X0014373Y0208382D01*
X0014286Y0208501D01*
X0014202Y0208623D01*
X0014121Y0208747D01*
X0014044Y0208873D01*
X0013970Y0209001D01*
X0013899Y0209131D01*
X0013832Y0209263D01*
X0013769Y0209397D01*
X0013709Y0209532D01*
X0013653Y0209669D01*
X0013600Y0209808D01*
X0013552Y0209948D01*
X0013507Y0210089D01*
X0013466Y0210231D01*
X0013428Y0210374D01*
X0013395Y0210518D01*
X0013365Y0210663D01*
X0013339Y0210809D01*
X0013318Y0210955D01*
X0013300Y0211102D01*
X0013286Y0211249D01*
X0013276Y0211397D01*
X0013270Y0211545D01*
X0013268Y0211693D01*
X0178228Y0079803D02*
X0178228Y0020748D01*
X0178230Y0020624D01*
X0178236Y0020501D01*
X0178245Y0020377D01*
X0178259Y0020255D01*
X0178276Y0020132D01*
X0178298Y0020010D01*
X0178323Y0019889D01*
X0178352Y0019769D01*
X0178384Y0019650D01*
X0178421Y0019531D01*
X0178461Y0019414D01*
X0178504Y0019299D01*
X0178552Y0019184D01*
X0178603Y0019072D01*
X0178657Y0018961D01*
X0178715Y0018851D01*
X0178776Y0018744D01*
X0178841Y0018638D01*
X0178909Y0018535D01*
X0178980Y0018434D01*
X0179054Y0018335D01*
X0179131Y0018238D01*
X0179212Y0018144D01*
X0179295Y0018053D01*
X0179381Y0017964D01*
X0179470Y0017878D01*
X0179561Y0017795D01*
X0179655Y0017714D01*
X0179752Y0017637D01*
X0179851Y0017563D01*
X0179952Y0017492D01*
X0180055Y0017424D01*
X0180161Y0017359D01*
X0180268Y0017298D01*
X0180378Y0017240D01*
X0180489Y0017186D01*
X0180601Y0017135D01*
X0180716Y0017087D01*
X0180831Y0017044D01*
X0180948Y0017004D01*
X0181067Y0016967D01*
X0181186Y0016935D01*
X0181306Y0016906D01*
X0181427Y0016881D01*
X0181549Y0016859D01*
X0181672Y0016842D01*
X0181794Y0016828D01*
X0181918Y0016819D01*
X0182041Y0016813D01*
X0182165Y0016811D01*
X0182289Y0016813D01*
X0182412Y0016819D01*
X0182536Y0016828D01*
X0182658Y0016842D01*
X0182781Y0016859D01*
X0182903Y0016881D01*
X0183024Y0016906D01*
X0183144Y0016935D01*
X0183263Y0016967D01*
X0183382Y0017004D01*
X0183499Y0017044D01*
X0183614Y0017087D01*
X0183729Y0017135D01*
X0183841Y0017186D01*
X0183952Y0017240D01*
X0184062Y0017298D01*
X0184169Y0017359D01*
X0184275Y0017424D01*
X0184378Y0017492D01*
X0184479Y0017563D01*
X0184578Y0017637D01*
X0184675Y0017714D01*
X0184769Y0017795D01*
X0184860Y0017878D01*
X0184949Y0017964D01*
X0185035Y0018053D01*
X0185118Y0018144D01*
X0185199Y0018238D01*
X0185276Y0018335D01*
X0185350Y0018434D01*
X0185421Y0018535D01*
X0185489Y0018638D01*
X0185554Y0018744D01*
X0185615Y0018851D01*
X0185673Y0018961D01*
X0185727Y0019072D01*
X0185778Y0019184D01*
X0185826Y0019299D01*
X0185869Y0019414D01*
X0185909Y0019531D01*
X0185946Y0019650D01*
X0185978Y0019769D01*
X0186007Y0019889D01*
X0186032Y0020010D01*
X0186054Y0020132D01*
X0186071Y0020255D01*
X0186085Y0020377D01*
X0186094Y0020501D01*
X0186100Y0020624D01*
X0186102Y0020748D01*
X0186102Y0079803D01*
X0186100Y0079927D01*
X0186094Y0080050D01*
X0186085Y0080174D01*
X0186071Y0080296D01*
X0186054Y0080419D01*
X0186032Y0080541D01*
X0186007Y0080662D01*
X0185978Y0080782D01*
X0185946Y0080901D01*
X0185909Y0081020D01*
X0185869Y0081137D01*
X0185826Y0081252D01*
X0185778Y0081367D01*
X0185727Y0081479D01*
X0185673Y0081590D01*
X0185615Y0081700D01*
X0185554Y0081807D01*
X0185489Y0081913D01*
X0185421Y0082016D01*
X0185350Y0082117D01*
X0185276Y0082216D01*
X0185199Y0082313D01*
X0185118Y0082407D01*
X0185035Y0082498D01*
X0184949Y0082587D01*
X0184860Y0082673D01*
X0184769Y0082756D01*
X0184675Y0082837D01*
X0184578Y0082914D01*
X0184479Y0082988D01*
X0184378Y0083059D01*
X0184275Y0083127D01*
X0184169Y0083192D01*
X0184062Y0083253D01*
X0183952Y0083311D01*
X0183841Y0083365D01*
X0183729Y0083416D01*
X0183614Y0083464D01*
X0183499Y0083507D01*
X0183382Y0083547D01*
X0183263Y0083584D01*
X0183144Y0083616D01*
X0183024Y0083645D01*
X0182903Y0083670D01*
X0182781Y0083692D01*
X0182658Y0083709D01*
X0182536Y0083723D01*
X0182412Y0083732D01*
X0182289Y0083738D01*
X0182165Y0083740D01*
X0182041Y0083738D01*
X0181918Y0083732D01*
X0181794Y0083723D01*
X0181672Y0083709D01*
X0181549Y0083692D01*
X0181427Y0083670D01*
X0181306Y0083645D01*
X0181186Y0083616D01*
X0181067Y0083584D01*
X0180948Y0083547D01*
X0180831Y0083507D01*
X0180716Y0083464D01*
X0180601Y0083416D01*
X0180489Y0083365D01*
X0180378Y0083311D01*
X0180268Y0083253D01*
X0180161Y0083192D01*
X0180055Y0083127D01*
X0179952Y0083059D01*
X0179851Y0082988D01*
X0179752Y0082914D01*
X0179655Y0082837D01*
X0179561Y0082756D01*
X0179470Y0082673D01*
X0179381Y0082587D01*
X0179295Y0082498D01*
X0179212Y0082407D01*
X0179131Y0082313D01*
X0179054Y0082216D01*
X0178980Y0082117D01*
X0178909Y0082016D01*
X0178841Y0081913D01*
X0178776Y0081807D01*
X0178715Y0081700D01*
X0178657Y0081590D01*
X0178603Y0081479D01*
X0178552Y0081367D01*
X0178504Y0081252D01*
X0178461Y0081137D01*
X0178421Y0081020D01*
X0178384Y0080901D01*
X0178352Y0080782D01*
X0178323Y0080662D01*
X0178298Y0080541D01*
X0178276Y0080419D01*
X0178259Y0080296D01*
X0178245Y0080174D01*
X0178236Y0080050D01*
X0178230Y0079927D01*
X0178228Y0079803D01*
X0243628Y0077400D02*
X0243630Y0077484D01*
X0243636Y0077567D01*
X0243646Y0077650D01*
X0243660Y0077733D01*
X0243677Y0077815D01*
X0243699Y0077896D01*
X0243724Y0077975D01*
X0243753Y0078054D01*
X0243786Y0078131D01*
X0243822Y0078206D01*
X0243862Y0078280D01*
X0243905Y0078352D01*
X0243952Y0078421D01*
X0244002Y0078488D01*
X0244055Y0078553D01*
X0244111Y0078615D01*
X0244169Y0078675D01*
X0244231Y0078732D01*
X0244295Y0078785D01*
X0244362Y0078836D01*
X0244431Y0078883D01*
X0244502Y0078928D01*
X0244575Y0078968D01*
X0244650Y0079005D01*
X0244727Y0079039D01*
X0244805Y0079069D01*
X0244884Y0079095D01*
X0244965Y0079118D01*
X0245047Y0079136D01*
X0245129Y0079151D01*
X0245212Y0079162D01*
X0245295Y0079169D01*
X0245379Y0079172D01*
X0245463Y0079171D01*
X0245546Y0079166D01*
X0245630Y0079157D01*
X0245712Y0079144D01*
X0245794Y0079128D01*
X0245875Y0079107D01*
X0245956Y0079083D01*
X0246034Y0079055D01*
X0246112Y0079023D01*
X0246188Y0078987D01*
X0246262Y0078948D01*
X0246334Y0078906D01*
X0246404Y0078860D01*
X0246472Y0078811D01*
X0246537Y0078759D01*
X0246600Y0078704D01*
X0246660Y0078646D01*
X0246718Y0078585D01*
X0246772Y0078521D01*
X0246824Y0078455D01*
X0246872Y0078387D01*
X0246917Y0078316D01*
X0246958Y0078243D01*
X0246997Y0078169D01*
X0247031Y0078093D01*
X0247062Y0078015D01*
X0247089Y0077936D01*
X0247113Y0077855D01*
X0247132Y0077774D01*
X0247148Y0077692D01*
X0247160Y0077609D01*
X0247168Y0077525D01*
X0247172Y0077442D01*
X0247172Y0077358D01*
X0247168Y0077275D01*
X0247160Y0077191D01*
X0247148Y0077108D01*
X0247132Y0077026D01*
X0247113Y0076945D01*
X0247089Y0076864D01*
X0247062Y0076785D01*
X0247031Y0076707D01*
X0246997Y0076631D01*
X0246958Y0076557D01*
X0246917Y0076484D01*
X0246872Y0076413D01*
X0246824Y0076345D01*
X0246772Y0076279D01*
X0246718Y0076215D01*
X0246660Y0076154D01*
X0246600Y0076096D01*
X0246537Y0076041D01*
X0246472Y0075989D01*
X0246404Y0075940D01*
X0246334Y0075894D01*
X0246262Y0075852D01*
X0246188Y0075813D01*
X0246112Y0075777D01*
X0246034Y0075745D01*
X0245956Y0075717D01*
X0245875Y0075693D01*
X0245794Y0075672D01*
X0245712Y0075656D01*
X0245630Y0075643D01*
X0245546Y0075634D01*
X0245463Y0075629D01*
X0245379Y0075628D01*
X0245295Y0075631D01*
X0245212Y0075638D01*
X0245129Y0075649D01*
X0245047Y0075664D01*
X0244965Y0075682D01*
X0244884Y0075705D01*
X0244805Y0075731D01*
X0244727Y0075761D01*
X0244650Y0075795D01*
X0244575Y0075832D01*
X0244502Y0075872D01*
X0244431Y0075917D01*
X0244362Y0075964D01*
X0244295Y0076015D01*
X0244231Y0076068D01*
X0244169Y0076125D01*
X0244111Y0076185D01*
X0244055Y0076247D01*
X0244002Y0076312D01*
X0243952Y0076379D01*
X0243905Y0076448D01*
X0243862Y0076520D01*
X0243822Y0076594D01*
X0243786Y0076669D01*
X0243753Y0076746D01*
X0243724Y0076825D01*
X0243699Y0076904D01*
X0243677Y0076985D01*
X0243660Y0077067D01*
X0243646Y0077150D01*
X0243636Y0077233D01*
X0243630Y0077316D01*
X0243628Y0077400D01*
X0241614Y0018780D02*
X0241616Y0018928D01*
X0241622Y0019076D01*
X0241632Y0019224D01*
X0241646Y0019371D01*
X0241664Y0019518D01*
X0241685Y0019664D01*
X0241711Y0019810D01*
X0241741Y0019955D01*
X0241774Y0020099D01*
X0241812Y0020242D01*
X0241853Y0020384D01*
X0241898Y0020525D01*
X0241946Y0020665D01*
X0241999Y0020804D01*
X0242055Y0020941D01*
X0242115Y0021076D01*
X0242178Y0021210D01*
X0242245Y0021342D01*
X0242316Y0021472D01*
X0242390Y0021600D01*
X0242467Y0021726D01*
X0242548Y0021850D01*
X0242632Y0021972D01*
X0242719Y0022091D01*
X0242810Y0022208D01*
X0242904Y0022323D01*
X0243000Y0022435D01*
X0243100Y0022545D01*
X0243202Y0022651D01*
X0243308Y0022755D01*
X0243416Y0022856D01*
X0243527Y0022954D01*
X0243640Y0023050D01*
X0243756Y0023142D01*
X0243874Y0023231D01*
X0243995Y0023316D01*
X0244118Y0023399D01*
X0244243Y0023478D01*
X0244370Y0023554D01*
X0244499Y0023626D01*
X0244630Y0023695D01*
X0244763Y0023760D01*
X0244898Y0023821D01*
X0245034Y0023879D01*
X0245171Y0023934D01*
X0245310Y0023984D01*
X0245451Y0024031D01*
X0245592Y0024074D01*
X0245735Y0024114D01*
X0245879Y0024149D01*
X0246023Y0024181D01*
X0246169Y0024208D01*
X0246315Y0024232D01*
X0246462Y0024252D01*
X0246609Y0024268D01*
X0246756Y0024280D01*
X0246904Y0024288D01*
X0247052Y0024292D01*
X0247200Y0024292D01*
X0247348Y0024288D01*
X0247496Y0024280D01*
X0247643Y0024268D01*
X0247790Y0024252D01*
X0247937Y0024232D01*
X0248083Y0024208D01*
X0248229Y0024181D01*
X0248373Y0024149D01*
X0248517Y0024114D01*
X0248660Y0024074D01*
X0248801Y0024031D01*
X0248942Y0023984D01*
X0249081Y0023934D01*
X0249218Y0023879D01*
X0249354Y0023821D01*
X0249489Y0023760D01*
X0249622Y0023695D01*
X0249753Y0023626D01*
X0249882Y0023554D01*
X0250009Y0023478D01*
X0250134Y0023399D01*
X0250257Y0023316D01*
X0250378Y0023231D01*
X0250496Y0023142D01*
X0250612Y0023050D01*
X0250725Y0022954D01*
X0250836Y0022856D01*
X0250944Y0022755D01*
X0251050Y0022651D01*
X0251152Y0022545D01*
X0251252Y0022435D01*
X0251348Y0022323D01*
X0251442Y0022208D01*
X0251533Y0022091D01*
X0251620Y0021972D01*
X0251704Y0021850D01*
X0251785Y0021726D01*
X0251862Y0021600D01*
X0251936Y0021472D01*
X0252007Y0021342D01*
X0252074Y0021210D01*
X0252137Y0021076D01*
X0252197Y0020941D01*
X0252253Y0020804D01*
X0252306Y0020665D01*
X0252354Y0020525D01*
X0252399Y0020384D01*
X0252440Y0020242D01*
X0252478Y0020099D01*
X0252511Y0019955D01*
X0252541Y0019810D01*
X0252567Y0019664D01*
X0252588Y0019518D01*
X0252606Y0019371D01*
X0252620Y0019224D01*
X0252630Y0019076D01*
X0252636Y0018928D01*
X0252638Y0018780D01*
X0252636Y0018632D01*
X0252630Y0018484D01*
X0252620Y0018336D01*
X0252606Y0018189D01*
X0252588Y0018042D01*
X0252567Y0017896D01*
X0252541Y0017750D01*
X0252511Y0017605D01*
X0252478Y0017461D01*
X0252440Y0017318D01*
X0252399Y0017176D01*
X0252354Y0017035D01*
X0252306Y0016895D01*
X0252253Y0016756D01*
X0252197Y0016619D01*
X0252137Y0016484D01*
X0252074Y0016350D01*
X0252007Y0016218D01*
X0251936Y0016088D01*
X0251862Y0015960D01*
X0251785Y0015834D01*
X0251704Y0015710D01*
X0251620Y0015588D01*
X0251533Y0015469D01*
X0251442Y0015352D01*
X0251348Y0015237D01*
X0251252Y0015125D01*
X0251152Y0015015D01*
X0251050Y0014909D01*
X0250944Y0014805D01*
X0250836Y0014704D01*
X0250725Y0014606D01*
X0250612Y0014510D01*
X0250496Y0014418D01*
X0250378Y0014329D01*
X0250257Y0014244D01*
X0250134Y0014161D01*
X0250009Y0014082D01*
X0249882Y0014006D01*
X0249753Y0013934D01*
X0249622Y0013865D01*
X0249489Y0013800D01*
X0249354Y0013739D01*
X0249218Y0013681D01*
X0249081Y0013626D01*
X0248942Y0013576D01*
X0248801Y0013529D01*
X0248660Y0013486D01*
X0248517Y0013446D01*
X0248373Y0013411D01*
X0248229Y0013379D01*
X0248083Y0013352D01*
X0247937Y0013328D01*
X0247790Y0013308D01*
X0247643Y0013292D01*
X0247496Y0013280D01*
X0247348Y0013272D01*
X0247200Y0013268D01*
X0247052Y0013268D01*
X0246904Y0013272D01*
X0246756Y0013280D01*
X0246609Y0013292D01*
X0246462Y0013308D01*
X0246315Y0013328D01*
X0246169Y0013352D01*
X0246023Y0013379D01*
X0245879Y0013411D01*
X0245735Y0013446D01*
X0245592Y0013486D01*
X0245451Y0013529D01*
X0245310Y0013576D01*
X0245171Y0013626D01*
X0245034Y0013681D01*
X0244898Y0013739D01*
X0244763Y0013800D01*
X0244630Y0013865D01*
X0244499Y0013934D01*
X0244370Y0014006D01*
X0244243Y0014082D01*
X0244118Y0014161D01*
X0243995Y0014244D01*
X0243874Y0014329D01*
X0243756Y0014418D01*
X0243640Y0014510D01*
X0243527Y0014606D01*
X0243416Y0014704D01*
X0243308Y0014805D01*
X0243202Y0014909D01*
X0243100Y0015015D01*
X0243000Y0015125D01*
X0242904Y0015237D01*
X0242810Y0015352D01*
X0242719Y0015469D01*
X0242632Y0015588D01*
X0242548Y0015710D01*
X0242467Y0015834D01*
X0242390Y0015960D01*
X0242316Y0016088D01*
X0242245Y0016218D01*
X0242178Y0016350D01*
X0242115Y0016484D01*
X0242055Y0016619D01*
X0241999Y0016756D01*
X0241946Y0016895D01*
X0241898Y0017035D01*
X0241853Y0017176D01*
X0241812Y0017318D01*
X0241774Y0017461D01*
X0241741Y0017605D01*
X0241711Y0017750D01*
X0241685Y0017896D01*
X0241664Y0018042D01*
X0241646Y0018189D01*
X0241632Y0018336D01*
X0241622Y0018484D01*
X0241616Y0018632D01*
X0241614Y0018780D01*
X0241614Y0211693D02*
X0241616Y0211841D01*
X0241622Y0211989D01*
X0241632Y0212137D01*
X0241646Y0212284D01*
X0241664Y0212431D01*
X0241685Y0212577D01*
X0241711Y0212723D01*
X0241741Y0212868D01*
X0241774Y0213012D01*
X0241812Y0213155D01*
X0241853Y0213297D01*
X0241898Y0213438D01*
X0241946Y0213578D01*
X0241999Y0213717D01*
X0242055Y0213854D01*
X0242115Y0213989D01*
X0242178Y0214123D01*
X0242245Y0214255D01*
X0242316Y0214385D01*
X0242390Y0214513D01*
X0242467Y0214639D01*
X0242548Y0214763D01*
X0242632Y0214885D01*
X0242719Y0215004D01*
X0242810Y0215121D01*
X0242904Y0215236D01*
X0243000Y0215348D01*
X0243100Y0215458D01*
X0243202Y0215564D01*
X0243308Y0215668D01*
X0243416Y0215769D01*
X0243527Y0215867D01*
X0243640Y0215963D01*
X0243756Y0216055D01*
X0243874Y0216144D01*
X0243995Y0216229D01*
X0244118Y0216312D01*
X0244243Y0216391D01*
X0244370Y0216467D01*
X0244499Y0216539D01*
X0244630Y0216608D01*
X0244763Y0216673D01*
X0244898Y0216734D01*
X0245034Y0216792D01*
X0245171Y0216847D01*
X0245310Y0216897D01*
X0245451Y0216944D01*
X0245592Y0216987D01*
X0245735Y0217027D01*
X0245879Y0217062D01*
X0246023Y0217094D01*
X0246169Y0217121D01*
X0246315Y0217145D01*
X0246462Y0217165D01*
X0246609Y0217181D01*
X0246756Y0217193D01*
X0246904Y0217201D01*
X0247052Y0217205D01*
X0247200Y0217205D01*
X0247348Y0217201D01*
X0247496Y0217193D01*
X0247643Y0217181D01*
X0247790Y0217165D01*
X0247937Y0217145D01*
X0248083Y0217121D01*
X0248229Y0217094D01*
X0248373Y0217062D01*
X0248517Y0217027D01*
X0248660Y0216987D01*
X0248801Y0216944D01*
X0248942Y0216897D01*
X0249081Y0216847D01*
X0249218Y0216792D01*
X0249354Y0216734D01*
X0249489Y0216673D01*
X0249622Y0216608D01*
X0249753Y0216539D01*
X0249882Y0216467D01*
X0250009Y0216391D01*
X0250134Y0216312D01*
X0250257Y0216229D01*
X0250378Y0216144D01*
X0250496Y0216055D01*
X0250612Y0215963D01*
X0250725Y0215867D01*
X0250836Y0215769D01*
X0250944Y0215668D01*
X0251050Y0215564D01*
X0251152Y0215458D01*
X0251252Y0215348D01*
X0251348Y0215236D01*
X0251442Y0215121D01*
X0251533Y0215004D01*
X0251620Y0214885D01*
X0251704Y0214763D01*
X0251785Y0214639D01*
X0251862Y0214513D01*
X0251936Y0214385D01*
X0252007Y0214255D01*
X0252074Y0214123D01*
X0252137Y0213989D01*
X0252197Y0213854D01*
X0252253Y0213717D01*
X0252306Y0213578D01*
X0252354Y0213438D01*
X0252399Y0213297D01*
X0252440Y0213155D01*
X0252478Y0213012D01*
X0252511Y0212868D01*
X0252541Y0212723D01*
X0252567Y0212577D01*
X0252588Y0212431D01*
X0252606Y0212284D01*
X0252620Y0212137D01*
X0252630Y0211989D01*
X0252636Y0211841D01*
X0252638Y0211693D01*
X0252636Y0211545D01*
X0252630Y0211397D01*
X0252620Y0211249D01*
X0252606Y0211102D01*
X0252588Y0210955D01*
X0252567Y0210809D01*
X0252541Y0210663D01*
X0252511Y0210518D01*
X0252478Y0210374D01*
X0252440Y0210231D01*
X0252399Y0210089D01*
X0252354Y0209948D01*
X0252306Y0209808D01*
X0252253Y0209669D01*
X0252197Y0209532D01*
X0252137Y0209397D01*
X0252074Y0209263D01*
X0252007Y0209131D01*
X0251936Y0209001D01*
X0251862Y0208873D01*
X0251785Y0208747D01*
X0251704Y0208623D01*
X0251620Y0208501D01*
X0251533Y0208382D01*
X0251442Y0208265D01*
X0251348Y0208150D01*
X0251252Y0208038D01*
X0251152Y0207928D01*
X0251050Y0207822D01*
X0250944Y0207718D01*
X0250836Y0207617D01*
X0250725Y0207519D01*
X0250612Y0207423D01*
X0250496Y0207331D01*
X0250378Y0207242D01*
X0250257Y0207157D01*
X0250134Y0207074D01*
X0250009Y0206995D01*
X0249882Y0206919D01*
X0249753Y0206847D01*
X0249622Y0206778D01*
X0249489Y0206713D01*
X0249354Y0206652D01*
X0249218Y0206594D01*
X0249081Y0206539D01*
X0248942Y0206489D01*
X0248801Y0206442D01*
X0248660Y0206399D01*
X0248517Y0206359D01*
X0248373Y0206324D01*
X0248229Y0206292D01*
X0248083Y0206265D01*
X0247937Y0206241D01*
X0247790Y0206221D01*
X0247643Y0206205D01*
X0247496Y0206193D01*
X0247348Y0206185D01*
X0247200Y0206181D01*
X0247052Y0206181D01*
X0246904Y0206185D01*
X0246756Y0206193D01*
X0246609Y0206205D01*
X0246462Y0206221D01*
X0246315Y0206241D01*
X0246169Y0206265D01*
X0246023Y0206292D01*
X0245879Y0206324D01*
X0245735Y0206359D01*
X0245592Y0206399D01*
X0245451Y0206442D01*
X0245310Y0206489D01*
X0245171Y0206539D01*
X0245034Y0206594D01*
X0244898Y0206652D01*
X0244763Y0206713D01*
X0244630Y0206778D01*
X0244499Y0206847D01*
X0244370Y0206919D01*
X0244243Y0206995D01*
X0244118Y0207074D01*
X0243995Y0207157D01*
X0243874Y0207242D01*
X0243756Y0207331D01*
X0243640Y0207423D01*
X0243527Y0207519D01*
X0243416Y0207617D01*
X0243308Y0207718D01*
X0243202Y0207822D01*
X0243100Y0207928D01*
X0243000Y0208038D01*
X0242904Y0208150D01*
X0242810Y0208265D01*
X0242719Y0208382D01*
X0242632Y0208501D01*
X0242548Y0208623D01*
X0242467Y0208747D01*
X0242390Y0208873D01*
X0242316Y0209001D01*
X0242245Y0209131D01*
X0242178Y0209263D01*
X0242115Y0209397D01*
X0242055Y0209532D01*
X0241999Y0209669D01*
X0241946Y0209808D01*
X0241898Y0209948D01*
X0241853Y0210089D01*
X0241812Y0210231D01*
X0241774Y0210374D01*
X0241741Y0210518D01*
X0241711Y0210663D01*
X0241685Y0210809D01*
X0241664Y0210955D01*
X0241646Y0211102D01*
X0241632Y0211249D01*
X0241622Y0211397D01*
X0241616Y0211545D01*
X0241614Y0211693D01*
D11*
X0081000Y0043000D02*
X0049500Y0043000D01*
X0046500Y0040000D02*
X0046502Y0039893D01*
X0046508Y0039786D01*
X0046517Y0039679D01*
X0046531Y0039573D01*
X0046548Y0039467D01*
X0046569Y0039362D01*
X0046593Y0039258D01*
X0046622Y0039155D01*
X0046654Y0039053D01*
X0046689Y0038952D01*
X0046728Y0038852D01*
X0046771Y0038754D01*
X0046817Y0038657D01*
X0046867Y0038562D01*
X0046920Y0038469D01*
X0046976Y0038378D01*
X0047036Y0038289D01*
X0047098Y0038202D01*
X0047164Y0038118D01*
X0047233Y0038035D01*
X0047304Y0037956D01*
X0047379Y0037879D01*
X0047456Y0037804D01*
X0047535Y0037733D01*
X0047618Y0037664D01*
X0047702Y0037598D01*
X0047789Y0037536D01*
X0047878Y0037476D01*
X0047969Y0037420D01*
X0048062Y0037367D01*
X0048157Y0037317D01*
X0048254Y0037271D01*
X0048352Y0037228D01*
X0048452Y0037189D01*
X0048553Y0037154D01*
X0048655Y0037122D01*
X0048758Y0037093D01*
X0048862Y0037069D01*
X0048967Y0037048D01*
X0049073Y0037031D01*
X0049179Y0037017D01*
X0049286Y0037008D01*
X0049393Y0037002D01*
X0049500Y0037000D01*
X0078000Y0037000D01*
X0078000Y0017000D01*
X0078002Y0016893D01*
X0078008Y0016786D01*
X0078017Y0016679D01*
X0078031Y0016573D01*
X0078048Y0016467D01*
X0078069Y0016362D01*
X0078093Y0016258D01*
X0078122Y0016155D01*
X0078154Y0016053D01*
X0078189Y0015952D01*
X0078228Y0015852D01*
X0078271Y0015754D01*
X0078317Y0015657D01*
X0078367Y0015562D01*
X0078420Y0015469D01*
X0078476Y0015378D01*
X0078536Y0015289D01*
X0078598Y0015202D01*
X0078664Y0015118D01*
X0078733Y0015035D01*
X0078804Y0014956D01*
X0078879Y0014879D01*
X0078956Y0014804D01*
X0079035Y0014733D01*
X0079118Y0014664D01*
X0079202Y0014598D01*
X0079289Y0014536D01*
X0079378Y0014476D01*
X0079469Y0014420D01*
X0079562Y0014367D01*
X0079657Y0014317D01*
X0079754Y0014271D01*
X0079852Y0014228D01*
X0079952Y0014189D01*
X0080053Y0014154D01*
X0080155Y0014122D01*
X0080258Y0014093D01*
X0080362Y0014069D01*
X0080467Y0014048D01*
X0080573Y0014031D01*
X0080679Y0014017D01*
X0080786Y0014008D01*
X0080893Y0014002D01*
X0081000Y0014000D01*
X0081107Y0014002D01*
X0081214Y0014008D01*
X0081321Y0014017D01*
X0081427Y0014031D01*
X0081533Y0014048D01*
X0081638Y0014069D01*
X0081742Y0014093D01*
X0081845Y0014122D01*
X0081947Y0014154D01*
X0082048Y0014189D01*
X0082148Y0014228D01*
X0082246Y0014271D01*
X0082343Y0014317D01*
X0082438Y0014367D01*
X0082531Y0014420D01*
X0082622Y0014476D01*
X0082711Y0014536D01*
X0082798Y0014598D01*
X0082882Y0014664D01*
X0082965Y0014733D01*
X0083044Y0014804D01*
X0083121Y0014879D01*
X0083196Y0014956D01*
X0083267Y0015035D01*
X0083336Y0015118D01*
X0083402Y0015202D01*
X0083464Y0015289D01*
X0083524Y0015378D01*
X0083580Y0015469D01*
X0083633Y0015562D01*
X0083683Y0015657D01*
X0083729Y0015754D01*
X0083772Y0015852D01*
X0083811Y0015952D01*
X0083846Y0016053D01*
X0083878Y0016155D01*
X0083907Y0016258D01*
X0083931Y0016362D01*
X0083952Y0016467D01*
X0083969Y0016573D01*
X0083983Y0016679D01*
X0083992Y0016786D01*
X0083998Y0016893D01*
X0084000Y0017000D01*
X0084000Y0040000D01*
X0083998Y0040107D01*
X0083992Y0040214D01*
X0083983Y0040321D01*
X0083969Y0040427D01*
X0083952Y0040533D01*
X0083931Y0040638D01*
X0083907Y0040742D01*
X0083878Y0040845D01*
X0083846Y0040947D01*
X0083811Y0041048D01*
X0083772Y0041148D01*
X0083729Y0041246D01*
X0083683Y0041343D01*
X0083633Y0041438D01*
X0083580Y0041531D01*
X0083524Y0041622D01*
X0083464Y0041711D01*
X0083402Y0041798D01*
X0083336Y0041882D01*
X0083267Y0041965D01*
X0083196Y0042044D01*
X0083121Y0042121D01*
X0083044Y0042196D01*
X0082965Y0042267D01*
X0082882Y0042336D01*
X0082798Y0042402D01*
X0082711Y0042464D01*
X0082622Y0042524D01*
X0082531Y0042580D01*
X0082438Y0042633D01*
X0082343Y0042683D01*
X0082246Y0042729D01*
X0082148Y0042772D01*
X0082048Y0042811D01*
X0081947Y0042846D01*
X0081845Y0042878D01*
X0081742Y0042907D01*
X0081638Y0042931D01*
X0081533Y0042952D01*
X0081427Y0042969D01*
X0081321Y0042983D01*
X0081214Y0042992D01*
X0081107Y0042998D01*
X0081000Y0043000D01*
X0081107Y0042998D01*
X0081214Y0042992D01*
X0081321Y0042983D01*
X0081427Y0042969D01*
X0081533Y0042952D01*
X0081638Y0042931D01*
X0081742Y0042907D01*
X0081845Y0042878D01*
X0081947Y0042846D01*
X0082048Y0042811D01*
X0082148Y0042772D01*
X0082246Y0042729D01*
X0082343Y0042683D01*
X0082438Y0042633D01*
X0082531Y0042580D01*
X0082622Y0042524D01*
X0082711Y0042464D01*
X0082798Y0042402D01*
X0082882Y0042336D01*
X0082965Y0042267D01*
X0083044Y0042196D01*
X0083121Y0042121D01*
X0083196Y0042044D01*
X0083267Y0041965D01*
X0083336Y0041882D01*
X0083402Y0041798D01*
X0083464Y0041711D01*
X0083524Y0041622D01*
X0083580Y0041531D01*
X0083633Y0041438D01*
X0083683Y0041343D01*
X0083729Y0041246D01*
X0083772Y0041148D01*
X0083811Y0041048D01*
X0083846Y0040947D01*
X0083878Y0040845D01*
X0083907Y0040742D01*
X0083931Y0040638D01*
X0083952Y0040533D01*
X0083969Y0040427D01*
X0083983Y0040321D01*
X0083992Y0040214D01*
X0083998Y0040107D01*
X0084000Y0040000D01*
X0049500Y0043000D02*
X0049393Y0042998D01*
X0049286Y0042992D01*
X0049179Y0042983D01*
X0049073Y0042969D01*
X0048967Y0042952D01*
X0048862Y0042931D01*
X0048758Y0042907D01*
X0048655Y0042878D01*
X0048553Y0042846D01*
X0048452Y0042811D01*
X0048352Y0042772D01*
X0048254Y0042729D01*
X0048157Y0042683D01*
X0048062Y0042633D01*
X0047969Y0042580D01*
X0047878Y0042524D01*
X0047789Y0042464D01*
X0047702Y0042402D01*
X0047618Y0042336D01*
X0047535Y0042267D01*
X0047456Y0042196D01*
X0047379Y0042121D01*
X0047304Y0042044D01*
X0047233Y0041965D01*
X0047164Y0041882D01*
X0047098Y0041798D01*
X0047036Y0041711D01*
X0046976Y0041622D01*
X0046920Y0041531D01*
X0046867Y0041438D01*
X0046817Y0041343D01*
X0046771Y0041246D01*
X0046728Y0041148D01*
X0046689Y0041048D01*
X0046654Y0040947D01*
X0046622Y0040845D01*
X0046593Y0040742D01*
X0046569Y0040638D01*
X0046548Y0040533D01*
X0046531Y0040427D01*
X0046517Y0040321D01*
X0046508Y0040214D01*
X0046502Y0040107D01*
X0046500Y0040000D01*
D12*
X0039348Y0028038D02*
X0039348Y0026103D01*
X0042250Y0026103D01*
X0042250Y0025092D02*
X0040315Y0025092D01*
X0040799Y0026103D02*
X0040799Y0027071D01*
X0042250Y0025092D02*
X0042250Y0023641D01*
X0041766Y0023157D01*
X0040315Y0023157D01*
X0042250Y0022145D02*
X0042250Y0020210D01*
X0042250Y0021178D02*
X0039348Y0021178D01*
X0040315Y0020210D01*
X0041766Y0019221D02*
X0042250Y0019221D01*
X0042250Y0018737D01*
X0041766Y0018737D01*
X0041766Y0019221D01*
X0041766Y0017726D02*
X0042250Y0017242D01*
X0042250Y0016274D01*
X0041766Y0015791D01*
X0039831Y0017726D01*
X0041766Y0017726D01*
X0039831Y0017726D02*
X0039348Y0017242D01*
X0039348Y0016274D01*
X0039831Y0015791D01*
X0041766Y0015791D01*
X0049995Y0013062D02*
X0049995Y0012578D01*
X0050478Y0012094D01*
X0051446Y0012094D01*
X0051930Y0011610D01*
X0051930Y0011127D01*
X0051446Y0010643D01*
X0050478Y0010643D01*
X0049995Y0011127D01*
X0049995Y0013062D02*
X0050478Y0013545D01*
X0051446Y0013545D01*
X0051930Y0013062D01*
X0052941Y0013545D02*
X0052941Y0010643D01*
X0052941Y0012094D02*
X0054876Y0012094D01*
X0054876Y0013545D02*
X0054876Y0010643D01*
X0056855Y0010643D02*
X0056855Y0013545D01*
X0055888Y0013545D02*
X0057823Y0013545D01*
X0058834Y0013062D02*
X0059318Y0013545D01*
X0060285Y0013545D01*
X0060769Y0013062D01*
X0060769Y0012578D01*
X0060285Y0012094D01*
X0060769Y0011610D01*
X0060769Y0011127D01*
X0060285Y0010643D01*
X0059318Y0010643D01*
X0058834Y0011127D01*
X0059802Y0012094D02*
X0060285Y0012094D01*
X0061781Y0012578D02*
X0062748Y0013545D01*
X0062748Y0010643D01*
X0061781Y0010643D02*
X0063716Y0010643D01*
X0064727Y0010643D02*
X0066662Y0013545D01*
X0067674Y0013062D02*
X0068157Y0013545D01*
X0069125Y0013545D01*
X0069609Y0013062D01*
X0069609Y0012578D01*
X0069125Y0012094D01*
X0069609Y0011610D01*
X0069609Y0011127D01*
X0069125Y0010643D01*
X0068157Y0010643D01*
X0067674Y0011127D01*
X0068641Y0012094D02*
X0069125Y0012094D01*
X0070620Y0012094D02*
X0071588Y0012578D01*
X0072071Y0012578D01*
X0072555Y0012094D01*
X0072555Y0011127D01*
X0072071Y0010643D01*
X0071104Y0010643D01*
X0070620Y0011127D01*
X0070620Y0012094D02*
X0070620Y0013545D01*
X0072555Y0013545D01*
X0100337Y0013531D02*
X0102272Y0013531D01*
X0101305Y0013531D02*
X0101305Y0010629D01*
X0103284Y0011112D02*
X0103767Y0010629D01*
X0104735Y0010629D01*
X0105219Y0011112D01*
X0105219Y0011596D01*
X0104735Y0012080D01*
X0103767Y0012080D01*
X0103284Y0012564D01*
X0103284Y0013047D01*
X0103767Y0013531D01*
X0104735Y0013531D01*
X0105219Y0013047D01*
X0106230Y0013531D02*
X0106230Y0010629D01*
X0108165Y0010629D01*
X0109177Y0010629D02*
X0111112Y0012564D01*
X0111112Y0013047D01*
X0110628Y0013531D01*
X0109660Y0013531D01*
X0109177Y0013047D01*
X0109177Y0010629D02*
X0111112Y0010629D01*
X0112123Y0011112D02*
X0112607Y0010629D01*
X0113574Y0010629D01*
X0114058Y0011112D01*
X0114058Y0012080D01*
X0113574Y0012564D01*
X0113091Y0012564D01*
X0112123Y0012080D01*
X0112123Y0013531D01*
X0114058Y0013531D01*
X0115070Y0012080D02*
X0116521Y0012080D01*
X0117005Y0011596D01*
X0117005Y0011112D01*
X0116521Y0010629D01*
X0115554Y0010629D01*
X0115070Y0011112D01*
X0115070Y0012080D01*
X0116037Y0013047D01*
X0117005Y0013531D01*
X0118016Y0012564D02*
X0118984Y0013531D01*
X0118984Y0010629D01*
X0119951Y0010629D02*
X0118016Y0010629D01*
X0130331Y0024950D02*
X0129848Y0025434D01*
X0129848Y0026401D01*
X0130331Y0026885D01*
X0132266Y0024950D01*
X0132750Y0025434D01*
X0132750Y0026401D01*
X0132266Y0026885D01*
X0130331Y0026885D01*
X0130331Y0024950D02*
X0132266Y0024950D01*
X0132266Y0027897D02*
X0132266Y0028380D01*
X0132750Y0028380D01*
X0132750Y0027897D01*
X0132266Y0027897D01*
X0132750Y0029370D02*
X0132750Y0031305D01*
X0132750Y0030337D02*
X0129848Y0030337D01*
X0130815Y0029370D01*
X0130815Y0032316D02*
X0132266Y0032316D01*
X0132750Y0032800D01*
X0132750Y0034251D01*
X0130815Y0034251D01*
X0131299Y0035263D02*
X0131299Y0036230D01*
X0132750Y0035263D02*
X0129848Y0035263D01*
X0129848Y0037198D01*
X0118298Y0042252D02*
X0116363Y0042252D01*
X0116363Y0039350D01*
X0115351Y0039350D02*
X0115351Y0041285D01*
X0116363Y0040801D02*
X0117330Y0040801D01*
X0115351Y0039350D02*
X0113900Y0039350D01*
X0113416Y0039834D01*
X0113416Y0041285D01*
X0112405Y0039350D02*
X0110470Y0039350D01*
X0111437Y0039350D02*
X0111437Y0042252D01*
X0110470Y0041285D01*
X0109480Y0039834D02*
X0109480Y0039350D01*
X0108997Y0039350D01*
X0108997Y0039834D01*
X0109480Y0039834D01*
X0107985Y0039834D02*
X0107985Y0041769D01*
X0106050Y0039834D01*
X0106534Y0039350D01*
X0107501Y0039350D01*
X0107985Y0039834D01*
X0107985Y0041769D02*
X0107501Y0042252D01*
X0106534Y0042252D01*
X0106050Y0041769D01*
X0106050Y0039834D01*
X0143395Y0013555D02*
X0143395Y0010652D01*
X0144847Y0010652D01*
X0145330Y0011136D01*
X0145330Y0011620D01*
X0144847Y0012104D01*
X0143395Y0012104D01*
X0143395Y0013555D02*
X0144847Y0013555D01*
X0145330Y0013071D01*
X0145330Y0012587D01*
X0144847Y0012104D01*
X0146342Y0013555D02*
X0146342Y0010652D01*
X0148277Y0010652D02*
X0148277Y0013555D01*
X0147309Y0012587D01*
X0146342Y0013555D01*
X0149288Y0013555D02*
X0149288Y0010652D01*
X0149288Y0011620D02*
X0150740Y0011620D01*
X0151223Y0012104D01*
X0151223Y0013071D01*
X0150740Y0013555D01*
X0149288Y0013555D01*
X0152235Y0013071D02*
X0152719Y0013555D01*
X0153686Y0013555D01*
X0154170Y0013071D01*
X0154170Y0012587D01*
X0152235Y0010652D01*
X0154170Y0010652D01*
X0155181Y0011136D02*
X0155181Y0011620D01*
X0155665Y0012104D01*
X0156633Y0012104D01*
X0157116Y0011620D01*
X0157116Y0011136D01*
X0156633Y0010652D01*
X0155665Y0010652D01*
X0155181Y0011136D01*
X0155665Y0012104D02*
X0155181Y0012587D01*
X0155181Y0013071D01*
X0155665Y0013555D01*
X0156633Y0013555D01*
X0157116Y0013071D01*
X0157116Y0012587D01*
X0156633Y0012104D01*
X0158128Y0013071D02*
X0158612Y0013555D01*
X0159579Y0013555D01*
X0160063Y0013071D01*
X0158128Y0011136D01*
X0158612Y0010652D01*
X0159579Y0010652D01*
X0160063Y0011136D01*
X0160063Y0013071D01*
X0158128Y0013071D02*
X0158128Y0011136D01*
X0157063Y0039450D02*
X0157063Y0042352D01*
X0158998Y0042352D01*
X0158030Y0040901D02*
X0157063Y0040901D01*
X0156051Y0041385D02*
X0156051Y0039450D01*
X0154600Y0039450D01*
X0154116Y0039934D01*
X0154116Y0041385D01*
X0153105Y0039450D02*
X0151170Y0039450D01*
X0152137Y0039450D02*
X0152137Y0042352D01*
X0151170Y0041385D01*
X0150180Y0039934D02*
X0150180Y0039450D01*
X0149697Y0039450D01*
X0149697Y0039934D01*
X0150180Y0039934D01*
X0148685Y0039934D02*
X0148201Y0039450D01*
X0147234Y0039450D01*
X0146750Y0039934D01*
X0148685Y0041869D01*
X0148685Y0039934D01*
X0148685Y0041869D02*
X0148201Y0042352D01*
X0147234Y0042352D01*
X0146750Y0041869D01*
X0146750Y0039934D01*
X0193998Y0045805D02*
X0194481Y0045321D01*
X0196416Y0045321D01*
X0196900Y0045805D01*
X0196900Y0046772D01*
X0196416Y0047256D01*
X0194481Y0047256D01*
X0193998Y0046772D01*
X0193998Y0045805D01*
X0193998Y0048267D02*
X0193998Y0049719D01*
X0194481Y0050202D01*
X0195449Y0050202D01*
X0195933Y0049719D01*
X0195933Y0048267D01*
X0196900Y0048267D02*
X0193998Y0048267D01*
X0194965Y0051214D02*
X0193998Y0052181D01*
X0194965Y0053149D01*
X0196900Y0053149D01*
X0196416Y0054160D02*
X0196900Y0054644D01*
X0196900Y0055612D01*
X0196416Y0056095D01*
X0195933Y0056095D01*
X0195449Y0055612D01*
X0195449Y0055128D01*
X0195449Y0055612D02*
X0194965Y0056095D01*
X0194481Y0056095D01*
X0193998Y0055612D01*
X0193998Y0054644D01*
X0194481Y0054160D01*
X0195449Y0053149D02*
X0195449Y0051214D01*
X0194965Y0051214D02*
X0196900Y0051214D01*
X0195449Y0057107D02*
X0195449Y0059042D01*
X0195449Y0060053D02*
X0195449Y0061988D01*
X0196900Y0061505D02*
X0193998Y0061505D01*
X0195449Y0060053D01*
X0196900Y0058558D02*
X0193998Y0058558D01*
X0195449Y0057107D01*
X0213650Y0042385D02*
X0214617Y0043352D01*
X0214617Y0040450D01*
X0213650Y0040450D02*
X0215585Y0040450D01*
X0216597Y0040934D02*
X0218531Y0042869D01*
X0218531Y0040934D01*
X0218048Y0040450D01*
X0217080Y0040450D01*
X0216597Y0040934D01*
X0216597Y0042869D01*
X0217080Y0043352D01*
X0218048Y0043352D01*
X0218531Y0042869D01*
X0219543Y0043352D02*
X0219543Y0040450D01*
X0219543Y0041417D02*
X0221478Y0043352D01*
X0220027Y0041901D02*
X0221478Y0040450D01*
X0221378Y0032852D02*
X0219443Y0032852D01*
X0219443Y0029950D01*
X0218431Y0029950D02*
X0218431Y0031885D01*
X0219443Y0031401D02*
X0220411Y0031401D01*
X0218431Y0029950D02*
X0216980Y0029950D01*
X0216497Y0030434D01*
X0216497Y0031885D01*
X0215485Y0029950D02*
X0213550Y0029950D01*
X0214517Y0029950D02*
X0214517Y0032852D01*
X0213550Y0031885D01*
X0214078Y0022052D02*
X0214078Y0019150D01*
X0215045Y0019150D02*
X0213110Y0019150D01*
X0213110Y0021085D02*
X0214078Y0022052D01*
X0216057Y0021569D02*
X0216057Y0019634D01*
X0217992Y0021569D01*
X0217992Y0019634D01*
X0217508Y0019150D01*
X0216541Y0019150D01*
X0216057Y0019634D01*
X0216057Y0021569D02*
X0216541Y0022052D01*
X0217508Y0022052D01*
X0217992Y0021569D01*
X0219003Y0022052D02*
X0219003Y0019150D01*
X0219003Y0020117D02*
X0220938Y0022052D01*
X0219487Y0020601D02*
X0220938Y0019150D01*
X0231050Y0035750D02*
X0232985Y0035750D01*
X0232017Y0035750D02*
X0232017Y0038652D01*
X0231050Y0037685D01*
X0233997Y0036234D02*
X0234480Y0036234D01*
X0234480Y0035750D01*
X0233997Y0035750D01*
X0233997Y0036234D01*
X0235470Y0036234D02*
X0235954Y0035750D01*
X0236921Y0035750D01*
X0237405Y0036234D01*
X0237405Y0037201D01*
X0236921Y0037685D01*
X0236437Y0037685D01*
X0235470Y0037201D01*
X0235470Y0038652D01*
X0237405Y0038652D01*
X0238416Y0038652D02*
X0238416Y0035750D01*
X0238416Y0036717D02*
X0240351Y0038652D01*
X0238900Y0037201D02*
X0240351Y0035750D01*
X0245350Y0036250D02*
X0247285Y0036250D01*
X0246317Y0036250D02*
X0246317Y0039152D01*
X0245350Y0038185D01*
X0248297Y0038669D02*
X0248297Y0036734D01*
X0250231Y0038669D01*
X0250231Y0036734D01*
X0249748Y0036250D01*
X0248780Y0036250D01*
X0248297Y0036734D01*
X0248297Y0038669D02*
X0248780Y0039152D01*
X0249748Y0039152D01*
X0250231Y0038669D01*
X0251243Y0038669D02*
X0251727Y0039152D01*
X0252694Y0039152D01*
X0253178Y0038669D01*
X0251243Y0036734D01*
X0251727Y0036250D01*
X0252694Y0036250D01*
X0253178Y0036734D01*
X0253178Y0038669D01*
X0254190Y0038185D02*
X0254190Y0035283D01*
X0254190Y0036250D02*
X0255641Y0036250D01*
X0256125Y0036734D01*
X0256125Y0037701D01*
X0255641Y0038185D01*
X0254190Y0038185D01*
X0257136Y0037701D02*
X0258104Y0037701D01*
X0259071Y0039152D02*
X0257136Y0039152D01*
X0257136Y0036250D01*
X0251243Y0036734D02*
X0251243Y0038669D01*
X0251641Y0058550D02*
X0251157Y0059034D01*
X0253092Y0060969D01*
X0253092Y0059034D01*
X0252608Y0058550D01*
X0251641Y0058550D01*
X0251157Y0059034D02*
X0251157Y0060969D01*
X0251641Y0061452D01*
X0252608Y0061452D01*
X0253092Y0060969D01*
X0254103Y0061452D02*
X0254103Y0058550D01*
X0254103Y0059517D02*
X0256038Y0061452D01*
X0254587Y0060001D02*
X0256038Y0058550D01*
X0250145Y0059034D02*
X0249662Y0058550D01*
X0248694Y0058550D01*
X0248210Y0059034D01*
X0250145Y0060969D01*
X0250145Y0059034D01*
X0248210Y0059034D02*
X0248210Y0060969D01*
X0248694Y0061452D01*
X0249662Y0061452D01*
X0250145Y0060969D01*
X0247199Y0058550D02*
X0245264Y0058550D01*
X0246231Y0058550D02*
X0246231Y0061452D01*
X0245264Y0060485D01*
X0243398Y0061552D02*
X0241463Y0061552D01*
X0241463Y0058650D01*
X0240451Y0058650D02*
X0240451Y0060585D01*
X0241463Y0060101D02*
X0242430Y0060101D01*
X0240451Y0058650D02*
X0239000Y0058650D01*
X0238516Y0059134D01*
X0238516Y0060585D01*
X0237505Y0061069D02*
X0235570Y0059134D01*
X0235570Y0058650D01*
X0234580Y0058650D02*
X0234097Y0058650D01*
X0234097Y0059134D01*
X0234580Y0059134D01*
X0234580Y0058650D01*
X0232601Y0058650D02*
X0232601Y0061552D01*
X0231150Y0060101D01*
X0233085Y0060101D01*
X0235570Y0061552D02*
X0237505Y0061552D01*
X0237505Y0061069D01*
X0220350Y0074034D02*
X0219866Y0073550D01*
X0217931Y0075485D01*
X0219866Y0075485D01*
X0220350Y0075001D01*
X0220350Y0074034D01*
X0219866Y0073550D02*
X0217931Y0073550D01*
X0217448Y0074034D01*
X0217448Y0075001D01*
X0217931Y0075485D01*
X0219866Y0076497D02*
X0219866Y0076980D01*
X0220350Y0076980D01*
X0220350Y0076497D01*
X0219866Y0076497D01*
X0220350Y0077970D02*
X0220350Y0079905D01*
X0220350Y0078937D02*
X0217448Y0078937D01*
X0218415Y0077970D01*
X0218415Y0080916D02*
X0219866Y0080916D01*
X0220350Y0081400D01*
X0220350Y0082851D01*
X0218415Y0082851D01*
X0218899Y0083863D02*
X0218899Y0084830D01*
X0220350Y0083863D02*
X0217448Y0083863D01*
X0217448Y0085798D01*
X0232035Y0088461D02*
X0232035Y0090396D01*
X0233003Y0091363D01*
X0233970Y0090396D01*
X0233970Y0088461D01*
X0234982Y0088461D02*
X0236433Y0088461D01*
X0236917Y0088945D01*
X0236917Y0090880D01*
X0236433Y0091363D01*
X0234982Y0091363D01*
X0234982Y0088461D01*
X0233970Y0089912D02*
X0232035Y0089912D01*
X0237928Y0088461D02*
X0237928Y0091363D01*
X0238896Y0090396D01*
X0239863Y0091363D01*
X0239863Y0088461D01*
X0240875Y0088461D02*
X0240875Y0091363D01*
X0242326Y0091363D01*
X0242810Y0090880D01*
X0242810Y0089912D01*
X0242326Y0089429D01*
X0240875Y0089429D01*
X0243821Y0089912D02*
X0245273Y0091363D01*
X0245273Y0088461D01*
X0245756Y0089912D02*
X0243821Y0089912D01*
X0246768Y0088945D02*
X0248703Y0090880D01*
X0248703Y0088945D01*
X0248219Y0088461D01*
X0247252Y0088461D01*
X0246768Y0088945D01*
X0246768Y0090880D01*
X0247252Y0091363D01*
X0248219Y0091363D01*
X0248703Y0090880D01*
X0249715Y0090396D02*
X0250682Y0091363D01*
X0250682Y0088461D01*
X0249715Y0088461D02*
X0251649Y0088461D01*
X0231963Y0129550D02*
X0231963Y0132452D01*
X0233898Y0132452D01*
X0232930Y0131001D02*
X0231963Y0131001D01*
X0230951Y0131485D02*
X0230951Y0129550D01*
X0229500Y0129550D01*
X0229016Y0130034D01*
X0229016Y0131485D01*
X0228005Y0129550D02*
X0226070Y0129550D01*
X0227037Y0129550D02*
X0227037Y0132452D01*
X0226070Y0131485D01*
X0225080Y0130034D02*
X0225080Y0129550D01*
X0224597Y0129550D01*
X0224597Y0130034D01*
X0225080Y0130034D01*
X0223585Y0130034D02*
X0223585Y0131969D01*
X0221650Y0130034D01*
X0222134Y0129550D01*
X0223101Y0129550D01*
X0223585Y0130034D01*
X0223585Y0131969D02*
X0223101Y0132452D01*
X0222134Y0132452D01*
X0221650Y0131969D01*
X0221650Y0130034D01*
X0222164Y0140850D02*
X0224099Y0140850D01*
X0223131Y0140850D02*
X0223131Y0143752D01*
X0222164Y0142785D01*
X0225110Y0143269D02*
X0225594Y0143752D01*
X0226562Y0143752D01*
X0227045Y0143269D01*
X0225110Y0141334D01*
X0225594Y0140850D01*
X0226562Y0140850D01*
X0227045Y0141334D01*
X0227045Y0143269D01*
X0228057Y0143269D02*
X0228541Y0143752D01*
X0229508Y0143752D01*
X0229992Y0143269D01*
X0228057Y0141334D01*
X0228541Y0140850D01*
X0229508Y0140850D01*
X0229992Y0141334D01*
X0229992Y0143269D01*
X0231003Y0143752D02*
X0231003Y0140850D01*
X0231003Y0141817D02*
X0232938Y0143752D01*
X0231487Y0142301D02*
X0232938Y0140850D01*
X0228057Y0141334D02*
X0228057Y0143269D01*
X0225110Y0143269D02*
X0225110Y0141334D01*
X0202578Y0143250D02*
X0201127Y0144701D01*
X0200643Y0144217D02*
X0202578Y0146152D01*
X0200643Y0146152D02*
X0200643Y0143250D01*
X0199631Y0143734D02*
X0199148Y0143250D01*
X0198180Y0143250D01*
X0197697Y0143734D01*
X0199631Y0145669D01*
X0199631Y0143734D01*
X0197697Y0143734D02*
X0197697Y0145669D01*
X0198180Y0146152D01*
X0199148Y0146152D01*
X0199631Y0145669D01*
X0196685Y0143250D02*
X0194750Y0143250D01*
X0195717Y0143250D02*
X0195717Y0146152D01*
X0194750Y0145185D01*
X0195617Y0120652D02*
X0195617Y0117750D01*
X0194650Y0117750D02*
X0196585Y0117750D01*
X0197597Y0118234D02*
X0198080Y0117750D01*
X0199048Y0117750D01*
X0199531Y0118234D01*
X0199531Y0120169D01*
X0197597Y0118234D01*
X0197597Y0120169D01*
X0198080Y0120652D01*
X0199048Y0120652D01*
X0199531Y0120169D01*
X0200543Y0120652D02*
X0200543Y0117750D01*
X0200543Y0118717D02*
X0202478Y0120652D01*
X0201027Y0119201D02*
X0202478Y0117750D01*
X0195617Y0120652D02*
X0194650Y0119685D01*
X0184104Y0111669D02*
X0184104Y0110701D01*
X0183620Y0110217D01*
X0182169Y0110217D01*
X0182169Y0109250D02*
X0182169Y0112152D01*
X0183620Y0112152D01*
X0184104Y0111669D01*
X0181157Y0111669D02*
X0181157Y0111185D01*
X0180673Y0110701D01*
X0179706Y0110701D01*
X0179222Y0111185D01*
X0179222Y0111669D01*
X0179706Y0112152D01*
X0180673Y0112152D01*
X0181157Y0111669D01*
X0180673Y0110701D02*
X0181157Y0110217D01*
X0181157Y0109734D01*
X0180673Y0109250D01*
X0179706Y0109250D01*
X0179222Y0109734D01*
X0179222Y0110217D01*
X0179706Y0110701D01*
X0178211Y0111185D02*
X0178211Y0111669D01*
X0177727Y0112152D01*
X0176759Y0112152D01*
X0176276Y0111669D01*
X0175264Y0111669D02*
X0175264Y0111185D01*
X0174780Y0110701D01*
X0175264Y0110217D01*
X0175264Y0109734D01*
X0174780Y0109250D01*
X0173813Y0109250D01*
X0173329Y0109734D01*
X0172318Y0109250D02*
X0172318Y0111185D01*
X0171350Y0112152D01*
X0170383Y0111185D01*
X0170383Y0109250D01*
X0169371Y0109734D02*
X0169371Y0110701D01*
X0168404Y0110701D01*
X0169371Y0109734D02*
X0168887Y0109250D01*
X0167920Y0109250D01*
X0167436Y0109734D01*
X0167436Y0111669D01*
X0167920Y0112152D01*
X0168887Y0112152D01*
X0169371Y0111669D01*
X0170383Y0110701D02*
X0172318Y0110701D01*
X0173329Y0111669D02*
X0173813Y0112152D01*
X0174780Y0112152D01*
X0175264Y0111669D01*
X0174780Y0110701D02*
X0174297Y0110701D01*
X0176276Y0109250D02*
X0178211Y0111185D01*
X0178211Y0109250D02*
X0176276Y0109250D01*
X0166425Y0109250D02*
X0164490Y0109250D01*
X0164490Y0112152D01*
X0166425Y0112152D01*
X0165457Y0110701D02*
X0164490Y0110701D01*
X0163478Y0112152D02*
X0163478Y0109250D01*
X0161543Y0109250D02*
X0161543Y0112152D01*
X0162511Y0111185D01*
X0163478Y0112152D01*
X0160531Y0112152D02*
X0158597Y0112152D01*
X0159564Y0112152D02*
X0159564Y0109250D01*
X0157585Y0109250D02*
X0157585Y0111185D01*
X0156617Y0112152D01*
X0155650Y0111185D01*
X0155650Y0109250D01*
X0155650Y0110701D02*
X0157585Y0110701D01*
X0172234Y0168150D02*
X0171750Y0168634D01*
X0173685Y0170569D01*
X0173685Y0168634D01*
X0173201Y0168150D01*
X0172234Y0168150D01*
X0171750Y0168634D02*
X0171750Y0170569D01*
X0172234Y0171052D01*
X0173201Y0171052D01*
X0173685Y0170569D01*
X0174697Y0168634D02*
X0175180Y0168634D01*
X0175180Y0168150D01*
X0174697Y0168150D01*
X0174697Y0168634D01*
X0176170Y0168150D02*
X0178105Y0168150D01*
X0177137Y0168150D02*
X0177137Y0171052D01*
X0176170Y0170085D01*
X0179116Y0170085D02*
X0179116Y0168634D01*
X0179600Y0168150D01*
X0181051Y0168150D01*
X0181051Y0170085D01*
X0182063Y0169601D02*
X0183030Y0169601D01*
X0182063Y0168150D02*
X0182063Y0171052D01*
X0183998Y0171052D01*
X0189548Y0172750D02*
X0192450Y0172750D01*
X0192450Y0174685D01*
X0192450Y0175697D02*
X0192450Y0177631D01*
X0192450Y0178643D02*
X0189548Y0178643D01*
X0189548Y0180094D01*
X0190031Y0180578D01*
X0191966Y0180578D01*
X0192450Y0180094D01*
X0192450Y0178643D01*
X0190999Y0176664D02*
X0190999Y0175697D01*
X0189548Y0175697D02*
X0192450Y0175697D01*
X0189548Y0175697D02*
X0189548Y0177631D01*
X0190031Y0181590D02*
X0189548Y0182073D01*
X0189548Y0183041D01*
X0190031Y0183525D01*
X0190515Y0183525D01*
X0192450Y0181590D01*
X0192450Y0183525D01*
X0185938Y0184069D02*
X0184003Y0182134D01*
X0184003Y0181650D01*
X0182508Y0181650D02*
X0182508Y0184552D01*
X0181057Y0183101D01*
X0182992Y0183101D01*
X0184003Y0184552D02*
X0185938Y0184552D01*
X0185938Y0184069D01*
X0203748Y0182455D02*
X0204231Y0182938D01*
X0204715Y0182938D01*
X0205199Y0182455D01*
X0205683Y0182938D01*
X0206166Y0182938D01*
X0206650Y0182455D01*
X0206650Y0181487D01*
X0206166Y0181003D01*
X0206166Y0179992D02*
X0204231Y0179992D01*
X0203748Y0179508D01*
X0203748Y0178057D01*
X0206650Y0178057D01*
X0206650Y0179508D01*
X0206166Y0179992D01*
X0204231Y0181003D02*
X0203748Y0181487D01*
X0203748Y0182455D01*
X0205199Y0182455D02*
X0205199Y0181971D01*
X0206650Y0177045D02*
X0206650Y0175110D01*
X0203748Y0175110D01*
X0203748Y0177045D01*
X0205199Y0176078D02*
X0205199Y0175110D01*
X0206650Y0174099D02*
X0206650Y0172164D01*
X0203748Y0172164D01*
X0211708Y0181850D02*
X0211708Y0184752D01*
X0210257Y0183301D01*
X0212192Y0183301D01*
X0213203Y0182334D02*
X0213203Y0181850D01*
X0213203Y0182334D02*
X0215138Y0184269D01*
X0215138Y0184752D01*
X0213203Y0184752D01*
X0222738Y0198674D02*
X0223422Y0198674D01*
X0223764Y0199016D01*
X0223764Y0199700D01*
X0222738Y0200726D01*
X0222054Y0200042D01*
X0222054Y0199358D01*
X0222738Y0198674D01*
X0222738Y0200726D02*
X0224107Y0200726D01*
X0225133Y0200384D01*
X0222707Y0202126D02*
X0222707Y0202810D01*
X0222023Y0203494D01*
X0221339Y0203494D01*
X0222707Y0202126D02*
X0222365Y0201783D01*
X0219629Y0201783D01*
X0220997Y0200415D01*
X0234334Y0168352D02*
X0233850Y0167869D01*
X0233850Y0165934D01*
X0234334Y0165450D01*
X0235301Y0165450D01*
X0235785Y0165934D01*
X0236797Y0165934D02*
X0237280Y0165450D01*
X0238248Y0165450D01*
X0238731Y0165934D01*
X0239743Y0165934D02*
X0240227Y0165450D01*
X0241194Y0165450D01*
X0241678Y0165934D01*
X0241678Y0166417D01*
X0241194Y0166901D01*
X0240227Y0166901D01*
X0239743Y0167385D01*
X0239743Y0167869D01*
X0240227Y0168352D01*
X0241194Y0168352D01*
X0241678Y0167869D01*
X0242690Y0167869D02*
X0242690Y0167385D01*
X0243173Y0166901D01*
X0244141Y0166901D01*
X0244625Y0166417D01*
X0244625Y0165934D01*
X0244141Y0165450D01*
X0243173Y0165450D01*
X0242690Y0165934D01*
X0242690Y0166417D01*
X0243173Y0166901D01*
X0244141Y0166901D02*
X0244625Y0167385D01*
X0244625Y0167869D01*
X0244141Y0168352D01*
X0243173Y0168352D01*
X0242690Y0167869D01*
X0245636Y0167385D02*
X0246604Y0168352D01*
X0246604Y0165450D01*
X0247571Y0165450D02*
X0245636Y0165450D01*
X0248583Y0165450D02*
X0250518Y0165450D01*
X0249550Y0165450D02*
X0249550Y0168352D01*
X0248583Y0167385D01*
X0238731Y0167869D02*
X0238248Y0168352D01*
X0237280Y0168352D01*
X0236797Y0167869D01*
X0236797Y0165934D01*
X0235785Y0167869D02*
X0235301Y0168352D01*
X0234334Y0168352D01*
X0175084Y0201097D02*
X0174400Y0200412D01*
X0173716Y0200412D01*
X0173032Y0201097D02*
X0173374Y0202123D01*
X0173716Y0202465D01*
X0174400Y0202465D01*
X0175084Y0201781D01*
X0175084Y0201097D01*
X0173032Y0201097D02*
X0172006Y0202123D01*
X0173374Y0203491D01*
X0166288Y0172402D02*
X0166288Y0171919D01*
X0164353Y0169984D01*
X0164353Y0169500D01*
X0166288Y0169500D01*
X0166288Y0172402D02*
X0164353Y0172402D01*
X0163342Y0172402D02*
X0163342Y0169500D01*
X0163342Y0170951D02*
X0161407Y0170951D01*
X0161407Y0169500D02*
X0161407Y0172402D01*
X0160395Y0172402D02*
X0160395Y0169500D01*
X0158460Y0169500D02*
X0158460Y0172402D01*
X0159428Y0171435D01*
X0160395Y0172402D01*
X0157449Y0172402D02*
X0156481Y0171919D01*
X0155514Y0170951D01*
X0156965Y0170951D01*
X0157449Y0170467D01*
X0157449Y0169984D01*
X0156965Y0169500D01*
X0155998Y0169500D01*
X0155514Y0169984D01*
X0155514Y0170951D01*
X0154502Y0169500D02*
X0152567Y0169500D01*
X0153535Y0169500D02*
X0153535Y0172402D01*
X0152567Y0171435D01*
X0080285Y0222350D02*
X0078350Y0225252D01*
X0077338Y0224769D02*
X0077338Y0223801D01*
X0076855Y0223317D01*
X0075403Y0223317D01*
X0075403Y0222350D02*
X0075403Y0225252D01*
X0076855Y0225252D01*
X0077338Y0224769D01*
X0076371Y0223317D02*
X0077338Y0222350D01*
X0078350Y0222350D02*
X0080285Y0225252D01*
X0070385Y0225352D02*
X0068450Y0222450D01*
X0070385Y0222450D02*
X0068450Y0225352D01*
X0067438Y0225352D02*
X0065503Y0225352D01*
X0066471Y0225352D02*
X0066471Y0222450D01*
X0056910Y0201322D02*
X0055542Y0199954D01*
X0053489Y0202006D01*
X0053116Y0200949D02*
X0052432Y0200949D01*
X0051748Y0200265D01*
X0051748Y0199581D01*
X0053116Y0198212D01*
X0053800Y0198212D01*
X0054484Y0198897D01*
X0054484Y0199581D01*
X0052401Y0197497D02*
X0052401Y0196813D01*
X0051717Y0196129D01*
X0051033Y0196129D01*
X0050691Y0197155D02*
X0050006Y0197155D01*
X0049664Y0197497D01*
X0049664Y0198181D01*
X0050349Y0198865D01*
X0051033Y0198865D01*
X0051375Y0197839D02*
X0052059Y0197839D01*
X0052401Y0197497D01*
X0051375Y0197839D02*
X0050691Y0197155D01*
X0045510Y0200922D02*
X0044142Y0202290D01*
X0042773Y0202290D01*
X0042773Y0200922D01*
X0044142Y0199554D01*
X0043084Y0199181D02*
X0041716Y0200549D01*
X0041032Y0200549D01*
X0040006Y0199523D01*
X0042058Y0197470D01*
X0043084Y0198497D01*
X0043084Y0199181D01*
X0043116Y0200580D02*
X0044484Y0201948D01*
X0040659Y0197439D02*
X0041001Y0197097D01*
X0041001Y0196413D01*
X0040317Y0195729D01*
X0039633Y0195729D01*
X0039291Y0196755D02*
X0039975Y0197439D01*
X0040659Y0197439D01*
X0039633Y0198465D02*
X0038949Y0198465D01*
X0038264Y0197781D01*
X0038264Y0197097D01*
X0038606Y0196755D01*
X0039291Y0196755D01*
X0034447Y0200959D02*
X0034447Y0202327D01*
X0033078Y0203695D01*
X0031710Y0202327D02*
X0033079Y0200959D01*
X0034447Y0200959D01*
X0032705Y0199902D02*
X0032705Y0199217D01*
X0032021Y0198533D01*
X0031337Y0198533D01*
X0030637Y0197834D02*
X0030979Y0197492D01*
X0030637Y0197150D01*
X0030295Y0197492D01*
X0030637Y0197834D01*
X0029580Y0196776D02*
X0029580Y0196092D01*
X0028896Y0195408D01*
X0028212Y0195408D01*
X0028212Y0196776D02*
X0028554Y0197118D01*
X0029238Y0197118D01*
X0029580Y0196776D01*
X0028554Y0197118D02*
X0028554Y0197802D01*
X0028212Y0198145D01*
X0027528Y0198145D01*
X0026844Y0197460D01*
X0026844Y0196776D01*
X0029969Y0199902D02*
X0029969Y0200586D01*
X0030653Y0201270D01*
X0031337Y0201270D01*
X0031679Y0200928D01*
X0031679Y0200244D01*
X0032363Y0200244D01*
X0032705Y0199902D01*
X0031679Y0200244D02*
X0031337Y0199902D01*
X0020250Y0185150D02*
X0019766Y0185150D01*
X0017831Y0187085D01*
X0017348Y0187085D01*
X0017348Y0185150D01*
X0017348Y0183655D02*
X0018799Y0182203D01*
X0018799Y0184138D01*
X0020250Y0183655D02*
X0017348Y0183655D01*
X0017515Y0172496D02*
X0017515Y0171045D01*
X0017999Y0170561D01*
X0018483Y0171045D01*
X0018483Y0172012D01*
X0018966Y0172496D01*
X0019450Y0172012D01*
X0019450Y0170561D01*
X0019450Y0169549D02*
X0017515Y0169549D01*
X0017515Y0167614D02*
X0018966Y0167614D01*
X0019450Y0168098D01*
X0019450Y0169549D01*
X0021348Y0168574D02*
X0021348Y0167123D01*
X0024250Y0167123D01*
X0024250Y0168574D01*
X0023766Y0169058D01*
X0021831Y0169058D01*
X0021348Y0168574D01*
X0021348Y0166112D02*
X0021348Y0164177D01*
X0024250Y0164177D01*
X0024250Y0166112D01*
X0022799Y0165144D02*
X0022799Y0164177D01*
X0024250Y0163165D02*
X0024250Y0161230D01*
X0021348Y0161230D01*
X0019450Y0161707D02*
X0018966Y0161223D01*
X0017031Y0161223D01*
X0017515Y0160739D02*
X0017515Y0161707D01*
X0017515Y0163187D02*
X0017515Y0164155D01*
X0017999Y0164638D01*
X0019450Y0164638D01*
X0019450Y0163187D01*
X0018966Y0162703D01*
X0018483Y0163187D01*
X0018483Y0164638D01*
X0017515Y0165650D02*
X0017515Y0166617D01*
X0017031Y0166134D02*
X0018966Y0166134D01*
X0019450Y0166617D01*
X0018966Y0159728D02*
X0018483Y0159728D01*
X0017999Y0159244D01*
X0017999Y0158276D01*
X0017515Y0157793D01*
X0017031Y0157793D01*
X0016548Y0158276D01*
X0016548Y0159244D01*
X0017031Y0159728D01*
X0018966Y0159728D02*
X0019450Y0159244D01*
X0019450Y0158276D01*
X0018966Y0157793D01*
X0035887Y0222250D02*
X0035403Y0222734D01*
X0035887Y0222250D02*
X0036855Y0222250D01*
X0037338Y0222734D01*
X0037338Y0223701D01*
X0036855Y0224185D01*
X0036371Y0224185D01*
X0035403Y0223701D01*
X0035403Y0225152D01*
X0037338Y0225152D01*
X0038350Y0225152D02*
X0038350Y0223217D01*
X0039317Y0222250D01*
X0040285Y0223217D01*
X0040285Y0225152D01*
X0052748Y0093498D02*
X0052748Y0091563D01*
X0055650Y0091563D01*
X0055650Y0090551D02*
X0053715Y0090551D01*
X0054199Y0091563D02*
X0054199Y0092530D01*
X0055650Y0090551D02*
X0055650Y0089100D01*
X0055166Y0088616D01*
X0053715Y0088616D01*
X0055650Y0087605D02*
X0055650Y0085670D01*
X0055650Y0086637D02*
X0052748Y0086637D01*
X0053715Y0085670D01*
X0055166Y0084680D02*
X0055650Y0084680D01*
X0055650Y0084197D01*
X0055166Y0084197D01*
X0055166Y0084680D01*
X0055166Y0083185D02*
X0055650Y0082701D01*
X0055650Y0081734D01*
X0055166Y0081250D01*
X0053231Y0083185D01*
X0055166Y0083185D01*
X0053231Y0083185D02*
X0052748Y0082701D01*
X0052748Y0081734D01*
X0053231Y0081250D01*
X0055166Y0081250D01*
X0055850Y0066938D02*
X0054399Y0065487D01*
X0054883Y0065003D02*
X0052948Y0066938D01*
X0052948Y0065003D02*
X0055850Y0065003D01*
X0055366Y0063992D02*
X0055850Y0063508D01*
X0055850Y0062541D01*
X0055366Y0062057D01*
X0053431Y0063992D01*
X0055366Y0063992D01*
X0053431Y0063992D02*
X0052948Y0063508D01*
X0052948Y0062541D01*
X0053431Y0062057D01*
X0055366Y0062057D01*
X0055850Y0061045D02*
X0055850Y0059110D01*
X0055850Y0060078D02*
X0052948Y0060078D01*
X0053915Y0059110D01*
X0033650Y0059825D02*
X0033650Y0057890D01*
X0030748Y0057890D01*
X0030748Y0059825D01*
X0030748Y0060836D02*
X0030748Y0062771D01*
X0030748Y0061804D02*
X0033650Y0061804D01*
X0032199Y0058857D02*
X0032199Y0057890D01*
X0032683Y0056878D02*
X0033166Y0056878D01*
X0033650Y0056394D01*
X0033650Y0055427D01*
X0033166Y0054943D01*
X0032199Y0055427D02*
X0032199Y0056394D01*
X0032683Y0056878D01*
X0031231Y0056878D02*
X0030748Y0056394D01*
X0030748Y0055427D01*
X0031231Y0054943D01*
X0031715Y0054943D01*
X0032199Y0055427D01*
X0033650Y0053931D02*
X0033650Y0051997D01*
X0030748Y0051997D01*
X0030748Y0053931D01*
X0032199Y0052964D02*
X0032199Y0051997D01*
X0032199Y0050985D02*
X0032683Y0050501D01*
X0032683Y0049050D01*
X0033650Y0049050D02*
X0030748Y0049050D01*
X0030748Y0050501D01*
X0031231Y0050985D01*
X0032199Y0050985D01*
X0032683Y0050017D02*
X0033650Y0050985D01*
D13*
X0049498Y0100796D02*
X0049498Y0101697D01*
X0049799Y0101997D01*
X0050399Y0101997D01*
X0050699Y0101697D01*
X0050699Y0100796D01*
X0050699Y0101397D02*
X0051300Y0101997D01*
X0051300Y0102638D02*
X0051300Y0103839D01*
X0051000Y0104479D02*
X0051300Y0104779D01*
X0051300Y0105380D01*
X0051000Y0105680D01*
X0050699Y0105680D01*
X0050399Y0105380D01*
X0050399Y0104779D01*
X0050099Y0104479D01*
X0049799Y0104479D01*
X0049498Y0104779D01*
X0049498Y0105380D01*
X0049799Y0105680D01*
X0049498Y0106321D02*
X0051300Y0106321D01*
X0051300Y0107522D01*
X0050399Y0106921D02*
X0050399Y0106321D01*
X0049498Y0106321D02*
X0049498Y0107522D01*
X0049498Y0108162D02*
X0049498Y0109363D01*
X0049498Y0108763D02*
X0051300Y0108763D01*
X0051000Y0112638D02*
X0051300Y0112938D01*
X0051300Y0113538D01*
X0051000Y0113839D01*
X0050699Y0113839D01*
X0050399Y0113538D01*
X0050399Y0112938D01*
X0050099Y0112638D01*
X0049799Y0112638D01*
X0049498Y0112938D01*
X0049498Y0113538D01*
X0049799Y0113839D01*
X0049799Y0114479D02*
X0051000Y0114479D01*
X0051300Y0114779D01*
X0051300Y0115380D01*
X0051000Y0115680D01*
X0051300Y0116321D02*
X0049498Y0116321D01*
X0049799Y0115680D02*
X0049498Y0115380D01*
X0049498Y0114779D01*
X0049799Y0114479D01*
X0050699Y0116321D02*
X0049498Y0117522D01*
X0050399Y0116621D02*
X0051300Y0117522D01*
X0051200Y0121924D02*
X0049398Y0121924D01*
X0049999Y0122524D01*
X0049398Y0123125D01*
X0051200Y0123125D01*
X0051200Y0123765D02*
X0051200Y0124366D01*
X0051200Y0124066D02*
X0049398Y0124066D01*
X0049398Y0124366D02*
X0049398Y0123765D01*
X0049699Y0124993D02*
X0049999Y0124993D01*
X0050299Y0125293D01*
X0050299Y0125894D01*
X0050599Y0126194D01*
X0050900Y0126194D01*
X0051200Y0125894D01*
X0051200Y0125293D01*
X0050900Y0124993D01*
X0049699Y0124993D02*
X0049398Y0125293D01*
X0049398Y0125894D01*
X0049699Y0126194D01*
X0049699Y0126835D02*
X0050900Y0126835D01*
X0051200Y0127135D01*
X0051200Y0127735D01*
X0050900Y0128036D01*
X0049699Y0128036D01*
X0049398Y0127735D01*
X0049398Y0127135D01*
X0049699Y0126835D01*
X0061900Y0132400D02*
X0062634Y0132400D01*
X0062267Y0132400D02*
X0062267Y0134602D01*
X0061900Y0134602D02*
X0062634Y0134602D01*
X0063373Y0134235D02*
X0063373Y0133868D01*
X0063740Y0133501D01*
X0064474Y0133501D01*
X0064841Y0133134D01*
X0064841Y0132767D01*
X0064474Y0132400D01*
X0063740Y0132400D01*
X0063373Y0132767D01*
X0063373Y0134235D02*
X0063740Y0134602D01*
X0064474Y0134602D01*
X0064841Y0134235D01*
X0065583Y0134602D02*
X0066684Y0134602D01*
X0067051Y0134235D01*
X0067051Y0133501D01*
X0066684Y0133134D01*
X0065583Y0133134D01*
X0065583Y0132400D02*
X0065583Y0134602D01*
X0077500Y0127423D02*
X0077500Y0126822D01*
X0077800Y0126522D01*
X0078101Y0126522D01*
X0078401Y0126822D01*
X0078401Y0127122D01*
X0078401Y0126822D02*
X0078701Y0126522D01*
X0079001Y0126522D01*
X0079302Y0126822D01*
X0079302Y0127423D01*
X0079001Y0127723D01*
X0077800Y0127723D02*
X0077500Y0127423D01*
X0077500Y0125881D02*
X0077500Y0125581D01*
X0077800Y0125581D01*
X0077800Y0125881D01*
X0077500Y0125881D01*
X0077800Y0124960D02*
X0077500Y0124660D01*
X0077500Y0124060D01*
X0077800Y0123759D01*
X0078101Y0123759D01*
X0078401Y0124060D01*
X0078401Y0124360D01*
X0078401Y0124060D02*
X0078701Y0123759D01*
X0079001Y0123759D01*
X0079302Y0124060D01*
X0079302Y0124660D01*
X0079001Y0124960D01*
X0079302Y0123119D02*
X0078101Y0123119D01*
X0077500Y0122518D01*
X0078101Y0121918D01*
X0079302Y0121918D01*
X0079302Y0117676D02*
X0078701Y0117076D01*
X0079302Y0116475D01*
X0077500Y0116475D01*
X0077800Y0115835D02*
X0077500Y0115534D01*
X0077500Y0114934D01*
X0077800Y0114634D01*
X0079001Y0114634D01*
X0079302Y0114934D01*
X0079302Y0115534D01*
X0079001Y0115835D01*
X0077800Y0115835D01*
X0077800Y0113993D02*
X0077500Y0113693D01*
X0077500Y0113092D01*
X0077800Y0112792D01*
X0078101Y0112792D01*
X0078401Y0113092D01*
X0078401Y0113693D01*
X0078701Y0113993D01*
X0079001Y0113993D01*
X0079302Y0113693D01*
X0079302Y0113092D01*
X0079001Y0112792D01*
X0079302Y0112152D02*
X0079302Y0111551D01*
X0079302Y0111851D02*
X0077500Y0111851D01*
X0077500Y0111551D02*
X0077500Y0112152D01*
X0077800Y0107362D02*
X0077500Y0107062D01*
X0077500Y0106462D01*
X0077800Y0106161D01*
X0078401Y0106161D01*
X0078401Y0106762D01*
X0079001Y0107362D02*
X0077800Y0107362D01*
X0079001Y0107362D02*
X0079302Y0107062D01*
X0079302Y0106462D01*
X0079001Y0106161D01*
X0079302Y0105521D02*
X0077500Y0104320D01*
X0079302Y0104320D01*
X0079302Y0103679D02*
X0079302Y0102778D01*
X0079001Y0102478D01*
X0077800Y0102478D01*
X0077500Y0102778D01*
X0077500Y0103679D01*
X0079302Y0103679D01*
X0079302Y0105521D02*
X0077500Y0105521D01*
X0077500Y0117676D02*
X0079302Y0117676D01*
X0051300Y0102638D02*
X0049498Y0102638D01*
X0049498Y0103839D01*
X0050399Y0103238D02*
X0050399Y0102638D01*
X0051300Y0100796D02*
X0049498Y0100796D01*
X0027800Y0138338D02*
X0028100Y0138638D01*
X0028100Y0139238D01*
X0027800Y0139539D01*
X0027199Y0139539D01*
X0027199Y0138938D01*
X0026599Y0138338D02*
X0026298Y0138638D01*
X0026298Y0139238D01*
X0026599Y0139539D01*
X0026298Y0140179D02*
X0028100Y0140179D01*
X0028100Y0141380D02*
X0026298Y0141380D01*
X0026298Y0142021D02*
X0026298Y0142922D01*
X0026599Y0143222D01*
X0027800Y0143222D01*
X0028100Y0142922D01*
X0028100Y0142021D01*
X0026298Y0142021D01*
X0026298Y0140179D02*
X0028100Y0141380D01*
X0027800Y0138338D02*
X0026599Y0138338D01*
X0031597Y0148200D02*
X0031597Y0150402D01*
X0033065Y0150402D01*
X0033807Y0150402D02*
X0035275Y0150402D01*
X0034541Y0150402D02*
X0034541Y0148200D01*
X0036017Y0148200D02*
X0037118Y0148200D01*
X0037485Y0148567D01*
X0037485Y0150035D01*
X0037118Y0150402D01*
X0036017Y0150402D01*
X0036017Y0148200D01*
X0038227Y0148200D02*
X0038961Y0148200D01*
X0038594Y0148200D02*
X0038594Y0150402D01*
X0038227Y0150402D02*
X0038961Y0150402D01*
X0032331Y0149301D02*
X0031597Y0149301D01*
D14*
X0071825Y0167900D03*
X0071825Y0168950D03*
X0073325Y0170600D03*
X0073325Y0166250D03*
X0061175Y0187400D03*
X0061325Y0187850D03*
X0061325Y0188000D03*
X0061325Y0188150D03*
X0061175Y0188450D03*
X0104375Y0172850D03*
D15*
X0110900Y0171950D03*
X0073250Y0170450D03*
X0073250Y0166400D03*
X0066200Y0171950D03*
X0066650Y0184400D03*
X0042950Y0176900D03*
X0032900Y0184550D03*
D16*
X0033125Y0184850D03*
X0036875Y0180800D03*
X0036875Y0180650D03*
X0036875Y0180500D03*
X0036875Y0180350D03*
X0036875Y0180200D03*
X0036875Y0180050D03*
X0036875Y0179900D03*
X0036875Y0179750D03*
X0036875Y0179600D03*
X0036875Y0179450D03*
X0036875Y0179300D03*
X0036875Y0179150D03*
X0036875Y0179000D03*
X0036875Y0178850D03*
X0036875Y0178700D03*
X0036875Y0178550D03*
X0036875Y0178400D03*
X0036875Y0178250D03*
X0036875Y0178100D03*
X0036875Y0177950D03*
X0036875Y0177800D03*
X0036875Y0177650D03*
X0036875Y0177500D03*
X0036875Y0177350D03*
X0036875Y0177200D03*
X0036875Y0177050D03*
X0036875Y0176900D03*
X0036875Y0176750D03*
X0036875Y0176600D03*
X0036875Y0176450D03*
X0036875Y0176300D03*
X0042875Y0176300D03*
X0042875Y0176450D03*
X0042875Y0176600D03*
X0042875Y0176150D03*
X0046925Y0176150D03*
X0046925Y0176300D03*
X0046925Y0176450D03*
X0046925Y0176600D03*
X0046925Y0176750D03*
X0046925Y0176900D03*
X0046925Y0177050D03*
X0046925Y0177200D03*
X0046925Y0177350D03*
X0046925Y0177500D03*
X0046925Y0177650D03*
X0046925Y0177800D03*
X0046925Y0177950D03*
X0046925Y0178100D03*
X0046925Y0178250D03*
X0046925Y0178400D03*
X0046925Y0178550D03*
X0046925Y0178700D03*
X0046925Y0178850D03*
X0046925Y0179000D03*
X0046925Y0179150D03*
X0046925Y0179300D03*
X0046925Y0179450D03*
X0046925Y0179600D03*
X0046925Y0179750D03*
X0046925Y0179900D03*
X0046925Y0180050D03*
X0046925Y0180200D03*
X0046925Y0180350D03*
X0046925Y0180500D03*
X0046925Y0180650D03*
X0046925Y0180800D03*
X0046925Y0180950D03*
X0046925Y0181100D03*
X0046925Y0181250D03*
X0046925Y0181400D03*
X0042875Y0180950D03*
X0046925Y0176000D03*
X0046925Y0175850D03*
X0046925Y0175700D03*
X0046925Y0175550D03*
X0046925Y0175400D03*
X0046925Y0175250D03*
X0046925Y0175100D03*
X0046925Y0174950D03*
X0046925Y0174800D03*
X0046925Y0174650D03*
X0046925Y0174500D03*
X0046925Y0174350D03*
X0046925Y0174200D03*
X0046925Y0174050D03*
X0046925Y0173900D03*
X0046925Y0173750D03*
X0046925Y0173600D03*
X0046925Y0173450D03*
X0046925Y0173300D03*
X0053225Y0173150D03*
X0059675Y0173300D03*
X0059675Y0173450D03*
X0059675Y0173600D03*
X0059675Y0173750D03*
X0059675Y0173900D03*
X0059675Y0174050D03*
X0059675Y0174200D03*
X0059675Y0174350D03*
X0059675Y0174500D03*
X0059675Y0174650D03*
X0059675Y0174800D03*
X0059675Y0174950D03*
X0059675Y0175100D03*
X0059675Y0175250D03*
X0059675Y0175400D03*
X0059675Y0175550D03*
X0059675Y0175700D03*
X0059675Y0175850D03*
X0059675Y0176000D03*
X0059675Y0176150D03*
X0059675Y0176300D03*
X0059675Y0176450D03*
X0059675Y0176600D03*
X0059675Y0176750D03*
X0059675Y0176900D03*
X0059675Y0177050D03*
X0059675Y0177200D03*
X0059675Y0177350D03*
X0059675Y0177500D03*
X0059675Y0177650D03*
X0059675Y0177800D03*
X0059675Y0177950D03*
X0059675Y0178100D03*
X0059675Y0178250D03*
X0059675Y0178400D03*
X0059675Y0178550D03*
X0059675Y0178700D03*
X0059675Y0178850D03*
X0059675Y0179000D03*
X0059675Y0179150D03*
X0059675Y0179300D03*
X0059675Y0179450D03*
X0059675Y0179600D03*
X0059675Y0179750D03*
X0059675Y0179900D03*
X0059675Y0180050D03*
X0059675Y0180200D03*
X0059675Y0180350D03*
X0059675Y0180500D03*
X0059675Y0180650D03*
X0059675Y0180800D03*
X0059675Y0180950D03*
X0059675Y0181100D03*
X0059675Y0181250D03*
X0059675Y0181400D03*
X0059675Y0186050D03*
X0053075Y0180650D03*
X0053075Y0179900D03*
X0053075Y0179750D03*
X0065975Y0171500D03*
X0071075Y0175550D03*
X0071075Y0175700D03*
X0071075Y0175850D03*
X0071075Y0176000D03*
X0071075Y0176150D03*
X0071075Y0176300D03*
X0071075Y0176450D03*
X0071075Y0176600D03*
X0071075Y0176750D03*
X0071075Y0176900D03*
X0071075Y0177050D03*
X0071075Y0177200D03*
X0071075Y0177350D03*
X0071075Y0177500D03*
X0071075Y0177650D03*
X0071075Y0177800D03*
X0071075Y0177950D03*
X0071075Y0178100D03*
X0071075Y0178250D03*
X0071075Y0178400D03*
X0071075Y0178550D03*
X0071075Y0178700D03*
X0071075Y0178850D03*
X0071075Y0179000D03*
X0071075Y0179150D03*
X0071075Y0179300D03*
X0071075Y0179450D03*
X0071075Y0179600D03*
X0071075Y0179750D03*
X0071075Y0179900D03*
X0071075Y0180050D03*
X0071075Y0180200D03*
X0071075Y0180350D03*
X0071075Y0180500D03*
X0071075Y0180650D03*
X0071075Y0180800D03*
X0071075Y0180950D03*
X0071075Y0181100D03*
X0071075Y0181250D03*
X0071075Y0181400D03*
X0071075Y0181550D03*
X0071075Y0181700D03*
X0071075Y0181850D03*
X0071075Y0182000D03*
X0071075Y0182150D03*
X0071075Y0182300D03*
X0071075Y0182450D03*
X0071075Y0182600D03*
X0071075Y0182750D03*
X0071075Y0182900D03*
X0071075Y0183050D03*
X0071075Y0183200D03*
X0071075Y0183350D03*
X0071075Y0183500D03*
X0071075Y0183650D03*
X0081875Y0179300D03*
X0081875Y0179150D03*
X0081875Y0179000D03*
X0081725Y0178850D03*
X0081725Y0178700D03*
X0081725Y0178550D03*
X0081575Y0178400D03*
X0081575Y0178250D03*
X0081425Y0177950D03*
X0081425Y0177800D03*
X0081275Y0177500D03*
X0081275Y0177350D03*
X0082025Y0179450D03*
X0082025Y0179600D03*
X0082175Y0179900D03*
X0082175Y0180050D03*
X0085175Y0179900D03*
X0085325Y0179600D03*
X0085325Y0179450D03*
X0085475Y0179150D03*
X0085625Y0178700D03*
X0085775Y0178400D03*
X0085775Y0178250D03*
X0085925Y0177950D03*
X0085925Y0177800D03*
X0086075Y0177500D03*
X0086075Y0177350D03*
X0087125Y0174500D03*
X0087275Y0174050D03*
X0087425Y0173750D03*
X0087425Y0173600D03*
X0087575Y0173300D03*
X0091025Y0175550D03*
X0091025Y0175700D03*
X0091025Y0175850D03*
X0091025Y0176000D03*
X0091025Y0176150D03*
X0091025Y0176300D03*
X0091025Y0176450D03*
X0091025Y0176600D03*
X0091025Y0176750D03*
X0091025Y0176900D03*
X0091025Y0177050D03*
X0091025Y0177200D03*
X0091025Y0177350D03*
X0091025Y0177500D03*
X0091025Y0177650D03*
X0091025Y0177800D03*
X0091025Y0177950D03*
X0091025Y0178100D03*
X0091025Y0178250D03*
X0091025Y0178400D03*
X0091025Y0178550D03*
X0091025Y0178700D03*
X0091025Y0178850D03*
X0091025Y0179000D03*
X0091025Y0179150D03*
X0091025Y0179300D03*
X0091025Y0179450D03*
X0091025Y0179600D03*
X0091025Y0179750D03*
X0091025Y0179900D03*
X0091025Y0180050D03*
X0091025Y0180200D03*
X0091025Y0180350D03*
X0091025Y0180500D03*
X0091025Y0180650D03*
X0091025Y0180800D03*
X0091025Y0180950D03*
X0091025Y0181100D03*
X0091025Y0181250D03*
X0091025Y0181400D03*
X0097325Y0181100D03*
X0097325Y0180950D03*
X0097325Y0180800D03*
X0097325Y0180650D03*
X0097325Y0180500D03*
X0097325Y0180350D03*
X0097475Y0176900D03*
X0101225Y0176750D03*
X0101225Y0176600D03*
X0101225Y0176450D03*
X0101375Y0181100D03*
X0104225Y0184100D03*
X0107075Y0181100D03*
X0107375Y0176300D03*
X0107375Y0176150D03*
X0110675Y0171500D03*
X0083675Y0183800D03*
X0080225Y0174500D03*
X0079775Y0173300D03*
X0073325Y0170300D03*
X0073325Y0166550D03*
D17*
X0073250Y0166700D03*
X0073250Y0170150D03*
X0083600Y0183350D03*
X0097100Y0181400D03*
X0101600Y0180500D03*
X0107150Y0176900D03*
X0107000Y0175400D03*
X0104450Y0173000D03*
X0101450Y0175700D03*
X0097400Y0175700D03*
X0059750Y0189650D03*
X0052850Y0181250D03*
X0052850Y0179300D03*
X0051050Y0176600D03*
X0051050Y0176450D03*
X0051200Y0176300D03*
X0051350Y0176000D03*
X0051500Y0175850D03*
X0051650Y0175550D03*
X0051800Y0175400D03*
X0052100Y0174950D03*
X0052400Y0174500D03*
X0052700Y0174050D03*
X0053000Y0173600D03*
X0053000Y0173450D03*
X0042650Y0181400D03*
X0042500Y0181550D03*
X0037100Y0175700D03*
D18*
X0037400Y0175400D03*
X0039950Y0183950D03*
X0052700Y0181400D03*
X0059750Y0189500D03*
X0073250Y0170000D03*
X0073250Y0166850D03*
X0083600Y0182900D03*
X0101750Y0175400D03*
X0106850Y0177050D03*
D19*
X0101825Y0180200D03*
X0101825Y0181850D03*
X0095825Y0178700D03*
X0097025Y0175550D03*
X0083675Y0182600D03*
X0083675Y0182750D03*
X0073325Y0169850D03*
X0073325Y0167000D03*
X0059675Y0186500D03*
X0051275Y0177350D03*
X0042275Y0181700D03*
D20*
X0039875Y0173150D03*
X0051425Y0177650D03*
X0059675Y0186650D03*
X0059675Y0189200D03*
X0073325Y0169700D03*
X0073325Y0167150D03*
X0083675Y0182300D03*
X0106625Y0177200D03*
D21*
X0102050Y0180050D03*
X0096050Y0179150D03*
X0096050Y0179000D03*
X0096050Y0178400D03*
X0083600Y0182150D03*
X0073250Y0169550D03*
X0073250Y0167300D03*
X0059750Y0186800D03*
X0059750Y0189050D03*
X0051500Y0177800D03*
D22*
X0051575Y0177950D03*
X0059675Y0186950D03*
X0059675Y0188900D03*
X0039875Y0183800D03*
X0073325Y0169400D03*
X0073325Y0167450D03*
X0083675Y0181850D03*
X0083675Y0182000D03*
X0096125Y0179300D03*
X0096425Y0179750D03*
X0096125Y0178250D03*
X0104375Y0173150D03*
D23*
X0047225Y0167600D03*
D24*
X0032750Y0184250D03*
X0060950Y0187100D03*
X0066500Y0184100D03*
X0072050Y0169250D03*
X0072050Y0167600D03*
X0111050Y0172100D03*
D25*
X0091175Y0168200D03*
X0091025Y0168050D03*
X0090575Y0167600D03*
D26*
X0047375Y0167750D03*
D27*
X0032600Y0169400D03*
X0032600Y0169550D03*
X0032600Y0169700D03*
X0032600Y0169850D03*
X0032600Y0170000D03*
X0032600Y0170150D03*
X0032600Y0170300D03*
X0032600Y0170450D03*
X0032600Y0170600D03*
X0032600Y0170750D03*
X0032600Y0170900D03*
X0032600Y0171050D03*
X0032600Y0171200D03*
X0032600Y0171350D03*
X0032600Y0171500D03*
X0032600Y0171650D03*
X0032600Y0171800D03*
X0032600Y0171950D03*
X0032600Y0172100D03*
X0032600Y0172250D03*
X0032600Y0172400D03*
X0032600Y0172550D03*
X0032600Y0172700D03*
X0032600Y0172850D03*
X0032600Y0173000D03*
X0032600Y0173150D03*
X0032600Y0173300D03*
X0032600Y0173450D03*
X0032600Y0173600D03*
X0032600Y0173750D03*
X0032600Y0173900D03*
X0032600Y0174050D03*
X0032600Y0174200D03*
X0032600Y0174350D03*
X0032600Y0174500D03*
X0032600Y0174650D03*
X0032600Y0174800D03*
X0032600Y0174950D03*
X0032600Y0175100D03*
X0032600Y0175250D03*
X0032600Y0175400D03*
X0032600Y0175550D03*
X0032600Y0175700D03*
X0032600Y0175850D03*
X0032600Y0176000D03*
X0032600Y0176150D03*
X0032600Y0176300D03*
X0032600Y0176450D03*
X0032600Y0176600D03*
X0032600Y0176750D03*
X0032600Y0176900D03*
X0032600Y0177050D03*
X0032600Y0177200D03*
X0032600Y0177350D03*
X0032600Y0177500D03*
X0032600Y0177650D03*
X0032600Y0177800D03*
X0032600Y0177950D03*
X0032600Y0178100D03*
X0032600Y0178250D03*
X0032600Y0178400D03*
X0032600Y0178550D03*
X0032600Y0178700D03*
X0032600Y0178850D03*
X0032600Y0179000D03*
X0032600Y0179150D03*
X0032600Y0179300D03*
X0032600Y0179450D03*
X0032600Y0179600D03*
X0032600Y0179750D03*
X0032600Y0179900D03*
X0032600Y0180050D03*
X0032600Y0180200D03*
X0032600Y0180350D03*
X0032600Y0180500D03*
X0032600Y0180650D03*
X0032600Y0180800D03*
X0032600Y0180950D03*
X0032600Y0181100D03*
X0032600Y0181250D03*
X0032600Y0181400D03*
X0032600Y0181550D03*
X0032600Y0181700D03*
X0032600Y0181850D03*
X0032600Y0182000D03*
X0032600Y0182150D03*
X0032600Y0182300D03*
X0032600Y0182450D03*
X0032600Y0182600D03*
X0032600Y0182750D03*
X0032600Y0182900D03*
X0032600Y0183050D03*
X0032600Y0183200D03*
X0032600Y0183350D03*
X0032600Y0183500D03*
X0032600Y0183650D03*
X0032600Y0183800D03*
X0032600Y0183950D03*
X0061100Y0187250D03*
X0061100Y0188600D03*
X0071900Y0169100D03*
X0071900Y0167750D03*
D28*
X0090800Y0167750D03*
X0090950Y0167900D03*
D29*
X0047450Y0167900D03*
D30*
X0047525Y0168050D03*
D31*
X0059750Y0185750D03*
X0061250Y0187550D03*
X0061250Y0187700D03*
X0061250Y0188300D03*
X0071750Y0168800D03*
X0071750Y0168650D03*
X0071750Y0168500D03*
X0071750Y0168350D03*
X0071750Y0168200D03*
X0071750Y0168050D03*
D32*
X0047600Y0168200D03*
D33*
X0047675Y0168350D03*
D34*
X0091325Y0168350D03*
D35*
X0047825Y0168500D03*
D36*
X0091400Y0168500D03*
D37*
X0047900Y0168650D03*
D38*
X0091475Y0168650D03*
D39*
X0047975Y0168800D03*
D40*
X0091475Y0168800D03*
D41*
X0048050Y0168950D03*
D42*
X0091550Y0168950D03*
D43*
X0048125Y0169100D03*
D44*
X0091625Y0169100D03*
D45*
X0048275Y0169250D03*
D46*
X0091550Y0169250D03*
D47*
X0087500Y0173450D03*
X0087350Y0173900D03*
X0087200Y0174200D03*
X0087200Y0174350D03*
X0087050Y0174650D03*
X0087050Y0174800D03*
X0081350Y0177650D03*
X0081500Y0178100D03*
X0080300Y0174800D03*
X0080300Y0174650D03*
X0080150Y0174350D03*
X0080150Y0174200D03*
X0080000Y0174050D03*
X0080000Y0173900D03*
X0080000Y0173750D03*
X0079850Y0173600D03*
X0079850Y0173450D03*
X0083600Y0183650D03*
X0097250Y0181250D03*
X0097250Y0180200D03*
X0097100Y0180050D03*
X0097400Y0177050D03*
X0097550Y0176750D03*
X0097550Y0176600D03*
X0097550Y0176450D03*
X0097550Y0176300D03*
X0097550Y0176150D03*
X0097550Y0176000D03*
X0101300Y0176000D03*
X0101300Y0176150D03*
X0101300Y0176300D03*
X0101450Y0180800D03*
X0101450Y0180950D03*
X0101450Y0181250D03*
X0101450Y0181400D03*
X0107000Y0181400D03*
X0107000Y0181250D03*
X0107300Y0176600D03*
X0107300Y0176450D03*
X0107300Y0176000D03*
X0107300Y0175850D03*
X0110600Y0171350D03*
X0110150Y0171050D03*
X0110000Y0170900D03*
X0109850Y0170750D03*
X0109700Y0170600D03*
X0109400Y0170450D03*
X0109250Y0170300D03*
X0109100Y0170150D03*
X0108950Y0170000D03*
X0108800Y0169850D03*
X0108500Y0169700D03*
X0108350Y0169550D03*
X0108200Y0169400D03*
X0069350Y0186950D03*
X0069200Y0186800D03*
X0069050Y0186650D03*
X0068900Y0186500D03*
X0068450Y0186200D03*
X0068300Y0186050D03*
X0068150Y0185900D03*
X0068000Y0185750D03*
X0067550Y0185450D03*
X0067400Y0185300D03*
X0067250Y0185150D03*
X0067100Y0185000D03*
X0066950Y0184850D03*
X0059750Y0189800D03*
X0053000Y0180950D03*
X0053000Y0180800D03*
X0053150Y0180500D03*
X0053150Y0180350D03*
X0053150Y0180200D03*
X0053150Y0180050D03*
X0053000Y0179600D03*
X0050900Y0176900D03*
X0042800Y0176000D03*
X0042800Y0175850D03*
X0042800Y0181100D03*
X0036950Y0180950D03*
X0036950Y0176150D03*
X0036950Y0176000D03*
X0033200Y0185000D03*
X0033350Y0185150D03*
X0033500Y0185300D03*
X0033800Y0185450D03*
X0033950Y0185600D03*
X0034100Y0185750D03*
X0034250Y0185900D03*
X0034400Y0186050D03*
X0034700Y0186200D03*
X0034850Y0186350D03*
X0035000Y0186500D03*
X0035150Y0186650D03*
X0035600Y0186950D03*
X0063500Y0169400D03*
X0063650Y0169550D03*
X0063800Y0169700D03*
X0064250Y0170000D03*
X0064400Y0170150D03*
X0064550Y0170300D03*
X0064700Y0170450D03*
X0065150Y0170750D03*
X0065300Y0170900D03*
X0065450Y0171050D03*
X0065600Y0171200D03*
D48*
X0065825Y0171350D03*
X0064925Y0170600D03*
X0064025Y0169850D03*
X0053075Y0173300D03*
X0050975Y0176750D03*
X0050975Y0177050D03*
X0052925Y0179450D03*
X0052925Y0181100D03*
X0059675Y0186200D03*
X0067775Y0185600D03*
X0068675Y0186350D03*
X0083675Y0183500D03*
X0097025Y0179900D03*
X0097325Y0177200D03*
X0097475Y0175850D03*
X0101375Y0175850D03*
X0101525Y0180650D03*
X0101525Y0181550D03*
X0106925Y0181550D03*
X0107225Y0176750D03*
X0107225Y0175700D03*
X0107075Y0175550D03*
X0110375Y0171200D03*
X0042725Y0175700D03*
X0042575Y0175550D03*
X0039875Y0173000D03*
X0037025Y0175850D03*
X0037025Y0181100D03*
X0037025Y0181250D03*
X0035375Y0186800D03*
X0042725Y0181250D03*
D49*
X0042950Y0180800D03*
X0042950Y0180650D03*
X0042950Y0176750D03*
X0033050Y0184700D03*
X0066050Y0171650D03*
X0066800Y0184700D03*
X0071150Y0183800D03*
X0082250Y0180200D03*
X0082100Y0179750D03*
X0085100Y0180050D03*
X0085100Y0180200D03*
X0085250Y0179750D03*
X0085400Y0179300D03*
X0085550Y0179000D03*
X0085550Y0178850D03*
X0085700Y0178550D03*
X0085850Y0178100D03*
X0086000Y0177650D03*
X0107150Y0180800D03*
X0107150Y0180950D03*
X0110750Y0171650D03*
D50*
X0110825Y0171800D03*
X0107225Y0180650D03*
X0087575Y0173150D03*
X0079775Y0173150D03*
X0066725Y0184550D03*
X0059675Y0189950D03*
X0059675Y0173150D03*
X0066125Y0171800D03*
X0046925Y0173150D03*
D51*
X0042875Y0180500D03*
X0039875Y0184100D03*
X0032825Y0184400D03*
X0059675Y0185900D03*
X0066575Y0184250D03*
X0066275Y0172100D03*
X0083675Y0183950D03*
X0101225Y0176900D03*
D52*
X0111125Y0176900D03*
X0111125Y0177050D03*
X0111125Y0177200D03*
X0111125Y0177350D03*
X0111125Y0177500D03*
X0111125Y0177650D03*
X0111125Y0177800D03*
X0111125Y0177950D03*
X0111125Y0178100D03*
X0111125Y0178250D03*
X0111125Y0178400D03*
X0111125Y0178550D03*
X0111125Y0178700D03*
X0111125Y0178850D03*
X0111125Y0179000D03*
X0111125Y0179150D03*
X0111125Y0179300D03*
X0111125Y0179450D03*
X0111125Y0179600D03*
X0111125Y0179750D03*
X0111125Y0179900D03*
X0111125Y0180050D03*
X0111125Y0180200D03*
X0111125Y0180350D03*
X0111125Y0180500D03*
X0111125Y0180650D03*
X0111125Y0180800D03*
X0111125Y0180950D03*
X0111125Y0181100D03*
X0111125Y0181250D03*
X0111125Y0181400D03*
X0111125Y0181550D03*
X0111125Y0181700D03*
X0111125Y0181850D03*
X0111125Y0182000D03*
X0111125Y0182150D03*
X0111125Y0182300D03*
X0111125Y0182450D03*
X0111125Y0182600D03*
X0111125Y0182750D03*
X0111125Y0182900D03*
X0111125Y0183050D03*
X0111125Y0183200D03*
X0111125Y0183350D03*
X0111125Y0183500D03*
X0111125Y0183650D03*
X0111125Y0183800D03*
X0111125Y0183950D03*
X0111125Y0184100D03*
X0111125Y0184250D03*
X0111125Y0184400D03*
X0111125Y0184550D03*
X0111125Y0184700D03*
X0111125Y0184850D03*
X0111125Y0185000D03*
X0111125Y0185150D03*
X0111125Y0185300D03*
X0111125Y0185450D03*
X0111125Y0185600D03*
X0111125Y0185750D03*
X0111125Y0185900D03*
X0111125Y0186050D03*
X0111125Y0186200D03*
X0111125Y0186350D03*
X0111125Y0186500D03*
X0111125Y0186650D03*
X0111125Y0186800D03*
X0111125Y0186950D03*
X0111125Y0176750D03*
X0111125Y0176600D03*
X0111125Y0176450D03*
X0111125Y0176300D03*
X0111125Y0176150D03*
X0111125Y0176000D03*
X0111125Y0175850D03*
X0111125Y0175700D03*
X0111125Y0175550D03*
X0111125Y0175400D03*
X0111125Y0175250D03*
X0111125Y0175100D03*
X0111125Y0174950D03*
X0111125Y0174800D03*
X0111125Y0174650D03*
X0111125Y0174500D03*
X0111125Y0174350D03*
X0111125Y0174200D03*
X0111125Y0174050D03*
X0111125Y0173900D03*
X0111125Y0173750D03*
X0111125Y0173600D03*
X0111125Y0173450D03*
X0111125Y0173300D03*
X0111125Y0173150D03*
X0111125Y0173000D03*
X0111125Y0172850D03*
X0111125Y0172700D03*
X0111125Y0172550D03*
X0111125Y0172400D03*
X0111125Y0172250D03*
X0066425Y0172250D03*
X0066425Y0172400D03*
X0066425Y0172550D03*
X0066425Y0172700D03*
X0066425Y0172850D03*
X0066425Y0173000D03*
X0066425Y0173150D03*
X0066425Y0173300D03*
X0066425Y0173450D03*
X0066425Y0173600D03*
X0066425Y0173750D03*
X0066425Y0173900D03*
X0066425Y0174050D03*
X0066425Y0174200D03*
X0066425Y0174350D03*
X0066425Y0174500D03*
X0066425Y0174650D03*
X0066425Y0174800D03*
X0066425Y0174950D03*
X0066425Y0175100D03*
X0066425Y0175250D03*
X0066425Y0175400D03*
X0066425Y0175550D03*
X0066425Y0175700D03*
X0066425Y0175850D03*
X0066425Y0176000D03*
X0066425Y0176150D03*
X0066425Y0176300D03*
X0066425Y0176450D03*
X0066425Y0176600D03*
X0066425Y0176750D03*
X0066425Y0176900D03*
X0066425Y0177050D03*
X0066425Y0177200D03*
X0066425Y0177350D03*
X0066425Y0177500D03*
X0066425Y0177650D03*
X0066425Y0177800D03*
X0066425Y0177950D03*
X0066425Y0178100D03*
X0066425Y0178250D03*
X0066425Y0178400D03*
X0066425Y0178550D03*
X0066425Y0178700D03*
X0066425Y0178850D03*
X0066425Y0179000D03*
X0066425Y0179150D03*
X0066425Y0179300D03*
X0066425Y0179450D03*
X0066425Y0179600D03*
X0066425Y0179750D03*
X0066425Y0179900D03*
X0066425Y0180050D03*
X0066425Y0180200D03*
X0066425Y0180350D03*
X0066425Y0180500D03*
X0066425Y0180650D03*
X0066425Y0180800D03*
X0066425Y0180950D03*
X0066425Y0181100D03*
X0066425Y0181250D03*
X0066425Y0181400D03*
X0066425Y0181550D03*
X0066425Y0181700D03*
X0066425Y0181850D03*
X0066425Y0182000D03*
X0066425Y0182150D03*
X0066425Y0182300D03*
X0066425Y0182450D03*
X0066425Y0182600D03*
X0066425Y0182750D03*
X0066425Y0182900D03*
X0066425Y0183050D03*
X0066425Y0183200D03*
X0066425Y0183350D03*
X0066425Y0183500D03*
X0066425Y0183650D03*
X0066425Y0183800D03*
X0066425Y0183950D03*
X0061025Y0188750D03*
X0059675Y0190100D03*
X0032675Y0184100D03*
D53*
X0039875Y0172850D03*
D54*
X0039875Y0174500D03*
X0039875Y0182600D03*
X0049325Y0183350D03*
X0073625Y0173150D03*
X0093425Y0173450D03*
X0093425Y0183500D03*
X0104225Y0182750D03*
X0104225Y0182600D03*
D55*
X0103625Y0179150D03*
X0104375Y0173750D03*
X0092975Y0173150D03*
X0039875Y0173900D03*
X0039875Y0183200D03*
D56*
X0051725Y0178400D03*
X0039875Y0173300D03*
X0083675Y0181400D03*
X0083675Y0181550D03*
X0096275Y0177950D03*
X0096275Y0177800D03*
X0096425Y0177500D03*
X0104225Y0183800D03*
X0106325Y0177350D03*
D57*
X0104375Y0174500D03*
X0104225Y0182300D03*
X0104225Y0182450D03*
X0093575Y0173600D03*
X0083675Y0176900D03*
X0083675Y0177050D03*
X0083675Y0177200D03*
X0073625Y0175400D03*
X0073625Y0175250D03*
X0073625Y0175100D03*
X0073625Y0174950D03*
X0073625Y0174800D03*
X0073625Y0174650D03*
X0073625Y0174500D03*
X0073625Y0174350D03*
X0073625Y0174200D03*
X0073625Y0174050D03*
X0073625Y0173900D03*
X0073625Y0173750D03*
X0073625Y0173600D03*
X0073625Y0173450D03*
X0073625Y0173300D03*
X0049475Y0183050D03*
X0039875Y0182450D03*
X0039875Y0182300D03*
X0039875Y0174650D03*
D58*
X0039800Y0174200D03*
X0093200Y0173300D03*
X0104300Y0174050D03*
X0093200Y0183650D03*
D59*
X0102575Y0179750D03*
X0104375Y0173300D03*
X0083675Y0180950D03*
X0083675Y0181100D03*
D60*
X0083675Y0180800D03*
X0083675Y0180650D03*
X0104225Y0183650D03*
X0106025Y0177500D03*
X0039875Y0173450D03*
D61*
X0039875Y0183500D03*
X0083675Y0180350D03*
X0092675Y0183950D03*
X0102875Y0179600D03*
X0105725Y0177650D03*
X0104375Y0173450D03*
D62*
X0103175Y0179450D03*
X0104225Y0183500D03*
X0039875Y0173600D03*
D63*
X0039875Y0173750D03*
X0103325Y0179300D03*
X0104225Y0183350D03*
X0104375Y0173600D03*
D64*
X0101525Y0175550D03*
X0097175Y0177350D03*
X0101675Y0180350D03*
X0101675Y0181700D03*
X0106775Y0181700D03*
X0083675Y0183050D03*
X0083675Y0183200D03*
X0059675Y0186350D03*
X0052625Y0179150D03*
X0051125Y0177200D03*
X0051275Y0176150D03*
X0051575Y0175700D03*
X0051875Y0175250D03*
X0052025Y0175100D03*
X0052175Y0174800D03*
X0052325Y0174650D03*
X0052475Y0174350D03*
X0052625Y0174200D03*
X0052775Y0173900D03*
X0052925Y0173750D03*
X0042425Y0175400D03*
X0037175Y0175550D03*
X0037175Y0181400D03*
X0037325Y0181550D03*
D65*
X0039800Y0174800D03*
X0049550Y0182900D03*
X0093650Y0183200D03*
X0093650Y0173750D03*
X0104300Y0174650D03*
D66*
X0104300Y0174800D03*
X0104300Y0174950D03*
X0093800Y0173900D03*
X0093800Y0182900D03*
X0083600Y0176450D03*
X0059750Y0181550D03*
X0049700Y0182600D03*
X0039800Y0175100D03*
D67*
X0039875Y0182900D03*
X0049025Y0183650D03*
X0104225Y0183050D03*
X0104375Y0173900D03*
D68*
X0104600Y0178400D03*
X0104450Y0178550D03*
X0039800Y0174050D03*
D69*
X0039875Y0175250D03*
X0039875Y0181850D03*
X0049775Y0182300D03*
X0049775Y0182450D03*
X0083675Y0176300D03*
X0083675Y0176150D03*
X0093875Y0174050D03*
X0093875Y0182750D03*
D70*
X0093950Y0182600D03*
X0093950Y0182450D03*
X0093950Y0174200D03*
X0104300Y0175100D03*
X0104300Y0175250D03*
X0059750Y0181700D03*
X0059750Y0183650D03*
X0059750Y0183800D03*
X0049850Y0182150D03*
X0049850Y0182000D03*
D71*
X0104300Y0174200D03*
D72*
X0104225Y0182900D03*
X0049175Y0183500D03*
X0039875Y0182750D03*
X0039875Y0174350D03*
D73*
X0049925Y0181550D03*
X0049925Y0181700D03*
X0049925Y0181850D03*
X0059675Y0181850D03*
X0059675Y0182000D03*
X0059675Y0182150D03*
X0059675Y0182300D03*
X0059675Y0182450D03*
X0059675Y0182600D03*
X0059675Y0182750D03*
X0059675Y0182900D03*
X0059675Y0183050D03*
X0059675Y0183200D03*
X0059675Y0183350D03*
X0059675Y0183500D03*
X0083675Y0176000D03*
X0083675Y0175850D03*
X0083675Y0175700D03*
X0094025Y0174350D03*
X0094025Y0182150D03*
X0094025Y0182300D03*
D74*
X0093500Y0183350D03*
X0104300Y0174350D03*
X0049400Y0183200D03*
D75*
X0094100Y0182000D03*
X0094100Y0181850D03*
X0094100Y0181700D03*
X0094100Y0174650D03*
X0094100Y0174500D03*
D76*
X0094175Y0174800D03*
X0094175Y0174950D03*
X0094175Y0181550D03*
X0083675Y0175550D03*
X0083675Y0175400D03*
D77*
X0083675Y0176600D03*
X0083675Y0176750D03*
X0093725Y0183050D03*
X0104225Y0182150D03*
X0104225Y0182000D03*
X0049625Y0182750D03*
X0039875Y0182150D03*
X0039875Y0182000D03*
X0039875Y0174950D03*
D78*
X0083675Y0174950D03*
X0083675Y0175100D03*
D79*
X0083600Y0175250D03*
X0094250Y0175250D03*
X0094250Y0175400D03*
X0094250Y0175100D03*
D80*
X0095900Y0178550D03*
X0095900Y0178850D03*
X0104150Y0183950D03*
X0106550Y0181850D03*
X0083600Y0182450D03*
X0059750Y0189350D03*
X0052400Y0179000D03*
X0051350Y0177500D03*
X0037550Y0181700D03*
D81*
X0051800Y0178700D03*
X0051800Y0178550D03*
X0051950Y0178850D03*
X0083600Y0181250D03*
X0096350Y0177650D03*
D82*
X0105500Y0177800D03*
X0039950Y0183350D03*
D83*
X0048800Y0183800D03*
X0105200Y0177950D03*
D84*
X0102350Y0179900D03*
X0096200Y0179600D03*
X0096200Y0179450D03*
X0096200Y0178100D03*
X0083600Y0181700D03*
X0051650Y0178250D03*
X0051650Y0178100D03*
D85*
X0103850Y0179000D03*
X0105050Y0178100D03*
D86*
X0104825Y0178250D03*
X0104225Y0178700D03*
X0104075Y0178850D03*
X0104225Y0183200D03*
X0092975Y0183800D03*
X0039875Y0183050D03*
D87*
X0083600Y0180500D03*
D88*
X0039950Y0183650D03*
D89*
X0046850Y0187100D03*
D90*
X0090050Y0187100D03*
D91*
X0046850Y0187250D03*
D92*
X0090200Y0187250D03*
D93*
X0046850Y0187400D03*
D94*
X0090275Y0187400D03*
D95*
X0046850Y0187550D03*
D96*
X0090350Y0187550D03*
D97*
X0046925Y0187700D03*
D98*
X0090425Y0187700D03*
D99*
X0047000Y0187850D03*
D100*
X0090575Y0187850D03*
D101*
X0047075Y0188000D03*
D102*
X0090650Y0188000D03*
D103*
X0047300Y0188300D03*
X0047150Y0188150D03*
D104*
X0090725Y0188150D03*
D105*
X0090800Y0188300D03*
D106*
X0047750Y0188750D03*
X0047600Y0188600D03*
X0047450Y0188450D03*
D107*
X0090875Y0188450D03*
D108*
X0091025Y0188600D03*
D109*
X0091100Y0188750D03*
D110*
X0101914Y0146004D02*
X0103449Y0146004D01*
X0104216Y0145237D01*
X0101147Y0142167D01*
X0101914Y0141400D01*
X0103449Y0141400D01*
X0104216Y0142167D01*
X0104216Y0145237D01*
X0101914Y0146004D02*
X0101147Y0145237D01*
X0101147Y0142167D01*
X0099612Y0144469D02*
X0098078Y0141400D01*
X0096543Y0144469D01*
X0105751Y0142167D02*
X0106518Y0142167D01*
X0106518Y0141400D01*
X0105751Y0141400D01*
X0105751Y0142167D01*
X0108053Y0142167D02*
X0108820Y0141400D01*
X0110355Y0141400D01*
X0111122Y0142167D01*
X0111122Y0142935D01*
X0110355Y0143702D01*
X0109588Y0143702D01*
X0110355Y0143702D02*
X0111122Y0144469D01*
X0111122Y0145237D01*
X0110355Y0146004D01*
X0108820Y0146004D01*
X0108053Y0145237D01*
D111*
X0105522Y0139171D02*
X0105522Y0138454D01*
X0105522Y0137019D02*
X0105522Y0134150D01*
X0104805Y0134150D02*
X0106239Y0134150D01*
X0107874Y0134867D02*
X0108591Y0134150D01*
X0110026Y0134150D01*
X0110743Y0134867D01*
X0110743Y0136302D01*
X0110026Y0137019D01*
X0108591Y0137019D01*
X0107874Y0136302D01*
X0107874Y0134867D01*
X0105522Y0137019D02*
X0104805Y0137019D01*
X0103220Y0134867D02*
X0102503Y0134867D01*
X0102503Y0134150D01*
X0103220Y0134150D01*
X0103220Y0134867D01*
X0100768Y0134150D02*
X0098616Y0134150D01*
X0097899Y0134867D01*
X0097899Y0136302D01*
X0098616Y0137019D01*
X0100768Y0137019D01*
X0100768Y0132715D01*
X0096164Y0134150D02*
X0094012Y0134150D01*
X0093295Y0134867D01*
X0094012Y0135585D01*
X0096164Y0135585D01*
X0096164Y0136302D02*
X0096164Y0134150D01*
X0096164Y0136302D02*
X0095447Y0137019D01*
X0094012Y0137019D01*
X0090943Y0137019D02*
X0090943Y0134150D01*
X0090226Y0134150D02*
X0091660Y0134150D01*
X0090943Y0137019D02*
X0090226Y0137019D01*
X0090943Y0138454D02*
X0090943Y0139171D01*
X0088491Y0136302D02*
X0087774Y0137019D01*
X0085622Y0137019D01*
X0085622Y0132715D01*
X0085622Y0134150D02*
X0087774Y0134150D01*
X0088491Y0134867D01*
X0088491Y0136302D01*
D112*
X0081200Y0148000D03*
X0080800Y0148000D03*
X0080400Y0148000D03*
X0080000Y0148000D03*
X0079600Y0148000D03*
X0075600Y0150000D03*
X0076200Y0151800D03*
X0070000Y0150000D03*
X0068800Y0152800D03*
X0068400Y0152800D03*
X0068000Y0152800D03*
X0067600Y0152800D03*
X0067200Y0152800D03*
X0066800Y0152800D03*
X0066400Y0152800D03*
X0066000Y0152800D03*
X0065600Y0152800D03*
X0059600Y0150000D03*
X0055400Y0153800D03*
X0054400Y0153600D03*
X0054000Y0153600D03*
X0053600Y0153600D03*
X0053200Y0153600D03*
X0052800Y0153600D03*
X0054400Y0155600D03*
X0054800Y0161200D03*
X0054200Y0161400D03*
X0053800Y0161400D03*
X0053400Y0161400D03*
X0053000Y0161400D03*
X0052600Y0161400D03*
X0055200Y0163200D03*
X0055800Y0163000D03*
X0060000Y0160400D03*
X0060400Y0160400D03*
X0060800Y0160400D03*
X0075600Y0163200D03*
X0076600Y0161400D03*
X0077000Y0161400D03*
X0078000Y0163200D03*
X0078600Y0163000D03*
X0088200Y0157400D03*
X0088600Y0157400D03*
X0089000Y0157400D03*
X0089400Y0157400D03*
X0089800Y0157400D03*
X0090200Y0157400D03*
X0090600Y0157400D03*
X0091000Y0157400D03*
X0091400Y0157400D03*
X0091800Y0157400D03*
X0098400Y0152800D03*
X0098800Y0152800D03*
X0099200Y0152800D03*
X0099600Y0152800D03*
X0100000Y0152800D03*
X0100400Y0152800D03*
X0100800Y0152800D03*
X0101200Y0152800D03*
X0101600Y0152800D03*
X0102800Y0150000D03*
X0105000Y0161400D03*
X0105400Y0161400D03*
X0105800Y0161400D03*
X0106200Y0161400D03*
X0106600Y0161400D03*
X0109400Y0161400D03*
X0109800Y0161400D03*
X0110200Y0161400D03*
X0110600Y0161400D03*
X0111000Y0161400D03*
X0111400Y0161400D03*
D113*
X0108100Y0161200D03*
X0108100Y0161000D03*
X0108100Y0160800D03*
X0108100Y0160400D03*
X0108100Y0160000D03*
X0108100Y0159600D03*
X0108100Y0159400D03*
X0108100Y0159200D03*
X0108100Y0158800D03*
X0108100Y0158400D03*
X0108100Y0158000D03*
X0108100Y0157800D03*
X0108100Y0157600D03*
X0108100Y0157200D03*
X0108100Y0156800D03*
X0108100Y0156400D03*
X0108100Y0156200D03*
X0108100Y0156000D03*
X0108100Y0155600D03*
X0108100Y0155200D03*
X0108100Y0154800D03*
X0108100Y0154600D03*
X0108100Y0154400D03*
X0108100Y0154000D03*
X0108100Y0153600D03*
X0108100Y0153200D03*
X0108100Y0153000D03*
X0108100Y0152800D03*
X0108100Y0152400D03*
X0108100Y0152000D03*
X0108100Y0151600D03*
X0108100Y0151400D03*
X0108100Y0151200D03*
X0108100Y0150800D03*
X0108100Y0150400D03*
X0108100Y0150200D03*
X0103700Y0150400D03*
X0103500Y0151400D03*
X0103300Y0151800D03*
X0102700Y0155000D03*
X0102500Y0155400D03*
X0102500Y0156000D03*
X0102100Y0157400D03*
X0102100Y0157600D03*
X0101900Y0158600D03*
X0101700Y0159400D03*
X0101700Y0159600D03*
X0101500Y0160000D03*
X0101500Y0160200D03*
X0101500Y0160400D03*
X0101300Y0161200D03*
X0101300Y0161400D03*
X0101300Y0161600D03*
X0101100Y0162200D03*
X0099100Y0162000D03*
X0098900Y0161200D03*
X0098900Y0161000D03*
X0098700Y0160200D03*
X0098500Y0159000D03*
X0098500Y0158800D03*
X0098300Y0158400D03*
X0098300Y0157800D03*
X0098100Y0157400D03*
X0097900Y0156200D03*
X0097700Y0155200D03*
X0097100Y0152600D03*
X0096700Y0150600D03*
X0093300Y0150600D03*
X0093300Y0151000D03*
X0093300Y0151400D03*
X0093300Y0151800D03*
X0093300Y0152200D03*
X0093300Y0152600D03*
X0093300Y0153000D03*
X0093300Y0153400D03*
X0093300Y0153800D03*
X0093300Y0154200D03*
X0093300Y0154600D03*
X0093300Y0155000D03*
X0093300Y0155400D03*
X0093300Y0157800D03*
X0093300Y0158200D03*
X0093300Y0158600D03*
X0093300Y0159000D03*
X0093300Y0159400D03*
X0093300Y0159800D03*
X0093300Y0160200D03*
X0093300Y0160600D03*
X0093300Y0161000D03*
X0093300Y0161400D03*
X0093300Y0161800D03*
X0093300Y0162200D03*
X0093300Y0162600D03*
X0086700Y0162600D03*
X0086700Y0162800D03*
X0086700Y0162400D03*
X0086700Y0162000D03*
X0086700Y0161600D03*
X0086700Y0161200D03*
X0086700Y0161000D03*
X0086700Y0160800D03*
X0086700Y0160400D03*
X0086700Y0160000D03*
X0086700Y0159600D03*
X0086700Y0159400D03*
X0086700Y0159200D03*
X0086700Y0158800D03*
X0086700Y0158400D03*
X0086700Y0158000D03*
X0086700Y0157800D03*
X0086700Y0157600D03*
X0086700Y0155200D03*
X0086700Y0154800D03*
X0086700Y0154600D03*
X0086700Y0154400D03*
X0086700Y0154000D03*
X0086700Y0153600D03*
X0086700Y0153200D03*
X0086700Y0153000D03*
X0086700Y0152800D03*
X0086700Y0152400D03*
X0086700Y0152000D03*
X0086700Y0151600D03*
X0086700Y0151400D03*
X0086700Y0151200D03*
X0086700Y0150800D03*
X0086700Y0150400D03*
X0080300Y0148200D03*
X0079900Y0153800D03*
X0079900Y0154200D03*
X0079900Y0154600D03*
X0079900Y0155000D03*
X0079900Y0155400D03*
X0079900Y0155800D03*
X0079900Y0156200D03*
X0079900Y0156600D03*
X0079900Y0157000D03*
X0079900Y0157400D03*
X0079900Y0157800D03*
X0079900Y0158200D03*
X0079900Y0158600D03*
X0079900Y0159000D03*
X0079900Y0159400D03*
X0079900Y0159800D03*
X0079700Y0160200D03*
X0073900Y0160200D03*
X0073700Y0159800D03*
X0073700Y0159400D03*
X0073700Y0159000D03*
X0073700Y0158600D03*
X0073700Y0158200D03*
X0073700Y0157800D03*
X0073700Y0157400D03*
X0073700Y0157000D03*
X0073700Y0156600D03*
X0073700Y0156200D03*
X0073700Y0155800D03*
X0073700Y0155400D03*
X0073700Y0155000D03*
X0073700Y0154600D03*
X0073700Y0154200D03*
X0073700Y0153800D03*
X0073700Y0153400D03*
X0070500Y0151800D03*
X0070700Y0151400D03*
X0070900Y0150400D03*
X0069900Y0155000D03*
X0069700Y0155400D03*
X0069700Y0156000D03*
X0069300Y0157400D03*
X0069300Y0157600D03*
X0069100Y0158600D03*
X0068900Y0159400D03*
X0068900Y0159600D03*
X0068700Y0160000D03*
X0068700Y0160200D03*
X0068700Y0160400D03*
X0068500Y0161200D03*
X0068500Y0161400D03*
X0068500Y0161600D03*
X0068300Y0162200D03*
X0066300Y0162000D03*
X0066100Y0161200D03*
X0066100Y0161000D03*
X0065900Y0160200D03*
X0065700Y0159000D03*
X0065700Y0158800D03*
X0065500Y0158400D03*
X0065500Y0157800D03*
X0065300Y0157400D03*
X0065100Y0156200D03*
X0064900Y0155200D03*
X0064300Y0152600D03*
X0063900Y0150600D03*
X0060500Y0150600D03*
X0060500Y0150800D03*
X0060500Y0151000D03*
X0060500Y0151200D03*
X0060500Y0151400D03*
X0060500Y0151600D03*
X0060500Y0152000D03*
X0060500Y0152200D03*
X0060500Y0152400D03*
X0060500Y0152600D03*
X0060500Y0152800D03*
X0060500Y0153000D03*
X0060500Y0153200D03*
X0060500Y0153600D03*
X0060500Y0153800D03*
X0060500Y0154000D03*
X0060500Y0154200D03*
X0060500Y0154400D03*
X0060500Y0154600D03*
X0060500Y0154800D03*
X0060500Y0155200D03*
X0060500Y0155400D03*
X0060500Y0155600D03*
X0060500Y0155800D03*
X0060500Y0156000D03*
X0060500Y0156200D03*
X0060500Y0156400D03*
X0060500Y0156800D03*
X0060500Y0157000D03*
X0060500Y0157200D03*
X0060500Y0157400D03*
X0060500Y0157600D03*
X0060500Y0157800D03*
X0060500Y0158000D03*
X0060500Y0158400D03*
X0060500Y0158600D03*
X0060500Y0158800D03*
X0060500Y0159000D03*
X0060500Y0159200D03*
X0060500Y0159400D03*
X0060500Y0159600D03*
X0060500Y0159800D03*
X0060500Y0160000D03*
X0060500Y0162200D03*
X0060500Y0163600D03*
X0057300Y0159600D03*
X0057300Y0159200D03*
X0057300Y0158800D03*
X0057300Y0158400D03*
X0057300Y0158000D03*
X0057300Y0157600D03*
X0057100Y0156600D03*
X0051300Y0156600D03*
X0051300Y0157000D03*
X0051300Y0157400D03*
X0051300Y0157800D03*
X0051300Y0158200D03*
X0051300Y0158600D03*
X0051300Y0159000D03*
X0051300Y0159400D03*
X0051300Y0159800D03*
X0051300Y0160200D03*
X0051300Y0160600D03*
X0051300Y0161000D03*
X0051300Y0161400D03*
X0051300Y0156200D03*
X0051300Y0155800D03*
X0051300Y0153400D03*
X0051300Y0153000D03*
X0051300Y0152600D03*
X0051300Y0152200D03*
X0051300Y0151800D03*
X0051300Y0151400D03*
X0051300Y0151000D03*
X0051300Y0150600D03*
X0060500Y0150400D03*
D114*
X0060400Y0151800D03*
X0060400Y0153400D03*
X0060400Y0155000D03*
X0060400Y0156600D03*
X0060400Y0158200D03*
X0057200Y0158200D03*
X0057200Y0158600D03*
X0057200Y0159000D03*
X0057200Y0159400D03*
X0057200Y0159800D03*
X0057200Y0160000D03*
X0057200Y0160200D03*
X0057000Y0160400D03*
X0057200Y0157800D03*
X0057200Y0157400D03*
X0057200Y0157200D03*
X0057200Y0157000D03*
X0057000Y0156800D03*
X0057000Y0156400D03*
X0056800Y0156200D03*
X0051400Y0156400D03*
X0051400Y0156800D03*
X0051400Y0157200D03*
X0051400Y0157600D03*
X0051400Y0158000D03*
X0051400Y0158400D03*
X0051400Y0158800D03*
X0051400Y0159200D03*
X0051400Y0159600D03*
X0051400Y0160000D03*
X0051400Y0160400D03*
X0051400Y0160800D03*
X0051400Y0161200D03*
X0051400Y0156000D03*
X0051400Y0155600D03*
X0051400Y0153600D03*
X0051400Y0153200D03*
X0051400Y0152800D03*
X0051400Y0152400D03*
X0051400Y0152000D03*
X0051400Y0151600D03*
X0051400Y0151200D03*
X0051400Y0150800D03*
X0051400Y0150400D03*
X0063800Y0150400D03*
X0063800Y0150800D03*
X0064000Y0151000D03*
X0064000Y0151200D03*
X0064000Y0151400D03*
X0064200Y0151600D03*
X0064000Y0151800D03*
X0064200Y0152000D03*
X0064200Y0152400D03*
X0064200Y0152800D03*
X0064800Y0154800D03*
X0064800Y0155000D03*
X0064800Y0155400D03*
X0065000Y0155600D03*
X0065000Y0156000D03*
X0065000Y0156400D03*
X0065200Y0156600D03*
X0065200Y0156800D03*
X0065200Y0157000D03*
X0065400Y0157200D03*
X0065400Y0157600D03*
X0065400Y0158000D03*
X0065600Y0158200D03*
X0065600Y0158600D03*
X0065800Y0159200D03*
X0065800Y0159600D03*
X0065800Y0160000D03*
X0066000Y0160600D03*
X0066200Y0161600D03*
X0068400Y0161800D03*
X0068600Y0160800D03*
X0068800Y0159800D03*
X0069000Y0159200D03*
X0069000Y0158800D03*
X0069000Y0158400D03*
X0069200Y0158200D03*
X0069200Y0158000D03*
X0069200Y0157800D03*
X0069400Y0157200D03*
X0069400Y0156800D03*
X0069600Y0156600D03*
X0069400Y0156400D03*
X0069600Y0156200D03*
X0069600Y0155800D03*
X0069800Y0155600D03*
X0069800Y0155200D03*
X0069800Y0154800D03*
X0070200Y0152800D03*
X0070400Y0152600D03*
X0070400Y0152400D03*
X0070400Y0152200D03*
X0070600Y0152000D03*
X0070600Y0151600D03*
X0070600Y0151200D03*
X0070800Y0151000D03*
X0070800Y0150800D03*
X0070800Y0150600D03*
X0073800Y0152800D03*
X0074000Y0152600D03*
X0074200Y0152200D03*
X0073800Y0153200D03*
X0073800Y0153600D03*
X0073800Y0154000D03*
X0073800Y0154400D03*
X0073800Y0154800D03*
X0073800Y0155200D03*
X0073800Y0155600D03*
X0073800Y0156000D03*
X0073800Y0156400D03*
X0073800Y0156800D03*
X0073800Y0157200D03*
X0073800Y0157600D03*
X0073800Y0158000D03*
X0073800Y0158400D03*
X0073800Y0158800D03*
X0073800Y0159200D03*
X0073800Y0159600D03*
X0073800Y0160000D03*
X0074000Y0160600D03*
X0079600Y0160600D03*
X0079800Y0160400D03*
X0079800Y0160000D03*
X0079800Y0159600D03*
X0079800Y0159200D03*
X0079800Y0158800D03*
X0079800Y0158400D03*
X0079800Y0158000D03*
X0079800Y0157600D03*
X0079800Y0157200D03*
X0079800Y0156800D03*
X0079800Y0156400D03*
X0079800Y0156000D03*
X0079800Y0155600D03*
X0079800Y0155200D03*
X0079800Y0154800D03*
X0079800Y0154400D03*
X0079800Y0154000D03*
X0079800Y0153600D03*
X0079800Y0153200D03*
X0079800Y0152800D03*
X0079600Y0152600D03*
X0080200Y0148400D03*
X0086800Y0150600D03*
X0086800Y0151000D03*
X0086800Y0151800D03*
X0086800Y0152200D03*
X0086800Y0152600D03*
X0086800Y0153400D03*
X0086800Y0153800D03*
X0086800Y0154200D03*
X0086800Y0155000D03*
X0086800Y0155400D03*
X0086800Y0157400D03*
X0086800Y0158200D03*
X0086800Y0158600D03*
X0086800Y0159000D03*
X0086800Y0159800D03*
X0086800Y0160200D03*
X0086800Y0160600D03*
X0086800Y0161400D03*
X0086800Y0161800D03*
X0086800Y0162200D03*
X0093400Y0162400D03*
X0093400Y0162800D03*
X0093400Y0162000D03*
X0093400Y0161600D03*
X0093400Y0161200D03*
X0093400Y0160800D03*
X0093400Y0160400D03*
X0093400Y0160000D03*
X0093400Y0159600D03*
X0093400Y0159200D03*
X0093400Y0158800D03*
X0093400Y0158400D03*
X0093400Y0158000D03*
X0093400Y0157600D03*
X0093200Y0157400D03*
X0093400Y0155200D03*
X0093400Y0154800D03*
X0093400Y0154400D03*
X0093400Y0154000D03*
X0093400Y0153600D03*
X0093400Y0153200D03*
X0093400Y0152800D03*
X0093400Y0152400D03*
X0093400Y0152000D03*
X0093400Y0151600D03*
X0093400Y0151200D03*
X0093400Y0150800D03*
X0093400Y0150400D03*
X0096600Y0150400D03*
X0096600Y0150800D03*
X0096800Y0151000D03*
X0096800Y0151200D03*
X0096800Y0151400D03*
X0097000Y0151600D03*
X0096800Y0151800D03*
X0097000Y0152000D03*
X0097000Y0152400D03*
X0097000Y0152800D03*
X0097600Y0154800D03*
X0097600Y0155000D03*
X0097600Y0155400D03*
X0097800Y0155600D03*
X0097800Y0156000D03*
X0097800Y0156400D03*
X0098000Y0156600D03*
X0098000Y0156800D03*
X0098000Y0157000D03*
X0098200Y0157200D03*
X0098200Y0157600D03*
X0098200Y0158000D03*
X0098400Y0158200D03*
X0098400Y0158600D03*
X0098600Y0159200D03*
X0098600Y0159600D03*
X0098600Y0160000D03*
X0098800Y0160600D03*
X0099000Y0161600D03*
X0101200Y0161800D03*
X0101400Y0160800D03*
X0101600Y0159800D03*
X0101800Y0159200D03*
X0101800Y0158800D03*
X0101800Y0158400D03*
X0102000Y0158200D03*
X0102000Y0158000D03*
X0102000Y0157800D03*
X0102200Y0157200D03*
X0102200Y0156800D03*
X0102400Y0156600D03*
X0102200Y0156400D03*
X0102400Y0156200D03*
X0102400Y0155800D03*
X0102600Y0155600D03*
X0102600Y0155200D03*
X0102600Y0154800D03*
X0103000Y0152800D03*
X0103200Y0152600D03*
X0103200Y0152400D03*
X0103200Y0152200D03*
X0103400Y0152000D03*
X0103400Y0151600D03*
X0103400Y0151200D03*
X0103600Y0151000D03*
X0103600Y0150800D03*
X0103600Y0150600D03*
X0108000Y0150600D03*
X0108000Y0151000D03*
X0108000Y0151800D03*
X0108000Y0152200D03*
X0108000Y0152600D03*
X0108000Y0153400D03*
X0108000Y0153800D03*
X0108000Y0154200D03*
X0108000Y0155000D03*
X0108000Y0155400D03*
X0108000Y0155800D03*
X0108000Y0156600D03*
X0108000Y0157000D03*
X0108000Y0157400D03*
X0108000Y0158200D03*
X0108000Y0158600D03*
X0108000Y0159000D03*
X0108000Y0159800D03*
X0108000Y0160200D03*
X0108000Y0160600D03*
X0108000Y0161400D03*
X0060600Y0162400D03*
X0060400Y0162600D03*
X0060400Y0163000D03*
X0060400Y0163400D03*
D115*
X0060500Y0163200D03*
X0060500Y0162800D03*
X0056900Y0160600D03*
X0073900Y0160400D03*
X0074100Y0160800D03*
X0079300Y0161000D03*
X0079500Y0160800D03*
X0079500Y0152400D03*
X0080100Y0148600D03*
X0074100Y0152400D03*
D116*
X0074400Y0152000D03*
X0074600Y0151800D03*
X0079000Y0151800D03*
X0079200Y0152000D03*
X0079400Y0152200D03*
X0079000Y0149800D03*
X0079200Y0149600D03*
X0079400Y0149400D03*
X0079600Y0149200D03*
X0079800Y0149000D03*
X0080000Y0148800D03*
X0074200Y0161000D03*
X0056800Y0160800D03*
X0056600Y0161000D03*
X0056800Y0156000D03*
X0056600Y0155800D03*
D117*
X0060600Y0150000D03*
X0063800Y0150000D03*
X0071000Y0150000D03*
X0060400Y0163800D03*
X0051400Y0150000D03*
X0086600Y0163200D03*
X0093400Y0163200D03*
X0093400Y0150000D03*
X0096600Y0150000D03*
X0103800Y0150000D03*
D118*
X0078000Y0150000D03*
X0076800Y0162800D03*
X0052800Y0163200D03*
D119*
X0060400Y0162000D03*
X0066000Y0160800D03*
X0066000Y0160400D03*
X0065800Y0159800D03*
X0065800Y0159400D03*
X0066200Y0161400D03*
X0066200Y0161800D03*
X0066200Y0162200D03*
X0068400Y0162000D03*
X0068600Y0161000D03*
X0068600Y0160600D03*
X0069000Y0159000D03*
X0069400Y0157000D03*
X0073800Y0153000D03*
X0071000Y0150200D03*
X0064200Y0152200D03*
X0063800Y0150200D03*
X0065000Y0155800D03*
X0076800Y0163200D03*
X0086600Y0163000D03*
X0093400Y0163000D03*
X0099000Y0162200D03*
X0099000Y0161800D03*
X0099000Y0161400D03*
X0098800Y0160800D03*
X0098800Y0160400D03*
X0098600Y0159800D03*
X0098600Y0159400D03*
X0101400Y0160600D03*
X0101400Y0161000D03*
X0101200Y0162000D03*
X0101800Y0159000D03*
X0102200Y0157000D03*
X0097800Y0155800D03*
X0097000Y0152200D03*
X0096600Y0150200D03*
X0093400Y0150200D03*
X0086800Y0150000D03*
X0086600Y0150200D03*
X0079800Y0153000D03*
X0079800Y0153400D03*
X0103800Y0150200D03*
X0051400Y0150200D03*
D120*
X0060500Y0150200D03*
X0060500Y0160200D03*
X0108100Y0150000D03*
D121*
X0077600Y0150200D03*
X0076800Y0162600D03*
D122*
X0077000Y0150600D03*
X0077200Y0150400D03*
X0053000Y0163000D03*
D123*
X0053200Y0154000D03*
X0076800Y0150800D03*
X0076800Y0162400D03*
D124*
X0076900Y0162200D03*
X0076900Y0151000D03*
X0053300Y0154200D03*
D125*
X0076700Y0151200D03*
D126*
X0076800Y0151400D03*
X0076800Y0162000D03*
X0053600Y0162400D03*
X0053600Y0154600D03*
D127*
X0053800Y0154800D03*
X0053800Y0155000D03*
X0053800Y0162000D03*
X0076800Y0161600D03*
X0076800Y0151600D03*
D128*
X0067300Y0153000D03*
X0067300Y0153200D03*
X0067300Y0153400D03*
X0100100Y0153400D03*
X0100100Y0153200D03*
X0100100Y0153000D03*
X0108100Y0162400D03*
D129*
X0108000Y0162600D03*
X0108000Y0162800D03*
X0108000Y0162200D03*
X0108200Y0162000D03*
X0108000Y0161800D03*
X0100200Y0154000D03*
X0100200Y0153600D03*
X0067400Y0153600D03*
X0067400Y0154000D03*
D130*
X0052700Y0153800D03*
D131*
X0067300Y0153800D03*
X0100100Y0153800D03*
X0108100Y0163000D03*
D132*
X0108000Y0163200D03*
X0108000Y0161600D03*
X0100200Y0154200D03*
X0100000Y0154400D03*
X0067400Y0154200D03*
X0067200Y0154400D03*
X0054000Y0161600D03*
D133*
X0053400Y0162600D03*
X0053400Y0162800D03*
X0053400Y0154400D03*
X0076800Y0161800D03*
D134*
X0067300Y0154600D03*
X0053900Y0155200D03*
X0053900Y0155400D03*
X0053900Y0161800D03*
X0100100Y0154600D03*
D135*
X0100200Y0163200D03*
X0079000Y0161200D03*
X0078800Y0161400D03*
X0076800Y0163000D03*
X0074800Y0161400D03*
X0074600Y0161200D03*
X0067400Y0163200D03*
X0056200Y0155600D03*
D136*
X0090100Y0155600D03*
X0090100Y0156000D03*
X0090100Y0156400D03*
X0090100Y0156800D03*
X0090100Y0157200D03*
D137*
X0090000Y0157000D03*
X0090000Y0156600D03*
X0090000Y0156200D03*
X0090000Y0155800D03*
D138*
X0056500Y0161200D03*
D139*
X0056200Y0161400D03*
X0067400Y0163000D03*
X0100200Y0163000D03*
D140*
X0060400Y0161800D03*
D141*
X0053700Y0162200D03*
D142*
X0067400Y0162400D03*
X0067400Y0162800D03*
X0100200Y0162800D03*
X0100200Y0162400D03*
D143*
X0100100Y0162600D03*
X0067300Y0162600D03*
D144*
X0060400Y0164000D03*
D145*
X0040000Y0143100D02*
X0037500Y0145600D01*
X0032500Y0145600D01*
X0030000Y0143100D01*
X0030000Y0138100D01*
X0032500Y0135600D01*
X0030000Y0133100D01*
X0030000Y0128100D01*
X0032500Y0125600D01*
X0030000Y0123100D01*
X0030000Y0118100D01*
X0032500Y0115600D01*
X0030000Y0113100D01*
X0030000Y0108100D01*
X0032500Y0105600D01*
X0030000Y0103100D01*
X0030000Y0098100D01*
X0032500Y0095600D01*
X0030000Y0093100D01*
X0030000Y0088100D01*
X0032500Y0085600D01*
X0037500Y0085600D01*
X0040000Y0088100D01*
X0040000Y0093100D01*
X0037500Y0095600D01*
X0040000Y0098100D01*
X0040000Y0103100D01*
X0037500Y0105600D01*
X0040000Y0108100D01*
X0040000Y0113100D01*
X0037500Y0115600D01*
X0040000Y0118100D01*
X0040000Y0123100D01*
X0037500Y0125600D01*
X0040000Y0128100D01*
X0040000Y0133100D01*
X0037500Y0135600D01*
X0040000Y0138100D01*
X0040000Y0143100D01*
X0053481Y0127300D02*
X0053481Y0122300D01*
X0054800Y0122300D02*
X0054800Y0127300D01*
X0057300Y0129800D01*
X0072300Y0129800D01*
X0074800Y0127300D01*
X0074800Y0122300D01*
X0072300Y0119800D01*
X0057300Y0119800D01*
X0054800Y0117300D01*
X0054800Y0112300D01*
X0057300Y0109800D01*
X0072300Y0109800D01*
X0074800Y0107300D01*
X0074800Y0102300D01*
X0072300Y0099800D01*
X0057300Y0099800D01*
X0054800Y0102300D01*
X0054800Y0107300D01*
X0057300Y0109800D01*
X0057300Y0119800D02*
X0054800Y0122300D01*
X0072300Y0119800D02*
X0074800Y0117300D01*
X0074800Y0112300D01*
X0072300Y0109800D01*
X0023382Y0066000D02*
X0013618Y0066000D01*
X0008500Y0062063D02*
X0008500Y0049937D01*
X0013500Y0046000D02*
X0023382Y0046000D01*
X0028500Y0049937D02*
X0028500Y0062063D01*
X0013500Y0056000D02*
X0013502Y0056141D01*
X0013508Y0056282D01*
X0013518Y0056422D01*
X0013532Y0056562D01*
X0013550Y0056702D01*
X0013571Y0056841D01*
X0013597Y0056980D01*
X0013626Y0057118D01*
X0013660Y0057254D01*
X0013697Y0057390D01*
X0013738Y0057525D01*
X0013783Y0057659D01*
X0013832Y0057791D01*
X0013884Y0057922D01*
X0013940Y0058051D01*
X0014000Y0058178D01*
X0014063Y0058304D01*
X0014129Y0058428D01*
X0014200Y0058551D01*
X0014273Y0058671D01*
X0014350Y0058789D01*
X0014430Y0058905D01*
X0014514Y0059018D01*
X0014600Y0059129D01*
X0014690Y0059238D01*
X0014783Y0059344D01*
X0014878Y0059447D01*
X0014977Y0059548D01*
X0015078Y0059646D01*
X0015182Y0059741D01*
X0015289Y0059833D01*
X0015398Y0059922D01*
X0015510Y0060007D01*
X0015624Y0060090D01*
X0015740Y0060170D01*
X0015859Y0060246D01*
X0015980Y0060318D01*
X0016102Y0060388D01*
X0016227Y0060453D01*
X0016353Y0060516D01*
X0016481Y0060574D01*
X0016611Y0060629D01*
X0016742Y0060681D01*
X0016875Y0060728D01*
X0017009Y0060772D01*
X0017144Y0060813D01*
X0017280Y0060849D01*
X0017417Y0060881D01*
X0017555Y0060910D01*
X0017693Y0060935D01*
X0017833Y0060955D01*
X0017973Y0060972D01*
X0018113Y0060985D01*
X0018254Y0060994D01*
X0018394Y0060999D01*
X0018535Y0061000D01*
X0018676Y0060997D01*
X0018817Y0060990D01*
X0018957Y0060979D01*
X0019097Y0060964D01*
X0019237Y0060945D01*
X0019376Y0060923D01*
X0019514Y0060896D01*
X0019652Y0060866D01*
X0019788Y0060831D01*
X0019924Y0060793D01*
X0020058Y0060751D01*
X0020192Y0060705D01*
X0020324Y0060656D01*
X0020454Y0060602D01*
X0020583Y0060545D01*
X0020710Y0060485D01*
X0020836Y0060421D01*
X0020959Y0060353D01*
X0021081Y0060282D01*
X0021201Y0060208D01*
X0021318Y0060130D01*
X0021433Y0060049D01*
X0021546Y0059965D01*
X0021657Y0059878D01*
X0021765Y0059787D01*
X0021870Y0059694D01*
X0021973Y0059597D01*
X0022073Y0059498D01*
X0022170Y0059396D01*
X0022264Y0059291D01*
X0022355Y0059184D01*
X0022443Y0059074D01*
X0022528Y0058962D01*
X0022610Y0058847D01*
X0022689Y0058730D01*
X0022764Y0058611D01*
X0022836Y0058490D01*
X0022904Y0058367D01*
X0022969Y0058242D01*
X0023031Y0058115D01*
X0023088Y0057986D01*
X0023143Y0057856D01*
X0023193Y0057725D01*
X0023240Y0057592D01*
X0023283Y0057458D01*
X0023322Y0057322D01*
X0023357Y0057186D01*
X0023389Y0057049D01*
X0023416Y0056911D01*
X0023440Y0056772D01*
X0023460Y0056632D01*
X0023476Y0056492D01*
X0023488Y0056352D01*
X0023496Y0056211D01*
X0023500Y0056070D01*
X0023500Y0055930D01*
X0023496Y0055789D01*
X0023488Y0055648D01*
X0023476Y0055508D01*
X0023460Y0055368D01*
X0023440Y0055228D01*
X0023416Y0055089D01*
X0023389Y0054951D01*
X0023357Y0054814D01*
X0023322Y0054678D01*
X0023283Y0054542D01*
X0023240Y0054408D01*
X0023193Y0054275D01*
X0023143Y0054144D01*
X0023088Y0054014D01*
X0023031Y0053885D01*
X0022969Y0053758D01*
X0022904Y0053633D01*
X0022836Y0053510D01*
X0022764Y0053389D01*
X0022689Y0053270D01*
X0022610Y0053153D01*
X0022528Y0053038D01*
X0022443Y0052926D01*
X0022355Y0052816D01*
X0022264Y0052709D01*
X0022170Y0052604D01*
X0022073Y0052502D01*
X0021973Y0052403D01*
X0021870Y0052306D01*
X0021765Y0052213D01*
X0021657Y0052122D01*
X0021546Y0052035D01*
X0021433Y0051951D01*
X0021318Y0051870D01*
X0021201Y0051792D01*
X0021081Y0051718D01*
X0020959Y0051647D01*
X0020836Y0051579D01*
X0020710Y0051515D01*
X0020583Y0051455D01*
X0020454Y0051398D01*
X0020324Y0051344D01*
X0020192Y0051295D01*
X0020058Y0051249D01*
X0019924Y0051207D01*
X0019788Y0051169D01*
X0019652Y0051134D01*
X0019514Y0051104D01*
X0019376Y0051077D01*
X0019237Y0051055D01*
X0019097Y0051036D01*
X0018957Y0051021D01*
X0018817Y0051010D01*
X0018676Y0051003D01*
X0018535Y0051000D01*
X0018394Y0051001D01*
X0018254Y0051006D01*
X0018113Y0051015D01*
X0017973Y0051028D01*
X0017833Y0051045D01*
X0017693Y0051065D01*
X0017555Y0051090D01*
X0017417Y0051119D01*
X0017280Y0051151D01*
X0017144Y0051187D01*
X0017009Y0051228D01*
X0016875Y0051272D01*
X0016742Y0051319D01*
X0016611Y0051371D01*
X0016481Y0051426D01*
X0016353Y0051484D01*
X0016227Y0051547D01*
X0016102Y0051612D01*
X0015980Y0051682D01*
X0015859Y0051754D01*
X0015740Y0051830D01*
X0015624Y0051910D01*
X0015510Y0051993D01*
X0015398Y0052078D01*
X0015289Y0052167D01*
X0015182Y0052259D01*
X0015078Y0052354D01*
X0014977Y0052452D01*
X0014878Y0052553D01*
X0014783Y0052656D01*
X0014690Y0052762D01*
X0014600Y0052871D01*
X0014514Y0052982D01*
X0014430Y0053095D01*
X0014350Y0053211D01*
X0014273Y0053329D01*
X0014200Y0053449D01*
X0014129Y0053572D01*
X0014063Y0053696D01*
X0014000Y0053822D01*
X0013940Y0053949D01*
X0013884Y0054078D01*
X0013832Y0054209D01*
X0013783Y0054341D01*
X0013738Y0054475D01*
X0013697Y0054610D01*
X0013660Y0054746D01*
X0013626Y0054882D01*
X0013597Y0055020D01*
X0013571Y0055159D01*
X0013550Y0055298D01*
X0013532Y0055438D01*
X0013518Y0055578D01*
X0013508Y0055718D01*
X0013502Y0055859D01*
X0013500Y0056000D01*
X0152533Y0160801D02*
X0152533Y0165919D01*
X0167297Y0165919D02*
X0167297Y0160801D01*
X0155201Y0148799D02*
X0181402Y0148799D01*
X0182799Y0147402D01*
X0182799Y0121201D01*
X0155201Y0121201D01*
X0155201Y0148799D01*
X0182900Y0149400D02*
X0182902Y0149449D01*
X0182908Y0149497D01*
X0182918Y0149545D01*
X0182932Y0149592D01*
X0182949Y0149638D01*
X0182970Y0149682D01*
X0182995Y0149724D01*
X0183023Y0149764D01*
X0183055Y0149802D01*
X0183089Y0149837D01*
X0183126Y0149869D01*
X0183165Y0149898D01*
X0183207Y0149924D01*
X0183251Y0149946D01*
X0183296Y0149964D01*
X0183343Y0149979D01*
X0183390Y0149990D01*
X0183439Y0149997D01*
X0183488Y0150000D01*
X0183537Y0149999D01*
X0183585Y0149994D01*
X0183634Y0149985D01*
X0183681Y0149972D01*
X0183727Y0149955D01*
X0183771Y0149935D01*
X0183814Y0149911D01*
X0183855Y0149884D01*
X0183893Y0149853D01*
X0183929Y0149820D01*
X0183961Y0149784D01*
X0183991Y0149745D01*
X0184018Y0149704D01*
X0184041Y0149660D01*
X0184060Y0149615D01*
X0184076Y0149569D01*
X0184088Y0149522D01*
X0184096Y0149473D01*
X0184100Y0149424D01*
X0184100Y0149376D01*
X0184096Y0149327D01*
X0184088Y0149278D01*
X0184076Y0149231D01*
X0184060Y0149185D01*
X0184041Y0149140D01*
X0184018Y0149096D01*
X0183991Y0149055D01*
X0183961Y0149016D01*
X0183929Y0148980D01*
X0183893Y0148947D01*
X0183855Y0148916D01*
X0183814Y0148889D01*
X0183771Y0148865D01*
X0183727Y0148845D01*
X0183681Y0148828D01*
X0183634Y0148815D01*
X0183585Y0148806D01*
X0183537Y0148801D01*
X0183488Y0148800D01*
X0183439Y0148803D01*
X0183390Y0148810D01*
X0183343Y0148821D01*
X0183296Y0148836D01*
X0183251Y0148854D01*
X0183207Y0148876D01*
X0183165Y0148902D01*
X0183126Y0148931D01*
X0183089Y0148963D01*
X0183055Y0148998D01*
X0183023Y0149036D01*
X0182995Y0149076D01*
X0182970Y0149118D01*
X0182949Y0149162D01*
X0182932Y0149208D01*
X0182918Y0149255D01*
X0182908Y0149303D01*
X0182902Y0149351D01*
X0182900Y0149400D01*
X0233770Y0149113D02*
X0233772Y0149159D01*
X0233778Y0149205D01*
X0233788Y0149250D01*
X0233802Y0149294D01*
X0233819Y0149337D01*
X0233840Y0149378D01*
X0233865Y0149417D01*
X0233892Y0149454D01*
X0233923Y0149489D01*
X0233957Y0149520D01*
X0233993Y0149549D01*
X0234032Y0149574D01*
X0234073Y0149596D01*
X0234115Y0149614D01*
X0234159Y0149629D01*
X0234204Y0149640D01*
X0234249Y0149647D01*
X0234295Y0149650D01*
X0234342Y0149649D01*
X0234388Y0149644D01*
X0234433Y0149635D01*
X0234477Y0149622D01*
X0234520Y0149606D01*
X0234562Y0149586D01*
X0234602Y0149562D01*
X0234639Y0149535D01*
X0234674Y0149505D01*
X0234707Y0149472D01*
X0234736Y0149436D01*
X0234762Y0149398D01*
X0234785Y0149358D01*
X0234804Y0149316D01*
X0234820Y0149272D01*
X0234832Y0149228D01*
X0234840Y0149182D01*
X0234844Y0149136D01*
X0234844Y0149090D01*
X0234840Y0149044D01*
X0234832Y0148998D01*
X0234820Y0148954D01*
X0234804Y0148910D01*
X0234785Y0148868D01*
X0234762Y0148828D01*
X0234736Y0148790D01*
X0234707Y0148754D01*
X0234674Y0148721D01*
X0234639Y0148691D01*
X0234602Y0148664D01*
X0234562Y0148640D01*
X0234520Y0148620D01*
X0234477Y0148604D01*
X0234433Y0148591D01*
X0234388Y0148582D01*
X0234342Y0148577D01*
X0234295Y0148576D01*
X0234249Y0148579D01*
X0234204Y0148586D01*
X0234159Y0148597D01*
X0234115Y0148612D01*
X0234073Y0148630D01*
X0234032Y0148652D01*
X0233993Y0148677D01*
X0233957Y0148706D01*
X0233923Y0148737D01*
X0233892Y0148772D01*
X0233865Y0148809D01*
X0233840Y0148848D01*
X0233819Y0148889D01*
X0233802Y0148932D01*
X0233788Y0148976D01*
X0233778Y0149021D01*
X0233772Y0149067D01*
X0233770Y0149113D01*
X0208691Y0058500D02*
X0205309Y0058500D01*
X0209791Y0054557D02*
X0209791Y0052443D01*
X0208691Y0048500D02*
X0205309Y0048500D01*
D146*
X0067693Y0027906D02*
X0067693Y0016094D01*
X0054307Y0016094D01*
X0054307Y0027906D01*
X0067693Y0027906D01*
D147*
X0068677Y0019047D03*
D148*
X0107154Y0027602D02*
X0107156Y0027658D01*
X0107162Y0027713D01*
X0107172Y0027767D01*
X0107185Y0027821D01*
X0107203Y0027874D01*
X0107224Y0027925D01*
X0107248Y0027975D01*
X0107276Y0028023D01*
X0107308Y0028069D01*
X0107342Y0028113D01*
X0107380Y0028154D01*
X0107420Y0028192D01*
X0107463Y0028227D01*
X0107508Y0028259D01*
X0107556Y0028288D01*
X0107605Y0028314D01*
X0107656Y0028336D01*
X0107708Y0028354D01*
X0107762Y0028368D01*
X0107817Y0028379D01*
X0107872Y0028386D01*
X0107927Y0028389D01*
X0107983Y0028388D01*
X0108038Y0028383D01*
X0108093Y0028374D01*
X0108147Y0028362D01*
X0108200Y0028345D01*
X0108252Y0028325D01*
X0108302Y0028301D01*
X0108350Y0028274D01*
X0108397Y0028244D01*
X0108441Y0028210D01*
X0108483Y0028173D01*
X0108521Y0028133D01*
X0108558Y0028091D01*
X0108591Y0028046D01*
X0108620Y0028000D01*
X0108647Y0027951D01*
X0108669Y0027900D01*
X0108689Y0027848D01*
X0108704Y0027794D01*
X0108716Y0027740D01*
X0108724Y0027685D01*
X0108728Y0027630D01*
X0108728Y0027574D01*
X0108724Y0027519D01*
X0108716Y0027464D01*
X0108704Y0027410D01*
X0108689Y0027356D01*
X0108669Y0027304D01*
X0108647Y0027253D01*
X0108620Y0027204D01*
X0108591Y0027158D01*
X0108558Y0027113D01*
X0108521Y0027071D01*
X0108483Y0027031D01*
X0108441Y0026994D01*
X0108397Y0026960D01*
X0108350Y0026930D01*
X0108302Y0026903D01*
X0108252Y0026879D01*
X0108200Y0026859D01*
X0108147Y0026842D01*
X0108093Y0026830D01*
X0108038Y0026821D01*
X0107983Y0026816D01*
X0107927Y0026815D01*
X0107872Y0026818D01*
X0107817Y0026825D01*
X0107762Y0026836D01*
X0107708Y0026850D01*
X0107656Y0026868D01*
X0107605Y0026890D01*
X0107556Y0026916D01*
X0107508Y0026945D01*
X0107463Y0026977D01*
X0107420Y0027012D01*
X0107380Y0027050D01*
X0107342Y0027091D01*
X0107308Y0027135D01*
X0107276Y0027181D01*
X0107248Y0027229D01*
X0107224Y0027279D01*
X0107203Y0027330D01*
X0107185Y0027383D01*
X0107172Y0027437D01*
X0107162Y0027491D01*
X0107156Y0027546D01*
X0107154Y0027602D01*
X0107547Y0027602D02*
X0107549Y0027641D01*
X0107555Y0027680D01*
X0107565Y0027718D01*
X0107578Y0027755D01*
X0107595Y0027790D01*
X0107615Y0027824D01*
X0107639Y0027855D01*
X0107666Y0027884D01*
X0107695Y0027910D01*
X0107727Y0027933D01*
X0107761Y0027953D01*
X0107797Y0027969D01*
X0107834Y0027981D01*
X0107873Y0027990D01*
X0107912Y0027995D01*
X0107951Y0027996D01*
X0107990Y0027993D01*
X0108029Y0027986D01*
X0108066Y0027975D01*
X0108103Y0027961D01*
X0108138Y0027943D01*
X0108171Y0027922D01*
X0108202Y0027897D01*
X0108230Y0027870D01*
X0108255Y0027840D01*
X0108277Y0027807D01*
X0108296Y0027773D01*
X0108311Y0027737D01*
X0108323Y0027699D01*
X0108331Y0027661D01*
X0108335Y0027622D01*
X0108335Y0027582D01*
X0108331Y0027543D01*
X0108323Y0027505D01*
X0108311Y0027467D01*
X0108296Y0027431D01*
X0108277Y0027397D01*
X0108255Y0027364D01*
X0108230Y0027334D01*
X0108202Y0027307D01*
X0108171Y0027282D01*
X0108138Y0027261D01*
X0108103Y0027243D01*
X0108066Y0027229D01*
X0108029Y0027218D01*
X0107990Y0027211D01*
X0107951Y0027208D01*
X0107912Y0027209D01*
X0107873Y0027214D01*
X0107834Y0027223D01*
X0107797Y0027235D01*
X0107761Y0027251D01*
X0107727Y0027271D01*
X0107695Y0027294D01*
X0107666Y0027320D01*
X0107639Y0027349D01*
X0107615Y0027380D01*
X0107595Y0027414D01*
X0107578Y0027449D01*
X0107565Y0027486D01*
X0107555Y0027524D01*
X0107549Y0027563D01*
X0107547Y0027602D01*
D149*
X0106563Y0025437D02*
X0114437Y0025437D01*
X0114437Y0017563D02*
X0106563Y0017563D01*
X0233658Y0151406D02*
X0233658Y0162824D01*
X0250194Y0162824D01*
X0250194Y0151406D01*
X0233658Y0151406D01*
D150*
X0239619Y0144562D02*
X0241981Y0144562D01*
X0241981Y0139838D02*
X0239619Y0139838D01*
X0239719Y0133462D02*
X0242081Y0133462D01*
X0242081Y0128738D02*
X0239719Y0128738D01*
X0199681Y0127662D02*
X0197319Y0127662D01*
X0197319Y0122938D02*
X0199681Y0122938D01*
X0199681Y0135538D02*
X0197319Y0135538D01*
X0197319Y0140262D02*
X0199681Y0140262D01*
X0178081Y0160938D02*
X0175719Y0160938D01*
X0175719Y0165662D02*
X0178081Y0165662D01*
X0181238Y0190219D02*
X0181238Y0192581D01*
X0185962Y0192581D02*
X0185962Y0190219D01*
X0210238Y0190419D02*
X0210238Y0192781D01*
X0214962Y0192781D02*
X0214962Y0190419D01*
X0223138Y0079781D02*
X0223138Y0077419D01*
X0227862Y0077419D02*
X0227862Y0079781D01*
X0234819Y0056362D02*
X0237181Y0056362D01*
X0237181Y0051638D02*
X0234819Y0051638D01*
X0234819Y0045862D02*
X0237181Y0045862D01*
X0237181Y0041138D02*
X0234819Y0041138D01*
X0249719Y0041238D02*
X0252081Y0041238D01*
X0252081Y0045962D02*
X0249719Y0045962D01*
X0249719Y0051738D02*
X0252081Y0051738D01*
X0252081Y0056462D02*
X0249719Y0056462D01*
X0206681Y0043862D02*
X0204319Y0043862D01*
X0204319Y0039138D02*
X0206681Y0039138D01*
X0206681Y0033362D02*
X0204319Y0033362D01*
X0204319Y0028638D02*
X0206681Y0028638D01*
X0206681Y0022862D02*
X0204319Y0022862D01*
X0204319Y0018138D02*
X0206681Y0018138D01*
X0153381Y0032038D02*
X0151019Y0032038D01*
X0151019Y0036762D02*
X0153381Y0036762D01*
X0140762Y0030981D02*
X0140762Y0028619D01*
X0136038Y0028619D02*
X0136038Y0030981D01*
X0112281Y0031638D02*
X0109919Y0031638D01*
X0109919Y0036362D02*
X0112281Y0036362D01*
X0049862Y0022681D02*
X0049862Y0020319D01*
X0045138Y0020319D02*
X0045138Y0022681D01*
X0045538Y0062319D02*
X0045538Y0064681D01*
X0050262Y0064681D02*
X0050262Y0062319D01*
X0050162Y0085819D02*
X0050162Y0088181D01*
X0045438Y0088181D02*
X0045438Y0085819D01*
X0013862Y0183819D02*
X0013862Y0186181D01*
X0009138Y0186181D02*
X0009138Y0183819D01*
D151*
X0011500Y0165106D03*
X0191000Y0192394D03*
X0205000Y0192394D03*
D152*
X0232014Y0085274D02*
X0236345Y0085274D01*
X0232014Y0085274D02*
X0232014Y0069526D01*
X0236345Y0069526D01*
X0245400Y0069526D02*
X0251306Y0069526D01*
X0251306Y0073069D01*
X0251306Y0081731D02*
X0251306Y0085274D01*
X0245400Y0085274D01*
D153*
X0203000Y0059800D03*
D154*
X0155737Y0027321D02*
X0147863Y0027321D01*
X0147863Y0027124D01*
X0152921Y0026239D02*
X0152923Y0026276D01*
X0152929Y0026313D01*
X0152938Y0026349D01*
X0152952Y0026383D01*
X0152969Y0026416D01*
X0152989Y0026448D01*
X0153012Y0026477D01*
X0153038Y0026503D01*
X0153067Y0026526D01*
X0153098Y0026546D01*
X0153132Y0026563D01*
X0153166Y0026577D01*
X0153202Y0026586D01*
X0153239Y0026592D01*
X0153276Y0026594D01*
X0153313Y0026592D01*
X0153350Y0026586D01*
X0153386Y0026577D01*
X0153420Y0026563D01*
X0153453Y0026546D01*
X0153485Y0026526D01*
X0153514Y0026503D01*
X0153540Y0026477D01*
X0153563Y0026448D01*
X0153583Y0026417D01*
X0153600Y0026383D01*
X0153614Y0026349D01*
X0153623Y0026313D01*
X0153629Y0026276D01*
X0153631Y0026239D01*
X0153629Y0026202D01*
X0153623Y0026165D01*
X0153614Y0026129D01*
X0153600Y0026095D01*
X0153583Y0026062D01*
X0153563Y0026030D01*
X0153540Y0026001D01*
X0153514Y0025975D01*
X0153485Y0025952D01*
X0153454Y0025932D01*
X0153420Y0025915D01*
X0153386Y0025901D01*
X0153350Y0025892D01*
X0153313Y0025886D01*
X0153276Y0025884D01*
X0153239Y0025886D01*
X0153202Y0025892D01*
X0153166Y0025901D01*
X0153132Y0025915D01*
X0153099Y0025932D01*
X0153067Y0025952D01*
X0153038Y0025975D01*
X0153012Y0026001D01*
X0152989Y0026030D01*
X0152969Y0026061D01*
X0152952Y0026095D01*
X0152938Y0026129D01*
X0152929Y0026165D01*
X0152923Y0026202D01*
X0152921Y0026239D01*
X0155737Y0027124D02*
X0155737Y0027321D01*
X0155737Y0017676D02*
X0155737Y0017479D01*
X0147863Y0017479D01*
X0147863Y0017676D01*
M02*
