G75*
%MOIN*%
%OFA0B0*%
%FSLAX25Y25*%
%IPPOS*%
%LPD*%
%AMOC8*
5,1,8,0,0,1.08239X$1,22.5*
%
%ADD10C,0.00000*%
%ADD11C,0.00100*%
%ADD12C,0.00400*%
%ADD13C,0.00800*%
%ADD14C,0.06600*%
%ADD15C,0.07400*%
%ADD16OC8,0.07400*%
%ADD17R,0.05000X0.02500*%
%ADD18C,0.03100*%
%ADD19C,0.01000*%
%ADD20C,0.01200*%
D10*
X0016811Y0005000D02*
X0249094Y0005000D01*
X0249379Y0005003D01*
X0249665Y0005014D01*
X0249950Y0005031D01*
X0250234Y0005055D01*
X0250518Y0005086D01*
X0250801Y0005124D01*
X0251082Y0005169D01*
X0251363Y0005220D01*
X0251643Y0005278D01*
X0251921Y0005343D01*
X0252197Y0005415D01*
X0252471Y0005493D01*
X0252744Y0005578D01*
X0253014Y0005670D01*
X0253282Y0005768D01*
X0253548Y0005872D01*
X0253811Y0005983D01*
X0254071Y0006100D01*
X0254329Y0006223D01*
X0254583Y0006353D01*
X0254834Y0006489D01*
X0255082Y0006630D01*
X0255326Y0006778D01*
X0255567Y0006931D01*
X0255803Y0007091D01*
X0256036Y0007256D01*
X0256265Y0007426D01*
X0256490Y0007602D01*
X0256710Y0007784D01*
X0256926Y0007970D01*
X0257137Y0008162D01*
X0257344Y0008359D01*
X0257546Y0008561D01*
X0257743Y0008768D01*
X0257935Y0008979D01*
X0258121Y0009195D01*
X0258303Y0009415D01*
X0258479Y0009640D01*
X0258649Y0009869D01*
X0258814Y0010102D01*
X0258974Y0010338D01*
X0259127Y0010579D01*
X0259275Y0010823D01*
X0259416Y0011071D01*
X0259552Y0011322D01*
X0259682Y0011576D01*
X0259805Y0011834D01*
X0259922Y0012094D01*
X0260033Y0012357D01*
X0260137Y0012623D01*
X0260235Y0012891D01*
X0260327Y0013161D01*
X0260412Y0013434D01*
X0260490Y0013708D01*
X0260562Y0013984D01*
X0260627Y0014262D01*
X0260685Y0014542D01*
X0260736Y0014823D01*
X0260781Y0015104D01*
X0260819Y0015387D01*
X0260850Y0015671D01*
X0260874Y0015955D01*
X0260891Y0016240D01*
X0260902Y0016526D01*
X0260905Y0016811D01*
X0260906Y0016811D02*
X0260906Y0215630D01*
X0260905Y0215630D02*
X0260902Y0215915D01*
X0260891Y0216201D01*
X0260874Y0216486D01*
X0260850Y0216770D01*
X0260819Y0217054D01*
X0260781Y0217337D01*
X0260736Y0217618D01*
X0260685Y0217899D01*
X0260627Y0218179D01*
X0260562Y0218457D01*
X0260490Y0218733D01*
X0260412Y0219007D01*
X0260327Y0219280D01*
X0260235Y0219550D01*
X0260137Y0219818D01*
X0260033Y0220084D01*
X0259922Y0220347D01*
X0259805Y0220607D01*
X0259682Y0220865D01*
X0259552Y0221119D01*
X0259416Y0221370D01*
X0259275Y0221618D01*
X0259127Y0221862D01*
X0258974Y0222103D01*
X0258814Y0222339D01*
X0258649Y0222572D01*
X0258479Y0222801D01*
X0258303Y0223026D01*
X0258121Y0223246D01*
X0257935Y0223462D01*
X0257743Y0223673D01*
X0257546Y0223880D01*
X0257344Y0224082D01*
X0257137Y0224279D01*
X0256926Y0224471D01*
X0256710Y0224657D01*
X0256490Y0224839D01*
X0256265Y0225015D01*
X0256036Y0225185D01*
X0255803Y0225350D01*
X0255567Y0225510D01*
X0255326Y0225663D01*
X0255082Y0225811D01*
X0254834Y0225952D01*
X0254583Y0226088D01*
X0254329Y0226218D01*
X0254071Y0226341D01*
X0253811Y0226458D01*
X0253548Y0226569D01*
X0253282Y0226673D01*
X0253014Y0226771D01*
X0252744Y0226863D01*
X0252471Y0226948D01*
X0252197Y0227026D01*
X0251921Y0227098D01*
X0251643Y0227163D01*
X0251363Y0227221D01*
X0251082Y0227272D01*
X0250801Y0227317D01*
X0250518Y0227355D01*
X0250234Y0227386D01*
X0249950Y0227410D01*
X0249665Y0227427D01*
X0249379Y0227438D01*
X0249094Y0227441D01*
X0016811Y0227441D01*
X0016526Y0227438D01*
X0016240Y0227427D01*
X0015955Y0227410D01*
X0015671Y0227386D01*
X0015387Y0227355D01*
X0015104Y0227317D01*
X0014823Y0227272D01*
X0014542Y0227221D01*
X0014262Y0227163D01*
X0013984Y0227098D01*
X0013708Y0227026D01*
X0013434Y0226948D01*
X0013161Y0226863D01*
X0012891Y0226771D01*
X0012623Y0226673D01*
X0012357Y0226569D01*
X0012094Y0226458D01*
X0011834Y0226341D01*
X0011576Y0226218D01*
X0011322Y0226088D01*
X0011071Y0225952D01*
X0010823Y0225811D01*
X0010579Y0225663D01*
X0010338Y0225510D01*
X0010102Y0225350D01*
X0009869Y0225185D01*
X0009640Y0225015D01*
X0009415Y0224839D01*
X0009195Y0224657D01*
X0008979Y0224471D01*
X0008768Y0224279D01*
X0008561Y0224082D01*
X0008359Y0223880D01*
X0008162Y0223673D01*
X0007970Y0223462D01*
X0007784Y0223246D01*
X0007602Y0223026D01*
X0007426Y0222801D01*
X0007256Y0222572D01*
X0007091Y0222339D01*
X0006931Y0222103D01*
X0006778Y0221862D01*
X0006630Y0221618D01*
X0006489Y0221370D01*
X0006353Y0221119D01*
X0006223Y0220865D01*
X0006100Y0220607D01*
X0005983Y0220347D01*
X0005872Y0220084D01*
X0005768Y0219818D01*
X0005670Y0219550D01*
X0005578Y0219280D01*
X0005493Y0219007D01*
X0005415Y0218733D01*
X0005343Y0218457D01*
X0005278Y0218179D01*
X0005220Y0217899D01*
X0005169Y0217618D01*
X0005124Y0217337D01*
X0005086Y0217054D01*
X0005055Y0216770D01*
X0005031Y0216486D01*
X0005014Y0216201D01*
X0005003Y0215915D01*
X0005000Y0215630D01*
X0005000Y0016811D01*
X0005003Y0016526D01*
X0005014Y0016240D01*
X0005031Y0015955D01*
X0005055Y0015671D01*
X0005086Y0015387D01*
X0005124Y0015104D01*
X0005169Y0014823D01*
X0005220Y0014542D01*
X0005278Y0014262D01*
X0005343Y0013984D01*
X0005415Y0013708D01*
X0005493Y0013434D01*
X0005578Y0013161D01*
X0005670Y0012891D01*
X0005768Y0012623D01*
X0005872Y0012357D01*
X0005983Y0012094D01*
X0006100Y0011834D01*
X0006223Y0011576D01*
X0006353Y0011322D01*
X0006489Y0011071D01*
X0006630Y0010823D01*
X0006778Y0010579D01*
X0006931Y0010338D01*
X0007091Y0010102D01*
X0007256Y0009869D01*
X0007426Y0009640D01*
X0007602Y0009415D01*
X0007784Y0009195D01*
X0007970Y0008979D01*
X0008162Y0008768D01*
X0008359Y0008561D01*
X0008561Y0008359D01*
X0008768Y0008162D01*
X0008979Y0007970D01*
X0009195Y0007784D01*
X0009415Y0007602D01*
X0009640Y0007426D01*
X0009869Y0007256D01*
X0010102Y0007091D01*
X0010338Y0006931D01*
X0010579Y0006778D01*
X0010823Y0006630D01*
X0011071Y0006489D01*
X0011322Y0006353D01*
X0011576Y0006223D01*
X0011834Y0006100D01*
X0012094Y0005983D01*
X0012357Y0005872D01*
X0012623Y0005768D01*
X0012891Y0005670D01*
X0013161Y0005578D01*
X0013434Y0005493D01*
X0013708Y0005415D01*
X0013984Y0005343D01*
X0014262Y0005278D01*
X0014542Y0005220D01*
X0014823Y0005169D01*
X0015104Y0005124D01*
X0015387Y0005086D01*
X0015671Y0005055D01*
X0015955Y0005031D01*
X0016240Y0005014D01*
X0016526Y0005003D01*
X0016811Y0005000D01*
X0013268Y0018780D02*
X0013270Y0018928D01*
X0013276Y0019076D01*
X0013286Y0019224D01*
X0013300Y0019371D01*
X0013318Y0019518D01*
X0013339Y0019664D01*
X0013365Y0019810D01*
X0013395Y0019955D01*
X0013428Y0020099D01*
X0013466Y0020242D01*
X0013507Y0020384D01*
X0013552Y0020525D01*
X0013600Y0020665D01*
X0013653Y0020804D01*
X0013709Y0020941D01*
X0013769Y0021076D01*
X0013832Y0021210D01*
X0013899Y0021342D01*
X0013970Y0021472D01*
X0014044Y0021600D01*
X0014121Y0021726D01*
X0014202Y0021850D01*
X0014286Y0021972D01*
X0014373Y0022091D01*
X0014464Y0022208D01*
X0014558Y0022323D01*
X0014654Y0022435D01*
X0014754Y0022545D01*
X0014856Y0022651D01*
X0014962Y0022755D01*
X0015070Y0022856D01*
X0015181Y0022954D01*
X0015294Y0023050D01*
X0015410Y0023142D01*
X0015528Y0023231D01*
X0015649Y0023316D01*
X0015772Y0023399D01*
X0015897Y0023478D01*
X0016024Y0023554D01*
X0016153Y0023626D01*
X0016284Y0023695D01*
X0016417Y0023760D01*
X0016552Y0023821D01*
X0016688Y0023879D01*
X0016825Y0023934D01*
X0016964Y0023984D01*
X0017105Y0024031D01*
X0017246Y0024074D01*
X0017389Y0024114D01*
X0017533Y0024149D01*
X0017677Y0024181D01*
X0017823Y0024208D01*
X0017969Y0024232D01*
X0018116Y0024252D01*
X0018263Y0024268D01*
X0018410Y0024280D01*
X0018558Y0024288D01*
X0018706Y0024292D01*
X0018854Y0024292D01*
X0019002Y0024288D01*
X0019150Y0024280D01*
X0019297Y0024268D01*
X0019444Y0024252D01*
X0019591Y0024232D01*
X0019737Y0024208D01*
X0019883Y0024181D01*
X0020027Y0024149D01*
X0020171Y0024114D01*
X0020314Y0024074D01*
X0020455Y0024031D01*
X0020596Y0023984D01*
X0020735Y0023934D01*
X0020872Y0023879D01*
X0021008Y0023821D01*
X0021143Y0023760D01*
X0021276Y0023695D01*
X0021407Y0023626D01*
X0021536Y0023554D01*
X0021663Y0023478D01*
X0021788Y0023399D01*
X0021911Y0023316D01*
X0022032Y0023231D01*
X0022150Y0023142D01*
X0022266Y0023050D01*
X0022379Y0022954D01*
X0022490Y0022856D01*
X0022598Y0022755D01*
X0022704Y0022651D01*
X0022806Y0022545D01*
X0022906Y0022435D01*
X0023002Y0022323D01*
X0023096Y0022208D01*
X0023187Y0022091D01*
X0023274Y0021972D01*
X0023358Y0021850D01*
X0023439Y0021726D01*
X0023516Y0021600D01*
X0023590Y0021472D01*
X0023661Y0021342D01*
X0023728Y0021210D01*
X0023791Y0021076D01*
X0023851Y0020941D01*
X0023907Y0020804D01*
X0023960Y0020665D01*
X0024008Y0020525D01*
X0024053Y0020384D01*
X0024094Y0020242D01*
X0024132Y0020099D01*
X0024165Y0019955D01*
X0024195Y0019810D01*
X0024221Y0019664D01*
X0024242Y0019518D01*
X0024260Y0019371D01*
X0024274Y0019224D01*
X0024284Y0019076D01*
X0024290Y0018928D01*
X0024292Y0018780D01*
X0024290Y0018632D01*
X0024284Y0018484D01*
X0024274Y0018336D01*
X0024260Y0018189D01*
X0024242Y0018042D01*
X0024221Y0017896D01*
X0024195Y0017750D01*
X0024165Y0017605D01*
X0024132Y0017461D01*
X0024094Y0017318D01*
X0024053Y0017176D01*
X0024008Y0017035D01*
X0023960Y0016895D01*
X0023907Y0016756D01*
X0023851Y0016619D01*
X0023791Y0016484D01*
X0023728Y0016350D01*
X0023661Y0016218D01*
X0023590Y0016088D01*
X0023516Y0015960D01*
X0023439Y0015834D01*
X0023358Y0015710D01*
X0023274Y0015588D01*
X0023187Y0015469D01*
X0023096Y0015352D01*
X0023002Y0015237D01*
X0022906Y0015125D01*
X0022806Y0015015D01*
X0022704Y0014909D01*
X0022598Y0014805D01*
X0022490Y0014704D01*
X0022379Y0014606D01*
X0022266Y0014510D01*
X0022150Y0014418D01*
X0022032Y0014329D01*
X0021911Y0014244D01*
X0021788Y0014161D01*
X0021663Y0014082D01*
X0021536Y0014006D01*
X0021407Y0013934D01*
X0021276Y0013865D01*
X0021143Y0013800D01*
X0021008Y0013739D01*
X0020872Y0013681D01*
X0020735Y0013626D01*
X0020596Y0013576D01*
X0020455Y0013529D01*
X0020314Y0013486D01*
X0020171Y0013446D01*
X0020027Y0013411D01*
X0019883Y0013379D01*
X0019737Y0013352D01*
X0019591Y0013328D01*
X0019444Y0013308D01*
X0019297Y0013292D01*
X0019150Y0013280D01*
X0019002Y0013272D01*
X0018854Y0013268D01*
X0018706Y0013268D01*
X0018558Y0013272D01*
X0018410Y0013280D01*
X0018263Y0013292D01*
X0018116Y0013308D01*
X0017969Y0013328D01*
X0017823Y0013352D01*
X0017677Y0013379D01*
X0017533Y0013411D01*
X0017389Y0013446D01*
X0017246Y0013486D01*
X0017105Y0013529D01*
X0016964Y0013576D01*
X0016825Y0013626D01*
X0016688Y0013681D01*
X0016552Y0013739D01*
X0016417Y0013800D01*
X0016284Y0013865D01*
X0016153Y0013934D01*
X0016024Y0014006D01*
X0015897Y0014082D01*
X0015772Y0014161D01*
X0015649Y0014244D01*
X0015528Y0014329D01*
X0015410Y0014418D01*
X0015294Y0014510D01*
X0015181Y0014606D01*
X0015070Y0014704D01*
X0014962Y0014805D01*
X0014856Y0014909D01*
X0014754Y0015015D01*
X0014654Y0015125D01*
X0014558Y0015237D01*
X0014464Y0015352D01*
X0014373Y0015469D01*
X0014286Y0015588D01*
X0014202Y0015710D01*
X0014121Y0015834D01*
X0014044Y0015960D01*
X0013970Y0016088D01*
X0013899Y0016218D01*
X0013832Y0016350D01*
X0013769Y0016484D01*
X0013709Y0016619D01*
X0013653Y0016756D01*
X0013600Y0016895D01*
X0013552Y0017035D01*
X0013507Y0017176D01*
X0013466Y0017318D01*
X0013428Y0017461D01*
X0013395Y0017605D01*
X0013365Y0017750D01*
X0013339Y0017896D01*
X0013318Y0018042D01*
X0013300Y0018189D01*
X0013286Y0018336D01*
X0013276Y0018484D01*
X0013270Y0018632D01*
X0013268Y0018780D01*
X0005000Y0053000D02*
X0005000Y0128000D01*
X0024685Y0144764D02*
X0024683Y0144888D01*
X0024677Y0145011D01*
X0024668Y0145135D01*
X0024654Y0145257D01*
X0024637Y0145380D01*
X0024615Y0145502D01*
X0024590Y0145623D01*
X0024561Y0145743D01*
X0024529Y0145862D01*
X0024492Y0145981D01*
X0024452Y0146098D01*
X0024409Y0146213D01*
X0024361Y0146328D01*
X0024310Y0146440D01*
X0024256Y0146551D01*
X0024198Y0146661D01*
X0024137Y0146768D01*
X0024072Y0146874D01*
X0024004Y0146977D01*
X0023933Y0147078D01*
X0023859Y0147177D01*
X0023782Y0147274D01*
X0023701Y0147368D01*
X0023618Y0147459D01*
X0023532Y0147548D01*
X0023443Y0147634D01*
X0023352Y0147717D01*
X0023258Y0147798D01*
X0023161Y0147875D01*
X0023062Y0147949D01*
X0022961Y0148020D01*
X0022858Y0148088D01*
X0022752Y0148153D01*
X0022645Y0148214D01*
X0022535Y0148272D01*
X0022424Y0148326D01*
X0022312Y0148377D01*
X0022197Y0148425D01*
X0022082Y0148468D01*
X0021965Y0148508D01*
X0021846Y0148545D01*
X0021727Y0148577D01*
X0021607Y0148606D01*
X0021486Y0148631D01*
X0021364Y0148653D01*
X0021241Y0148670D01*
X0021119Y0148684D01*
X0020995Y0148693D01*
X0020872Y0148699D01*
X0020748Y0148701D01*
X0005000Y0148701D01*
X0024685Y0144764D02*
X0024685Y0085709D01*
X0024683Y0085585D01*
X0024677Y0085462D01*
X0024668Y0085338D01*
X0024654Y0085216D01*
X0024637Y0085093D01*
X0024615Y0084971D01*
X0024590Y0084850D01*
X0024561Y0084730D01*
X0024529Y0084611D01*
X0024492Y0084492D01*
X0024452Y0084375D01*
X0024409Y0084260D01*
X0024361Y0084145D01*
X0024310Y0084033D01*
X0024256Y0083922D01*
X0024198Y0083812D01*
X0024137Y0083705D01*
X0024072Y0083599D01*
X0024004Y0083496D01*
X0023933Y0083395D01*
X0023859Y0083296D01*
X0023782Y0083199D01*
X0023701Y0083105D01*
X0023618Y0083014D01*
X0023532Y0082925D01*
X0023443Y0082839D01*
X0023352Y0082756D01*
X0023258Y0082675D01*
X0023161Y0082598D01*
X0023062Y0082524D01*
X0022961Y0082453D01*
X0022858Y0082385D01*
X0022752Y0082320D01*
X0022645Y0082259D01*
X0022535Y0082201D01*
X0022424Y0082147D01*
X0022312Y0082096D01*
X0022197Y0082048D01*
X0022082Y0082005D01*
X0021965Y0081965D01*
X0021846Y0081928D01*
X0021727Y0081896D01*
X0021607Y0081867D01*
X0021486Y0081842D01*
X0021364Y0081820D01*
X0021241Y0081803D01*
X0021119Y0081789D01*
X0020995Y0081780D01*
X0020872Y0081774D01*
X0020748Y0081772D01*
X0005394Y0081772D01*
X0005000Y0082000D02*
X0005000Y0082500D01*
X0013268Y0211693D02*
X0013270Y0211841D01*
X0013276Y0211989D01*
X0013286Y0212137D01*
X0013300Y0212284D01*
X0013318Y0212431D01*
X0013339Y0212577D01*
X0013365Y0212723D01*
X0013395Y0212868D01*
X0013428Y0213012D01*
X0013466Y0213155D01*
X0013507Y0213297D01*
X0013552Y0213438D01*
X0013600Y0213578D01*
X0013653Y0213717D01*
X0013709Y0213854D01*
X0013769Y0213989D01*
X0013832Y0214123D01*
X0013899Y0214255D01*
X0013970Y0214385D01*
X0014044Y0214513D01*
X0014121Y0214639D01*
X0014202Y0214763D01*
X0014286Y0214885D01*
X0014373Y0215004D01*
X0014464Y0215121D01*
X0014558Y0215236D01*
X0014654Y0215348D01*
X0014754Y0215458D01*
X0014856Y0215564D01*
X0014962Y0215668D01*
X0015070Y0215769D01*
X0015181Y0215867D01*
X0015294Y0215963D01*
X0015410Y0216055D01*
X0015528Y0216144D01*
X0015649Y0216229D01*
X0015772Y0216312D01*
X0015897Y0216391D01*
X0016024Y0216467D01*
X0016153Y0216539D01*
X0016284Y0216608D01*
X0016417Y0216673D01*
X0016552Y0216734D01*
X0016688Y0216792D01*
X0016825Y0216847D01*
X0016964Y0216897D01*
X0017105Y0216944D01*
X0017246Y0216987D01*
X0017389Y0217027D01*
X0017533Y0217062D01*
X0017677Y0217094D01*
X0017823Y0217121D01*
X0017969Y0217145D01*
X0018116Y0217165D01*
X0018263Y0217181D01*
X0018410Y0217193D01*
X0018558Y0217201D01*
X0018706Y0217205D01*
X0018854Y0217205D01*
X0019002Y0217201D01*
X0019150Y0217193D01*
X0019297Y0217181D01*
X0019444Y0217165D01*
X0019591Y0217145D01*
X0019737Y0217121D01*
X0019883Y0217094D01*
X0020027Y0217062D01*
X0020171Y0217027D01*
X0020314Y0216987D01*
X0020455Y0216944D01*
X0020596Y0216897D01*
X0020735Y0216847D01*
X0020872Y0216792D01*
X0021008Y0216734D01*
X0021143Y0216673D01*
X0021276Y0216608D01*
X0021407Y0216539D01*
X0021536Y0216467D01*
X0021663Y0216391D01*
X0021788Y0216312D01*
X0021911Y0216229D01*
X0022032Y0216144D01*
X0022150Y0216055D01*
X0022266Y0215963D01*
X0022379Y0215867D01*
X0022490Y0215769D01*
X0022598Y0215668D01*
X0022704Y0215564D01*
X0022806Y0215458D01*
X0022906Y0215348D01*
X0023002Y0215236D01*
X0023096Y0215121D01*
X0023187Y0215004D01*
X0023274Y0214885D01*
X0023358Y0214763D01*
X0023439Y0214639D01*
X0023516Y0214513D01*
X0023590Y0214385D01*
X0023661Y0214255D01*
X0023728Y0214123D01*
X0023791Y0213989D01*
X0023851Y0213854D01*
X0023907Y0213717D01*
X0023960Y0213578D01*
X0024008Y0213438D01*
X0024053Y0213297D01*
X0024094Y0213155D01*
X0024132Y0213012D01*
X0024165Y0212868D01*
X0024195Y0212723D01*
X0024221Y0212577D01*
X0024242Y0212431D01*
X0024260Y0212284D01*
X0024274Y0212137D01*
X0024284Y0211989D01*
X0024290Y0211841D01*
X0024292Y0211693D01*
X0024290Y0211545D01*
X0024284Y0211397D01*
X0024274Y0211249D01*
X0024260Y0211102D01*
X0024242Y0210955D01*
X0024221Y0210809D01*
X0024195Y0210663D01*
X0024165Y0210518D01*
X0024132Y0210374D01*
X0024094Y0210231D01*
X0024053Y0210089D01*
X0024008Y0209948D01*
X0023960Y0209808D01*
X0023907Y0209669D01*
X0023851Y0209532D01*
X0023791Y0209397D01*
X0023728Y0209263D01*
X0023661Y0209131D01*
X0023590Y0209001D01*
X0023516Y0208873D01*
X0023439Y0208747D01*
X0023358Y0208623D01*
X0023274Y0208501D01*
X0023187Y0208382D01*
X0023096Y0208265D01*
X0023002Y0208150D01*
X0022906Y0208038D01*
X0022806Y0207928D01*
X0022704Y0207822D01*
X0022598Y0207718D01*
X0022490Y0207617D01*
X0022379Y0207519D01*
X0022266Y0207423D01*
X0022150Y0207331D01*
X0022032Y0207242D01*
X0021911Y0207157D01*
X0021788Y0207074D01*
X0021663Y0206995D01*
X0021536Y0206919D01*
X0021407Y0206847D01*
X0021276Y0206778D01*
X0021143Y0206713D01*
X0021008Y0206652D01*
X0020872Y0206594D01*
X0020735Y0206539D01*
X0020596Y0206489D01*
X0020455Y0206442D01*
X0020314Y0206399D01*
X0020171Y0206359D01*
X0020027Y0206324D01*
X0019883Y0206292D01*
X0019737Y0206265D01*
X0019591Y0206241D01*
X0019444Y0206221D01*
X0019297Y0206205D01*
X0019150Y0206193D01*
X0019002Y0206185D01*
X0018854Y0206181D01*
X0018706Y0206181D01*
X0018558Y0206185D01*
X0018410Y0206193D01*
X0018263Y0206205D01*
X0018116Y0206221D01*
X0017969Y0206241D01*
X0017823Y0206265D01*
X0017677Y0206292D01*
X0017533Y0206324D01*
X0017389Y0206359D01*
X0017246Y0206399D01*
X0017105Y0206442D01*
X0016964Y0206489D01*
X0016825Y0206539D01*
X0016688Y0206594D01*
X0016552Y0206652D01*
X0016417Y0206713D01*
X0016284Y0206778D01*
X0016153Y0206847D01*
X0016024Y0206919D01*
X0015897Y0206995D01*
X0015772Y0207074D01*
X0015649Y0207157D01*
X0015528Y0207242D01*
X0015410Y0207331D01*
X0015294Y0207423D01*
X0015181Y0207519D01*
X0015070Y0207617D01*
X0014962Y0207718D01*
X0014856Y0207822D01*
X0014754Y0207928D01*
X0014654Y0208038D01*
X0014558Y0208150D01*
X0014464Y0208265D01*
X0014373Y0208382D01*
X0014286Y0208501D01*
X0014202Y0208623D01*
X0014121Y0208747D01*
X0014044Y0208873D01*
X0013970Y0209001D01*
X0013899Y0209131D01*
X0013832Y0209263D01*
X0013769Y0209397D01*
X0013709Y0209532D01*
X0013653Y0209669D01*
X0013600Y0209808D01*
X0013552Y0209948D01*
X0013507Y0210089D01*
X0013466Y0210231D01*
X0013428Y0210374D01*
X0013395Y0210518D01*
X0013365Y0210663D01*
X0013339Y0210809D01*
X0013318Y0210955D01*
X0013300Y0211102D01*
X0013286Y0211249D01*
X0013276Y0211397D01*
X0013270Y0211545D01*
X0013268Y0211693D01*
X0178228Y0079803D02*
X0178228Y0020748D01*
X0178230Y0020624D01*
X0178236Y0020501D01*
X0178245Y0020377D01*
X0178259Y0020255D01*
X0178276Y0020132D01*
X0178298Y0020010D01*
X0178323Y0019889D01*
X0178352Y0019769D01*
X0178384Y0019650D01*
X0178421Y0019531D01*
X0178461Y0019414D01*
X0178504Y0019299D01*
X0178552Y0019184D01*
X0178603Y0019072D01*
X0178657Y0018961D01*
X0178715Y0018851D01*
X0178776Y0018744D01*
X0178841Y0018638D01*
X0178909Y0018535D01*
X0178980Y0018434D01*
X0179054Y0018335D01*
X0179131Y0018238D01*
X0179212Y0018144D01*
X0179295Y0018053D01*
X0179381Y0017964D01*
X0179470Y0017878D01*
X0179561Y0017795D01*
X0179655Y0017714D01*
X0179752Y0017637D01*
X0179851Y0017563D01*
X0179952Y0017492D01*
X0180055Y0017424D01*
X0180161Y0017359D01*
X0180268Y0017298D01*
X0180378Y0017240D01*
X0180489Y0017186D01*
X0180601Y0017135D01*
X0180716Y0017087D01*
X0180831Y0017044D01*
X0180948Y0017004D01*
X0181067Y0016967D01*
X0181186Y0016935D01*
X0181306Y0016906D01*
X0181427Y0016881D01*
X0181549Y0016859D01*
X0181672Y0016842D01*
X0181794Y0016828D01*
X0181918Y0016819D01*
X0182041Y0016813D01*
X0182165Y0016811D01*
X0182289Y0016813D01*
X0182412Y0016819D01*
X0182536Y0016828D01*
X0182658Y0016842D01*
X0182781Y0016859D01*
X0182903Y0016881D01*
X0183024Y0016906D01*
X0183144Y0016935D01*
X0183263Y0016967D01*
X0183382Y0017004D01*
X0183499Y0017044D01*
X0183614Y0017087D01*
X0183729Y0017135D01*
X0183841Y0017186D01*
X0183952Y0017240D01*
X0184062Y0017298D01*
X0184169Y0017359D01*
X0184275Y0017424D01*
X0184378Y0017492D01*
X0184479Y0017563D01*
X0184578Y0017637D01*
X0184675Y0017714D01*
X0184769Y0017795D01*
X0184860Y0017878D01*
X0184949Y0017964D01*
X0185035Y0018053D01*
X0185118Y0018144D01*
X0185199Y0018238D01*
X0185276Y0018335D01*
X0185350Y0018434D01*
X0185421Y0018535D01*
X0185489Y0018638D01*
X0185554Y0018744D01*
X0185615Y0018851D01*
X0185673Y0018961D01*
X0185727Y0019072D01*
X0185778Y0019184D01*
X0185826Y0019299D01*
X0185869Y0019414D01*
X0185909Y0019531D01*
X0185946Y0019650D01*
X0185978Y0019769D01*
X0186007Y0019889D01*
X0186032Y0020010D01*
X0186054Y0020132D01*
X0186071Y0020255D01*
X0186085Y0020377D01*
X0186094Y0020501D01*
X0186100Y0020624D01*
X0186102Y0020748D01*
X0186102Y0079803D01*
X0186100Y0079927D01*
X0186094Y0080050D01*
X0186085Y0080174D01*
X0186071Y0080296D01*
X0186054Y0080419D01*
X0186032Y0080541D01*
X0186007Y0080662D01*
X0185978Y0080782D01*
X0185946Y0080901D01*
X0185909Y0081020D01*
X0185869Y0081137D01*
X0185826Y0081252D01*
X0185778Y0081367D01*
X0185727Y0081479D01*
X0185673Y0081590D01*
X0185615Y0081700D01*
X0185554Y0081807D01*
X0185489Y0081913D01*
X0185421Y0082016D01*
X0185350Y0082117D01*
X0185276Y0082216D01*
X0185199Y0082313D01*
X0185118Y0082407D01*
X0185035Y0082498D01*
X0184949Y0082587D01*
X0184860Y0082673D01*
X0184769Y0082756D01*
X0184675Y0082837D01*
X0184578Y0082914D01*
X0184479Y0082988D01*
X0184378Y0083059D01*
X0184275Y0083127D01*
X0184169Y0083192D01*
X0184062Y0083253D01*
X0183952Y0083311D01*
X0183841Y0083365D01*
X0183729Y0083416D01*
X0183614Y0083464D01*
X0183499Y0083507D01*
X0183382Y0083547D01*
X0183263Y0083584D01*
X0183144Y0083616D01*
X0183024Y0083645D01*
X0182903Y0083670D01*
X0182781Y0083692D01*
X0182658Y0083709D01*
X0182536Y0083723D01*
X0182412Y0083732D01*
X0182289Y0083738D01*
X0182165Y0083740D01*
X0182041Y0083738D01*
X0181918Y0083732D01*
X0181794Y0083723D01*
X0181672Y0083709D01*
X0181549Y0083692D01*
X0181427Y0083670D01*
X0181306Y0083645D01*
X0181186Y0083616D01*
X0181067Y0083584D01*
X0180948Y0083547D01*
X0180831Y0083507D01*
X0180716Y0083464D01*
X0180601Y0083416D01*
X0180489Y0083365D01*
X0180378Y0083311D01*
X0180268Y0083253D01*
X0180161Y0083192D01*
X0180055Y0083127D01*
X0179952Y0083059D01*
X0179851Y0082988D01*
X0179752Y0082914D01*
X0179655Y0082837D01*
X0179561Y0082756D01*
X0179470Y0082673D01*
X0179381Y0082587D01*
X0179295Y0082498D01*
X0179212Y0082407D01*
X0179131Y0082313D01*
X0179054Y0082216D01*
X0178980Y0082117D01*
X0178909Y0082016D01*
X0178841Y0081913D01*
X0178776Y0081807D01*
X0178715Y0081700D01*
X0178657Y0081590D01*
X0178603Y0081479D01*
X0178552Y0081367D01*
X0178504Y0081252D01*
X0178461Y0081137D01*
X0178421Y0081020D01*
X0178384Y0080901D01*
X0178352Y0080782D01*
X0178323Y0080662D01*
X0178298Y0080541D01*
X0178276Y0080419D01*
X0178259Y0080296D01*
X0178245Y0080174D01*
X0178236Y0080050D01*
X0178230Y0079927D01*
X0178228Y0079803D01*
X0243628Y0077400D02*
X0243630Y0077484D01*
X0243636Y0077567D01*
X0243646Y0077650D01*
X0243660Y0077733D01*
X0243677Y0077815D01*
X0243699Y0077896D01*
X0243724Y0077975D01*
X0243753Y0078054D01*
X0243786Y0078131D01*
X0243822Y0078206D01*
X0243862Y0078280D01*
X0243905Y0078352D01*
X0243952Y0078421D01*
X0244002Y0078488D01*
X0244055Y0078553D01*
X0244111Y0078615D01*
X0244169Y0078675D01*
X0244231Y0078732D01*
X0244295Y0078785D01*
X0244362Y0078836D01*
X0244431Y0078883D01*
X0244502Y0078928D01*
X0244575Y0078968D01*
X0244650Y0079005D01*
X0244727Y0079039D01*
X0244805Y0079069D01*
X0244884Y0079095D01*
X0244965Y0079118D01*
X0245047Y0079136D01*
X0245129Y0079151D01*
X0245212Y0079162D01*
X0245295Y0079169D01*
X0245379Y0079172D01*
X0245463Y0079171D01*
X0245546Y0079166D01*
X0245630Y0079157D01*
X0245712Y0079144D01*
X0245794Y0079128D01*
X0245875Y0079107D01*
X0245956Y0079083D01*
X0246034Y0079055D01*
X0246112Y0079023D01*
X0246188Y0078987D01*
X0246262Y0078948D01*
X0246334Y0078906D01*
X0246404Y0078860D01*
X0246472Y0078811D01*
X0246537Y0078759D01*
X0246600Y0078704D01*
X0246660Y0078646D01*
X0246718Y0078585D01*
X0246772Y0078521D01*
X0246824Y0078455D01*
X0246872Y0078387D01*
X0246917Y0078316D01*
X0246958Y0078243D01*
X0246997Y0078169D01*
X0247031Y0078093D01*
X0247062Y0078015D01*
X0247089Y0077936D01*
X0247113Y0077855D01*
X0247132Y0077774D01*
X0247148Y0077692D01*
X0247160Y0077609D01*
X0247168Y0077525D01*
X0247172Y0077442D01*
X0247172Y0077358D01*
X0247168Y0077275D01*
X0247160Y0077191D01*
X0247148Y0077108D01*
X0247132Y0077026D01*
X0247113Y0076945D01*
X0247089Y0076864D01*
X0247062Y0076785D01*
X0247031Y0076707D01*
X0246997Y0076631D01*
X0246958Y0076557D01*
X0246917Y0076484D01*
X0246872Y0076413D01*
X0246824Y0076345D01*
X0246772Y0076279D01*
X0246718Y0076215D01*
X0246660Y0076154D01*
X0246600Y0076096D01*
X0246537Y0076041D01*
X0246472Y0075989D01*
X0246404Y0075940D01*
X0246334Y0075894D01*
X0246262Y0075852D01*
X0246188Y0075813D01*
X0246112Y0075777D01*
X0246034Y0075745D01*
X0245956Y0075717D01*
X0245875Y0075693D01*
X0245794Y0075672D01*
X0245712Y0075656D01*
X0245630Y0075643D01*
X0245546Y0075634D01*
X0245463Y0075629D01*
X0245379Y0075628D01*
X0245295Y0075631D01*
X0245212Y0075638D01*
X0245129Y0075649D01*
X0245047Y0075664D01*
X0244965Y0075682D01*
X0244884Y0075705D01*
X0244805Y0075731D01*
X0244727Y0075761D01*
X0244650Y0075795D01*
X0244575Y0075832D01*
X0244502Y0075872D01*
X0244431Y0075917D01*
X0244362Y0075964D01*
X0244295Y0076015D01*
X0244231Y0076068D01*
X0244169Y0076125D01*
X0244111Y0076185D01*
X0244055Y0076247D01*
X0244002Y0076312D01*
X0243952Y0076379D01*
X0243905Y0076448D01*
X0243862Y0076520D01*
X0243822Y0076594D01*
X0243786Y0076669D01*
X0243753Y0076746D01*
X0243724Y0076825D01*
X0243699Y0076904D01*
X0243677Y0076985D01*
X0243660Y0077067D01*
X0243646Y0077150D01*
X0243636Y0077233D01*
X0243630Y0077316D01*
X0243628Y0077400D01*
X0241614Y0018780D02*
X0241616Y0018928D01*
X0241622Y0019076D01*
X0241632Y0019224D01*
X0241646Y0019371D01*
X0241664Y0019518D01*
X0241685Y0019664D01*
X0241711Y0019810D01*
X0241741Y0019955D01*
X0241774Y0020099D01*
X0241812Y0020242D01*
X0241853Y0020384D01*
X0241898Y0020525D01*
X0241946Y0020665D01*
X0241999Y0020804D01*
X0242055Y0020941D01*
X0242115Y0021076D01*
X0242178Y0021210D01*
X0242245Y0021342D01*
X0242316Y0021472D01*
X0242390Y0021600D01*
X0242467Y0021726D01*
X0242548Y0021850D01*
X0242632Y0021972D01*
X0242719Y0022091D01*
X0242810Y0022208D01*
X0242904Y0022323D01*
X0243000Y0022435D01*
X0243100Y0022545D01*
X0243202Y0022651D01*
X0243308Y0022755D01*
X0243416Y0022856D01*
X0243527Y0022954D01*
X0243640Y0023050D01*
X0243756Y0023142D01*
X0243874Y0023231D01*
X0243995Y0023316D01*
X0244118Y0023399D01*
X0244243Y0023478D01*
X0244370Y0023554D01*
X0244499Y0023626D01*
X0244630Y0023695D01*
X0244763Y0023760D01*
X0244898Y0023821D01*
X0245034Y0023879D01*
X0245171Y0023934D01*
X0245310Y0023984D01*
X0245451Y0024031D01*
X0245592Y0024074D01*
X0245735Y0024114D01*
X0245879Y0024149D01*
X0246023Y0024181D01*
X0246169Y0024208D01*
X0246315Y0024232D01*
X0246462Y0024252D01*
X0246609Y0024268D01*
X0246756Y0024280D01*
X0246904Y0024288D01*
X0247052Y0024292D01*
X0247200Y0024292D01*
X0247348Y0024288D01*
X0247496Y0024280D01*
X0247643Y0024268D01*
X0247790Y0024252D01*
X0247937Y0024232D01*
X0248083Y0024208D01*
X0248229Y0024181D01*
X0248373Y0024149D01*
X0248517Y0024114D01*
X0248660Y0024074D01*
X0248801Y0024031D01*
X0248942Y0023984D01*
X0249081Y0023934D01*
X0249218Y0023879D01*
X0249354Y0023821D01*
X0249489Y0023760D01*
X0249622Y0023695D01*
X0249753Y0023626D01*
X0249882Y0023554D01*
X0250009Y0023478D01*
X0250134Y0023399D01*
X0250257Y0023316D01*
X0250378Y0023231D01*
X0250496Y0023142D01*
X0250612Y0023050D01*
X0250725Y0022954D01*
X0250836Y0022856D01*
X0250944Y0022755D01*
X0251050Y0022651D01*
X0251152Y0022545D01*
X0251252Y0022435D01*
X0251348Y0022323D01*
X0251442Y0022208D01*
X0251533Y0022091D01*
X0251620Y0021972D01*
X0251704Y0021850D01*
X0251785Y0021726D01*
X0251862Y0021600D01*
X0251936Y0021472D01*
X0252007Y0021342D01*
X0252074Y0021210D01*
X0252137Y0021076D01*
X0252197Y0020941D01*
X0252253Y0020804D01*
X0252306Y0020665D01*
X0252354Y0020525D01*
X0252399Y0020384D01*
X0252440Y0020242D01*
X0252478Y0020099D01*
X0252511Y0019955D01*
X0252541Y0019810D01*
X0252567Y0019664D01*
X0252588Y0019518D01*
X0252606Y0019371D01*
X0252620Y0019224D01*
X0252630Y0019076D01*
X0252636Y0018928D01*
X0252638Y0018780D01*
X0252636Y0018632D01*
X0252630Y0018484D01*
X0252620Y0018336D01*
X0252606Y0018189D01*
X0252588Y0018042D01*
X0252567Y0017896D01*
X0252541Y0017750D01*
X0252511Y0017605D01*
X0252478Y0017461D01*
X0252440Y0017318D01*
X0252399Y0017176D01*
X0252354Y0017035D01*
X0252306Y0016895D01*
X0252253Y0016756D01*
X0252197Y0016619D01*
X0252137Y0016484D01*
X0252074Y0016350D01*
X0252007Y0016218D01*
X0251936Y0016088D01*
X0251862Y0015960D01*
X0251785Y0015834D01*
X0251704Y0015710D01*
X0251620Y0015588D01*
X0251533Y0015469D01*
X0251442Y0015352D01*
X0251348Y0015237D01*
X0251252Y0015125D01*
X0251152Y0015015D01*
X0251050Y0014909D01*
X0250944Y0014805D01*
X0250836Y0014704D01*
X0250725Y0014606D01*
X0250612Y0014510D01*
X0250496Y0014418D01*
X0250378Y0014329D01*
X0250257Y0014244D01*
X0250134Y0014161D01*
X0250009Y0014082D01*
X0249882Y0014006D01*
X0249753Y0013934D01*
X0249622Y0013865D01*
X0249489Y0013800D01*
X0249354Y0013739D01*
X0249218Y0013681D01*
X0249081Y0013626D01*
X0248942Y0013576D01*
X0248801Y0013529D01*
X0248660Y0013486D01*
X0248517Y0013446D01*
X0248373Y0013411D01*
X0248229Y0013379D01*
X0248083Y0013352D01*
X0247937Y0013328D01*
X0247790Y0013308D01*
X0247643Y0013292D01*
X0247496Y0013280D01*
X0247348Y0013272D01*
X0247200Y0013268D01*
X0247052Y0013268D01*
X0246904Y0013272D01*
X0246756Y0013280D01*
X0246609Y0013292D01*
X0246462Y0013308D01*
X0246315Y0013328D01*
X0246169Y0013352D01*
X0246023Y0013379D01*
X0245879Y0013411D01*
X0245735Y0013446D01*
X0245592Y0013486D01*
X0245451Y0013529D01*
X0245310Y0013576D01*
X0245171Y0013626D01*
X0245034Y0013681D01*
X0244898Y0013739D01*
X0244763Y0013800D01*
X0244630Y0013865D01*
X0244499Y0013934D01*
X0244370Y0014006D01*
X0244243Y0014082D01*
X0244118Y0014161D01*
X0243995Y0014244D01*
X0243874Y0014329D01*
X0243756Y0014418D01*
X0243640Y0014510D01*
X0243527Y0014606D01*
X0243416Y0014704D01*
X0243308Y0014805D01*
X0243202Y0014909D01*
X0243100Y0015015D01*
X0243000Y0015125D01*
X0242904Y0015237D01*
X0242810Y0015352D01*
X0242719Y0015469D01*
X0242632Y0015588D01*
X0242548Y0015710D01*
X0242467Y0015834D01*
X0242390Y0015960D01*
X0242316Y0016088D01*
X0242245Y0016218D01*
X0242178Y0016350D01*
X0242115Y0016484D01*
X0242055Y0016619D01*
X0241999Y0016756D01*
X0241946Y0016895D01*
X0241898Y0017035D01*
X0241853Y0017176D01*
X0241812Y0017318D01*
X0241774Y0017461D01*
X0241741Y0017605D01*
X0241711Y0017750D01*
X0241685Y0017896D01*
X0241664Y0018042D01*
X0241646Y0018189D01*
X0241632Y0018336D01*
X0241622Y0018484D01*
X0241616Y0018632D01*
X0241614Y0018780D01*
X0241614Y0211693D02*
X0241616Y0211841D01*
X0241622Y0211989D01*
X0241632Y0212137D01*
X0241646Y0212284D01*
X0241664Y0212431D01*
X0241685Y0212577D01*
X0241711Y0212723D01*
X0241741Y0212868D01*
X0241774Y0213012D01*
X0241812Y0213155D01*
X0241853Y0213297D01*
X0241898Y0213438D01*
X0241946Y0213578D01*
X0241999Y0213717D01*
X0242055Y0213854D01*
X0242115Y0213989D01*
X0242178Y0214123D01*
X0242245Y0214255D01*
X0242316Y0214385D01*
X0242390Y0214513D01*
X0242467Y0214639D01*
X0242548Y0214763D01*
X0242632Y0214885D01*
X0242719Y0215004D01*
X0242810Y0215121D01*
X0242904Y0215236D01*
X0243000Y0215348D01*
X0243100Y0215458D01*
X0243202Y0215564D01*
X0243308Y0215668D01*
X0243416Y0215769D01*
X0243527Y0215867D01*
X0243640Y0215963D01*
X0243756Y0216055D01*
X0243874Y0216144D01*
X0243995Y0216229D01*
X0244118Y0216312D01*
X0244243Y0216391D01*
X0244370Y0216467D01*
X0244499Y0216539D01*
X0244630Y0216608D01*
X0244763Y0216673D01*
X0244898Y0216734D01*
X0245034Y0216792D01*
X0245171Y0216847D01*
X0245310Y0216897D01*
X0245451Y0216944D01*
X0245592Y0216987D01*
X0245735Y0217027D01*
X0245879Y0217062D01*
X0246023Y0217094D01*
X0246169Y0217121D01*
X0246315Y0217145D01*
X0246462Y0217165D01*
X0246609Y0217181D01*
X0246756Y0217193D01*
X0246904Y0217201D01*
X0247052Y0217205D01*
X0247200Y0217205D01*
X0247348Y0217201D01*
X0247496Y0217193D01*
X0247643Y0217181D01*
X0247790Y0217165D01*
X0247937Y0217145D01*
X0248083Y0217121D01*
X0248229Y0217094D01*
X0248373Y0217062D01*
X0248517Y0217027D01*
X0248660Y0216987D01*
X0248801Y0216944D01*
X0248942Y0216897D01*
X0249081Y0216847D01*
X0249218Y0216792D01*
X0249354Y0216734D01*
X0249489Y0216673D01*
X0249622Y0216608D01*
X0249753Y0216539D01*
X0249882Y0216467D01*
X0250009Y0216391D01*
X0250134Y0216312D01*
X0250257Y0216229D01*
X0250378Y0216144D01*
X0250496Y0216055D01*
X0250612Y0215963D01*
X0250725Y0215867D01*
X0250836Y0215769D01*
X0250944Y0215668D01*
X0251050Y0215564D01*
X0251152Y0215458D01*
X0251252Y0215348D01*
X0251348Y0215236D01*
X0251442Y0215121D01*
X0251533Y0215004D01*
X0251620Y0214885D01*
X0251704Y0214763D01*
X0251785Y0214639D01*
X0251862Y0214513D01*
X0251936Y0214385D01*
X0252007Y0214255D01*
X0252074Y0214123D01*
X0252137Y0213989D01*
X0252197Y0213854D01*
X0252253Y0213717D01*
X0252306Y0213578D01*
X0252354Y0213438D01*
X0252399Y0213297D01*
X0252440Y0213155D01*
X0252478Y0213012D01*
X0252511Y0212868D01*
X0252541Y0212723D01*
X0252567Y0212577D01*
X0252588Y0212431D01*
X0252606Y0212284D01*
X0252620Y0212137D01*
X0252630Y0211989D01*
X0252636Y0211841D01*
X0252638Y0211693D01*
X0252636Y0211545D01*
X0252630Y0211397D01*
X0252620Y0211249D01*
X0252606Y0211102D01*
X0252588Y0210955D01*
X0252567Y0210809D01*
X0252541Y0210663D01*
X0252511Y0210518D01*
X0252478Y0210374D01*
X0252440Y0210231D01*
X0252399Y0210089D01*
X0252354Y0209948D01*
X0252306Y0209808D01*
X0252253Y0209669D01*
X0252197Y0209532D01*
X0252137Y0209397D01*
X0252074Y0209263D01*
X0252007Y0209131D01*
X0251936Y0209001D01*
X0251862Y0208873D01*
X0251785Y0208747D01*
X0251704Y0208623D01*
X0251620Y0208501D01*
X0251533Y0208382D01*
X0251442Y0208265D01*
X0251348Y0208150D01*
X0251252Y0208038D01*
X0251152Y0207928D01*
X0251050Y0207822D01*
X0250944Y0207718D01*
X0250836Y0207617D01*
X0250725Y0207519D01*
X0250612Y0207423D01*
X0250496Y0207331D01*
X0250378Y0207242D01*
X0250257Y0207157D01*
X0250134Y0207074D01*
X0250009Y0206995D01*
X0249882Y0206919D01*
X0249753Y0206847D01*
X0249622Y0206778D01*
X0249489Y0206713D01*
X0249354Y0206652D01*
X0249218Y0206594D01*
X0249081Y0206539D01*
X0248942Y0206489D01*
X0248801Y0206442D01*
X0248660Y0206399D01*
X0248517Y0206359D01*
X0248373Y0206324D01*
X0248229Y0206292D01*
X0248083Y0206265D01*
X0247937Y0206241D01*
X0247790Y0206221D01*
X0247643Y0206205D01*
X0247496Y0206193D01*
X0247348Y0206185D01*
X0247200Y0206181D01*
X0247052Y0206181D01*
X0246904Y0206185D01*
X0246756Y0206193D01*
X0246609Y0206205D01*
X0246462Y0206221D01*
X0246315Y0206241D01*
X0246169Y0206265D01*
X0246023Y0206292D01*
X0245879Y0206324D01*
X0245735Y0206359D01*
X0245592Y0206399D01*
X0245451Y0206442D01*
X0245310Y0206489D01*
X0245171Y0206539D01*
X0245034Y0206594D01*
X0244898Y0206652D01*
X0244763Y0206713D01*
X0244630Y0206778D01*
X0244499Y0206847D01*
X0244370Y0206919D01*
X0244243Y0206995D01*
X0244118Y0207074D01*
X0243995Y0207157D01*
X0243874Y0207242D01*
X0243756Y0207331D01*
X0243640Y0207423D01*
X0243527Y0207519D01*
X0243416Y0207617D01*
X0243308Y0207718D01*
X0243202Y0207822D01*
X0243100Y0207928D01*
X0243000Y0208038D01*
X0242904Y0208150D01*
X0242810Y0208265D01*
X0242719Y0208382D01*
X0242632Y0208501D01*
X0242548Y0208623D01*
X0242467Y0208747D01*
X0242390Y0208873D01*
X0242316Y0209001D01*
X0242245Y0209131D01*
X0242178Y0209263D01*
X0242115Y0209397D01*
X0242055Y0209532D01*
X0241999Y0209669D01*
X0241946Y0209808D01*
X0241898Y0209948D01*
X0241853Y0210089D01*
X0241812Y0210231D01*
X0241774Y0210374D01*
X0241741Y0210518D01*
X0241711Y0210663D01*
X0241685Y0210809D01*
X0241664Y0210955D01*
X0241646Y0211102D01*
X0241632Y0211249D01*
X0241622Y0211397D01*
X0241616Y0211545D01*
X0241614Y0211693D01*
D11*
X0081000Y0043000D02*
X0049500Y0043000D01*
X0046500Y0040000D02*
X0046502Y0039893D01*
X0046508Y0039786D01*
X0046517Y0039679D01*
X0046531Y0039573D01*
X0046548Y0039467D01*
X0046569Y0039362D01*
X0046593Y0039258D01*
X0046622Y0039155D01*
X0046654Y0039053D01*
X0046689Y0038952D01*
X0046728Y0038852D01*
X0046771Y0038754D01*
X0046817Y0038657D01*
X0046867Y0038562D01*
X0046920Y0038469D01*
X0046976Y0038378D01*
X0047036Y0038289D01*
X0047098Y0038202D01*
X0047164Y0038118D01*
X0047233Y0038035D01*
X0047304Y0037956D01*
X0047379Y0037879D01*
X0047456Y0037804D01*
X0047535Y0037733D01*
X0047618Y0037664D01*
X0047702Y0037598D01*
X0047789Y0037536D01*
X0047878Y0037476D01*
X0047969Y0037420D01*
X0048062Y0037367D01*
X0048157Y0037317D01*
X0048254Y0037271D01*
X0048352Y0037228D01*
X0048452Y0037189D01*
X0048553Y0037154D01*
X0048655Y0037122D01*
X0048758Y0037093D01*
X0048862Y0037069D01*
X0048967Y0037048D01*
X0049073Y0037031D01*
X0049179Y0037017D01*
X0049286Y0037008D01*
X0049393Y0037002D01*
X0049500Y0037000D01*
X0078000Y0037000D01*
X0078000Y0017000D01*
X0078002Y0016893D01*
X0078008Y0016786D01*
X0078017Y0016679D01*
X0078031Y0016573D01*
X0078048Y0016467D01*
X0078069Y0016362D01*
X0078093Y0016258D01*
X0078122Y0016155D01*
X0078154Y0016053D01*
X0078189Y0015952D01*
X0078228Y0015852D01*
X0078271Y0015754D01*
X0078317Y0015657D01*
X0078367Y0015562D01*
X0078420Y0015469D01*
X0078476Y0015378D01*
X0078536Y0015289D01*
X0078598Y0015202D01*
X0078664Y0015118D01*
X0078733Y0015035D01*
X0078804Y0014956D01*
X0078879Y0014879D01*
X0078956Y0014804D01*
X0079035Y0014733D01*
X0079118Y0014664D01*
X0079202Y0014598D01*
X0079289Y0014536D01*
X0079378Y0014476D01*
X0079469Y0014420D01*
X0079562Y0014367D01*
X0079657Y0014317D01*
X0079754Y0014271D01*
X0079852Y0014228D01*
X0079952Y0014189D01*
X0080053Y0014154D01*
X0080155Y0014122D01*
X0080258Y0014093D01*
X0080362Y0014069D01*
X0080467Y0014048D01*
X0080573Y0014031D01*
X0080679Y0014017D01*
X0080786Y0014008D01*
X0080893Y0014002D01*
X0081000Y0014000D01*
X0081107Y0014002D01*
X0081214Y0014008D01*
X0081321Y0014017D01*
X0081427Y0014031D01*
X0081533Y0014048D01*
X0081638Y0014069D01*
X0081742Y0014093D01*
X0081845Y0014122D01*
X0081947Y0014154D01*
X0082048Y0014189D01*
X0082148Y0014228D01*
X0082246Y0014271D01*
X0082343Y0014317D01*
X0082438Y0014367D01*
X0082531Y0014420D01*
X0082622Y0014476D01*
X0082711Y0014536D01*
X0082798Y0014598D01*
X0082882Y0014664D01*
X0082965Y0014733D01*
X0083044Y0014804D01*
X0083121Y0014879D01*
X0083196Y0014956D01*
X0083267Y0015035D01*
X0083336Y0015118D01*
X0083402Y0015202D01*
X0083464Y0015289D01*
X0083524Y0015378D01*
X0083580Y0015469D01*
X0083633Y0015562D01*
X0083683Y0015657D01*
X0083729Y0015754D01*
X0083772Y0015852D01*
X0083811Y0015952D01*
X0083846Y0016053D01*
X0083878Y0016155D01*
X0083907Y0016258D01*
X0083931Y0016362D01*
X0083952Y0016467D01*
X0083969Y0016573D01*
X0083983Y0016679D01*
X0083992Y0016786D01*
X0083998Y0016893D01*
X0084000Y0017000D01*
X0084000Y0040000D01*
X0083998Y0040107D01*
X0083992Y0040214D01*
X0083983Y0040321D01*
X0083969Y0040427D01*
X0083952Y0040533D01*
X0083931Y0040638D01*
X0083907Y0040742D01*
X0083878Y0040845D01*
X0083846Y0040947D01*
X0083811Y0041048D01*
X0083772Y0041148D01*
X0083729Y0041246D01*
X0083683Y0041343D01*
X0083633Y0041438D01*
X0083580Y0041531D01*
X0083524Y0041622D01*
X0083464Y0041711D01*
X0083402Y0041798D01*
X0083336Y0041882D01*
X0083267Y0041965D01*
X0083196Y0042044D01*
X0083121Y0042121D01*
X0083044Y0042196D01*
X0082965Y0042267D01*
X0082882Y0042336D01*
X0082798Y0042402D01*
X0082711Y0042464D01*
X0082622Y0042524D01*
X0082531Y0042580D01*
X0082438Y0042633D01*
X0082343Y0042683D01*
X0082246Y0042729D01*
X0082148Y0042772D01*
X0082048Y0042811D01*
X0081947Y0042846D01*
X0081845Y0042878D01*
X0081742Y0042907D01*
X0081638Y0042931D01*
X0081533Y0042952D01*
X0081427Y0042969D01*
X0081321Y0042983D01*
X0081214Y0042992D01*
X0081107Y0042998D01*
X0081000Y0043000D01*
X0081107Y0042998D01*
X0081214Y0042992D01*
X0081321Y0042983D01*
X0081427Y0042969D01*
X0081533Y0042952D01*
X0081638Y0042931D01*
X0081742Y0042907D01*
X0081845Y0042878D01*
X0081947Y0042846D01*
X0082048Y0042811D01*
X0082148Y0042772D01*
X0082246Y0042729D01*
X0082343Y0042683D01*
X0082438Y0042633D01*
X0082531Y0042580D01*
X0082622Y0042524D01*
X0082711Y0042464D01*
X0082798Y0042402D01*
X0082882Y0042336D01*
X0082965Y0042267D01*
X0083044Y0042196D01*
X0083121Y0042121D01*
X0083196Y0042044D01*
X0083267Y0041965D01*
X0083336Y0041882D01*
X0083402Y0041798D01*
X0083464Y0041711D01*
X0083524Y0041622D01*
X0083580Y0041531D01*
X0083633Y0041438D01*
X0083683Y0041343D01*
X0083729Y0041246D01*
X0083772Y0041148D01*
X0083811Y0041048D01*
X0083846Y0040947D01*
X0083878Y0040845D01*
X0083907Y0040742D01*
X0083931Y0040638D01*
X0083952Y0040533D01*
X0083969Y0040427D01*
X0083983Y0040321D01*
X0083992Y0040214D01*
X0083998Y0040107D01*
X0084000Y0040000D01*
X0049500Y0043000D02*
X0049393Y0042998D01*
X0049286Y0042992D01*
X0049179Y0042983D01*
X0049073Y0042969D01*
X0048967Y0042952D01*
X0048862Y0042931D01*
X0048758Y0042907D01*
X0048655Y0042878D01*
X0048553Y0042846D01*
X0048452Y0042811D01*
X0048352Y0042772D01*
X0048254Y0042729D01*
X0048157Y0042683D01*
X0048062Y0042633D01*
X0047969Y0042580D01*
X0047878Y0042524D01*
X0047789Y0042464D01*
X0047702Y0042402D01*
X0047618Y0042336D01*
X0047535Y0042267D01*
X0047456Y0042196D01*
X0047379Y0042121D01*
X0047304Y0042044D01*
X0047233Y0041965D01*
X0047164Y0041882D01*
X0047098Y0041798D01*
X0047036Y0041711D01*
X0046976Y0041622D01*
X0046920Y0041531D01*
X0046867Y0041438D01*
X0046817Y0041343D01*
X0046771Y0041246D01*
X0046728Y0041148D01*
X0046689Y0041048D01*
X0046654Y0040947D01*
X0046622Y0040845D01*
X0046593Y0040742D01*
X0046569Y0040638D01*
X0046548Y0040533D01*
X0046531Y0040427D01*
X0046517Y0040321D01*
X0046508Y0040214D01*
X0046502Y0040107D01*
X0046500Y0040000D01*
D12*
X0218431Y0012001D02*
X0218431Y0010600D01*
X0218431Y0012001D02*
X0218898Y0012468D01*
X0219832Y0012468D01*
X0220299Y0012001D01*
X0221377Y0012468D02*
X0221377Y0010600D01*
X0222778Y0010600D01*
X0223246Y0011067D01*
X0223246Y0012468D01*
X0224300Y0012468D02*
X0224767Y0012468D01*
X0225701Y0011534D01*
X0225701Y0010600D02*
X0225701Y0012468D01*
X0226779Y0012001D02*
X0227246Y0012468D01*
X0228647Y0012468D01*
X0228647Y0013402D02*
X0228647Y0010600D01*
X0227246Y0010600D01*
X0226779Y0011067D01*
X0226779Y0012001D01*
X0220299Y0013402D02*
X0220299Y0010600D01*
D13*
X0250595Y0070232D02*
X0251396Y0070232D01*
X0252997Y0070232D02*
X0256200Y0070232D01*
X0256200Y0069432D02*
X0256200Y0071033D01*
X0256200Y0072869D02*
X0256200Y0074471D01*
X0256200Y0073670D02*
X0251396Y0073670D01*
X0251396Y0074471D01*
X0252997Y0076424D02*
X0256200Y0076424D01*
X0253798Y0076424D02*
X0253798Y0079627D01*
X0252997Y0079627D02*
X0251396Y0078026D01*
X0252997Y0076424D01*
X0252997Y0079627D02*
X0256200Y0079627D01*
X0256200Y0086737D02*
X0253798Y0086737D01*
X0252997Y0087538D01*
X0253798Y0088339D01*
X0256200Y0088339D01*
X0256200Y0089940D02*
X0252997Y0089940D01*
X0252997Y0089139D01*
X0253798Y0088339D01*
X0253798Y0091894D02*
X0256200Y0091894D01*
X0256200Y0094296D01*
X0255399Y0095096D01*
X0254599Y0094296D01*
X0254599Y0091894D01*
X0253798Y0091894D02*
X0252997Y0092694D01*
X0252997Y0094296D01*
X0252997Y0096991D02*
X0252997Y0097792D01*
X0254599Y0099393D01*
X0256200Y0099393D02*
X0252997Y0099393D01*
X0252997Y0101288D02*
X0254599Y0103690D01*
X0256200Y0101288D01*
X0256200Y0103690D02*
X0251396Y0103690D01*
X0252997Y0105644D02*
X0256200Y0105644D01*
X0253798Y0105644D02*
X0253798Y0108847D01*
X0252997Y0108847D02*
X0251396Y0107245D01*
X0252997Y0105644D01*
X0252997Y0108847D02*
X0256200Y0108847D01*
X0256200Y0115957D02*
X0256200Y0118359D01*
X0255399Y0119159D01*
X0252997Y0119159D01*
X0253798Y0121113D02*
X0252997Y0121914D01*
X0252997Y0124316D01*
X0251396Y0124316D02*
X0256200Y0124316D01*
X0256200Y0121914D01*
X0255399Y0121113D01*
X0253798Y0121113D01*
X0252997Y0115957D02*
X0257001Y0115957D01*
X0257801Y0116757D01*
X0257801Y0117558D01*
X0256200Y0131426D02*
X0251396Y0131426D01*
X0252997Y0131426D02*
X0252997Y0133828D01*
X0253798Y0134629D01*
X0255399Y0134629D01*
X0256200Y0133828D01*
X0256200Y0131426D01*
X0254599Y0136582D02*
X0253798Y0136582D01*
X0252997Y0137383D01*
X0252997Y0138984D01*
X0253798Y0139785D01*
X0255399Y0139785D01*
X0256200Y0138984D01*
X0256200Y0137383D01*
X0254599Y0136582D02*
X0254599Y0139785D01*
X0253798Y0141739D02*
X0256200Y0141739D01*
X0253798Y0141739D02*
X0252997Y0142539D01*
X0252997Y0144941D01*
X0256200Y0144941D01*
X0256200Y0146895D02*
X0256200Y0149297D01*
X0255399Y0150098D01*
X0253798Y0150098D01*
X0252997Y0149297D01*
X0252997Y0146895D01*
X0257001Y0146895D01*
X0257801Y0147696D01*
X0257801Y0148497D01*
X0256200Y0151934D02*
X0256200Y0153535D01*
X0256200Y0152735D02*
X0252997Y0152735D01*
X0252997Y0153535D01*
X0251396Y0152735D02*
X0250595Y0152735D01*
X0252997Y0155489D02*
X0252997Y0157891D01*
X0253798Y0158692D01*
X0254599Y0157891D01*
X0254599Y0156290D01*
X0255399Y0155489D01*
X0256200Y0156290D01*
X0256200Y0158692D01*
X0254599Y0160646D02*
X0253798Y0160646D01*
X0252997Y0161446D01*
X0252997Y0163048D01*
X0253798Y0163848D01*
X0255399Y0163848D01*
X0256200Y0163048D01*
X0256200Y0161446D01*
X0254599Y0160646D02*
X0254599Y0163848D01*
X0255399Y0165802D02*
X0252197Y0165802D01*
X0251396Y0166603D01*
X0251396Y0169005D01*
X0256200Y0169005D01*
X0256200Y0166603D01*
X0255399Y0165802D01*
X0252997Y0071033D02*
X0252997Y0070232D01*
D14*
X0227953Y0206693D03*
X0227953Y0216693D03*
X0217953Y0216693D03*
X0217953Y0206693D03*
X0207953Y0206693D03*
X0207953Y0216693D03*
X0197953Y0216693D03*
X0187953Y0216693D03*
X0187953Y0206693D03*
X0197953Y0206693D03*
X0177953Y0206693D03*
X0177953Y0216693D03*
X0167953Y0216693D03*
X0167953Y0206693D03*
X0157953Y0206693D03*
X0157953Y0216693D03*
X0147953Y0216693D03*
X0137953Y0216693D03*
X0137953Y0206693D03*
X0147953Y0206693D03*
X0127953Y0206693D03*
X0127953Y0216693D03*
X0117953Y0216693D03*
X0117953Y0206693D03*
X0107953Y0206693D03*
X0097953Y0206693D03*
X0097953Y0216693D03*
X0107953Y0216693D03*
X0087953Y0216693D03*
X0087953Y0206693D03*
X0077953Y0206693D03*
X0077953Y0216693D03*
X0067953Y0216693D03*
X0067953Y0206693D03*
X0057953Y0206693D03*
X0047953Y0206693D03*
X0047953Y0216693D03*
X0057953Y0216693D03*
X0037953Y0216693D03*
X0037953Y0206693D03*
D15*
X0035000Y0140600D03*
X0035000Y0130600D03*
X0035000Y0120600D03*
X0035000Y0110600D03*
X0035000Y0100600D03*
X0035000Y0090600D03*
D16*
X0059800Y0104800D03*
X0059800Y0114800D03*
X0059800Y0124800D03*
X0069800Y0124800D03*
X0069800Y0114800D03*
X0069800Y0104800D03*
D17*
X0229400Y0187378D03*
X0229400Y0190622D03*
X0239600Y0190622D03*
X0239600Y0187378D03*
D18*
X0239600Y0173000D03*
X0229400Y0161200D03*
X0216400Y0165600D03*
X0193200Y0157600D03*
X0178000Y0145200D03*
X0173600Y0141400D03*
X0168000Y0136600D03*
X0176600Y0133400D03*
X0175800Y0127600D03*
X0147200Y0118000D03*
X0140400Y0124000D03*
X0133000Y0127000D03*
X0175800Y0088600D03*
X0209400Y0064600D03*
X0248200Y0064600D03*
X0159800Y0016400D03*
X0118000Y0016400D03*
X0073200Y0024800D03*
X0047800Y0074400D03*
X0047800Y0099000D03*
X0078400Y0141400D03*
X0043600Y0146200D03*
D19*
X0043600Y0119200D01*
X0048800Y0114000D02*
X0048800Y0177600D01*
X0048802Y0177714D01*
X0048808Y0177827D01*
X0048817Y0177940D01*
X0048830Y0178053D01*
X0048847Y0178166D01*
X0048868Y0178277D01*
X0048893Y0178388D01*
X0048921Y0178498D01*
X0048953Y0178607D01*
X0048988Y0178715D01*
X0049027Y0178822D01*
X0049070Y0178927D01*
X0049116Y0179031D01*
X0049165Y0179133D01*
X0049218Y0179234D01*
X0049275Y0179333D01*
X0049334Y0179429D01*
X0049397Y0179524D01*
X0049463Y0179617D01*
X0049532Y0179707D01*
X0049604Y0179795D01*
X0049678Y0179881D01*
X0049756Y0179964D01*
X0049836Y0180044D01*
X0049919Y0180122D01*
X0050005Y0180196D01*
X0050093Y0180268D01*
X0050183Y0180337D01*
X0050276Y0180403D01*
X0050371Y0180466D01*
X0050467Y0180525D01*
X0050566Y0180582D01*
X0050667Y0180635D01*
X0050769Y0180684D01*
X0050873Y0180730D01*
X0050978Y0180773D01*
X0051085Y0180812D01*
X0051193Y0180847D01*
X0051302Y0180879D01*
X0051412Y0180907D01*
X0051523Y0180932D01*
X0051634Y0180953D01*
X0051747Y0180970D01*
X0051860Y0180983D01*
X0051973Y0180992D01*
X0052086Y0180998D01*
X0052200Y0181000D01*
X0066800Y0181000D01*
X0171600Y0181000D01*
X0171757Y0180998D01*
X0171914Y0180992D01*
X0172071Y0180983D01*
X0172227Y0180969D01*
X0172383Y0180952D01*
X0172539Y0180931D01*
X0172694Y0180906D01*
X0172849Y0180877D01*
X0173002Y0180844D01*
X0173155Y0180808D01*
X0173307Y0180768D01*
X0173458Y0180724D01*
X0173608Y0180677D01*
X0173756Y0180626D01*
X0173903Y0180571D01*
X0174049Y0180513D01*
X0174194Y0180451D01*
X0174336Y0180386D01*
X0174478Y0180317D01*
X0174617Y0180244D01*
X0174755Y0180169D01*
X0174890Y0180089D01*
X0175024Y0180007D01*
X0175156Y0179921D01*
X0175285Y0179833D01*
X0175412Y0179741D01*
X0175537Y0179645D01*
X0175660Y0179547D01*
X0175780Y0179446D01*
X0175898Y0179342D01*
X0176013Y0179235D01*
X0176125Y0179125D01*
X0176235Y0179013D01*
X0176342Y0178898D01*
X0176446Y0178780D01*
X0176547Y0178660D01*
X0176645Y0178537D01*
X0176741Y0178412D01*
X0176833Y0178285D01*
X0176921Y0178156D01*
X0177007Y0178024D01*
X0177089Y0177890D01*
X0177169Y0177755D01*
X0177244Y0177617D01*
X0177317Y0177478D01*
X0177386Y0177336D01*
X0177451Y0177194D01*
X0177513Y0177049D01*
X0177571Y0176903D01*
X0177626Y0176756D01*
X0177677Y0176608D01*
X0177724Y0176458D01*
X0177768Y0176307D01*
X0177808Y0176155D01*
X0177844Y0176002D01*
X0177877Y0175849D01*
X0177906Y0175694D01*
X0177931Y0175539D01*
X0177952Y0175383D01*
X0177969Y0175227D01*
X0177983Y0175071D01*
X0177992Y0174914D01*
X0177998Y0174757D01*
X0178000Y0174600D01*
X0178000Y0145200D01*
X0173600Y0141400D02*
X0078400Y0141400D01*
X0064400Y0132800D02*
X0131600Y0132800D01*
X0133000Y0127000D02*
X0098400Y0127000D01*
X0098260Y0126998D01*
X0098120Y0126992D01*
X0097980Y0126982D01*
X0097840Y0126969D01*
X0097701Y0126951D01*
X0097562Y0126929D01*
X0097425Y0126904D01*
X0097287Y0126875D01*
X0097151Y0126842D01*
X0097016Y0126805D01*
X0096882Y0126764D01*
X0096749Y0126719D01*
X0096617Y0126671D01*
X0096487Y0126619D01*
X0096358Y0126564D01*
X0096231Y0126505D01*
X0096105Y0126442D01*
X0095981Y0126376D01*
X0095860Y0126307D01*
X0095740Y0126234D01*
X0095622Y0126157D01*
X0095507Y0126078D01*
X0095393Y0125995D01*
X0095283Y0125909D01*
X0095174Y0125820D01*
X0095068Y0125728D01*
X0094965Y0125633D01*
X0094864Y0125536D01*
X0094767Y0125435D01*
X0094672Y0125332D01*
X0094580Y0125226D01*
X0094491Y0125117D01*
X0094405Y0125007D01*
X0094322Y0124893D01*
X0094243Y0124778D01*
X0094166Y0124660D01*
X0094093Y0124540D01*
X0094024Y0124419D01*
X0093958Y0124295D01*
X0093895Y0124169D01*
X0093836Y0124042D01*
X0093781Y0123913D01*
X0093729Y0123783D01*
X0093681Y0123651D01*
X0093636Y0123518D01*
X0093595Y0123384D01*
X0093558Y0123249D01*
X0093525Y0123113D01*
X0093496Y0122975D01*
X0093471Y0122838D01*
X0093449Y0122699D01*
X0093431Y0122560D01*
X0093418Y0122420D01*
X0093408Y0122280D01*
X0093402Y0122140D01*
X0093400Y0122000D01*
X0093400Y0119400D01*
X0093398Y0119266D01*
X0093392Y0119133D01*
X0093382Y0118999D01*
X0093369Y0118866D01*
X0093351Y0118733D01*
X0093330Y0118601D01*
X0093305Y0118470D01*
X0093276Y0118339D01*
X0093243Y0118209D01*
X0093207Y0118081D01*
X0093167Y0117953D01*
X0093123Y0117827D01*
X0093075Y0117702D01*
X0093024Y0117578D01*
X0092969Y0117456D01*
X0092911Y0117336D01*
X0092849Y0117217D01*
X0092784Y0117100D01*
X0092715Y0116985D01*
X0092643Y0116872D01*
X0092568Y0116762D01*
X0092490Y0116653D01*
X0092408Y0116547D01*
X0092324Y0116443D01*
X0092236Y0116342D01*
X0092146Y0116243D01*
X0092053Y0116147D01*
X0091957Y0116054D01*
X0091858Y0115964D01*
X0091757Y0115876D01*
X0091653Y0115792D01*
X0091547Y0115710D01*
X0091438Y0115632D01*
X0091328Y0115557D01*
X0091215Y0115485D01*
X0091100Y0115416D01*
X0090983Y0115351D01*
X0090864Y0115289D01*
X0090744Y0115231D01*
X0090622Y0115176D01*
X0090498Y0115125D01*
X0090373Y0115077D01*
X0090247Y0115033D01*
X0090119Y0114993D01*
X0089991Y0114957D01*
X0089861Y0114924D01*
X0089730Y0114895D01*
X0089599Y0114870D01*
X0089467Y0114849D01*
X0089334Y0114831D01*
X0089201Y0114818D01*
X0089067Y0114808D01*
X0088934Y0114802D01*
X0088800Y0114800D01*
X0069800Y0114800D01*
X0065000Y0109600D02*
X0064857Y0109602D01*
X0064714Y0109608D01*
X0064571Y0109618D01*
X0064428Y0109632D01*
X0064286Y0109649D01*
X0064144Y0109671D01*
X0064003Y0109696D01*
X0063863Y0109726D01*
X0063723Y0109759D01*
X0063585Y0109796D01*
X0063448Y0109837D01*
X0063312Y0109882D01*
X0063177Y0109930D01*
X0063043Y0109982D01*
X0062911Y0110038D01*
X0062781Y0110097D01*
X0062652Y0110160D01*
X0062525Y0110227D01*
X0062400Y0110297D01*
X0062277Y0110370D01*
X0062156Y0110447D01*
X0062037Y0110527D01*
X0061920Y0110610D01*
X0061806Y0110696D01*
X0061694Y0110786D01*
X0061585Y0110879D01*
X0061478Y0110974D01*
X0061374Y0111073D01*
X0061273Y0111174D01*
X0061174Y0111278D01*
X0061079Y0111385D01*
X0060986Y0111494D01*
X0060896Y0111606D01*
X0060810Y0111720D01*
X0060727Y0111837D01*
X0060647Y0111956D01*
X0060570Y0112077D01*
X0060497Y0112200D01*
X0060427Y0112325D01*
X0060360Y0112452D01*
X0060297Y0112581D01*
X0060238Y0112711D01*
X0060182Y0112843D01*
X0060130Y0112977D01*
X0060082Y0113112D01*
X0060037Y0113248D01*
X0059996Y0113385D01*
X0059959Y0113523D01*
X0059926Y0113663D01*
X0059896Y0113803D01*
X0059871Y0113944D01*
X0059849Y0114086D01*
X0059832Y0114228D01*
X0059818Y0114371D01*
X0059808Y0114514D01*
X0059802Y0114657D01*
X0059800Y0114800D01*
X0065000Y0109600D02*
X0138800Y0109600D01*
X0139800Y0093600D02*
X0140225Y0093605D01*
X0140650Y0093621D01*
X0141075Y0093646D01*
X0141499Y0093682D01*
X0141921Y0093728D01*
X0142343Y0093785D01*
X0142763Y0093851D01*
X0143181Y0093928D01*
X0143598Y0094015D01*
X0144012Y0094111D01*
X0144424Y0094218D01*
X0144833Y0094335D01*
X0145239Y0094461D01*
X0145642Y0094598D01*
X0146041Y0094744D01*
X0146437Y0094899D01*
X0146829Y0095064D01*
X0147217Y0095239D01*
X0147600Y0095423D01*
X0147979Y0095616D01*
X0148353Y0095818D01*
X0148722Y0096029D01*
X0149086Y0096249D01*
X0149445Y0096478D01*
X0149798Y0096715D01*
X0150145Y0096961D01*
X0150486Y0097215D01*
X0150821Y0097478D01*
X0151149Y0097748D01*
X0151471Y0098026D01*
X0151786Y0098312D01*
X0152094Y0098605D01*
X0152395Y0098906D01*
X0152688Y0099214D01*
X0152974Y0099529D01*
X0153252Y0099851D01*
X0153522Y0100179D01*
X0153785Y0100514D01*
X0154039Y0100855D01*
X0154285Y0101202D01*
X0154522Y0101555D01*
X0154751Y0101914D01*
X0154971Y0102278D01*
X0155182Y0102647D01*
X0155384Y0103021D01*
X0155577Y0103400D01*
X0155761Y0103783D01*
X0155936Y0104171D01*
X0156101Y0104563D01*
X0156256Y0104959D01*
X0156402Y0105358D01*
X0156539Y0105761D01*
X0156665Y0106167D01*
X0156782Y0106576D01*
X0156889Y0106988D01*
X0156985Y0107402D01*
X0157072Y0107819D01*
X0157149Y0108237D01*
X0157215Y0108657D01*
X0157272Y0109079D01*
X0157318Y0109501D01*
X0157354Y0109925D01*
X0157379Y0110350D01*
X0157395Y0110775D01*
X0157400Y0111200D01*
X0157400Y0130000D01*
X0157402Y0130159D01*
X0157408Y0130319D01*
X0157417Y0130478D01*
X0157431Y0130637D01*
X0157448Y0130796D01*
X0157469Y0130954D01*
X0157494Y0131111D01*
X0157523Y0131268D01*
X0157555Y0131424D01*
X0157592Y0131579D01*
X0157632Y0131734D01*
X0157676Y0131887D01*
X0157723Y0132040D01*
X0157774Y0132191D01*
X0157829Y0132340D01*
X0157887Y0132489D01*
X0157949Y0132636D01*
X0158015Y0132781D01*
X0158084Y0132925D01*
X0158156Y0133067D01*
X0158232Y0133207D01*
X0158311Y0133346D01*
X0158394Y0133482D01*
X0158479Y0133617D01*
X0158568Y0133749D01*
X0158660Y0133879D01*
X0158756Y0134007D01*
X0158854Y0134133D01*
X0158956Y0134256D01*
X0159060Y0134377D01*
X0159167Y0134495D01*
X0159277Y0134610D01*
X0159390Y0134723D01*
X0159505Y0134833D01*
X0159623Y0134940D01*
X0159744Y0135044D01*
X0159867Y0135146D01*
X0159993Y0135244D01*
X0160121Y0135340D01*
X0160251Y0135432D01*
X0160383Y0135521D01*
X0160518Y0135606D01*
X0160654Y0135689D01*
X0160793Y0135768D01*
X0160933Y0135844D01*
X0161075Y0135916D01*
X0161219Y0135985D01*
X0161364Y0136051D01*
X0161511Y0136113D01*
X0161660Y0136171D01*
X0161809Y0136226D01*
X0161960Y0136277D01*
X0162113Y0136324D01*
X0162266Y0136368D01*
X0162421Y0136408D01*
X0162576Y0136445D01*
X0162732Y0136477D01*
X0162889Y0136506D01*
X0163046Y0136531D01*
X0163204Y0136552D01*
X0163363Y0136569D01*
X0163522Y0136583D01*
X0163681Y0136592D01*
X0163841Y0136598D01*
X0164000Y0136600D01*
X0168000Y0136600D01*
X0176600Y0133400D02*
X0222400Y0133400D01*
X0222569Y0133402D01*
X0222738Y0133408D01*
X0222907Y0133418D01*
X0223076Y0133433D01*
X0223244Y0133451D01*
X0223411Y0133473D01*
X0223578Y0133500D01*
X0223745Y0133530D01*
X0223910Y0133565D01*
X0224075Y0133603D01*
X0224239Y0133646D01*
X0224402Y0133692D01*
X0224563Y0133743D01*
X0224723Y0133797D01*
X0224882Y0133855D01*
X0225040Y0133917D01*
X0225196Y0133982D01*
X0225350Y0134052D01*
X0225502Y0134125D01*
X0225653Y0134202D01*
X0225802Y0134282D01*
X0225949Y0134366D01*
X0226093Y0134454D01*
X0226236Y0134545D01*
X0226376Y0134639D01*
X0226514Y0134737D01*
X0226650Y0134838D01*
X0226783Y0134942D01*
X0226914Y0135050D01*
X0227042Y0135160D01*
X0227167Y0135274D01*
X0227290Y0135391D01*
X0227409Y0135510D01*
X0227526Y0135633D01*
X0227640Y0135758D01*
X0227750Y0135886D01*
X0227858Y0136017D01*
X0227962Y0136150D01*
X0228063Y0136286D01*
X0228161Y0136424D01*
X0228255Y0136564D01*
X0228346Y0136707D01*
X0228434Y0136851D01*
X0228518Y0136998D01*
X0228598Y0137147D01*
X0228675Y0137298D01*
X0228748Y0137450D01*
X0228818Y0137604D01*
X0228883Y0137760D01*
X0228945Y0137918D01*
X0229003Y0138077D01*
X0229057Y0138237D01*
X0229108Y0138398D01*
X0229154Y0138561D01*
X0229197Y0138725D01*
X0229235Y0138890D01*
X0229270Y0139055D01*
X0229300Y0139222D01*
X0229327Y0139389D01*
X0229349Y0139556D01*
X0229367Y0139724D01*
X0229382Y0139893D01*
X0229392Y0140062D01*
X0229398Y0140231D01*
X0229400Y0140400D01*
X0229400Y0161200D01*
X0229400Y0187378D01*
X0229400Y0190622D02*
X0221578Y0190622D01*
X0221371Y0190625D01*
X0221164Y0190632D01*
X0220957Y0190645D01*
X0220750Y0190662D01*
X0220544Y0190685D01*
X0220339Y0190712D01*
X0220134Y0190744D01*
X0219930Y0190782D01*
X0219727Y0190824D01*
X0219525Y0190871D01*
X0219324Y0190923D01*
X0219125Y0190980D01*
X0218927Y0191042D01*
X0218731Y0191108D01*
X0218536Y0191179D01*
X0218343Y0191255D01*
X0218152Y0191336D01*
X0217963Y0191421D01*
X0217776Y0191510D01*
X0217592Y0191605D01*
X0217409Y0191703D01*
X0217229Y0191806D01*
X0217052Y0191913D01*
X0216877Y0192025D01*
X0216705Y0192140D01*
X0216536Y0192260D01*
X0216370Y0192384D01*
X0216207Y0192512D01*
X0216047Y0192644D01*
X0215890Y0192779D01*
X0215736Y0192919D01*
X0215586Y0193062D01*
X0215440Y0193208D01*
X0215297Y0193358D01*
X0215157Y0193512D01*
X0215022Y0193669D01*
X0214890Y0193829D01*
X0214762Y0193992D01*
X0214638Y0194158D01*
X0214518Y0194327D01*
X0214403Y0194499D01*
X0214291Y0194674D01*
X0214184Y0194851D01*
X0214081Y0195031D01*
X0213983Y0195214D01*
X0213888Y0195398D01*
X0213799Y0195585D01*
X0213714Y0195774D01*
X0213633Y0195965D01*
X0213557Y0196158D01*
X0213486Y0196353D01*
X0213420Y0196549D01*
X0213358Y0196747D01*
X0213301Y0196946D01*
X0213249Y0197147D01*
X0213202Y0197349D01*
X0213160Y0197552D01*
X0213122Y0197756D01*
X0213090Y0197961D01*
X0213063Y0198166D01*
X0213040Y0198372D01*
X0213023Y0198579D01*
X0213010Y0198786D01*
X0213003Y0198993D01*
X0213000Y0199200D01*
X0213000Y0217000D01*
X0212998Y0217146D01*
X0212992Y0217292D01*
X0212982Y0217438D01*
X0212968Y0217584D01*
X0212951Y0217729D01*
X0212929Y0217874D01*
X0212903Y0218018D01*
X0212874Y0218161D01*
X0212840Y0218303D01*
X0212803Y0218445D01*
X0212762Y0218585D01*
X0212717Y0218724D01*
X0212669Y0218862D01*
X0212616Y0218999D01*
X0212561Y0219134D01*
X0212501Y0219267D01*
X0212438Y0219399D01*
X0212371Y0219529D01*
X0212301Y0219658D01*
X0212227Y0219784D01*
X0212150Y0219908D01*
X0212070Y0220030D01*
X0211986Y0220150D01*
X0211899Y0220268D01*
X0211809Y0220383D01*
X0211716Y0220496D01*
X0211619Y0220606D01*
X0211520Y0220714D01*
X0211418Y0220818D01*
X0211314Y0220920D01*
X0211206Y0221019D01*
X0211096Y0221116D01*
X0210983Y0221209D01*
X0210868Y0221299D01*
X0210750Y0221386D01*
X0210630Y0221470D01*
X0210508Y0221550D01*
X0210384Y0221627D01*
X0210258Y0221701D01*
X0210129Y0221771D01*
X0209999Y0221838D01*
X0209867Y0221901D01*
X0209734Y0221961D01*
X0209599Y0222016D01*
X0209462Y0222069D01*
X0209324Y0222117D01*
X0209185Y0222162D01*
X0209045Y0222203D01*
X0208903Y0222240D01*
X0208761Y0222274D01*
X0208618Y0222303D01*
X0208474Y0222329D01*
X0208329Y0222351D01*
X0208184Y0222368D01*
X0208038Y0222382D01*
X0207892Y0222392D01*
X0207746Y0222398D01*
X0207600Y0222400D01*
X0058000Y0222400D01*
X0057860Y0222398D01*
X0057720Y0222392D01*
X0057580Y0222382D01*
X0057440Y0222369D01*
X0057301Y0222351D01*
X0057162Y0222329D01*
X0057025Y0222304D01*
X0056887Y0222275D01*
X0056751Y0222242D01*
X0056616Y0222205D01*
X0056482Y0222164D01*
X0056349Y0222119D01*
X0056217Y0222071D01*
X0056087Y0222019D01*
X0055958Y0221964D01*
X0055831Y0221905D01*
X0055705Y0221842D01*
X0055581Y0221776D01*
X0055460Y0221707D01*
X0055340Y0221634D01*
X0055222Y0221557D01*
X0055107Y0221478D01*
X0054993Y0221395D01*
X0054883Y0221309D01*
X0054774Y0221220D01*
X0054668Y0221128D01*
X0054565Y0221033D01*
X0054464Y0220936D01*
X0054367Y0220835D01*
X0054272Y0220732D01*
X0054180Y0220626D01*
X0054091Y0220517D01*
X0054005Y0220407D01*
X0053922Y0220293D01*
X0053843Y0220178D01*
X0053766Y0220060D01*
X0053693Y0219940D01*
X0053624Y0219819D01*
X0053558Y0219695D01*
X0053495Y0219569D01*
X0053436Y0219442D01*
X0053381Y0219313D01*
X0053329Y0219183D01*
X0053281Y0219051D01*
X0053236Y0218918D01*
X0053195Y0218784D01*
X0053158Y0218649D01*
X0053125Y0218513D01*
X0053096Y0218375D01*
X0053071Y0218238D01*
X0053049Y0218099D01*
X0053031Y0217960D01*
X0053018Y0217820D01*
X0053008Y0217680D01*
X0053002Y0217540D01*
X0053000Y0217400D01*
X0053000Y0211646D01*
X0053002Y0211507D01*
X0053008Y0211368D01*
X0053018Y0211230D01*
X0053031Y0211091D01*
X0053049Y0210954D01*
X0053070Y0210816D01*
X0053095Y0210680D01*
X0053124Y0210544D01*
X0053157Y0210409D01*
X0053194Y0210275D01*
X0053234Y0210142D01*
X0053278Y0210010D01*
X0053326Y0209880D01*
X0053377Y0209751D01*
X0053432Y0209623D01*
X0053491Y0209497D01*
X0053553Y0209373D01*
X0053618Y0209250D01*
X0053687Y0209130D01*
X0053759Y0209011D01*
X0053835Y0208894D01*
X0053914Y0208780D01*
X0053996Y0208668D01*
X0054081Y0208558D01*
X0054169Y0208450D01*
X0054260Y0208346D01*
X0054354Y0208243D01*
X0054451Y0208144D01*
X0054550Y0208047D01*
X0054653Y0207953D01*
X0054757Y0207862D01*
X0054865Y0207774D01*
X0054975Y0207689D01*
X0055087Y0207607D01*
X0055201Y0207528D01*
X0055318Y0207452D01*
X0055437Y0207380D01*
X0055557Y0207311D01*
X0055680Y0207246D01*
X0055804Y0207184D01*
X0055930Y0207125D01*
X0056058Y0207070D01*
X0056187Y0207019D01*
X0056317Y0206971D01*
X0056449Y0206927D01*
X0056582Y0206887D01*
X0056716Y0206850D01*
X0056851Y0206817D01*
X0056987Y0206788D01*
X0057123Y0206763D01*
X0057261Y0206742D01*
X0057398Y0206724D01*
X0057537Y0206711D01*
X0057675Y0206701D01*
X0057814Y0206695D01*
X0057953Y0206693D01*
X0063000Y0212600D02*
X0063000Y0189400D01*
X0062998Y0189278D01*
X0062992Y0189157D01*
X0062982Y0189035D01*
X0062969Y0188914D01*
X0062951Y0188794D01*
X0062930Y0188674D01*
X0062905Y0188554D01*
X0062876Y0188436D01*
X0062843Y0188319D01*
X0062806Y0188203D01*
X0062766Y0188088D01*
X0062722Y0187974D01*
X0062675Y0187862D01*
X0062624Y0187751D01*
X0062569Y0187642D01*
X0062511Y0187535D01*
X0062450Y0187430D01*
X0062385Y0187327D01*
X0062317Y0187226D01*
X0062245Y0187127D01*
X0062171Y0187031D01*
X0062093Y0186937D01*
X0062013Y0186845D01*
X0061930Y0186756D01*
X0061844Y0186670D01*
X0061755Y0186587D01*
X0061663Y0186507D01*
X0061569Y0186429D01*
X0061473Y0186355D01*
X0061374Y0186283D01*
X0061273Y0186215D01*
X0061170Y0186150D01*
X0061065Y0186089D01*
X0060958Y0186031D01*
X0060849Y0185976D01*
X0060738Y0185925D01*
X0060626Y0185878D01*
X0060512Y0185834D01*
X0060397Y0185794D01*
X0060281Y0185757D01*
X0060164Y0185724D01*
X0060046Y0185695D01*
X0059926Y0185670D01*
X0059806Y0185649D01*
X0059686Y0185631D01*
X0059565Y0185618D01*
X0059443Y0185608D01*
X0059322Y0185602D01*
X0059200Y0185600D01*
X0048600Y0185600D01*
X0048460Y0185598D01*
X0048320Y0185592D01*
X0048180Y0185582D01*
X0048040Y0185569D01*
X0047901Y0185551D01*
X0047762Y0185529D01*
X0047625Y0185504D01*
X0047487Y0185475D01*
X0047351Y0185442D01*
X0047216Y0185405D01*
X0047082Y0185364D01*
X0046949Y0185319D01*
X0046817Y0185271D01*
X0046687Y0185219D01*
X0046558Y0185164D01*
X0046431Y0185105D01*
X0046305Y0185042D01*
X0046181Y0184976D01*
X0046060Y0184907D01*
X0045940Y0184834D01*
X0045822Y0184757D01*
X0045707Y0184678D01*
X0045593Y0184595D01*
X0045483Y0184509D01*
X0045374Y0184420D01*
X0045268Y0184328D01*
X0045165Y0184233D01*
X0045064Y0184136D01*
X0044967Y0184035D01*
X0044872Y0183932D01*
X0044780Y0183826D01*
X0044691Y0183717D01*
X0044605Y0183607D01*
X0044522Y0183493D01*
X0044443Y0183378D01*
X0044366Y0183260D01*
X0044293Y0183140D01*
X0044224Y0183019D01*
X0044158Y0182895D01*
X0044095Y0182769D01*
X0044036Y0182642D01*
X0043981Y0182513D01*
X0043929Y0182383D01*
X0043881Y0182251D01*
X0043836Y0182118D01*
X0043795Y0181984D01*
X0043758Y0181849D01*
X0043725Y0181713D01*
X0043696Y0181575D01*
X0043671Y0181438D01*
X0043649Y0181299D01*
X0043631Y0181160D01*
X0043618Y0181020D01*
X0043608Y0180880D01*
X0043602Y0180740D01*
X0043600Y0180600D01*
X0043600Y0146200D01*
X0059800Y0128200D02*
X0059800Y0124800D01*
X0059800Y0128200D02*
X0059802Y0128334D01*
X0059808Y0128467D01*
X0059818Y0128601D01*
X0059831Y0128734D01*
X0059849Y0128867D01*
X0059870Y0128999D01*
X0059895Y0129130D01*
X0059924Y0129261D01*
X0059957Y0129391D01*
X0059993Y0129519D01*
X0060033Y0129647D01*
X0060077Y0129773D01*
X0060125Y0129898D01*
X0060176Y0130022D01*
X0060231Y0130144D01*
X0060289Y0130264D01*
X0060351Y0130383D01*
X0060416Y0130500D01*
X0060485Y0130615D01*
X0060557Y0130728D01*
X0060632Y0130838D01*
X0060710Y0130947D01*
X0060792Y0131053D01*
X0060876Y0131157D01*
X0060964Y0131258D01*
X0061054Y0131357D01*
X0061147Y0131453D01*
X0061243Y0131546D01*
X0061342Y0131636D01*
X0061443Y0131724D01*
X0061547Y0131808D01*
X0061653Y0131890D01*
X0061762Y0131968D01*
X0061872Y0132043D01*
X0061985Y0132115D01*
X0062100Y0132184D01*
X0062217Y0132249D01*
X0062336Y0132311D01*
X0062456Y0132369D01*
X0062578Y0132424D01*
X0062702Y0132475D01*
X0062827Y0132523D01*
X0062953Y0132567D01*
X0063081Y0132607D01*
X0063209Y0132643D01*
X0063339Y0132676D01*
X0063470Y0132705D01*
X0063601Y0132730D01*
X0063733Y0132751D01*
X0063866Y0132769D01*
X0063999Y0132782D01*
X0064133Y0132792D01*
X0064266Y0132798D01*
X0064400Y0132800D01*
X0043600Y0119200D02*
X0043597Y0118992D01*
X0043590Y0118785D01*
X0043577Y0118577D01*
X0043560Y0118370D01*
X0043537Y0118163D01*
X0043510Y0117957D01*
X0043477Y0117752D01*
X0043440Y0117548D01*
X0043397Y0117344D01*
X0043350Y0117142D01*
X0043298Y0116941D01*
X0043241Y0116741D01*
X0043179Y0116542D01*
X0043112Y0116346D01*
X0043041Y0116150D01*
X0042965Y0115957D01*
X0042884Y0115765D01*
X0042799Y0115576D01*
X0042709Y0115389D01*
X0042615Y0115203D01*
X0042516Y0115021D01*
X0042413Y0114840D01*
X0042305Y0114662D01*
X0042194Y0114487D01*
X0042078Y0114315D01*
X0041958Y0114145D01*
X0041833Y0113978D01*
X0041705Y0113815D01*
X0041573Y0113654D01*
X0041437Y0113497D01*
X0041298Y0113343D01*
X0041154Y0113193D01*
X0041007Y0113046D01*
X0040857Y0112902D01*
X0040703Y0112763D01*
X0040546Y0112627D01*
X0040385Y0112495D01*
X0040222Y0112367D01*
X0040055Y0112242D01*
X0039885Y0112122D01*
X0039713Y0112006D01*
X0039538Y0111895D01*
X0039360Y0111787D01*
X0039179Y0111684D01*
X0038997Y0111585D01*
X0038811Y0111491D01*
X0038624Y0111401D01*
X0038435Y0111316D01*
X0038243Y0111235D01*
X0038050Y0111159D01*
X0037854Y0111088D01*
X0037658Y0111021D01*
X0037459Y0110959D01*
X0037259Y0110902D01*
X0037058Y0110850D01*
X0036856Y0110803D01*
X0036652Y0110760D01*
X0036448Y0110723D01*
X0036243Y0110690D01*
X0036037Y0110663D01*
X0035830Y0110640D01*
X0035623Y0110623D01*
X0035415Y0110610D01*
X0035208Y0110603D01*
X0035000Y0110600D01*
X0035400Y0100600D02*
X0035724Y0100604D01*
X0036047Y0100616D01*
X0036371Y0100635D01*
X0036693Y0100663D01*
X0037015Y0100698D01*
X0037336Y0100741D01*
X0037656Y0100791D01*
X0037974Y0100850D01*
X0038292Y0100916D01*
X0038607Y0100989D01*
X0038920Y0101071D01*
X0039232Y0101160D01*
X0039541Y0101256D01*
X0039848Y0101360D01*
X0040152Y0101471D01*
X0040453Y0101589D01*
X0040751Y0101715D01*
X0041047Y0101848D01*
X0041339Y0101988D01*
X0041627Y0102135D01*
X0041912Y0102289D01*
X0042193Y0102450D01*
X0042470Y0102617D01*
X0042743Y0102791D01*
X0043012Y0102972D01*
X0043276Y0103159D01*
X0043536Y0103353D01*
X0043791Y0103552D01*
X0044041Y0103758D01*
X0044286Y0103970D01*
X0044526Y0104188D01*
X0044760Y0104411D01*
X0044989Y0104640D01*
X0045212Y0104874D01*
X0045430Y0105114D01*
X0045642Y0105359D01*
X0045848Y0105609D01*
X0046047Y0105864D01*
X0046241Y0106124D01*
X0046428Y0106388D01*
X0046609Y0106657D01*
X0046783Y0106930D01*
X0046950Y0107207D01*
X0047111Y0107488D01*
X0047265Y0107773D01*
X0047412Y0108061D01*
X0047552Y0108353D01*
X0047685Y0108649D01*
X0047811Y0108947D01*
X0047929Y0109248D01*
X0048040Y0109552D01*
X0048144Y0109859D01*
X0048240Y0110168D01*
X0048329Y0110480D01*
X0048411Y0110793D01*
X0048484Y0111108D01*
X0048550Y0111426D01*
X0048609Y0111744D01*
X0048659Y0112064D01*
X0048702Y0112385D01*
X0048737Y0112707D01*
X0048765Y0113029D01*
X0048784Y0113353D01*
X0048796Y0113676D01*
X0048800Y0114000D01*
X0035400Y0100600D02*
X0035000Y0100600D01*
X0047800Y0099000D02*
X0047800Y0074400D01*
X0071000Y0093600D02*
X0139800Y0093600D01*
X0138800Y0109600D02*
X0139003Y0109602D01*
X0139206Y0109610D01*
X0139408Y0109622D01*
X0139611Y0109639D01*
X0139813Y0109661D01*
X0140014Y0109688D01*
X0140214Y0109720D01*
X0140414Y0109756D01*
X0140613Y0109798D01*
X0140810Y0109844D01*
X0141007Y0109895D01*
X0141202Y0109951D01*
X0141396Y0110011D01*
X0141588Y0110076D01*
X0141779Y0110146D01*
X0141968Y0110220D01*
X0142155Y0110299D01*
X0142340Y0110382D01*
X0142523Y0110470D01*
X0142704Y0110562D01*
X0142882Y0110659D01*
X0143058Y0110759D01*
X0143232Y0110864D01*
X0143403Y0110974D01*
X0143572Y0111087D01*
X0143737Y0111204D01*
X0143900Y0111326D01*
X0144060Y0111451D01*
X0144217Y0111580D01*
X0144370Y0111713D01*
X0144521Y0111849D01*
X0144667Y0111989D01*
X0144811Y0112133D01*
X0144951Y0112279D01*
X0145087Y0112430D01*
X0145220Y0112583D01*
X0145349Y0112740D01*
X0145474Y0112900D01*
X0145596Y0113063D01*
X0145713Y0113228D01*
X0145826Y0113397D01*
X0145936Y0113568D01*
X0146041Y0113742D01*
X0146141Y0113918D01*
X0146238Y0114096D01*
X0146330Y0114277D01*
X0146418Y0114460D01*
X0146501Y0114645D01*
X0146580Y0114832D01*
X0146654Y0115021D01*
X0146724Y0115212D01*
X0146789Y0115404D01*
X0146849Y0115598D01*
X0146905Y0115793D01*
X0146956Y0115990D01*
X0147002Y0116187D01*
X0147044Y0116386D01*
X0147080Y0116586D01*
X0147112Y0116786D01*
X0147139Y0116987D01*
X0147161Y0117189D01*
X0147178Y0117392D01*
X0147190Y0117594D01*
X0147198Y0117797D01*
X0147200Y0118000D01*
X0140400Y0124000D02*
X0140397Y0124213D01*
X0140390Y0124425D01*
X0140377Y0124637D01*
X0140359Y0124849D01*
X0140336Y0125061D01*
X0140308Y0125272D01*
X0140274Y0125482D01*
X0140236Y0125691D01*
X0140193Y0125899D01*
X0140144Y0126106D01*
X0140091Y0126312D01*
X0140033Y0126516D01*
X0139969Y0126719D01*
X0139901Y0126921D01*
X0139828Y0127121D01*
X0139750Y0127318D01*
X0139668Y0127514D01*
X0139580Y0127708D01*
X0139489Y0127900D01*
X0139392Y0128090D01*
X0139291Y0128277D01*
X0139185Y0128461D01*
X0139075Y0128643D01*
X0138961Y0128823D01*
X0138842Y0128999D01*
X0138719Y0129173D01*
X0138592Y0129343D01*
X0138461Y0129510D01*
X0138326Y0129675D01*
X0138187Y0129835D01*
X0138044Y0129993D01*
X0137897Y0130147D01*
X0137747Y0130297D01*
X0137593Y0130444D01*
X0137435Y0130587D01*
X0137275Y0130726D01*
X0137110Y0130861D01*
X0136943Y0130992D01*
X0136773Y0131119D01*
X0136599Y0131242D01*
X0136423Y0131361D01*
X0136243Y0131475D01*
X0136061Y0131585D01*
X0135877Y0131691D01*
X0135690Y0131792D01*
X0135500Y0131889D01*
X0135308Y0131980D01*
X0135114Y0132068D01*
X0134918Y0132150D01*
X0134721Y0132228D01*
X0134521Y0132301D01*
X0134319Y0132369D01*
X0134116Y0132433D01*
X0133912Y0132491D01*
X0133706Y0132544D01*
X0133499Y0132593D01*
X0133291Y0132636D01*
X0133082Y0132674D01*
X0132872Y0132708D01*
X0132661Y0132736D01*
X0132449Y0132759D01*
X0132237Y0132777D01*
X0132025Y0132790D01*
X0131813Y0132797D01*
X0131600Y0132800D01*
X0166600Y0123400D02*
X0166600Y0021400D01*
X0166598Y0021260D01*
X0166592Y0021120D01*
X0166582Y0020980D01*
X0166569Y0020840D01*
X0166551Y0020701D01*
X0166529Y0020562D01*
X0166504Y0020425D01*
X0166475Y0020287D01*
X0166442Y0020151D01*
X0166405Y0020016D01*
X0166364Y0019882D01*
X0166319Y0019749D01*
X0166271Y0019617D01*
X0166219Y0019487D01*
X0166164Y0019358D01*
X0166105Y0019231D01*
X0166042Y0019105D01*
X0165976Y0018981D01*
X0165907Y0018860D01*
X0165834Y0018740D01*
X0165757Y0018622D01*
X0165678Y0018507D01*
X0165595Y0018393D01*
X0165509Y0018283D01*
X0165420Y0018174D01*
X0165328Y0018068D01*
X0165233Y0017965D01*
X0165136Y0017864D01*
X0165035Y0017767D01*
X0164932Y0017672D01*
X0164826Y0017580D01*
X0164717Y0017491D01*
X0164607Y0017405D01*
X0164493Y0017322D01*
X0164378Y0017243D01*
X0164260Y0017166D01*
X0164140Y0017093D01*
X0164019Y0017024D01*
X0163895Y0016958D01*
X0163769Y0016895D01*
X0163642Y0016836D01*
X0163513Y0016781D01*
X0163383Y0016729D01*
X0163251Y0016681D01*
X0163118Y0016636D01*
X0162984Y0016595D01*
X0162849Y0016558D01*
X0162713Y0016525D01*
X0162575Y0016496D01*
X0162438Y0016471D01*
X0162299Y0016449D01*
X0162160Y0016431D01*
X0162020Y0016418D01*
X0161880Y0016408D01*
X0161740Y0016402D01*
X0161600Y0016400D01*
X0159800Y0016400D01*
X0118000Y0016400D01*
X0118000Y0012600D01*
X0117998Y0012488D01*
X0117992Y0012377D01*
X0117982Y0012266D01*
X0117969Y0012155D01*
X0117951Y0012044D01*
X0117930Y0011935D01*
X0117905Y0011826D01*
X0117876Y0011718D01*
X0117843Y0011611D01*
X0117807Y0011506D01*
X0117767Y0011401D01*
X0117723Y0011298D01*
X0117676Y0011197D01*
X0117625Y0011098D01*
X0117571Y0011000D01*
X0117514Y0010904D01*
X0117453Y0010811D01*
X0117389Y0010719D01*
X0117322Y0010630D01*
X0117251Y0010543D01*
X0117178Y0010459D01*
X0117102Y0010377D01*
X0117023Y0010298D01*
X0116941Y0010222D01*
X0116857Y0010149D01*
X0116770Y0010078D01*
X0116681Y0010011D01*
X0116589Y0009947D01*
X0116496Y0009886D01*
X0116400Y0009829D01*
X0116302Y0009775D01*
X0116203Y0009724D01*
X0116102Y0009677D01*
X0115999Y0009633D01*
X0115894Y0009593D01*
X0115789Y0009557D01*
X0115682Y0009524D01*
X0115574Y0009495D01*
X0115465Y0009470D01*
X0115356Y0009449D01*
X0115245Y0009431D01*
X0115134Y0009418D01*
X0115023Y0009408D01*
X0114912Y0009402D01*
X0114800Y0009400D01*
X0077800Y0009400D01*
X0077666Y0009402D01*
X0077533Y0009408D01*
X0077399Y0009418D01*
X0077266Y0009431D01*
X0077133Y0009449D01*
X0077001Y0009470D01*
X0076870Y0009495D01*
X0076739Y0009524D01*
X0076609Y0009557D01*
X0076481Y0009593D01*
X0076353Y0009633D01*
X0076227Y0009677D01*
X0076102Y0009725D01*
X0075978Y0009776D01*
X0075856Y0009831D01*
X0075736Y0009889D01*
X0075617Y0009951D01*
X0075500Y0010016D01*
X0075385Y0010085D01*
X0075272Y0010157D01*
X0075162Y0010232D01*
X0075053Y0010310D01*
X0074947Y0010392D01*
X0074843Y0010476D01*
X0074742Y0010564D01*
X0074643Y0010654D01*
X0074547Y0010747D01*
X0074454Y0010843D01*
X0074364Y0010942D01*
X0074276Y0011043D01*
X0074192Y0011147D01*
X0074110Y0011253D01*
X0074032Y0011362D01*
X0073957Y0011472D01*
X0073885Y0011585D01*
X0073816Y0011700D01*
X0073751Y0011817D01*
X0073689Y0011936D01*
X0073631Y0012056D01*
X0073576Y0012178D01*
X0073525Y0012302D01*
X0073477Y0012427D01*
X0073433Y0012553D01*
X0073393Y0012681D01*
X0073357Y0012809D01*
X0073324Y0012939D01*
X0073295Y0013070D01*
X0073270Y0013201D01*
X0073249Y0013333D01*
X0073231Y0013466D01*
X0073218Y0013599D01*
X0073208Y0013733D01*
X0073202Y0013866D01*
X0073200Y0014000D01*
X0073200Y0024800D01*
X0071000Y0093600D02*
X0070729Y0093603D01*
X0070459Y0093613D01*
X0070189Y0093629D01*
X0069919Y0093652D01*
X0069650Y0093682D01*
X0069382Y0093718D01*
X0069114Y0093760D01*
X0068848Y0093809D01*
X0068583Y0093864D01*
X0068320Y0093925D01*
X0068058Y0093993D01*
X0067797Y0094068D01*
X0067539Y0094148D01*
X0067283Y0094235D01*
X0067028Y0094328D01*
X0066777Y0094427D01*
X0066527Y0094532D01*
X0066280Y0094643D01*
X0066036Y0094760D01*
X0065795Y0094883D01*
X0065557Y0095012D01*
X0065322Y0095146D01*
X0065090Y0095286D01*
X0064862Y0095432D01*
X0064638Y0095583D01*
X0064417Y0095739D01*
X0064200Y0095901D01*
X0063987Y0096068D01*
X0063778Y0096240D01*
X0063573Y0096417D01*
X0063373Y0096599D01*
X0063177Y0096785D01*
X0062985Y0096977D01*
X0062799Y0097173D01*
X0062617Y0097373D01*
X0062440Y0097578D01*
X0062268Y0097787D01*
X0062101Y0098000D01*
X0061939Y0098217D01*
X0061783Y0098438D01*
X0061632Y0098662D01*
X0061486Y0098890D01*
X0061346Y0099122D01*
X0061212Y0099357D01*
X0061083Y0099595D01*
X0060960Y0099836D01*
X0060843Y0100080D01*
X0060732Y0100327D01*
X0060627Y0100577D01*
X0060528Y0100828D01*
X0060435Y0101083D01*
X0060348Y0101339D01*
X0060268Y0101597D01*
X0060193Y0101858D01*
X0060125Y0102120D01*
X0060064Y0102383D01*
X0060009Y0102648D01*
X0059960Y0102914D01*
X0059918Y0103182D01*
X0059882Y0103450D01*
X0059852Y0103719D01*
X0059829Y0103989D01*
X0059813Y0104259D01*
X0059803Y0104529D01*
X0059800Y0104800D01*
X0066800Y0181000D02*
X0066957Y0181002D01*
X0067114Y0181008D01*
X0067271Y0181017D01*
X0067427Y0181031D01*
X0067583Y0181048D01*
X0067739Y0181069D01*
X0067894Y0181094D01*
X0068049Y0181123D01*
X0068202Y0181156D01*
X0068355Y0181192D01*
X0068507Y0181232D01*
X0068658Y0181276D01*
X0068808Y0181323D01*
X0068956Y0181374D01*
X0069103Y0181429D01*
X0069249Y0181487D01*
X0069394Y0181549D01*
X0069536Y0181614D01*
X0069678Y0181683D01*
X0069817Y0181756D01*
X0069955Y0181831D01*
X0070090Y0181911D01*
X0070224Y0181993D01*
X0070356Y0182079D01*
X0070485Y0182167D01*
X0070612Y0182259D01*
X0070737Y0182355D01*
X0070860Y0182453D01*
X0070980Y0182554D01*
X0071098Y0182658D01*
X0071213Y0182765D01*
X0071325Y0182875D01*
X0071435Y0182987D01*
X0071542Y0183102D01*
X0071646Y0183220D01*
X0071747Y0183340D01*
X0071845Y0183463D01*
X0071941Y0183588D01*
X0072033Y0183715D01*
X0072121Y0183844D01*
X0072207Y0183976D01*
X0072289Y0184110D01*
X0072369Y0184245D01*
X0072444Y0184383D01*
X0072517Y0184522D01*
X0072586Y0184664D01*
X0072651Y0184806D01*
X0072713Y0184951D01*
X0072771Y0185097D01*
X0072826Y0185244D01*
X0072877Y0185392D01*
X0072924Y0185542D01*
X0072968Y0185693D01*
X0073008Y0185845D01*
X0073044Y0185998D01*
X0073077Y0186151D01*
X0073106Y0186306D01*
X0073131Y0186461D01*
X0073152Y0186617D01*
X0073169Y0186773D01*
X0073183Y0186929D01*
X0073192Y0187086D01*
X0073198Y0187243D01*
X0073200Y0187400D01*
X0073200Y0211940D01*
X0073202Y0212076D01*
X0073208Y0212211D01*
X0073217Y0212347D01*
X0073231Y0212482D01*
X0073248Y0212616D01*
X0073270Y0212750D01*
X0073295Y0212884D01*
X0073324Y0213017D01*
X0073356Y0213148D01*
X0073393Y0213279D01*
X0073433Y0213409D01*
X0073476Y0213537D01*
X0073524Y0213664D01*
X0073575Y0213790D01*
X0073630Y0213914D01*
X0073688Y0214037D01*
X0073749Y0214158D01*
X0073814Y0214277D01*
X0073883Y0214394D01*
X0073955Y0214510D01*
X0074030Y0214623D01*
X0074108Y0214734D01*
X0074189Y0214842D01*
X0074274Y0214949D01*
X0074361Y0215053D01*
X0074451Y0215154D01*
X0074544Y0215253D01*
X0074640Y0215349D01*
X0074739Y0215442D01*
X0074840Y0215532D01*
X0074944Y0215619D01*
X0075051Y0215704D01*
X0075159Y0215785D01*
X0075270Y0215863D01*
X0075383Y0215938D01*
X0075499Y0216010D01*
X0075616Y0216079D01*
X0075735Y0216144D01*
X0075856Y0216205D01*
X0075979Y0216263D01*
X0076103Y0216318D01*
X0076229Y0216369D01*
X0076356Y0216417D01*
X0076484Y0216460D01*
X0076614Y0216500D01*
X0076745Y0216537D01*
X0076876Y0216569D01*
X0077009Y0216598D01*
X0077143Y0216623D01*
X0077277Y0216645D01*
X0077411Y0216662D01*
X0077546Y0216676D01*
X0077682Y0216685D01*
X0077817Y0216691D01*
X0077953Y0216693D01*
X0067953Y0216693D02*
X0067093Y0216693D01*
X0066967Y0216691D01*
X0066841Y0216685D01*
X0066715Y0216676D01*
X0066590Y0216662D01*
X0066465Y0216645D01*
X0066341Y0216623D01*
X0066217Y0216598D01*
X0066095Y0216569D01*
X0065973Y0216537D01*
X0065852Y0216500D01*
X0065733Y0216460D01*
X0065614Y0216417D01*
X0065498Y0216369D01*
X0065382Y0216318D01*
X0065269Y0216264D01*
X0065157Y0216206D01*
X0065047Y0216145D01*
X0064938Y0216080D01*
X0064832Y0216012D01*
X0064728Y0215941D01*
X0064626Y0215866D01*
X0064527Y0215789D01*
X0064430Y0215708D01*
X0064336Y0215625D01*
X0064244Y0215538D01*
X0064155Y0215449D01*
X0064068Y0215357D01*
X0063985Y0215263D01*
X0063904Y0215166D01*
X0063827Y0215067D01*
X0063752Y0214965D01*
X0063681Y0214861D01*
X0063613Y0214755D01*
X0063548Y0214647D01*
X0063487Y0214536D01*
X0063429Y0214424D01*
X0063375Y0214311D01*
X0063324Y0214195D01*
X0063276Y0214079D01*
X0063233Y0213960D01*
X0063193Y0213841D01*
X0063156Y0213720D01*
X0063124Y0213598D01*
X0063095Y0213476D01*
X0063070Y0213352D01*
X0063048Y0213228D01*
X0063031Y0213103D01*
X0063017Y0212978D01*
X0063008Y0212852D01*
X0063002Y0212726D01*
X0063000Y0212600D01*
X0047953Y0206693D02*
X0047814Y0206695D01*
X0047675Y0206701D01*
X0047537Y0206711D01*
X0047398Y0206724D01*
X0047261Y0206742D01*
X0047123Y0206763D01*
X0046987Y0206788D01*
X0046851Y0206817D01*
X0046716Y0206850D01*
X0046582Y0206887D01*
X0046449Y0206927D01*
X0046317Y0206971D01*
X0046187Y0207019D01*
X0046058Y0207070D01*
X0045930Y0207125D01*
X0045804Y0207184D01*
X0045680Y0207246D01*
X0045557Y0207311D01*
X0045437Y0207380D01*
X0045318Y0207452D01*
X0045201Y0207528D01*
X0045087Y0207607D01*
X0044975Y0207689D01*
X0044865Y0207774D01*
X0044757Y0207862D01*
X0044653Y0207953D01*
X0044550Y0208047D01*
X0044451Y0208144D01*
X0044354Y0208243D01*
X0044260Y0208346D01*
X0044169Y0208450D01*
X0044081Y0208558D01*
X0043996Y0208668D01*
X0043914Y0208780D01*
X0043835Y0208894D01*
X0043759Y0209011D01*
X0043687Y0209130D01*
X0043618Y0209250D01*
X0043553Y0209373D01*
X0043491Y0209497D01*
X0043432Y0209623D01*
X0043377Y0209751D01*
X0043326Y0209880D01*
X0043278Y0210010D01*
X0043234Y0210142D01*
X0043194Y0210275D01*
X0043157Y0210409D01*
X0043124Y0210544D01*
X0043095Y0210680D01*
X0043070Y0210816D01*
X0043049Y0210954D01*
X0043031Y0211091D01*
X0043018Y0211230D01*
X0043008Y0211368D01*
X0043002Y0211507D01*
X0043000Y0211646D01*
X0043000Y0219200D01*
X0043002Y0219352D01*
X0043008Y0219504D01*
X0043018Y0219655D01*
X0043032Y0219806D01*
X0043050Y0219957D01*
X0043071Y0220107D01*
X0043097Y0220257D01*
X0043127Y0220406D01*
X0043160Y0220554D01*
X0043198Y0220701D01*
X0043239Y0220847D01*
X0043284Y0220992D01*
X0043333Y0221136D01*
X0043385Y0221279D01*
X0043441Y0221420D01*
X0043501Y0221559D01*
X0043565Y0221697D01*
X0043632Y0221833D01*
X0043703Y0221968D01*
X0043777Y0222100D01*
X0043855Y0222230D01*
X0043936Y0222359D01*
X0044020Y0222485D01*
X0044108Y0222609D01*
X0044199Y0222731D01*
X0044293Y0222850D01*
X0044390Y0222967D01*
X0044490Y0223081D01*
X0044593Y0223192D01*
X0044699Y0223301D01*
X0044808Y0223407D01*
X0044919Y0223510D01*
X0045033Y0223610D01*
X0045150Y0223707D01*
X0045269Y0223801D01*
X0045391Y0223892D01*
X0045515Y0223980D01*
X0045641Y0224064D01*
X0045770Y0224145D01*
X0045900Y0224223D01*
X0046032Y0224297D01*
X0046167Y0224368D01*
X0046303Y0224435D01*
X0046441Y0224499D01*
X0046580Y0224559D01*
X0046721Y0224615D01*
X0046864Y0224667D01*
X0047008Y0224716D01*
X0047153Y0224761D01*
X0047299Y0224802D01*
X0047446Y0224840D01*
X0047594Y0224873D01*
X0047743Y0224903D01*
X0047893Y0224929D01*
X0048043Y0224950D01*
X0048194Y0224968D01*
X0048345Y0224982D01*
X0048496Y0224992D01*
X0048648Y0224998D01*
X0048800Y0225000D01*
X0218000Y0225000D01*
X0218140Y0224998D01*
X0218280Y0224992D01*
X0218420Y0224982D01*
X0218560Y0224969D01*
X0218699Y0224951D01*
X0218838Y0224929D01*
X0218975Y0224904D01*
X0219113Y0224875D01*
X0219249Y0224842D01*
X0219384Y0224805D01*
X0219518Y0224764D01*
X0219651Y0224719D01*
X0219783Y0224671D01*
X0219913Y0224619D01*
X0220042Y0224564D01*
X0220169Y0224505D01*
X0220295Y0224442D01*
X0220419Y0224376D01*
X0220540Y0224307D01*
X0220660Y0224234D01*
X0220778Y0224157D01*
X0220893Y0224078D01*
X0221007Y0223995D01*
X0221117Y0223909D01*
X0221226Y0223820D01*
X0221332Y0223728D01*
X0221435Y0223633D01*
X0221536Y0223536D01*
X0221633Y0223435D01*
X0221728Y0223332D01*
X0221820Y0223226D01*
X0221909Y0223117D01*
X0221995Y0223007D01*
X0222078Y0222893D01*
X0222157Y0222778D01*
X0222234Y0222660D01*
X0222307Y0222540D01*
X0222376Y0222419D01*
X0222442Y0222295D01*
X0222505Y0222169D01*
X0222564Y0222042D01*
X0222619Y0221913D01*
X0222671Y0221783D01*
X0222719Y0221651D01*
X0222764Y0221518D01*
X0222805Y0221384D01*
X0222842Y0221249D01*
X0222875Y0221113D01*
X0222904Y0220975D01*
X0222929Y0220838D01*
X0222951Y0220699D01*
X0222969Y0220560D01*
X0222982Y0220420D01*
X0222992Y0220280D01*
X0222998Y0220140D01*
X0223000Y0220000D01*
X0223000Y0205000D01*
X0223002Y0204812D01*
X0223009Y0204623D01*
X0223020Y0204435D01*
X0223036Y0204247D01*
X0223057Y0204060D01*
X0223082Y0203873D01*
X0223111Y0203687D01*
X0223145Y0203501D01*
X0223184Y0203317D01*
X0223227Y0203133D01*
X0223274Y0202951D01*
X0223326Y0202770D01*
X0223382Y0202590D01*
X0223442Y0202411D01*
X0223507Y0202234D01*
X0223576Y0202059D01*
X0223649Y0201885D01*
X0223726Y0201713D01*
X0223808Y0201543D01*
X0223893Y0201375D01*
X0223983Y0201209D01*
X0224077Y0201046D01*
X0224174Y0200884D01*
X0224276Y0200726D01*
X0224381Y0200569D01*
X0224490Y0200415D01*
X0224602Y0200264D01*
X0224719Y0200116D01*
X0224838Y0199970D01*
X0224962Y0199828D01*
X0225088Y0199688D01*
X0225218Y0199552D01*
X0225352Y0199418D01*
X0225488Y0199288D01*
X0225628Y0199162D01*
X0225770Y0199038D01*
X0225916Y0198919D01*
X0226064Y0198802D01*
X0226215Y0198690D01*
X0226369Y0198581D01*
X0226526Y0198476D01*
X0226684Y0198374D01*
X0226846Y0198277D01*
X0227009Y0198183D01*
X0227175Y0198093D01*
X0227343Y0198008D01*
X0227513Y0197926D01*
X0227685Y0197849D01*
X0227859Y0197776D01*
X0228034Y0197707D01*
X0228211Y0197642D01*
X0228390Y0197582D01*
X0228570Y0197526D01*
X0228751Y0197474D01*
X0228933Y0197427D01*
X0229117Y0197384D01*
X0229301Y0197345D01*
X0229487Y0197311D01*
X0229673Y0197282D01*
X0229860Y0197257D01*
X0230047Y0197236D01*
X0230235Y0197220D01*
X0230423Y0197209D01*
X0230612Y0197202D01*
X0230800Y0197200D01*
X0233400Y0197200D01*
X0233555Y0197198D01*
X0233709Y0197192D01*
X0233863Y0197183D01*
X0234017Y0197169D01*
X0234171Y0197152D01*
X0234324Y0197131D01*
X0234477Y0197106D01*
X0234629Y0197077D01*
X0234780Y0197045D01*
X0234930Y0197008D01*
X0235079Y0196968D01*
X0235227Y0196925D01*
X0235375Y0196877D01*
X0235521Y0196826D01*
X0235665Y0196771D01*
X0235808Y0196713D01*
X0235950Y0196651D01*
X0236090Y0196586D01*
X0236229Y0196517D01*
X0236365Y0196445D01*
X0236500Y0196369D01*
X0236633Y0196290D01*
X0236764Y0196208D01*
X0236893Y0196123D01*
X0237019Y0196034D01*
X0237144Y0195942D01*
X0237266Y0195847D01*
X0237385Y0195749D01*
X0237502Y0195649D01*
X0237617Y0195545D01*
X0237729Y0195438D01*
X0237838Y0195329D01*
X0237945Y0195217D01*
X0238049Y0195102D01*
X0238149Y0194985D01*
X0238247Y0194866D01*
X0238342Y0194744D01*
X0238434Y0194619D01*
X0238523Y0194493D01*
X0238608Y0194364D01*
X0238690Y0194233D01*
X0238769Y0194100D01*
X0238845Y0193965D01*
X0238917Y0193829D01*
X0238986Y0193690D01*
X0239051Y0193550D01*
X0239113Y0193408D01*
X0239171Y0193265D01*
X0239226Y0193121D01*
X0239277Y0192975D01*
X0239325Y0192827D01*
X0239368Y0192679D01*
X0239408Y0192530D01*
X0239445Y0192380D01*
X0239477Y0192229D01*
X0239506Y0192077D01*
X0239531Y0191924D01*
X0239552Y0191771D01*
X0239569Y0191617D01*
X0239583Y0191463D01*
X0239592Y0191309D01*
X0239598Y0191155D01*
X0239600Y0191000D01*
X0239600Y0190622D01*
X0239600Y0187378D02*
X0239600Y0173000D01*
X0239600Y0131200D01*
X0239598Y0131082D01*
X0239592Y0130965D01*
X0239583Y0130847D01*
X0239569Y0130730D01*
X0239552Y0130614D01*
X0239531Y0130498D01*
X0239506Y0130383D01*
X0239477Y0130268D01*
X0239445Y0130155D01*
X0239409Y0130043D01*
X0239369Y0129932D01*
X0239326Y0129822D01*
X0239279Y0129714D01*
X0239229Y0129608D01*
X0239175Y0129503D01*
X0239118Y0129400D01*
X0239057Y0129299D01*
X0238993Y0129200D01*
X0238926Y0129103D01*
X0238856Y0129008D01*
X0238783Y0128916D01*
X0238707Y0128826D01*
X0238628Y0128739D01*
X0238546Y0128654D01*
X0238461Y0128572D01*
X0238374Y0128493D01*
X0238284Y0128417D01*
X0238192Y0128344D01*
X0238097Y0128274D01*
X0238000Y0128207D01*
X0237901Y0128143D01*
X0237800Y0128082D01*
X0237697Y0128025D01*
X0237592Y0127971D01*
X0237486Y0127921D01*
X0237378Y0127874D01*
X0237268Y0127831D01*
X0237157Y0127791D01*
X0237045Y0127755D01*
X0236932Y0127723D01*
X0236817Y0127694D01*
X0236702Y0127669D01*
X0236586Y0127648D01*
X0236470Y0127631D01*
X0236353Y0127617D01*
X0236235Y0127608D01*
X0236118Y0127602D01*
X0236000Y0127600D01*
X0175800Y0127600D01*
X0175800Y0088600D01*
X0209400Y0064600D02*
X0248200Y0064600D01*
X0176600Y0133400D02*
X0176358Y0133397D01*
X0176117Y0133388D01*
X0175876Y0133374D01*
X0175635Y0133353D01*
X0175395Y0133327D01*
X0175155Y0133295D01*
X0174916Y0133257D01*
X0174679Y0133214D01*
X0174442Y0133164D01*
X0174207Y0133109D01*
X0173973Y0133049D01*
X0173741Y0132982D01*
X0173510Y0132911D01*
X0173281Y0132833D01*
X0173054Y0132750D01*
X0172829Y0132662D01*
X0172606Y0132568D01*
X0172386Y0132469D01*
X0172168Y0132364D01*
X0171953Y0132255D01*
X0171740Y0132140D01*
X0171530Y0132020D01*
X0171324Y0131895D01*
X0171120Y0131765D01*
X0170919Y0131630D01*
X0170722Y0131490D01*
X0170528Y0131346D01*
X0170338Y0131197D01*
X0170152Y0131043D01*
X0169969Y0130885D01*
X0169790Y0130723D01*
X0169615Y0130556D01*
X0169444Y0130385D01*
X0169277Y0130210D01*
X0169115Y0130031D01*
X0168957Y0129848D01*
X0168803Y0129662D01*
X0168654Y0129472D01*
X0168510Y0129278D01*
X0168370Y0129081D01*
X0168235Y0128880D01*
X0168105Y0128676D01*
X0167980Y0128470D01*
X0167860Y0128260D01*
X0167745Y0128047D01*
X0167636Y0127832D01*
X0167531Y0127614D01*
X0167432Y0127394D01*
X0167338Y0127171D01*
X0167250Y0126946D01*
X0167167Y0126719D01*
X0167089Y0126490D01*
X0167018Y0126259D01*
X0166951Y0126027D01*
X0166891Y0125793D01*
X0166836Y0125558D01*
X0166786Y0125321D01*
X0166743Y0125084D01*
X0166705Y0124845D01*
X0166673Y0124605D01*
X0166647Y0124365D01*
X0166626Y0124124D01*
X0166612Y0123883D01*
X0166603Y0123642D01*
X0166600Y0123400D01*
X0193200Y0157600D02*
X0208400Y0157600D01*
X0208593Y0157602D01*
X0208787Y0157609D01*
X0208979Y0157621D01*
X0209172Y0157637D01*
X0209364Y0157658D01*
X0209556Y0157684D01*
X0209747Y0157714D01*
X0209937Y0157749D01*
X0210126Y0157788D01*
X0210315Y0157832D01*
X0210502Y0157881D01*
X0210688Y0157934D01*
X0210872Y0157992D01*
X0211055Y0158054D01*
X0211237Y0158120D01*
X0211417Y0158191D01*
X0211595Y0158266D01*
X0211771Y0158345D01*
X0211946Y0158429D01*
X0212118Y0158516D01*
X0212288Y0158608D01*
X0212456Y0158704D01*
X0212621Y0158804D01*
X0212784Y0158908D01*
X0212945Y0159016D01*
X0213102Y0159128D01*
X0213257Y0159243D01*
X0213409Y0159363D01*
X0213559Y0159485D01*
X0213705Y0159612D01*
X0213848Y0159742D01*
X0213988Y0159875D01*
X0214125Y0160012D01*
X0214258Y0160152D01*
X0214388Y0160295D01*
X0214515Y0160441D01*
X0214637Y0160591D01*
X0214757Y0160743D01*
X0214872Y0160898D01*
X0214984Y0161055D01*
X0215092Y0161216D01*
X0215196Y0161379D01*
X0215296Y0161544D01*
X0215392Y0161712D01*
X0215484Y0161882D01*
X0215571Y0162054D01*
X0215655Y0162229D01*
X0215734Y0162405D01*
X0215809Y0162583D01*
X0215880Y0162763D01*
X0215946Y0162945D01*
X0216008Y0163128D01*
X0216066Y0163312D01*
X0216119Y0163498D01*
X0216168Y0163685D01*
X0216212Y0163874D01*
X0216251Y0164063D01*
X0216286Y0164253D01*
X0216316Y0164444D01*
X0216342Y0164636D01*
X0216363Y0164828D01*
X0216379Y0165021D01*
X0216391Y0165213D01*
X0216398Y0165407D01*
X0216400Y0165600D01*
D20*
X0007891Y0012266D02*
X0009732Y0009732D01*
X0012266Y0007891D01*
X0015245Y0006923D01*
X0016811Y0006800D01*
X0249094Y0006800D01*
X0250661Y0006923D01*
X0253639Y0007891D01*
X0256173Y0009732D01*
X0258014Y0012266D01*
X0258014Y0012266D01*
X0258982Y0015245D01*
X0259106Y0016811D01*
X0259106Y0114950D01*
X0258713Y0114557D01*
X0257912Y0113757D01*
X0252086Y0113757D01*
X0250797Y0115045D01*
X0250797Y0116868D01*
X0251487Y0117558D01*
X0250797Y0118248D01*
X0250797Y0120071D01*
X0251263Y0120537D01*
X0250797Y0121003D01*
X0250797Y0122116D01*
X0250485Y0122116D01*
X0249196Y0123405D01*
X0249196Y0125227D01*
X0250485Y0126516D01*
X0257111Y0126516D01*
X0258400Y0125227D01*
X0258400Y0121923D01*
X0258400Y0121003D01*
X0258400Y0121003D01*
X0258400Y0121003D01*
X0257599Y0120202D01*
X0257599Y0120202D01*
X0257534Y0120136D01*
X0257912Y0119758D01*
X0258713Y0119758D01*
X0259106Y0119365D01*
X0259106Y0145889D01*
X0258400Y0145183D01*
X0258400Y0144030D01*
X0257710Y0143340D01*
X0258400Y0142650D01*
X0258400Y0140827D01*
X0257934Y0140362D01*
X0258400Y0139896D01*
X0258400Y0136472D01*
X0257534Y0135606D01*
X0257599Y0135540D01*
X0258400Y0134739D01*
X0258400Y0130515D01*
X0257111Y0129226D01*
X0250485Y0129226D01*
X0249196Y0130515D01*
X0249196Y0132337D01*
X0250485Y0133626D01*
X0250797Y0133626D01*
X0250797Y0134739D01*
X0251664Y0135606D01*
X0250797Y0136472D01*
X0250797Y0138073D01*
X0250797Y0138073D01*
X0250797Y0138975D01*
X0250797Y0139896D01*
X0251664Y0140762D01*
X0251598Y0140827D01*
X0250797Y0141628D01*
X0250797Y0145853D01*
X0250863Y0145918D01*
X0250797Y0145984D01*
X0250797Y0148386D01*
X0250797Y0148386D01*
X0250797Y0149307D01*
X0250797Y0150208D01*
X0250797Y0150208D01*
X0250812Y0150224D01*
X0251124Y0150535D01*
X0249684Y0150535D01*
X0248395Y0151824D01*
X0248395Y0153646D01*
X0249684Y0154935D01*
X0250797Y0154935D01*
X0250797Y0156980D01*
X0250797Y0156980D01*
X0250797Y0157882D01*
X0250797Y0158802D01*
X0251664Y0159669D01*
X0251598Y0159734D01*
X0250797Y0160535D01*
X0250797Y0162136D01*
X0250797Y0162136D01*
X0250797Y0163038D01*
X0250797Y0163959D01*
X0250863Y0164024D01*
X0249997Y0164891D01*
X0249997Y0164891D01*
X0249196Y0165691D01*
X0249196Y0165691D01*
X0249196Y0165691D01*
X0249196Y0166593D01*
X0249196Y0169916D01*
X0250485Y0171205D01*
X0257111Y0171205D01*
X0258400Y0169916D01*
X0258400Y0166612D01*
X0258400Y0165691D01*
X0258400Y0165691D01*
X0257599Y0164891D01*
X0257599Y0164891D01*
X0257534Y0164825D01*
X0258400Y0163959D01*
X0258400Y0160535D01*
X0257934Y0160069D01*
X0258400Y0159603D01*
X0258400Y0156299D01*
X0258400Y0155379D01*
X0258400Y0155379D01*
X0258400Y0155379D01*
X0257934Y0154913D01*
X0258400Y0154447D01*
X0258400Y0151023D01*
X0258074Y0150696D01*
X0258713Y0150696D01*
X0259106Y0150304D01*
X0259106Y0215630D01*
X0258982Y0217196D01*
X0258014Y0220175D01*
X0256173Y0222709D01*
X0253639Y0224550D01*
X0250661Y0225518D01*
X0249094Y0225641D01*
X0222683Y0225641D01*
X0224189Y0224135D01*
X0224189Y0224135D01*
X0225300Y0221452D01*
X0225300Y0221114D01*
X0226938Y0221793D01*
X0228967Y0221793D01*
X0230842Y0221016D01*
X0232276Y0219582D01*
X0233053Y0217707D01*
X0233053Y0215678D01*
X0232276Y0213804D01*
X0230842Y0212369D01*
X0228967Y0211593D01*
X0226938Y0211593D01*
X0225300Y0212272D01*
X0225300Y0210822D01*
X0225385Y0210884D01*
X0226072Y0211234D01*
X0226805Y0211472D01*
X0227567Y0211593D01*
X0227667Y0211593D01*
X0227667Y0206979D01*
X0228239Y0206979D01*
X0232853Y0206979D01*
X0232853Y0207079D01*
X0232732Y0207840D01*
X0232494Y0208574D01*
X0232144Y0209261D01*
X0231690Y0209885D01*
X0231145Y0210430D01*
X0230521Y0210884D01*
X0229834Y0211234D01*
X0229100Y0211472D01*
X0228338Y0211593D01*
X0228239Y0211593D01*
X0228239Y0206979D01*
X0228239Y0206407D01*
X0232853Y0206407D01*
X0232853Y0206307D01*
X0232732Y0205545D01*
X0232494Y0204812D01*
X0232144Y0204125D01*
X0231690Y0203501D01*
X0231145Y0202955D01*
X0230521Y0202502D01*
X0229834Y0202152D01*
X0229100Y0201914D01*
X0228338Y0201793D01*
X0228239Y0201793D01*
X0228239Y0206407D01*
X0227667Y0206407D01*
X0227667Y0201793D01*
X0227567Y0201793D01*
X0226805Y0201914D01*
X0226180Y0202117D01*
X0226911Y0201111D01*
X0228303Y0200099D01*
X0229940Y0199568D01*
X0230800Y0199500D01*
X0235091Y0199500D01*
X0238215Y0198206D01*
X0238215Y0198206D01*
X0240606Y0195815D01*
X0240606Y0195815D01*
X0241494Y0193672D01*
X0242846Y0193672D01*
X0243900Y0192617D01*
X0243900Y0185383D01*
X0242846Y0184328D01*
X0241900Y0184328D01*
X0241900Y0175438D01*
X0242440Y0174898D01*
X0242950Y0173666D01*
X0242950Y0172334D01*
X0242440Y0171102D01*
X0241900Y0170562D01*
X0241900Y0130026D01*
X0241002Y0127858D01*
X0241002Y0127858D01*
X0241002Y0127858D01*
X0239342Y0126198D01*
X0237174Y0125300D01*
X0178238Y0125300D01*
X0178100Y0125162D01*
X0178100Y0091038D01*
X0178640Y0090498D01*
X0179150Y0089266D01*
X0179150Y0087934D01*
X0178640Y0086702D01*
X0177698Y0085760D01*
X0176466Y0085250D01*
X0175134Y0085250D01*
X0173902Y0085760D01*
X0172960Y0086702D01*
X0172450Y0087934D01*
X0172450Y0089266D01*
X0172960Y0090498D01*
X0173500Y0091038D01*
X0173500Y0125162D01*
X0172960Y0125702D01*
X0172450Y0126934D01*
X0172450Y0128266D01*
X0172960Y0129498D01*
X0173902Y0130440D01*
X0174553Y0130709D01*
X0174536Y0130726D01*
X0173104Y0130261D01*
X0171155Y0128845D01*
X0169739Y0126896D01*
X0168995Y0124605D01*
X0168900Y0123400D01*
X0168900Y0019948D01*
X0167789Y0017265D01*
X0167789Y0017265D01*
X0165735Y0015211D01*
X0165735Y0015211D01*
X0163052Y0014100D01*
X0162238Y0014100D01*
X0161698Y0013560D01*
X0160466Y0013050D01*
X0159134Y0013050D01*
X0157902Y0013560D01*
X0157362Y0014100D01*
X0120438Y0014100D01*
X0120300Y0013962D01*
X0120300Y0011506D01*
X0119463Y0009485D01*
X0119463Y0009484D01*
X0117915Y0007937D01*
X0117915Y0007937D01*
X0115894Y0007100D01*
X0076427Y0007100D01*
X0073891Y0008150D01*
X0073891Y0008150D01*
X0071950Y0010091D01*
X0071950Y0010091D01*
X0070900Y0012627D01*
X0070900Y0022362D01*
X0070360Y0022902D01*
X0069850Y0024134D01*
X0069850Y0025466D01*
X0070360Y0026698D01*
X0071302Y0027640D01*
X0072534Y0028150D01*
X0073866Y0028150D01*
X0075098Y0027640D01*
X0076040Y0026698D01*
X0076150Y0026432D01*
X0076150Y0035150D01*
X0048535Y0035150D01*
X0046753Y0035888D01*
X0046753Y0035888D01*
X0045388Y0037253D01*
X0045388Y0037253D01*
X0044650Y0039035D01*
X0044650Y0040965D01*
X0045388Y0042747D01*
X0045388Y0042747D01*
X0045388Y0042747D01*
X0046753Y0044112D01*
X0046753Y0044112D01*
X0048535Y0044850D01*
X0081965Y0044850D01*
X0083747Y0044112D01*
X0083747Y0044112D01*
X0085112Y0042747D01*
X0085112Y0042747D01*
X0085850Y0040965D01*
X0085850Y0016035D01*
X0085112Y0014253D01*
X0083747Y0012888D01*
X0083747Y0012888D01*
X0081965Y0012150D01*
X0080035Y0012150D01*
X0078253Y0012888D01*
X0078253Y0012888D01*
X0076888Y0014253D01*
X0076888Y0014253D01*
X0076150Y0016035D01*
X0076150Y0023168D01*
X0076040Y0022902D01*
X0075500Y0022362D01*
X0075500Y0014000D01*
X0075544Y0013551D01*
X0075888Y0012722D01*
X0076522Y0012088D01*
X0077351Y0011744D01*
X0077800Y0011700D01*
X0114800Y0011700D01*
X0114976Y0011717D01*
X0115300Y0011852D01*
X0115548Y0012100D01*
X0115683Y0012424D01*
X0115700Y0012600D01*
X0115700Y0013962D01*
X0115160Y0014502D01*
X0114650Y0015734D01*
X0114650Y0017066D01*
X0115160Y0018298D01*
X0116102Y0019240D01*
X0117334Y0019750D01*
X0118666Y0019750D01*
X0119898Y0019240D01*
X0120438Y0018700D01*
X0157362Y0018700D01*
X0157902Y0019240D01*
X0159134Y0019750D01*
X0160466Y0019750D01*
X0161698Y0019240D01*
X0162168Y0018769D01*
X0163100Y0019155D01*
X0163845Y0019900D01*
X0164248Y0020873D01*
X0164300Y0021400D01*
X0164300Y0125348D01*
X0165504Y0129054D01*
X0165504Y0129054D01*
X0167794Y0132206D01*
X0167794Y0132206D01*
X0167794Y0132206D01*
X0170946Y0134496D01*
X0170946Y0134496D01*
X0173927Y0135464D01*
X0174702Y0136240D01*
X0175934Y0136750D01*
X0177266Y0136750D01*
X0178498Y0136240D01*
X0179038Y0135700D01*
X0222400Y0135700D01*
X0223135Y0135758D01*
X0224534Y0136212D01*
X0225723Y0137077D01*
X0226588Y0138266D01*
X0227042Y0139665D01*
X0227100Y0140400D01*
X0227100Y0158762D01*
X0226560Y0159302D01*
X0226050Y0160534D01*
X0226050Y0161866D01*
X0226560Y0163098D01*
X0227100Y0163638D01*
X0227100Y0184328D01*
X0226154Y0184328D01*
X0225100Y0185383D01*
X0225100Y0188322D01*
X0219855Y0188322D01*
X0216578Y0189387D01*
X0216578Y0189387D01*
X0213790Y0191412D01*
X0213790Y0191412D01*
X0213790Y0191412D01*
X0211765Y0194200D01*
X0211765Y0194200D01*
X0210700Y0197477D01*
X0210700Y0200153D01*
X0210700Y0202311D01*
X0208967Y0201593D01*
X0206938Y0201593D01*
X0205064Y0202369D01*
X0203629Y0203804D01*
X0202953Y0205437D01*
X0202276Y0203804D01*
X0200842Y0202369D01*
X0198967Y0201593D01*
X0196938Y0201593D01*
X0195064Y0202369D01*
X0193629Y0203804D01*
X0192953Y0205437D01*
X0192276Y0203804D01*
X0190842Y0202369D01*
X0188967Y0201593D01*
X0186938Y0201593D01*
X0185064Y0202369D01*
X0183629Y0203804D01*
X0182953Y0205437D01*
X0182276Y0203804D01*
X0180842Y0202369D01*
X0178967Y0201593D01*
X0176938Y0201593D01*
X0175064Y0202369D01*
X0173629Y0203804D01*
X0172953Y0205437D01*
X0172276Y0203804D01*
X0170842Y0202369D01*
X0168967Y0201593D01*
X0166938Y0201593D01*
X0165064Y0202369D01*
X0163629Y0203804D01*
X0162853Y0205678D01*
X0162853Y0207707D01*
X0163629Y0209582D01*
X0165064Y0211016D01*
X0166697Y0211693D01*
X0165064Y0212369D01*
X0163629Y0213804D01*
X0162953Y0215437D01*
X0162276Y0213804D01*
X0160842Y0212369D01*
X0158967Y0211593D01*
X0156938Y0211593D01*
X0155064Y0212369D01*
X0153629Y0213804D01*
X0152953Y0215437D01*
X0152276Y0213804D01*
X0150842Y0212369D01*
X0149209Y0211693D01*
X0150842Y0211016D01*
X0152276Y0209582D01*
X0153053Y0207707D01*
X0153053Y0205678D01*
X0152276Y0203804D01*
X0150842Y0202369D01*
X0148967Y0201593D01*
X0146938Y0201593D01*
X0145064Y0202369D01*
X0143629Y0203804D01*
X0142953Y0205437D01*
X0142276Y0203804D01*
X0140842Y0202369D01*
X0138967Y0201593D01*
X0136938Y0201593D01*
X0135064Y0202369D01*
X0133629Y0203804D01*
X0132953Y0205437D01*
X0132276Y0203804D01*
X0130842Y0202369D01*
X0128967Y0201593D01*
X0126938Y0201593D01*
X0125064Y0202369D01*
X0123629Y0203804D01*
X0122953Y0205437D01*
X0122276Y0203804D01*
X0120842Y0202369D01*
X0118967Y0201593D01*
X0116938Y0201593D01*
X0115064Y0202369D01*
X0113629Y0203804D01*
X0112953Y0205437D01*
X0112276Y0203804D01*
X0110842Y0202369D01*
X0108967Y0201593D01*
X0106938Y0201593D01*
X0105064Y0202369D01*
X0103629Y0203804D01*
X0102953Y0205437D01*
X0102276Y0203804D01*
X0100842Y0202369D01*
X0098967Y0201593D01*
X0096938Y0201593D01*
X0095064Y0202369D01*
X0093629Y0203804D01*
X0092953Y0205437D01*
X0092276Y0203804D01*
X0090842Y0202369D01*
X0088967Y0201593D01*
X0086938Y0201593D01*
X0085064Y0202369D01*
X0083629Y0203804D01*
X0082853Y0205678D01*
X0082853Y0207707D01*
X0083629Y0209582D01*
X0085064Y0211016D01*
X0086697Y0211693D01*
X0085064Y0212369D01*
X0083629Y0213804D01*
X0082953Y0215437D01*
X0082276Y0213804D01*
X0080842Y0212369D01*
X0078967Y0211593D01*
X0076938Y0211593D01*
X0075523Y0212179D01*
X0075500Y0211940D01*
X0075500Y0210943D01*
X0076072Y0211234D01*
X0076805Y0211472D01*
X0077567Y0211593D01*
X0077667Y0211593D01*
X0077667Y0206979D01*
X0078239Y0206979D01*
X0082853Y0206979D01*
X0082853Y0207079D01*
X0082732Y0207840D01*
X0082494Y0208574D01*
X0082144Y0209261D01*
X0081690Y0209885D01*
X0081145Y0210430D01*
X0080521Y0210884D01*
X0079834Y0211234D01*
X0079100Y0211472D01*
X0078338Y0211593D01*
X0078239Y0211593D01*
X0078239Y0206979D01*
X0078239Y0206407D01*
X0082853Y0206407D01*
X0082853Y0206307D01*
X0082732Y0205545D01*
X0082494Y0204812D01*
X0082144Y0204125D01*
X0081690Y0203501D01*
X0081145Y0202955D01*
X0080521Y0202502D01*
X0079834Y0202152D01*
X0079100Y0201914D01*
X0078338Y0201793D01*
X0078239Y0201793D01*
X0078239Y0206407D01*
X0077667Y0206407D01*
X0077667Y0201793D01*
X0077567Y0201793D01*
X0076805Y0201914D01*
X0076072Y0202152D01*
X0075500Y0202443D01*
X0075500Y0185669D01*
X0074519Y0183300D01*
X0173331Y0183300D01*
X0176528Y0181975D01*
X0176528Y0181975D01*
X0178975Y0179528D01*
X0178975Y0179528D01*
X0180300Y0176331D01*
X0180300Y0147638D01*
X0180840Y0147098D01*
X0181350Y0145866D01*
X0181350Y0144534D01*
X0180840Y0143302D01*
X0179898Y0142360D01*
X0178666Y0141850D01*
X0177334Y0141850D01*
X0176950Y0142009D01*
X0176950Y0140734D01*
X0176440Y0139502D01*
X0175498Y0138560D01*
X0174266Y0138050D01*
X0172934Y0138050D01*
X0171702Y0138560D01*
X0171162Y0139100D01*
X0170238Y0139100D01*
X0170840Y0138498D01*
X0171350Y0137266D01*
X0171350Y0135934D01*
X0170840Y0134702D01*
X0169898Y0133760D01*
X0168666Y0133250D01*
X0167334Y0133250D01*
X0166102Y0133760D01*
X0165562Y0134300D01*
X0164000Y0134300D01*
X0163327Y0134247D01*
X0162048Y0133831D01*
X0160959Y0133041D01*
X0160169Y0131952D01*
X0159753Y0130673D01*
X0159700Y0130000D01*
X0159700Y0108580D01*
X0158344Y0103519D01*
X0158344Y0103519D01*
X0155724Y0098981D01*
X0155724Y0098981D01*
X0155724Y0098981D01*
X0152019Y0095276D01*
X0147481Y0092656D01*
X0142420Y0091300D01*
X0068862Y0091300D01*
X0064795Y0092621D01*
X0064795Y0092621D01*
X0061335Y0095135D01*
X0061335Y0095135D01*
X0061335Y0095135D01*
X0058821Y0098595D01*
X0058821Y0098595D01*
X0058592Y0099300D01*
X0057522Y0099300D01*
X0054300Y0102522D01*
X0054300Y0107078D01*
X0057022Y0109800D01*
X0054300Y0112522D01*
X0054300Y0117078D01*
X0057022Y0119800D01*
X0054300Y0122522D01*
X0054300Y0127078D01*
X0057522Y0130300D01*
X0057801Y0130300D01*
X0058550Y0132109D01*
X0058550Y0132109D01*
X0060491Y0134050D01*
X0060491Y0134050D01*
X0063027Y0135100D01*
X0133358Y0135100D01*
X0136702Y0134013D01*
X0139547Y0131947D01*
X0139547Y0131947D01*
X0139547Y0131947D01*
X0141613Y0129102D01*
X0141613Y0129102D01*
X0142373Y0126765D01*
X0143240Y0125898D01*
X0143750Y0124666D01*
X0143750Y0123334D01*
X0143240Y0122102D01*
X0142298Y0121160D01*
X0141066Y0120650D01*
X0139734Y0120650D01*
X0138502Y0121160D01*
X0137560Y0122102D01*
X0137050Y0123334D01*
X0137050Y0124666D01*
X0137560Y0125898D01*
X0137691Y0126029D01*
X0137392Y0126951D01*
X0136196Y0128596D01*
X0135865Y0128837D01*
X0136350Y0127666D01*
X0136350Y0126334D01*
X0135840Y0125102D01*
X0134898Y0124160D01*
X0133666Y0123650D01*
X0132334Y0123650D01*
X0131102Y0124160D01*
X0130562Y0124700D01*
X0098400Y0124700D01*
X0097873Y0124648D01*
X0096900Y0124245D01*
X0096155Y0123500D01*
X0095752Y0122527D01*
X0095700Y0122000D01*
X0095700Y0118027D01*
X0094650Y0115491D01*
X0094650Y0115491D01*
X0092709Y0113550D01*
X0092709Y0113550D01*
X0090172Y0112500D01*
X0075278Y0112500D01*
X0074678Y0111900D01*
X0138800Y0111900D01*
X0139754Y0111975D01*
X0141569Y0112565D01*
X0143113Y0113687D01*
X0144235Y0115231D01*
X0144480Y0115983D01*
X0144360Y0116102D01*
X0143850Y0117334D01*
X0143850Y0118666D01*
X0144360Y0119898D01*
X0145302Y0120840D01*
X0146534Y0121350D01*
X0147866Y0121350D01*
X0149098Y0120840D01*
X0150040Y0119898D01*
X0150550Y0118666D01*
X0150550Y0117334D01*
X0150040Y0116102D01*
X0149142Y0115205D01*
X0148453Y0113082D01*
X0148453Y0113082D01*
X0146460Y0110340D01*
X0146460Y0110340D01*
X0146460Y0110340D01*
X0143718Y0108347D01*
X0143718Y0108347D01*
X0140495Y0107300D01*
X0074795Y0107300D01*
X0075100Y0106995D01*
X0075100Y0105200D01*
X0070200Y0105200D01*
X0070200Y0104400D01*
X0075100Y0104400D01*
X0075100Y0102605D01*
X0071995Y0099500D01*
X0070200Y0099500D01*
X0070200Y0104400D01*
X0069400Y0104400D01*
X0069400Y0099500D01*
X0067605Y0099500D01*
X0064941Y0102163D01*
X0063267Y0100489D01*
X0064707Y0098507D01*
X0066959Y0096870D01*
X0069608Y0096010D01*
X0071000Y0095900D01*
X0139800Y0095900D01*
X0141797Y0096031D01*
X0145655Y0097065D01*
X0149114Y0099062D01*
X0151938Y0101886D01*
X0153935Y0105345D01*
X0154969Y0109203D01*
X0155100Y0111200D01*
X0155100Y0131410D01*
X0155971Y0134091D01*
X0155971Y0134091D01*
X0157628Y0136372D01*
X0157628Y0136372D01*
X0157628Y0136372D01*
X0159909Y0138029D01*
X0159909Y0138029D01*
X0162590Y0138900D01*
X0165562Y0138900D01*
X0165762Y0139100D01*
X0080838Y0139100D01*
X0080298Y0138560D01*
X0079066Y0138050D01*
X0077734Y0138050D01*
X0076502Y0138560D01*
X0075560Y0139502D01*
X0075050Y0140734D01*
X0075050Y0142066D01*
X0075560Y0143298D01*
X0076502Y0144240D01*
X0077734Y0144750D01*
X0079066Y0144750D01*
X0080298Y0144240D01*
X0080838Y0143700D01*
X0171162Y0143700D01*
X0171702Y0144240D01*
X0172934Y0144750D01*
X0174266Y0144750D01*
X0174650Y0144591D01*
X0174650Y0145866D01*
X0175160Y0147098D01*
X0175700Y0147638D01*
X0175700Y0174600D01*
X0175621Y0175400D01*
X0175009Y0176878D01*
X0173878Y0178009D01*
X0172400Y0178621D01*
X0171600Y0178700D01*
X0052200Y0178700D01*
X0051985Y0178679D01*
X0051589Y0178515D01*
X0051285Y0178211D01*
X0051121Y0177815D01*
X0051100Y0177600D01*
X0051100Y0111933D01*
X0050030Y0107940D01*
X0050030Y0107940D01*
X0047963Y0104360D01*
X0047963Y0104360D01*
X0045040Y0101437D01*
X0045040Y0101437D01*
X0041460Y0099370D01*
X0041460Y0099370D01*
X0040317Y0099064D01*
X0039663Y0097484D01*
X0038115Y0095937D01*
X0037301Y0095600D01*
X0038115Y0095263D01*
X0039663Y0093715D01*
X0040500Y0091694D01*
X0040500Y0089506D01*
X0039663Y0087484D01*
X0038115Y0085937D01*
X0036094Y0085100D01*
X0033906Y0085100D01*
X0031884Y0085937D01*
X0030337Y0087484D01*
X0029500Y0089506D01*
X0029500Y0091694D01*
X0030337Y0093715D01*
X0031884Y0095263D01*
X0032699Y0095600D01*
X0031884Y0095937D01*
X0030337Y0097484D01*
X0029500Y0099506D01*
X0029500Y0101694D01*
X0030337Y0103715D01*
X0031884Y0105263D01*
X0032699Y0105600D01*
X0031884Y0105937D01*
X0030337Y0107484D01*
X0029500Y0109506D01*
X0029500Y0111694D01*
X0030337Y0113715D01*
X0031884Y0115263D01*
X0032699Y0115600D01*
X0031884Y0115937D01*
X0030337Y0117484D01*
X0029500Y0119506D01*
X0029500Y0121694D01*
X0030337Y0123715D01*
X0031884Y0125263D01*
X0032942Y0125701D01*
X0032222Y0126067D01*
X0031547Y0126557D01*
X0030957Y0127147D01*
X0030467Y0127822D01*
X0030088Y0128566D01*
X0029830Y0129359D01*
X0029700Y0130183D01*
X0029700Y0130200D01*
X0034600Y0130200D01*
X0034600Y0131000D01*
X0034600Y0140200D01*
X0029700Y0140200D01*
X0029700Y0140183D01*
X0029830Y0139359D01*
X0030088Y0138566D01*
X0030467Y0137822D01*
X0030957Y0137147D01*
X0031547Y0136557D01*
X0032222Y0136067D01*
X0032966Y0135688D01*
X0033237Y0135600D01*
X0032966Y0135512D01*
X0032222Y0135133D01*
X0031547Y0134643D01*
X0030957Y0134053D01*
X0030467Y0133378D01*
X0030088Y0132634D01*
X0029830Y0131841D01*
X0029700Y0131017D01*
X0029700Y0131000D01*
X0034600Y0131000D01*
X0035400Y0131000D01*
X0040300Y0131000D01*
X0040300Y0131017D01*
X0040169Y0131841D01*
X0039912Y0132634D01*
X0039533Y0133378D01*
X0039043Y0134053D01*
X0038453Y0134643D01*
X0037778Y0135133D01*
X0037034Y0135512D01*
X0036763Y0135600D01*
X0037034Y0135688D01*
X0037778Y0136067D01*
X0038453Y0136557D01*
X0039043Y0137147D01*
X0039533Y0137822D01*
X0039912Y0138566D01*
X0040169Y0139359D01*
X0040300Y0140183D01*
X0040300Y0140200D01*
X0035400Y0140200D01*
X0035400Y0141000D01*
X0034600Y0141000D01*
X0034600Y0145900D01*
X0034583Y0145900D01*
X0033759Y0145769D01*
X0032966Y0145512D01*
X0032222Y0145133D01*
X0031547Y0144643D01*
X0030957Y0144053D01*
X0030467Y0143378D01*
X0030088Y0142634D01*
X0029830Y0141841D01*
X0029700Y0141017D01*
X0029700Y0141000D01*
X0034600Y0141000D01*
X0034600Y0140200D01*
X0035400Y0140200D01*
X0035400Y0135300D01*
X0035400Y0131000D01*
X0035400Y0130200D01*
X0040300Y0130200D01*
X0040300Y0130183D01*
X0040169Y0129359D01*
X0039912Y0128566D01*
X0039533Y0127822D01*
X0039043Y0127147D01*
X0038453Y0126557D01*
X0037778Y0126067D01*
X0037058Y0125701D01*
X0038115Y0125263D01*
X0039663Y0123715D01*
X0040500Y0121694D01*
X0040500Y0119506D01*
X0039663Y0117484D01*
X0038115Y0115937D01*
X0037301Y0115600D01*
X0038115Y0115263D01*
X0038979Y0114399D01*
X0039455Y0114745D01*
X0040613Y0116340D01*
X0041222Y0118214D01*
X0041300Y0119200D01*
X0041300Y0143762D01*
X0040760Y0144302D01*
X0040250Y0145534D01*
X0040250Y0146866D01*
X0040760Y0148098D01*
X0041300Y0148638D01*
X0041300Y0182052D01*
X0042411Y0184735D01*
X0042411Y0184735D01*
X0044465Y0186789D01*
X0044465Y0186789D01*
X0047148Y0187900D01*
X0059200Y0187900D01*
X0059493Y0187929D01*
X0060033Y0188153D01*
X0060447Y0188567D01*
X0060671Y0189107D01*
X0060700Y0189400D01*
X0060700Y0202311D01*
X0058967Y0201593D01*
X0056938Y0201593D01*
X0055064Y0202369D01*
X0053629Y0203804D01*
X0052953Y0205437D01*
X0052276Y0203804D01*
X0050842Y0202369D01*
X0048967Y0201593D01*
X0046938Y0201593D01*
X0045064Y0202369D01*
X0043629Y0203804D01*
X0042953Y0205437D01*
X0042276Y0203804D01*
X0040842Y0202369D01*
X0038967Y0201593D01*
X0036938Y0201593D01*
X0035064Y0202369D01*
X0033629Y0203804D01*
X0032853Y0205678D01*
X0032853Y0207707D01*
X0033629Y0209582D01*
X0035064Y0211016D01*
X0036697Y0211693D01*
X0035064Y0212369D01*
X0033629Y0213804D01*
X0032853Y0215678D01*
X0032853Y0217707D01*
X0033629Y0219582D01*
X0035064Y0221016D01*
X0036938Y0221793D01*
X0038967Y0221793D01*
X0040793Y0221036D01*
X0041933Y0223788D01*
X0041933Y0223788D01*
X0043786Y0225641D01*
X0016811Y0225641D01*
X0015245Y0225518D01*
X0012266Y0224550D01*
X0009732Y0222709D01*
X0007891Y0220175D01*
X0006923Y0217196D01*
X0006800Y0215630D01*
X0006800Y0150501D01*
X0021889Y0150501D01*
X0023998Y0149627D01*
X0023998Y0149627D01*
X0025612Y0148014D01*
X0025612Y0148014D01*
X0026485Y0145905D01*
X0026485Y0084567D01*
X0025612Y0082459D01*
X0025612Y0082459D01*
X0023998Y0080845D01*
X0023998Y0080845D01*
X0021889Y0079972D01*
X0006800Y0079972D01*
X0006800Y0016811D01*
X0006923Y0015245D01*
X0007891Y0012266D01*
X0007849Y0012397D02*
X0015082Y0012397D01*
X0014638Y0012581D02*
X0017325Y0011468D01*
X0020234Y0011468D01*
X0022921Y0012581D01*
X0024978Y0014638D01*
X0026091Y0017325D01*
X0026091Y0020234D01*
X0024978Y0022921D01*
X0022921Y0024978D01*
X0020234Y0026091D01*
X0017325Y0026091D01*
X0014638Y0024978D01*
X0012581Y0022921D01*
X0011468Y0020234D01*
X0011468Y0017325D01*
X0012581Y0014638D01*
X0014638Y0012581D01*
X0013623Y0013596D02*
X0007459Y0013596D01*
X0007070Y0014794D02*
X0012516Y0014794D01*
X0012020Y0015993D02*
X0006864Y0015993D01*
X0006800Y0017191D02*
X0011523Y0017191D01*
X0011468Y0018390D02*
X0006800Y0018390D01*
X0006800Y0019588D02*
X0011468Y0019588D01*
X0011697Y0020787D02*
X0006800Y0020787D01*
X0006800Y0021985D02*
X0012193Y0021985D01*
X0012843Y0023184D02*
X0006800Y0023184D01*
X0006800Y0024382D02*
X0014042Y0024382D01*
X0016092Y0025581D02*
X0006800Y0025581D01*
X0006800Y0026779D02*
X0070442Y0026779D01*
X0069897Y0025581D02*
X0021467Y0025581D01*
X0023517Y0024382D02*
X0069850Y0024382D01*
X0070244Y0023184D02*
X0024716Y0023184D01*
X0025366Y0021985D02*
X0070900Y0021985D01*
X0070900Y0020787D02*
X0025862Y0020787D01*
X0026091Y0019588D02*
X0070900Y0019588D01*
X0070900Y0018390D02*
X0026091Y0018390D01*
X0026036Y0017191D02*
X0070900Y0017191D01*
X0070900Y0015993D02*
X0025539Y0015993D01*
X0025043Y0014794D02*
X0070900Y0014794D01*
X0070900Y0013596D02*
X0023936Y0013596D01*
X0022477Y0012397D02*
X0070995Y0012397D01*
X0071492Y0011199D02*
X0008667Y0011199D01*
X0009538Y0010000D02*
X0072042Y0010000D01*
X0073240Y0008801D02*
X0011013Y0008801D01*
X0013153Y0007603D02*
X0075213Y0007603D01*
X0076213Y0012397D02*
X0079439Y0012397D01*
X0077546Y0013596D02*
X0075540Y0013596D01*
X0075500Y0014794D02*
X0076664Y0014794D01*
X0076168Y0015993D02*
X0075500Y0015993D01*
X0075500Y0017191D02*
X0076150Y0017191D01*
X0076150Y0018390D02*
X0075500Y0018390D01*
X0075500Y0019588D02*
X0076150Y0019588D01*
X0076150Y0020787D02*
X0075500Y0020787D01*
X0075500Y0021985D02*
X0076150Y0021985D01*
X0076150Y0026779D02*
X0075958Y0026779D01*
X0076150Y0027978D02*
X0074282Y0027978D01*
X0072118Y0027978D02*
X0006800Y0027978D01*
X0006800Y0029176D02*
X0076150Y0029176D01*
X0076150Y0030375D02*
X0006800Y0030375D01*
X0006800Y0031573D02*
X0076150Y0031573D01*
X0076150Y0032772D02*
X0006800Y0032772D01*
X0006800Y0033970D02*
X0076150Y0033970D01*
X0085850Y0033970D02*
X0164300Y0033970D01*
X0164300Y0032772D02*
X0085850Y0032772D01*
X0085850Y0031573D02*
X0164300Y0031573D01*
X0164300Y0030375D02*
X0085850Y0030375D01*
X0085850Y0029176D02*
X0164300Y0029176D01*
X0164300Y0027978D02*
X0085850Y0027978D01*
X0085850Y0026779D02*
X0164300Y0026779D01*
X0164300Y0025581D02*
X0085850Y0025581D01*
X0085850Y0024382D02*
X0164300Y0024382D01*
X0164300Y0023184D02*
X0085850Y0023184D01*
X0085850Y0021985D02*
X0164300Y0021985D01*
X0164212Y0020787D02*
X0085850Y0020787D01*
X0085850Y0019588D02*
X0116943Y0019588D01*
X0115252Y0018390D02*
X0085850Y0018390D01*
X0085850Y0017191D02*
X0114702Y0017191D01*
X0114650Y0015993D02*
X0085832Y0015993D01*
X0085336Y0014794D02*
X0115039Y0014794D01*
X0115700Y0013596D02*
X0084454Y0013596D01*
X0082561Y0012397D02*
X0115671Y0012397D01*
X0120300Y0012397D02*
X0216431Y0012397D01*
X0216431Y0012830D02*
X0216431Y0009772D01*
X0217602Y0008600D01*
X0219259Y0008600D01*
X0219365Y0008706D01*
X0219471Y0008600D01*
X0223607Y0008600D01*
X0224240Y0009233D01*
X0224873Y0008600D01*
X0229476Y0008600D01*
X0230647Y0009772D01*
X0230647Y0013297D01*
X0230647Y0014231D01*
X0229476Y0015402D01*
X0227819Y0015402D01*
X0226885Y0014468D01*
X0222417Y0014468D01*
X0222311Y0014363D01*
X0222206Y0014468D01*
X0222062Y0014468D01*
X0221127Y0015402D01*
X0219471Y0015402D01*
X0218536Y0014468D01*
X0218069Y0014468D01*
X0217602Y0014001D01*
X0216431Y0012830D01*
X0217197Y0013596D02*
X0161733Y0013596D01*
X0164728Y0014794D02*
X0218862Y0014794D01*
X0221736Y0014794D02*
X0227211Y0014794D01*
X0230084Y0014794D02*
X0240863Y0014794D01*
X0240927Y0014638D02*
X0242984Y0012581D01*
X0245672Y0011468D01*
X0248580Y0011468D01*
X0251268Y0012581D01*
X0253325Y0014638D01*
X0254438Y0017325D01*
X0254438Y0020234D01*
X0253325Y0022921D01*
X0251268Y0024978D01*
X0248580Y0026091D01*
X0245672Y0026091D01*
X0242984Y0024978D01*
X0240927Y0022921D01*
X0239814Y0020234D01*
X0239814Y0017325D01*
X0240927Y0014638D01*
X0240366Y0015993D02*
X0185523Y0015993D01*
X0185415Y0015884D02*
X0187029Y0017498D01*
X0187029Y0017498D01*
X0187902Y0019607D01*
X0187902Y0020002D01*
X0187902Y0080944D01*
X0187029Y0083053D01*
X0185415Y0084667D01*
X0183307Y0085540D01*
X0181024Y0085540D01*
X0178916Y0084667D01*
X0178916Y0084667D01*
X0177302Y0083053D01*
X0177302Y0083053D01*
X0176428Y0080944D01*
X0176428Y0019607D01*
X0177302Y0017498D01*
X0178916Y0015884D01*
X0181024Y0015011D01*
X0183307Y0015011D01*
X0185415Y0015884D01*
X0185415Y0015884D01*
X0186722Y0017191D02*
X0239870Y0017191D01*
X0239814Y0018390D02*
X0187398Y0018390D01*
X0187895Y0019588D02*
X0239814Y0019588D01*
X0240043Y0020787D02*
X0187902Y0020787D01*
X0187902Y0021985D02*
X0240540Y0021985D01*
X0241190Y0023184D02*
X0187902Y0023184D01*
X0187902Y0024382D02*
X0242388Y0024382D01*
X0244439Y0025581D02*
X0187902Y0025581D01*
X0187902Y0026779D02*
X0259106Y0026779D01*
X0259106Y0025581D02*
X0249813Y0025581D01*
X0251864Y0024382D02*
X0259106Y0024382D01*
X0259106Y0023184D02*
X0253062Y0023184D01*
X0253712Y0021985D02*
X0259106Y0021985D01*
X0259106Y0020787D02*
X0254209Y0020787D01*
X0254438Y0019588D02*
X0259106Y0019588D01*
X0259106Y0018390D02*
X0254438Y0018390D01*
X0254382Y0017191D02*
X0259106Y0017191D01*
X0259041Y0015993D02*
X0253886Y0015993D01*
X0253389Y0014794D02*
X0258836Y0014794D01*
X0258446Y0013596D02*
X0252282Y0013596D01*
X0250824Y0012397D02*
X0258057Y0012397D01*
X0257239Y0011199D02*
X0230647Y0011199D01*
X0230647Y0012397D02*
X0243428Y0012397D01*
X0241970Y0013596D02*
X0230647Y0013596D01*
X0230647Y0010000D02*
X0256368Y0010000D01*
X0254892Y0008801D02*
X0229677Y0008801D01*
X0224671Y0008801D02*
X0223808Y0008801D01*
X0217401Y0008801D02*
X0118780Y0008801D01*
X0119676Y0010000D02*
X0216431Y0010000D01*
X0216431Y0011199D02*
X0120173Y0011199D01*
X0120300Y0013596D02*
X0157867Y0013596D01*
X0158743Y0019588D02*
X0119057Y0019588D01*
X0117108Y0007603D02*
X0252753Y0007603D01*
X0259106Y0027978D02*
X0187902Y0027978D01*
X0187902Y0029176D02*
X0259106Y0029176D01*
X0259106Y0030375D02*
X0187902Y0030375D01*
X0187902Y0031573D02*
X0259106Y0031573D01*
X0259106Y0032772D02*
X0187902Y0032772D01*
X0187902Y0033970D02*
X0259106Y0033970D01*
X0259106Y0035169D02*
X0187902Y0035169D01*
X0187902Y0036367D02*
X0259106Y0036367D01*
X0259106Y0037566D02*
X0187902Y0037566D01*
X0187902Y0038764D02*
X0259106Y0038764D01*
X0259106Y0039963D02*
X0187902Y0039963D01*
X0187902Y0041161D02*
X0259106Y0041161D01*
X0259106Y0042360D02*
X0187902Y0042360D01*
X0187902Y0043558D02*
X0259106Y0043558D01*
X0259106Y0044757D02*
X0187902Y0044757D01*
X0187902Y0045955D02*
X0259106Y0045955D01*
X0259106Y0047154D02*
X0187902Y0047154D01*
X0187902Y0048352D02*
X0259106Y0048352D01*
X0259106Y0049551D02*
X0187902Y0049551D01*
X0187902Y0050749D02*
X0259106Y0050749D01*
X0259106Y0051948D02*
X0187902Y0051948D01*
X0187902Y0053146D02*
X0259106Y0053146D01*
X0259106Y0054345D02*
X0187902Y0054345D01*
X0187902Y0055543D02*
X0259106Y0055543D01*
X0259106Y0056742D02*
X0187902Y0056742D01*
X0187902Y0057940D02*
X0259106Y0057940D01*
X0259106Y0059139D02*
X0187902Y0059139D01*
X0187902Y0060337D02*
X0259106Y0060337D01*
X0259106Y0061536D02*
X0249557Y0061536D01*
X0250098Y0061760D02*
X0251040Y0062702D01*
X0251550Y0063934D01*
X0251550Y0065266D01*
X0251040Y0066498D01*
X0250098Y0067440D01*
X0248866Y0067950D01*
X0247534Y0067950D01*
X0246302Y0067440D01*
X0245762Y0066900D01*
X0211838Y0066900D01*
X0211298Y0067440D01*
X0210066Y0067950D01*
X0208734Y0067950D01*
X0207502Y0067440D01*
X0206560Y0066498D01*
X0206050Y0065266D01*
X0206050Y0063934D01*
X0206560Y0062702D01*
X0207502Y0061760D01*
X0208734Y0061250D01*
X0210066Y0061250D01*
X0211298Y0061760D01*
X0211838Y0062300D01*
X0245762Y0062300D01*
X0246302Y0061760D01*
X0247534Y0061250D01*
X0248866Y0061250D01*
X0250098Y0061760D01*
X0251053Y0062734D02*
X0259106Y0062734D01*
X0259106Y0063933D02*
X0251550Y0063933D01*
X0251550Y0065132D02*
X0259106Y0065132D01*
X0259106Y0066330D02*
X0251109Y0066330D01*
X0249884Y0067529D02*
X0254992Y0067529D01*
X0255289Y0067232D02*
X0257111Y0067232D01*
X0258400Y0068520D01*
X0258400Y0071944D01*
X0258393Y0071951D01*
X0258400Y0071958D01*
X0258400Y0075382D01*
X0258334Y0075448D01*
X0258400Y0075513D01*
X0258400Y0077336D01*
X0257710Y0078026D01*
X0258400Y0078716D01*
X0258400Y0080538D01*
X0257111Y0081827D01*
X0252086Y0081827D01*
X0250485Y0080226D01*
X0249196Y0078937D01*
X0249196Y0077114D01*
X0250062Y0076248D01*
X0249196Y0075382D01*
X0249196Y0072759D01*
X0249603Y0072352D01*
X0248395Y0071144D01*
X0248395Y0069321D01*
X0249684Y0068032D01*
X0254488Y0068032D01*
X0255289Y0067232D01*
X0257408Y0067529D02*
X0259106Y0067529D01*
X0259106Y0068727D02*
X0258400Y0068727D01*
X0258400Y0069926D02*
X0259106Y0069926D01*
X0259106Y0071124D02*
X0258400Y0071124D01*
X0258400Y0072323D02*
X0259106Y0072323D01*
X0259106Y0073521D02*
X0258400Y0073521D01*
X0258400Y0074720D02*
X0259106Y0074720D01*
X0259106Y0075918D02*
X0258400Y0075918D01*
X0258400Y0077117D02*
X0259106Y0077117D01*
X0259106Y0078315D02*
X0257999Y0078315D01*
X0258400Y0079514D02*
X0259106Y0079514D01*
X0259106Y0080712D02*
X0258226Y0080712D01*
X0259106Y0081911D02*
X0187502Y0081911D01*
X0187029Y0083053D02*
X0187029Y0083053D01*
X0186973Y0083109D02*
X0259106Y0083109D01*
X0259106Y0084308D02*
X0185774Y0084308D01*
X0185415Y0084667D02*
X0185415Y0084667D01*
X0183388Y0085506D02*
X0251918Y0085506D01*
X0251598Y0085826D02*
X0252887Y0084537D01*
X0257111Y0084537D01*
X0258400Y0085826D01*
X0258400Y0090851D01*
X0258334Y0090917D01*
X0258400Y0090982D01*
X0258400Y0095207D01*
X0256414Y0097193D01*
X0257111Y0097193D01*
X0258400Y0098482D01*
X0258400Y0100305D01*
X0258272Y0100432D01*
X0258536Y0101750D01*
X0258070Y0102449D01*
X0258400Y0102779D01*
X0258400Y0104602D01*
X0258334Y0104667D01*
X0258400Y0104733D01*
X0258400Y0106555D01*
X0257710Y0107245D01*
X0258400Y0107935D01*
X0258400Y0109758D01*
X0257111Y0111047D01*
X0252086Y0111047D01*
X0250485Y0109445D01*
X0249196Y0108157D01*
X0249196Y0106334D01*
X0250062Y0105468D01*
X0249196Y0104602D01*
X0249196Y0102779D01*
X0250485Y0101490D01*
X0250713Y0101490D01*
X0250925Y0100432D01*
X0250797Y0100305D01*
X0250797Y0096080D01*
X0251234Y0095643D01*
X0250797Y0095207D01*
X0250797Y0091783D01*
X0251263Y0091317D01*
X0250797Y0090851D01*
X0250797Y0087529D01*
X0250797Y0086627D01*
X0250797Y0086627D01*
X0250797Y0086627D01*
X0251598Y0085826D01*
X0250797Y0086705D02*
X0178641Y0086705D01*
X0179137Y0087903D02*
X0250797Y0087903D01*
X0250797Y0089102D02*
X0179150Y0089102D01*
X0178722Y0090300D02*
X0250797Y0090300D01*
X0251081Y0091499D02*
X0178100Y0091499D01*
X0178100Y0092697D02*
X0250797Y0092697D01*
X0250797Y0093896D02*
X0178100Y0093896D01*
X0178100Y0095094D02*
X0250797Y0095094D01*
X0250797Y0096293D02*
X0178100Y0096293D01*
X0178100Y0097491D02*
X0250797Y0097491D01*
X0250797Y0098690D02*
X0178100Y0098690D01*
X0178100Y0099888D02*
X0250797Y0099888D01*
X0250794Y0101087D02*
X0178100Y0101087D01*
X0178100Y0102285D02*
X0249690Y0102285D01*
X0249196Y0103484D02*
X0178100Y0103484D01*
X0178100Y0104682D02*
X0249277Y0104682D01*
X0249649Y0105881D02*
X0178100Y0105881D01*
X0178100Y0107079D02*
X0249196Y0107079D01*
X0249317Y0108278D02*
X0178100Y0108278D01*
X0178100Y0109476D02*
X0250516Y0109476D01*
X0251714Y0110675D02*
X0178100Y0110675D01*
X0178100Y0111873D02*
X0259106Y0111873D01*
X0259106Y0110675D02*
X0257483Y0110675D01*
X0258400Y0109476D02*
X0259106Y0109476D01*
X0259106Y0108278D02*
X0258400Y0108278D01*
X0257876Y0107079D02*
X0259106Y0107079D01*
X0259106Y0105881D02*
X0258400Y0105881D01*
X0258350Y0104682D02*
X0259106Y0104682D01*
X0259106Y0103484D02*
X0258400Y0103484D01*
X0258179Y0102285D02*
X0259106Y0102285D01*
X0259106Y0101087D02*
X0258403Y0101087D01*
X0258400Y0099888D02*
X0259106Y0099888D01*
X0259106Y0098690D02*
X0258400Y0098690D01*
X0259106Y0097491D02*
X0257409Y0097491D01*
X0257314Y0096293D02*
X0259106Y0096293D01*
X0259106Y0095094D02*
X0258400Y0095094D01*
X0258400Y0093896D02*
X0259106Y0093896D01*
X0259106Y0092697D02*
X0258400Y0092697D01*
X0258400Y0091499D02*
X0259106Y0091499D01*
X0259106Y0090300D02*
X0258400Y0090300D01*
X0258400Y0089102D02*
X0259106Y0089102D01*
X0259106Y0087903D02*
X0258400Y0087903D01*
X0258400Y0086705D02*
X0259106Y0086705D01*
X0259106Y0085506D02*
X0258080Y0085506D01*
X0250971Y0080712D02*
X0246737Y0080712D01*
X0246110Y0080972D02*
X0247423Y0080428D01*
X0248428Y0079423D01*
X0248972Y0078110D01*
X0248972Y0076690D01*
X0248428Y0075377D01*
X0247423Y0074372D01*
X0246110Y0073828D01*
X0244690Y0073828D01*
X0243377Y0074372D01*
X0242372Y0075377D01*
X0241828Y0076690D01*
X0241828Y0078110D01*
X0242372Y0079423D01*
X0243377Y0080428D01*
X0244690Y0080972D01*
X0246110Y0080972D01*
X0244063Y0080712D02*
X0187902Y0080712D01*
X0187902Y0079514D02*
X0242463Y0079514D01*
X0241913Y0078315D02*
X0187902Y0078315D01*
X0187902Y0077117D02*
X0241828Y0077117D01*
X0242148Y0075918D02*
X0187902Y0075918D01*
X0187902Y0074720D02*
X0243029Y0074720D01*
X0247771Y0074720D02*
X0249196Y0074720D01*
X0249196Y0073521D02*
X0187902Y0073521D01*
X0187902Y0072323D02*
X0249574Y0072323D01*
X0248395Y0071124D02*
X0187902Y0071124D01*
X0187902Y0069926D02*
X0248395Y0069926D01*
X0248989Y0068727D02*
X0187902Y0068727D01*
X0187902Y0067529D02*
X0207716Y0067529D01*
X0206491Y0066330D02*
X0187902Y0066330D01*
X0187902Y0065132D02*
X0206050Y0065132D01*
X0206050Y0063933D02*
X0187902Y0063933D01*
X0187902Y0062734D02*
X0206547Y0062734D01*
X0208043Y0061536D02*
X0187902Y0061536D01*
X0176428Y0061536D02*
X0168900Y0061536D01*
X0168900Y0062734D02*
X0176428Y0062734D01*
X0176428Y0063933D02*
X0168900Y0063933D01*
X0168900Y0065132D02*
X0176428Y0065132D01*
X0176428Y0066330D02*
X0168900Y0066330D01*
X0168900Y0067529D02*
X0176428Y0067529D01*
X0176428Y0068727D02*
X0168900Y0068727D01*
X0168900Y0069926D02*
X0176428Y0069926D01*
X0176428Y0071124D02*
X0168900Y0071124D01*
X0168900Y0072323D02*
X0176428Y0072323D01*
X0176428Y0073521D02*
X0168900Y0073521D01*
X0168900Y0074720D02*
X0176428Y0074720D01*
X0176428Y0075918D02*
X0168900Y0075918D01*
X0168900Y0077117D02*
X0176428Y0077117D01*
X0176428Y0078315D02*
X0168900Y0078315D01*
X0168900Y0079514D02*
X0176428Y0079514D01*
X0176428Y0080712D02*
X0168900Y0080712D01*
X0168900Y0081911D02*
X0176829Y0081911D01*
X0177358Y0083109D02*
X0168900Y0083109D01*
X0168900Y0084308D02*
X0178557Y0084308D01*
X0177085Y0085506D02*
X0180942Y0085506D01*
X0174515Y0085506D02*
X0168900Y0085506D01*
X0168900Y0086705D02*
X0172959Y0086705D01*
X0172463Y0087903D02*
X0168900Y0087903D01*
X0168900Y0089102D02*
X0172450Y0089102D01*
X0172878Y0090300D02*
X0168900Y0090300D01*
X0168900Y0091499D02*
X0173500Y0091499D01*
X0173500Y0092697D02*
X0168900Y0092697D01*
X0168900Y0093896D02*
X0173500Y0093896D01*
X0173500Y0095094D02*
X0168900Y0095094D01*
X0168900Y0096293D02*
X0173500Y0096293D01*
X0173500Y0097491D02*
X0168900Y0097491D01*
X0168900Y0098690D02*
X0173500Y0098690D01*
X0173500Y0099888D02*
X0168900Y0099888D01*
X0168900Y0101087D02*
X0173500Y0101087D01*
X0173500Y0102285D02*
X0168900Y0102285D01*
X0168900Y0103484D02*
X0173500Y0103484D01*
X0173500Y0104682D02*
X0168900Y0104682D01*
X0168900Y0105881D02*
X0173500Y0105881D01*
X0173500Y0107079D02*
X0168900Y0107079D01*
X0168900Y0108278D02*
X0173500Y0108278D01*
X0173500Y0109476D02*
X0168900Y0109476D01*
X0168900Y0110675D02*
X0173500Y0110675D01*
X0173500Y0111873D02*
X0168900Y0111873D01*
X0168900Y0113072D02*
X0173500Y0113072D01*
X0173500Y0114270D02*
X0168900Y0114270D01*
X0168900Y0115469D02*
X0173500Y0115469D01*
X0173500Y0116668D02*
X0168900Y0116668D01*
X0168900Y0117866D02*
X0173500Y0117866D01*
X0173500Y0119065D02*
X0168900Y0119065D01*
X0168900Y0120263D02*
X0173500Y0120263D01*
X0173500Y0121462D02*
X0168900Y0121462D01*
X0168900Y0122660D02*
X0173500Y0122660D01*
X0173500Y0123859D02*
X0168936Y0123859D01*
X0169142Y0125057D02*
X0173500Y0125057D01*
X0172731Y0126256D02*
X0169531Y0126256D01*
X0170145Y0127454D02*
X0172450Y0127454D01*
X0172610Y0128653D02*
X0171016Y0128653D01*
X0172540Y0129851D02*
X0173314Y0129851D01*
X0169502Y0133447D02*
X0169141Y0133447D01*
X0167852Y0132248D02*
X0160384Y0132248D01*
X0159875Y0131050D02*
X0166954Y0131050D01*
X0166083Y0129851D02*
X0159700Y0129851D01*
X0159700Y0128653D02*
X0165374Y0128653D01*
X0164984Y0127454D02*
X0159700Y0127454D01*
X0159700Y0126256D02*
X0164595Y0126256D01*
X0164300Y0125057D02*
X0159700Y0125057D01*
X0159700Y0123859D02*
X0164300Y0123859D01*
X0164300Y0122660D02*
X0159700Y0122660D01*
X0159700Y0121462D02*
X0164300Y0121462D01*
X0164300Y0120263D02*
X0159700Y0120263D01*
X0159700Y0119065D02*
X0164300Y0119065D01*
X0164300Y0117866D02*
X0159700Y0117866D01*
X0159700Y0116668D02*
X0164300Y0116668D01*
X0164300Y0115469D02*
X0159700Y0115469D01*
X0159700Y0114270D02*
X0164300Y0114270D01*
X0164300Y0113072D02*
X0159700Y0113072D01*
X0159700Y0111873D02*
X0164300Y0111873D01*
X0164300Y0110675D02*
X0159700Y0110675D01*
X0159700Y0109476D02*
X0164300Y0109476D01*
X0164300Y0108278D02*
X0159619Y0108278D01*
X0159298Y0107079D02*
X0164300Y0107079D01*
X0164300Y0105881D02*
X0158977Y0105881D01*
X0158656Y0104682D02*
X0164300Y0104682D01*
X0164300Y0103484D02*
X0158324Y0103484D01*
X0157632Y0102285D02*
X0164300Y0102285D01*
X0164300Y0101087D02*
X0156940Y0101087D01*
X0156248Y0099888D02*
X0164300Y0099888D01*
X0164300Y0098690D02*
X0155433Y0098690D01*
X0154234Y0097491D02*
X0164300Y0097491D01*
X0164300Y0096293D02*
X0153036Y0096293D01*
X0151704Y0095094D02*
X0164300Y0095094D01*
X0164300Y0093896D02*
X0149628Y0093896D01*
X0147552Y0092697D02*
X0164300Y0092697D01*
X0164300Y0091499D02*
X0143162Y0091499D01*
X0142775Y0096293D02*
X0068736Y0096293D01*
X0066104Y0097491D02*
X0146394Y0097491D01*
X0148470Y0098690D02*
X0064574Y0098690D01*
X0063703Y0099888D02*
X0067216Y0099888D01*
X0066018Y0101087D02*
X0063865Y0101087D01*
X0069400Y0101087D02*
X0070200Y0101087D01*
X0070200Y0102285D02*
X0069400Y0102285D01*
X0069400Y0103484D02*
X0070200Y0103484D01*
X0070200Y0104682D02*
X0153553Y0104682D01*
X0154079Y0105881D02*
X0075100Y0105881D01*
X0075016Y0107079D02*
X0154400Y0107079D01*
X0154721Y0108278D02*
X0143504Y0108278D01*
X0145272Y0109476D02*
X0154987Y0109476D01*
X0155066Y0110675D02*
X0146704Y0110675D01*
X0147575Y0111873D02*
X0155100Y0111873D01*
X0155100Y0113072D02*
X0148445Y0113072D01*
X0148839Y0114270D02*
X0155100Y0114270D01*
X0155100Y0115469D02*
X0149407Y0115469D01*
X0150274Y0116668D02*
X0155100Y0116668D01*
X0155100Y0117866D02*
X0150550Y0117866D01*
X0150385Y0119065D02*
X0155100Y0119065D01*
X0155100Y0120263D02*
X0149675Y0120263D01*
X0144725Y0120263D02*
X0095700Y0120263D01*
X0095700Y0119065D02*
X0144015Y0119065D01*
X0143850Y0117866D02*
X0095633Y0117866D01*
X0095137Y0116668D02*
X0144126Y0116668D01*
X0144313Y0115469D02*
X0094627Y0115469D01*
X0093429Y0114270D02*
X0143538Y0114270D01*
X0142267Y0113072D02*
X0091553Y0113072D01*
X0095700Y0121462D02*
X0138201Y0121462D01*
X0137329Y0122660D02*
X0095807Y0122660D01*
X0096514Y0123859D02*
X0131830Y0123859D01*
X0134170Y0123859D02*
X0137050Y0123859D01*
X0137212Y0125057D02*
X0135795Y0125057D01*
X0136318Y0126256D02*
X0137617Y0126256D01*
X0137026Y0127454D02*
X0136350Y0127454D01*
X0136119Y0128653D02*
X0135941Y0128653D01*
X0140198Y0131050D02*
X0155100Y0131050D01*
X0155100Y0129851D02*
X0141069Y0129851D01*
X0141759Y0128653D02*
X0155100Y0128653D01*
X0155100Y0127454D02*
X0142149Y0127454D01*
X0142882Y0126256D02*
X0155100Y0126256D01*
X0155100Y0125057D02*
X0143588Y0125057D01*
X0143750Y0123859D02*
X0155100Y0123859D01*
X0155100Y0122660D02*
X0143471Y0122660D01*
X0142599Y0121462D02*
X0155100Y0121462D01*
X0155372Y0132248D02*
X0139132Y0132248D01*
X0137482Y0133447D02*
X0155762Y0133447D01*
X0156374Y0134645D02*
X0134758Y0134645D01*
X0157245Y0135844D02*
X0051100Y0135844D01*
X0051100Y0137042D02*
X0158551Y0137042D01*
X0160561Y0138241D02*
X0079527Y0138241D01*
X0077273Y0138241D02*
X0051100Y0138241D01*
X0051100Y0139439D02*
X0075623Y0139439D01*
X0075090Y0140638D02*
X0051100Y0140638D01*
X0051100Y0141836D02*
X0075050Y0141836D01*
X0075451Y0143035D02*
X0051100Y0143035D01*
X0051100Y0144233D02*
X0076496Y0144233D01*
X0080304Y0144233D02*
X0171696Y0144233D01*
X0174650Y0145432D02*
X0051100Y0145432D01*
X0051100Y0146630D02*
X0174966Y0146630D01*
X0175700Y0147829D02*
X0051100Y0147829D01*
X0051100Y0149027D02*
X0175700Y0149027D01*
X0175700Y0150226D02*
X0051100Y0150226D01*
X0051100Y0151424D02*
X0175700Y0151424D01*
X0175700Y0152623D02*
X0051100Y0152623D01*
X0051100Y0153821D02*
X0175700Y0153821D01*
X0175700Y0155020D02*
X0051100Y0155020D01*
X0051100Y0156218D02*
X0175700Y0156218D01*
X0175700Y0157417D02*
X0051100Y0157417D01*
X0051100Y0158615D02*
X0175700Y0158615D01*
X0175700Y0159814D02*
X0051100Y0159814D01*
X0051100Y0161012D02*
X0175700Y0161012D01*
X0175700Y0162211D02*
X0051100Y0162211D01*
X0051100Y0163409D02*
X0175700Y0163409D01*
X0175700Y0164608D02*
X0051100Y0164608D01*
X0051100Y0165806D02*
X0175700Y0165806D01*
X0175700Y0167005D02*
X0051100Y0167005D01*
X0051100Y0168203D02*
X0175700Y0168203D01*
X0175700Y0169402D02*
X0051100Y0169402D01*
X0051100Y0170601D02*
X0175700Y0170601D01*
X0175700Y0171799D02*
X0051100Y0171799D01*
X0051100Y0172998D02*
X0175700Y0172998D01*
X0175700Y0174196D02*
X0051100Y0174196D01*
X0051100Y0175395D02*
X0175622Y0175395D01*
X0175127Y0176593D02*
X0051100Y0176593D01*
X0051119Y0177792D02*
X0174095Y0177792D01*
X0177117Y0181387D02*
X0227100Y0181387D01*
X0227100Y0180189D02*
X0178315Y0180189D01*
X0179198Y0178990D02*
X0227100Y0178990D01*
X0227100Y0177792D02*
X0179695Y0177792D01*
X0180191Y0176593D02*
X0227100Y0176593D01*
X0227100Y0175395D02*
X0180300Y0175395D01*
X0180300Y0174196D02*
X0227100Y0174196D01*
X0227100Y0172998D02*
X0180300Y0172998D01*
X0180300Y0171799D02*
X0227100Y0171799D01*
X0227100Y0170601D02*
X0180300Y0170601D01*
X0180300Y0169402D02*
X0227100Y0169402D01*
X0227100Y0168203D02*
X0218534Y0168203D01*
X0218298Y0168440D02*
X0217066Y0168950D01*
X0215734Y0168950D01*
X0214502Y0168440D01*
X0213560Y0167498D01*
X0213050Y0166266D01*
X0213050Y0164934D01*
X0213560Y0163702D01*
X0213668Y0163594D01*
X0213479Y0163012D01*
X0212430Y0161569D01*
X0210988Y0160521D01*
X0209292Y0159970D01*
X0208400Y0159900D01*
X0195638Y0159900D01*
X0195098Y0160440D01*
X0193866Y0160950D01*
X0192534Y0160950D01*
X0191302Y0160440D01*
X0190360Y0159498D01*
X0189850Y0158266D01*
X0189850Y0156934D01*
X0190360Y0155702D01*
X0191302Y0154760D01*
X0192534Y0154250D01*
X0193866Y0154250D01*
X0195098Y0154760D01*
X0195638Y0155300D01*
X0210031Y0155300D01*
X0213134Y0156308D01*
X0213134Y0156308D01*
X0215774Y0158226D01*
X0217692Y0160866D01*
X0218312Y0162774D01*
X0219240Y0163702D01*
X0219750Y0164934D01*
X0219750Y0166266D01*
X0219240Y0167498D01*
X0218298Y0168440D01*
X0219444Y0167005D02*
X0227100Y0167005D01*
X0227100Y0165806D02*
X0219750Y0165806D01*
X0219615Y0164608D02*
X0227100Y0164608D01*
X0226872Y0163409D02*
X0218947Y0163409D01*
X0218129Y0162211D02*
X0226193Y0162211D01*
X0226050Y0161012D02*
X0217739Y0161012D01*
X0217692Y0160866D02*
X0217692Y0160866D01*
X0216928Y0159814D02*
X0226348Y0159814D01*
X0227100Y0158615D02*
X0216057Y0158615D01*
X0215774Y0158226D02*
X0215774Y0158226D01*
X0215774Y0158226D01*
X0214660Y0157417D02*
X0227100Y0157417D01*
X0227100Y0156218D02*
X0212858Y0156218D01*
X0211664Y0161012D02*
X0180300Y0161012D01*
X0180300Y0159814D02*
X0190676Y0159814D01*
X0189995Y0158615D02*
X0180300Y0158615D01*
X0180300Y0157417D02*
X0189850Y0157417D01*
X0190146Y0156218D02*
X0180300Y0156218D01*
X0180300Y0155020D02*
X0191043Y0155020D01*
X0195357Y0155020D02*
X0227100Y0155020D01*
X0227100Y0153821D02*
X0180300Y0153821D01*
X0180300Y0152623D02*
X0227100Y0152623D01*
X0227100Y0151424D02*
X0180300Y0151424D01*
X0180300Y0150226D02*
X0227100Y0150226D01*
X0227100Y0149027D02*
X0180300Y0149027D01*
X0180300Y0147829D02*
X0227100Y0147829D01*
X0227100Y0146630D02*
X0181034Y0146630D01*
X0181350Y0145432D02*
X0227100Y0145432D01*
X0227100Y0144233D02*
X0181226Y0144233D01*
X0180572Y0143035D02*
X0227100Y0143035D01*
X0227100Y0141836D02*
X0176950Y0141836D01*
X0176910Y0140638D02*
X0227100Y0140638D01*
X0226969Y0139439D02*
X0176377Y0139439D01*
X0174727Y0138241D02*
X0226569Y0138241D01*
X0225676Y0137042D02*
X0171350Y0137042D01*
X0171313Y0135844D02*
X0174306Y0135844D01*
X0172473Y0138241D02*
X0170946Y0138241D01*
X0170783Y0134645D02*
X0171406Y0134645D01*
X0166859Y0133447D02*
X0161518Y0133447D01*
X0178894Y0135844D02*
X0223399Y0135844D01*
X0239399Y0126256D02*
X0250224Y0126256D01*
X0249196Y0125057D02*
X0178100Y0125057D01*
X0178100Y0123859D02*
X0249196Y0123859D01*
X0249940Y0122660D02*
X0178100Y0122660D01*
X0178100Y0121462D02*
X0250797Y0121462D01*
X0250990Y0120263D02*
X0178100Y0120263D01*
X0178100Y0119065D02*
X0250797Y0119065D01*
X0251179Y0117866D02*
X0178100Y0117866D01*
X0178100Y0116668D02*
X0250797Y0116668D01*
X0250797Y0115469D02*
X0178100Y0115469D01*
X0178100Y0114270D02*
X0251572Y0114270D01*
X0258426Y0114270D02*
X0259106Y0114270D01*
X0259106Y0113072D02*
X0178100Y0113072D01*
X0164300Y0090300D02*
X0050100Y0090300D01*
X0050100Y0089102D02*
X0164300Y0089102D01*
X0164300Y0087903D02*
X0050100Y0087903D01*
X0050100Y0086705D02*
X0164300Y0086705D01*
X0164300Y0085506D02*
X0050100Y0085506D01*
X0050100Y0084308D02*
X0164300Y0084308D01*
X0164300Y0083109D02*
X0050100Y0083109D01*
X0050100Y0081911D02*
X0164300Y0081911D01*
X0164300Y0080712D02*
X0050100Y0080712D01*
X0050100Y0079514D02*
X0164300Y0079514D01*
X0164300Y0078315D02*
X0050100Y0078315D01*
X0050100Y0077117D02*
X0164300Y0077117D01*
X0164300Y0075918D02*
X0050797Y0075918D01*
X0050640Y0076298D02*
X0051150Y0075066D01*
X0051150Y0073734D01*
X0050640Y0072502D01*
X0049698Y0071560D01*
X0048466Y0071050D01*
X0047134Y0071050D01*
X0045902Y0071560D01*
X0044960Y0072502D01*
X0044450Y0073734D01*
X0044450Y0075066D01*
X0044960Y0076298D01*
X0045500Y0076838D01*
X0045500Y0096562D01*
X0044960Y0097102D01*
X0044450Y0098334D01*
X0044450Y0099666D01*
X0044960Y0100898D01*
X0045902Y0101840D01*
X0047134Y0102350D01*
X0048466Y0102350D01*
X0049698Y0101840D01*
X0050640Y0100898D01*
X0051150Y0099666D01*
X0051150Y0098334D01*
X0050640Y0097102D01*
X0050100Y0096562D01*
X0050100Y0076838D01*
X0050640Y0076298D01*
X0051150Y0074720D02*
X0164300Y0074720D01*
X0164300Y0073521D02*
X0051062Y0073521D01*
X0050460Y0072323D02*
X0164300Y0072323D01*
X0164300Y0071124D02*
X0048645Y0071124D01*
X0046955Y0071124D02*
X0006800Y0071124D01*
X0006800Y0069926D02*
X0164300Y0069926D01*
X0164300Y0068727D02*
X0006800Y0068727D01*
X0006800Y0067529D02*
X0164300Y0067529D01*
X0164300Y0066330D02*
X0006800Y0066330D01*
X0006800Y0065132D02*
X0164300Y0065132D01*
X0164300Y0063933D02*
X0006800Y0063933D01*
X0006800Y0062734D02*
X0164300Y0062734D01*
X0164300Y0061536D02*
X0006800Y0061536D01*
X0006800Y0060337D02*
X0164300Y0060337D01*
X0164300Y0059139D02*
X0006800Y0059139D01*
X0006800Y0057940D02*
X0164300Y0057940D01*
X0164300Y0056742D02*
X0006800Y0056742D01*
X0006800Y0055543D02*
X0164300Y0055543D01*
X0164300Y0054345D02*
X0006800Y0054345D01*
X0006800Y0053146D02*
X0164300Y0053146D01*
X0164300Y0051948D02*
X0006800Y0051948D01*
X0006800Y0050749D02*
X0164300Y0050749D01*
X0164300Y0049551D02*
X0006800Y0049551D01*
X0006800Y0048352D02*
X0164300Y0048352D01*
X0164300Y0047154D02*
X0006800Y0047154D01*
X0006800Y0045955D02*
X0164300Y0045955D01*
X0164300Y0044757D02*
X0082190Y0044757D01*
X0084301Y0043558D02*
X0164300Y0043558D01*
X0164300Y0042360D02*
X0085272Y0042360D01*
X0085769Y0041161D02*
X0164300Y0041161D01*
X0164300Y0039963D02*
X0085850Y0039963D01*
X0085850Y0038764D02*
X0164300Y0038764D01*
X0164300Y0037566D02*
X0085850Y0037566D01*
X0085850Y0036367D02*
X0164300Y0036367D01*
X0164300Y0035169D02*
X0085850Y0035169D01*
X0048490Y0035169D02*
X0006800Y0035169D01*
X0006800Y0036367D02*
X0046274Y0036367D01*
X0045259Y0037566D02*
X0006800Y0037566D01*
X0006800Y0038764D02*
X0044762Y0038764D01*
X0044650Y0039963D02*
X0006800Y0039963D01*
X0006800Y0041161D02*
X0044731Y0041161D01*
X0045228Y0042360D02*
X0006800Y0042360D01*
X0006800Y0043558D02*
X0046199Y0043558D01*
X0048310Y0044757D02*
X0006800Y0044757D01*
X0006800Y0072323D02*
X0045140Y0072323D01*
X0044538Y0073521D02*
X0006800Y0073521D01*
X0006800Y0074720D02*
X0044450Y0074720D01*
X0044803Y0075918D02*
X0006800Y0075918D01*
X0006800Y0077117D02*
X0045500Y0077117D01*
X0045500Y0078315D02*
X0006800Y0078315D01*
X0006800Y0079514D02*
X0045500Y0079514D01*
X0045500Y0080712D02*
X0023677Y0080712D01*
X0025063Y0081911D02*
X0045500Y0081911D01*
X0045500Y0083109D02*
X0025881Y0083109D01*
X0026377Y0084308D02*
X0045500Y0084308D01*
X0045500Y0085506D02*
X0037075Y0085506D01*
X0038883Y0086705D02*
X0045500Y0086705D01*
X0045500Y0087903D02*
X0039836Y0087903D01*
X0040333Y0089102D02*
X0045500Y0089102D01*
X0045500Y0090300D02*
X0040500Y0090300D01*
X0040500Y0091499D02*
X0045500Y0091499D01*
X0045500Y0092697D02*
X0040084Y0092697D01*
X0039482Y0093896D02*
X0045500Y0093896D01*
X0045500Y0095094D02*
X0038284Y0095094D01*
X0038471Y0096293D02*
X0045500Y0096293D01*
X0044799Y0097491D02*
X0039665Y0097491D01*
X0040162Y0098690D02*
X0044450Y0098690D01*
X0044542Y0099888D02*
X0042358Y0099888D01*
X0044434Y0101087D02*
X0045149Y0101087D01*
X0045889Y0102285D02*
X0046978Y0102285D01*
X0047087Y0103484D02*
X0054300Y0103484D01*
X0054300Y0104682D02*
X0048149Y0104682D01*
X0048841Y0105881D02*
X0054300Y0105881D01*
X0054301Y0107079D02*
X0049533Y0107079D01*
X0050121Y0108278D02*
X0055500Y0108278D01*
X0056698Y0109476D02*
X0050442Y0109476D01*
X0050763Y0110675D02*
X0056147Y0110675D01*
X0054948Y0111873D02*
X0051084Y0111873D01*
X0051100Y0113072D02*
X0054300Y0113072D01*
X0054300Y0114270D02*
X0051100Y0114270D01*
X0051100Y0115469D02*
X0054300Y0115469D01*
X0054300Y0116668D02*
X0051100Y0116668D01*
X0051100Y0117866D02*
X0055088Y0117866D01*
X0056286Y0119065D02*
X0051100Y0119065D01*
X0051100Y0120263D02*
X0056559Y0120263D01*
X0055360Y0121462D02*
X0051100Y0121462D01*
X0051100Y0122660D02*
X0054300Y0122660D01*
X0054300Y0123859D02*
X0051100Y0123859D01*
X0051100Y0125057D02*
X0054300Y0125057D01*
X0054300Y0126256D02*
X0051100Y0126256D01*
X0051100Y0127454D02*
X0054676Y0127454D01*
X0055874Y0128653D02*
X0051100Y0128653D01*
X0051100Y0129851D02*
X0057073Y0129851D01*
X0058112Y0131050D02*
X0051100Y0131050D01*
X0051100Y0132248D02*
X0058690Y0132248D01*
X0059889Y0133447D02*
X0051100Y0133447D01*
X0051100Y0134645D02*
X0061929Y0134645D01*
X0041300Y0134645D02*
X0038449Y0134645D01*
X0039483Y0133447D02*
X0041300Y0133447D01*
X0041300Y0132248D02*
X0040037Y0132248D01*
X0040295Y0131050D02*
X0041300Y0131050D01*
X0041300Y0129851D02*
X0040247Y0129851D01*
X0039940Y0128653D02*
X0041300Y0128653D01*
X0041300Y0127454D02*
X0039266Y0127454D01*
X0038037Y0126256D02*
X0041300Y0126256D01*
X0041300Y0125057D02*
X0038321Y0125057D01*
X0039520Y0123859D02*
X0041300Y0123859D01*
X0041300Y0122660D02*
X0040100Y0122660D01*
X0040500Y0121462D02*
X0041300Y0121462D01*
X0041300Y0120263D02*
X0040500Y0120263D01*
X0040317Y0119065D02*
X0041289Y0119065D01*
X0041109Y0117866D02*
X0039821Y0117866D01*
X0040720Y0116668D02*
X0038846Y0116668D01*
X0039981Y0115469D02*
X0037617Y0115469D01*
X0032383Y0115469D02*
X0026485Y0115469D01*
X0026485Y0114270D02*
X0030892Y0114270D01*
X0030071Y0113072D02*
X0026485Y0113072D01*
X0026485Y0111873D02*
X0029574Y0111873D01*
X0029500Y0110675D02*
X0026485Y0110675D01*
X0026485Y0109476D02*
X0029512Y0109476D01*
X0030009Y0108278D02*
X0026485Y0108278D01*
X0026485Y0107079D02*
X0030742Y0107079D01*
X0032021Y0105881D02*
X0026485Y0105881D01*
X0026485Y0104682D02*
X0031304Y0104682D01*
X0030241Y0103484D02*
X0026485Y0103484D01*
X0026485Y0102285D02*
X0029745Y0102285D01*
X0029500Y0101087D02*
X0026485Y0101087D01*
X0026485Y0099888D02*
X0029500Y0099888D01*
X0029838Y0098690D02*
X0026485Y0098690D01*
X0026485Y0097491D02*
X0030334Y0097491D01*
X0031529Y0096293D02*
X0026485Y0096293D01*
X0026485Y0095094D02*
X0031716Y0095094D01*
X0030518Y0093896D02*
X0026485Y0093896D01*
X0026485Y0092697D02*
X0029916Y0092697D01*
X0029500Y0091499D02*
X0026485Y0091499D01*
X0026485Y0090300D02*
X0029500Y0090300D01*
X0029667Y0089102D02*
X0026485Y0089102D01*
X0026485Y0087903D02*
X0030164Y0087903D01*
X0031117Y0086705D02*
X0026485Y0086705D01*
X0026485Y0085506D02*
X0032925Y0085506D01*
X0050100Y0091499D02*
X0068250Y0091499D01*
X0064690Y0092697D02*
X0050100Y0092697D01*
X0050100Y0093896D02*
X0063041Y0093896D01*
X0061391Y0095094D02*
X0050100Y0095094D01*
X0050100Y0096293D02*
X0060494Y0096293D01*
X0059623Y0097491D02*
X0050801Y0097491D01*
X0051150Y0098690D02*
X0058791Y0098690D01*
X0056933Y0099888D02*
X0051058Y0099888D01*
X0050451Y0101087D02*
X0055735Y0101087D01*
X0054536Y0102285D02*
X0048622Y0102285D01*
X0031154Y0116668D02*
X0026485Y0116668D01*
X0026485Y0117866D02*
X0030179Y0117866D01*
X0029683Y0119065D02*
X0026485Y0119065D01*
X0026485Y0120263D02*
X0029500Y0120263D01*
X0029500Y0121462D02*
X0026485Y0121462D01*
X0026485Y0122660D02*
X0029900Y0122660D01*
X0030480Y0123859D02*
X0026485Y0123859D01*
X0026485Y0125057D02*
X0031679Y0125057D01*
X0031963Y0126256D02*
X0026485Y0126256D01*
X0026485Y0127454D02*
X0030734Y0127454D01*
X0030060Y0128653D02*
X0026485Y0128653D01*
X0026485Y0129851D02*
X0029753Y0129851D01*
X0029705Y0131050D02*
X0026485Y0131050D01*
X0026485Y0132248D02*
X0029963Y0132248D01*
X0030517Y0133447D02*
X0026485Y0133447D01*
X0026485Y0134645D02*
X0031551Y0134645D01*
X0032661Y0135844D02*
X0026485Y0135844D01*
X0026485Y0137042D02*
X0031062Y0137042D01*
X0030254Y0138241D02*
X0026485Y0138241D01*
X0026485Y0139439D02*
X0029818Y0139439D01*
X0029830Y0141836D02*
X0026485Y0141836D01*
X0026485Y0140638D02*
X0034600Y0140638D01*
X0035400Y0140638D02*
X0041300Y0140638D01*
X0040300Y0141000D02*
X0040300Y0141017D01*
X0040169Y0141841D01*
X0039912Y0142634D01*
X0039533Y0143378D01*
X0039043Y0144053D01*
X0038453Y0144643D01*
X0037778Y0145133D01*
X0037034Y0145512D01*
X0036241Y0145769D01*
X0035417Y0145900D01*
X0035400Y0145900D01*
X0035400Y0141000D01*
X0040300Y0141000D01*
X0040170Y0141836D02*
X0041300Y0141836D01*
X0041300Y0143035D02*
X0039708Y0143035D01*
X0038862Y0144233D02*
X0040829Y0144233D01*
X0040292Y0145432D02*
X0037191Y0145432D01*
X0035400Y0145432D02*
X0034600Y0145432D01*
X0034600Y0144233D02*
X0035400Y0144233D01*
X0035400Y0143035D02*
X0034600Y0143035D01*
X0034600Y0141836D02*
X0035400Y0141836D01*
X0035400Y0139439D02*
X0034600Y0139439D01*
X0034600Y0138241D02*
X0035400Y0138241D01*
X0035400Y0137042D02*
X0034600Y0137042D01*
X0034600Y0135844D02*
X0035400Y0135844D01*
X0035400Y0134645D02*
X0034600Y0134645D01*
X0034600Y0133447D02*
X0035400Y0133447D01*
X0035400Y0132248D02*
X0034600Y0132248D01*
X0034600Y0131050D02*
X0035400Y0131050D01*
X0037339Y0135844D02*
X0041300Y0135844D01*
X0041300Y0137042D02*
X0038938Y0137042D01*
X0039746Y0138241D02*
X0041300Y0138241D01*
X0041300Y0139439D02*
X0040182Y0139439D01*
X0040250Y0146630D02*
X0026185Y0146630D01*
X0026485Y0145432D02*
X0032809Y0145432D01*
X0031138Y0144233D02*
X0026485Y0144233D01*
X0026485Y0143035D02*
X0030292Y0143035D01*
X0025688Y0147829D02*
X0040649Y0147829D01*
X0041300Y0149027D02*
X0024598Y0149027D01*
X0022553Y0150226D02*
X0041300Y0150226D01*
X0041300Y0151424D02*
X0006800Y0151424D01*
X0006800Y0152623D02*
X0041300Y0152623D01*
X0041300Y0153821D02*
X0006800Y0153821D01*
X0006800Y0155020D02*
X0041300Y0155020D01*
X0041300Y0156218D02*
X0006800Y0156218D01*
X0006800Y0157417D02*
X0041300Y0157417D01*
X0041300Y0158615D02*
X0006800Y0158615D01*
X0006800Y0159814D02*
X0041300Y0159814D01*
X0041300Y0161012D02*
X0006800Y0161012D01*
X0006800Y0162211D02*
X0041300Y0162211D01*
X0041300Y0163409D02*
X0006800Y0163409D01*
X0006800Y0164608D02*
X0041300Y0164608D01*
X0041300Y0165806D02*
X0006800Y0165806D01*
X0006800Y0167005D02*
X0041300Y0167005D01*
X0041300Y0168203D02*
X0006800Y0168203D01*
X0006800Y0169402D02*
X0041300Y0169402D01*
X0041300Y0170601D02*
X0006800Y0170601D01*
X0006800Y0171799D02*
X0041300Y0171799D01*
X0041300Y0172998D02*
X0006800Y0172998D01*
X0006800Y0174196D02*
X0041300Y0174196D01*
X0041300Y0175395D02*
X0006800Y0175395D01*
X0006800Y0176593D02*
X0041300Y0176593D01*
X0041300Y0177792D02*
X0006800Y0177792D01*
X0006800Y0178990D02*
X0041300Y0178990D01*
X0041300Y0180189D02*
X0006800Y0180189D01*
X0006800Y0181387D02*
X0041300Y0181387D01*
X0041521Y0182586D02*
X0006800Y0182586D01*
X0006800Y0183784D02*
X0042017Y0183784D01*
X0042659Y0184983D02*
X0006800Y0184983D01*
X0006800Y0186181D02*
X0043857Y0186181D01*
X0045892Y0187380D02*
X0006800Y0187380D01*
X0006800Y0188578D02*
X0060452Y0188578D01*
X0060700Y0189777D02*
X0006800Y0189777D01*
X0006800Y0190975D02*
X0060700Y0190975D01*
X0060700Y0192174D02*
X0006800Y0192174D01*
X0006800Y0193372D02*
X0060700Y0193372D01*
X0060700Y0194571D02*
X0006800Y0194571D01*
X0006800Y0195769D02*
X0060700Y0195769D01*
X0060700Y0196968D02*
X0006800Y0196968D01*
X0006800Y0198166D02*
X0060700Y0198166D01*
X0060700Y0199365D02*
X0006800Y0199365D01*
X0006800Y0200563D02*
X0060700Y0200563D01*
X0060700Y0201762D02*
X0059375Y0201762D01*
X0056531Y0201762D02*
X0049375Y0201762D01*
X0051433Y0202960D02*
X0054473Y0202960D01*
X0053482Y0204159D02*
X0052423Y0204159D01*
X0052920Y0205357D02*
X0052986Y0205357D01*
X0055350Y0211135D02*
X0055300Y0211646D01*
X0055300Y0212564D01*
X0055385Y0212502D01*
X0056072Y0212152D01*
X0056805Y0211914D01*
X0057567Y0211793D01*
X0057667Y0211793D01*
X0057667Y0216407D01*
X0058239Y0216407D01*
X0058239Y0211793D01*
X0058338Y0211793D01*
X0059100Y0211914D01*
X0059834Y0212152D01*
X0060521Y0212502D01*
X0060700Y0212632D01*
X0060700Y0211075D01*
X0058967Y0211793D01*
X0056938Y0211793D01*
X0055350Y0211135D01*
X0055329Y0211350D02*
X0055869Y0211350D01*
X0055321Y0212548D02*
X0055300Y0212548D01*
X0057667Y0212548D02*
X0058239Y0212548D01*
X0058239Y0213747D02*
X0057667Y0213747D01*
X0057667Y0214945D02*
X0058239Y0214945D01*
X0058239Y0216144D02*
X0057667Y0216144D01*
X0060585Y0212548D02*
X0060700Y0212548D01*
X0060700Y0211350D02*
X0060037Y0211350D01*
X0046531Y0201762D02*
X0039375Y0201762D01*
X0041433Y0202960D02*
X0044473Y0202960D01*
X0043482Y0204159D02*
X0042423Y0204159D01*
X0042920Y0205357D02*
X0042986Y0205357D01*
X0036531Y0201762D02*
X0006800Y0201762D01*
X0006800Y0202960D02*
X0034473Y0202960D01*
X0033482Y0204159D02*
X0006800Y0204159D01*
X0006800Y0205357D02*
X0014968Y0205357D01*
X0014638Y0205494D02*
X0017325Y0204381D01*
X0020234Y0204381D01*
X0022921Y0205494D01*
X0024978Y0207551D01*
X0026091Y0210238D01*
X0026091Y0213147D01*
X0024978Y0215835D01*
X0022921Y0217892D01*
X0020234Y0219005D01*
X0017325Y0219005D01*
X0014638Y0217892D01*
X0012581Y0215835D01*
X0011468Y0213147D01*
X0011468Y0210238D01*
X0012581Y0207551D01*
X0014638Y0205494D01*
X0013576Y0206556D02*
X0006800Y0206556D01*
X0006800Y0207754D02*
X0012497Y0207754D01*
X0012000Y0208953D02*
X0006800Y0208953D01*
X0006800Y0210151D02*
X0011504Y0210151D01*
X0011468Y0211350D02*
X0006800Y0211350D01*
X0006800Y0212548D02*
X0011468Y0212548D01*
X0011716Y0213747D02*
X0006800Y0213747D01*
X0006800Y0214945D02*
X0012213Y0214945D01*
X0012890Y0216144D02*
X0006840Y0216144D01*
X0006971Y0217342D02*
X0014089Y0217342D01*
X0016206Y0218541D02*
X0007360Y0218541D01*
X0007750Y0219739D02*
X0033787Y0219739D01*
X0033198Y0218541D02*
X0021354Y0218541D01*
X0023470Y0217342D02*
X0032853Y0217342D01*
X0032853Y0216144D02*
X0024669Y0216144D01*
X0025347Y0214945D02*
X0033156Y0214945D01*
X0033686Y0213747D02*
X0025843Y0213747D01*
X0026091Y0212548D02*
X0034885Y0212548D01*
X0035869Y0211350D02*
X0026091Y0211350D01*
X0026055Y0210151D02*
X0034199Y0210151D01*
X0033369Y0208953D02*
X0025559Y0208953D01*
X0025062Y0207754D02*
X0032872Y0207754D01*
X0032853Y0206556D02*
X0023983Y0206556D01*
X0022591Y0205357D02*
X0032986Y0205357D01*
X0034985Y0220938D02*
X0008446Y0220938D01*
X0009316Y0222137D02*
X0041249Y0222137D01*
X0041745Y0223335D02*
X0010594Y0223335D01*
X0012244Y0224534D02*
X0042678Y0224534D01*
X0075500Y0211350D02*
X0076429Y0211350D01*
X0077667Y0211350D02*
X0078239Y0211350D01*
X0078239Y0210151D02*
X0077667Y0210151D01*
X0077667Y0208953D02*
X0078239Y0208953D01*
X0078239Y0207754D02*
X0077667Y0207754D01*
X0078239Y0206556D02*
X0082853Y0206556D01*
X0082872Y0207754D02*
X0082746Y0207754D01*
X0082301Y0208953D02*
X0083369Y0208953D01*
X0084199Y0210151D02*
X0081424Y0210151D01*
X0079477Y0211350D02*
X0085869Y0211350D01*
X0084885Y0212548D02*
X0081021Y0212548D01*
X0082219Y0213747D02*
X0083686Y0213747D01*
X0083156Y0214945D02*
X0082749Y0214945D01*
X0089209Y0211693D02*
X0090842Y0212369D01*
X0092276Y0213804D01*
X0093053Y0215678D01*
X0093053Y0217707D01*
X0092276Y0219582D01*
X0091758Y0220100D01*
X0094430Y0220100D01*
X0094215Y0219885D01*
X0093762Y0219261D01*
X0093412Y0218574D01*
X0093173Y0217840D01*
X0093053Y0217079D01*
X0093053Y0216979D01*
X0097667Y0216979D01*
X0097667Y0216407D01*
X0098239Y0216407D01*
X0098239Y0216979D01*
X0102853Y0216979D01*
X0102853Y0217079D01*
X0102732Y0217840D01*
X0102494Y0218574D01*
X0102144Y0219261D01*
X0101690Y0219885D01*
X0101475Y0220100D01*
X0104147Y0220100D01*
X0103629Y0219582D01*
X0102853Y0217707D01*
X0102853Y0215678D01*
X0103629Y0213804D01*
X0105064Y0212369D01*
X0106697Y0211693D01*
X0105064Y0211016D01*
X0103629Y0209582D01*
X0102953Y0207949D01*
X0102276Y0209582D01*
X0100842Y0211016D01*
X0098967Y0211793D01*
X0096938Y0211793D01*
X0095064Y0211016D01*
X0093629Y0209582D01*
X0092953Y0207949D01*
X0092276Y0209582D01*
X0090842Y0211016D01*
X0089209Y0211693D01*
X0090037Y0211350D02*
X0095869Y0211350D01*
X0096072Y0212152D02*
X0096805Y0211914D01*
X0097567Y0211793D01*
X0097667Y0211793D01*
X0097667Y0216407D01*
X0093053Y0216407D01*
X0093053Y0216307D01*
X0093173Y0215545D01*
X0093412Y0214812D01*
X0093762Y0214125D01*
X0094215Y0213501D01*
X0094761Y0212955D01*
X0095385Y0212502D01*
X0096072Y0212152D01*
X0095321Y0212548D02*
X0091021Y0212548D01*
X0092219Y0213747D02*
X0094036Y0213747D01*
X0093368Y0214945D02*
X0092749Y0214945D01*
X0093053Y0216144D02*
X0093079Y0216144D01*
X0093053Y0217342D02*
X0093095Y0217342D01*
X0093401Y0218541D02*
X0092707Y0218541D01*
X0092119Y0219739D02*
X0094109Y0219739D01*
X0097667Y0216144D02*
X0098239Y0216144D01*
X0098239Y0216407D02*
X0098239Y0211793D01*
X0098338Y0211793D01*
X0099100Y0211914D01*
X0099834Y0212152D01*
X0100521Y0212502D01*
X0101145Y0212955D01*
X0101690Y0213501D01*
X0102144Y0214125D01*
X0102494Y0214812D01*
X0102732Y0215545D01*
X0102853Y0216307D01*
X0102853Y0216407D01*
X0098239Y0216407D01*
X0098239Y0214945D02*
X0097667Y0214945D01*
X0097667Y0213747D02*
X0098239Y0213747D01*
X0098239Y0212548D02*
X0097667Y0212548D01*
X0100037Y0211350D02*
X0105869Y0211350D01*
X0104885Y0212548D02*
X0100585Y0212548D01*
X0101869Y0213747D02*
X0103686Y0213747D01*
X0103156Y0214945D02*
X0102537Y0214945D01*
X0102827Y0216144D02*
X0102853Y0216144D01*
X0102811Y0217342D02*
X0102853Y0217342D01*
X0103198Y0218541D02*
X0102504Y0218541D01*
X0101796Y0219739D02*
X0103787Y0219739D01*
X0104199Y0210151D02*
X0101707Y0210151D01*
X0102537Y0208953D02*
X0103369Y0208953D01*
X0102986Y0205357D02*
X0102920Y0205357D01*
X0102423Y0204159D02*
X0103482Y0204159D01*
X0104473Y0202960D02*
X0101433Y0202960D01*
X0099375Y0201762D02*
X0106531Y0201762D01*
X0109375Y0201762D02*
X0116531Y0201762D01*
X0114473Y0202960D02*
X0111433Y0202960D01*
X0112423Y0204159D02*
X0113482Y0204159D01*
X0112986Y0205357D02*
X0112920Y0205357D01*
X0119375Y0201762D02*
X0126531Y0201762D01*
X0124473Y0202960D02*
X0121433Y0202960D01*
X0122423Y0204159D02*
X0123482Y0204159D01*
X0122986Y0205357D02*
X0122920Y0205357D01*
X0122953Y0207949D02*
X0122276Y0209582D01*
X0120842Y0211016D01*
X0119209Y0211693D01*
X0120842Y0212369D01*
X0122276Y0213804D01*
X0123053Y0215678D01*
X0123053Y0217707D01*
X0122276Y0219582D01*
X0121758Y0220100D01*
X0124430Y0220100D01*
X0124215Y0219885D01*
X0123762Y0219261D01*
X0123412Y0218574D01*
X0123173Y0217840D01*
X0123053Y0217079D01*
X0123053Y0216979D01*
X0127667Y0216979D01*
X0127667Y0216407D01*
X0128239Y0216407D01*
X0128239Y0216979D01*
X0132853Y0216979D01*
X0132853Y0217079D01*
X0132732Y0217840D01*
X0132494Y0218574D01*
X0132144Y0219261D01*
X0131690Y0219885D01*
X0131475Y0220100D01*
X0134147Y0220100D01*
X0133629Y0219582D01*
X0132853Y0217707D01*
X0132853Y0215678D01*
X0133629Y0213804D01*
X0135064Y0212369D01*
X0136697Y0211693D01*
X0135064Y0211016D01*
X0133629Y0209582D01*
X0132953Y0207949D01*
X0132276Y0209582D01*
X0130842Y0211016D01*
X0128967Y0211793D01*
X0126938Y0211793D01*
X0125064Y0211016D01*
X0123629Y0209582D01*
X0122953Y0207949D01*
X0122537Y0208953D02*
X0123369Y0208953D01*
X0124199Y0210151D02*
X0121707Y0210151D01*
X0120037Y0211350D02*
X0125869Y0211350D01*
X0126072Y0212152D02*
X0126805Y0211914D01*
X0127567Y0211793D01*
X0127667Y0211793D01*
X0127667Y0216407D01*
X0123053Y0216407D01*
X0123053Y0216307D01*
X0123173Y0215545D01*
X0123412Y0214812D01*
X0123762Y0214125D01*
X0124215Y0213501D01*
X0124761Y0212955D01*
X0125385Y0212502D01*
X0126072Y0212152D01*
X0125321Y0212548D02*
X0121021Y0212548D01*
X0122219Y0213747D02*
X0124036Y0213747D01*
X0123368Y0214945D02*
X0122749Y0214945D01*
X0123053Y0216144D02*
X0123079Y0216144D01*
X0123053Y0217342D02*
X0123095Y0217342D01*
X0123401Y0218541D02*
X0122707Y0218541D01*
X0122119Y0219739D02*
X0124109Y0219739D01*
X0127667Y0216144D02*
X0128239Y0216144D01*
X0128239Y0216407D02*
X0128239Y0211793D01*
X0128338Y0211793D01*
X0129100Y0211914D01*
X0129834Y0212152D01*
X0130521Y0212502D01*
X0131145Y0212955D01*
X0131690Y0213501D01*
X0132144Y0214125D01*
X0132494Y0214812D01*
X0132732Y0215545D01*
X0132853Y0216307D01*
X0132853Y0216407D01*
X0128239Y0216407D01*
X0128239Y0214945D02*
X0127667Y0214945D01*
X0127667Y0213747D02*
X0128239Y0213747D01*
X0128239Y0212548D02*
X0127667Y0212548D01*
X0130037Y0211350D02*
X0135869Y0211350D01*
X0134885Y0212548D02*
X0130585Y0212548D01*
X0131869Y0213747D02*
X0133686Y0213747D01*
X0133156Y0214945D02*
X0132537Y0214945D01*
X0132827Y0216144D02*
X0132853Y0216144D01*
X0132811Y0217342D02*
X0132853Y0217342D01*
X0133198Y0218541D02*
X0132504Y0218541D01*
X0131796Y0219739D02*
X0133787Y0219739D01*
X0134199Y0210151D02*
X0131707Y0210151D01*
X0132537Y0208953D02*
X0133369Y0208953D01*
X0132986Y0205357D02*
X0132920Y0205357D01*
X0132423Y0204159D02*
X0133482Y0204159D01*
X0134473Y0202960D02*
X0131433Y0202960D01*
X0129375Y0201762D02*
X0136531Y0201762D01*
X0139375Y0201762D02*
X0146531Y0201762D01*
X0144473Y0202960D02*
X0141433Y0202960D01*
X0142423Y0204159D02*
X0143482Y0204159D01*
X0142986Y0205357D02*
X0142920Y0205357D01*
X0149375Y0201762D02*
X0166531Y0201762D01*
X0164473Y0202960D02*
X0161150Y0202960D01*
X0161145Y0202955D02*
X0161690Y0203501D01*
X0162144Y0204125D01*
X0162494Y0204812D01*
X0162732Y0205545D01*
X0162853Y0206307D01*
X0162853Y0206407D01*
X0158239Y0206407D01*
X0158239Y0206979D01*
X0162853Y0206979D01*
X0162853Y0207079D01*
X0162732Y0207840D01*
X0162494Y0208574D01*
X0162144Y0209261D01*
X0161690Y0209885D01*
X0161145Y0210430D01*
X0160521Y0210884D01*
X0159834Y0211234D01*
X0159100Y0211472D01*
X0158338Y0211593D01*
X0158239Y0211593D01*
X0158239Y0206979D01*
X0157667Y0206979D01*
X0157667Y0211593D01*
X0157567Y0211593D01*
X0156805Y0211472D01*
X0156072Y0211234D01*
X0155385Y0210884D01*
X0154761Y0210430D01*
X0154215Y0209885D01*
X0153762Y0209261D01*
X0153412Y0208574D01*
X0153173Y0207840D01*
X0153053Y0207079D01*
X0153053Y0206979D01*
X0157667Y0206979D01*
X0157667Y0206407D01*
X0158239Y0206407D01*
X0158239Y0201793D01*
X0158338Y0201793D01*
X0159100Y0201914D01*
X0159834Y0202152D01*
X0160521Y0202502D01*
X0161145Y0202955D01*
X0162161Y0204159D02*
X0163482Y0204159D01*
X0162986Y0205357D02*
X0162671Y0205357D01*
X0162853Y0206556D02*
X0158239Y0206556D01*
X0157667Y0206556D02*
X0153053Y0206556D01*
X0153053Y0206407D02*
X0153053Y0206307D01*
X0153173Y0205545D01*
X0153412Y0204812D01*
X0153762Y0204125D01*
X0154215Y0203501D01*
X0154761Y0202955D01*
X0155385Y0202502D01*
X0156072Y0202152D01*
X0156805Y0201914D01*
X0157567Y0201793D01*
X0157667Y0201793D01*
X0157667Y0206407D01*
X0153053Y0206407D01*
X0152920Y0205357D02*
X0153235Y0205357D01*
X0153745Y0204159D02*
X0152423Y0204159D01*
X0151433Y0202960D02*
X0154756Y0202960D01*
X0157667Y0202960D02*
X0158239Y0202960D01*
X0158239Y0204159D02*
X0157667Y0204159D01*
X0157667Y0205357D02*
X0158239Y0205357D01*
X0158239Y0207754D02*
X0157667Y0207754D01*
X0157667Y0208953D02*
X0158239Y0208953D01*
X0158239Y0210151D02*
X0157667Y0210151D01*
X0157667Y0211350D02*
X0158239Y0211350D01*
X0159477Y0211350D02*
X0165869Y0211350D01*
X0164885Y0212548D02*
X0161021Y0212548D01*
X0162219Y0213747D02*
X0163686Y0213747D01*
X0163156Y0214945D02*
X0162749Y0214945D01*
X0161424Y0210151D02*
X0164199Y0210151D01*
X0163369Y0208953D02*
X0162301Y0208953D01*
X0162746Y0207754D02*
X0162872Y0207754D01*
X0156429Y0211350D02*
X0150037Y0211350D01*
X0151021Y0212548D02*
X0154885Y0212548D01*
X0153686Y0213747D02*
X0152219Y0213747D01*
X0152749Y0214945D02*
X0153156Y0214945D01*
X0154482Y0210151D02*
X0151707Y0210151D01*
X0152537Y0208953D02*
X0153605Y0208953D01*
X0153160Y0207754D02*
X0153033Y0207754D01*
X0169209Y0211693D02*
X0170842Y0212369D01*
X0172276Y0213804D01*
X0173053Y0215678D01*
X0173053Y0217707D01*
X0172276Y0219582D01*
X0171758Y0220100D01*
X0174430Y0220100D01*
X0174215Y0219885D01*
X0173762Y0219261D01*
X0173412Y0218574D01*
X0173173Y0217840D01*
X0173053Y0217079D01*
X0173053Y0216979D01*
X0177667Y0216979D01*
X0177667Y0216407D01*
X0178239Y0216407D01*
X0178239Y0216979D01*
X0182853Y0216979D01*
X0182853Y0217079D01*
X0182732Y0217840D01*
X0182494Y0218574D01*
X0182144Y0219261D01*
X0181690Y0219885D01*
X0181475Y0220100D01*
X0184147Y0220100D01*
X0183629Y0219582D01*
X0182853Y0217707D01*
X0182853Y0215678D01*
X0183629Y0213804D01*
X0185064Y0212369D01*
X0186697Y0211693D01*
X0185064Y0211016D01*
X0183629Y0209582D01*
X0182953Y0207949D01*
X0182276Y0209582D01*
X0180842Y0211016D01*
X0178967Y0211793D01*
X0176938Y0211793D01*
X0175064Y0211016D01*
X0173629Y0209582D01*
X0172953Y0207949D01*
X0172276Y0209582D01*
X0170842Y0211016D01*
X0169209Y0211693D01*
X0170037Y0211350D02*
X0175869Y0211350D01*
X0176072Y0212152D02*
X0176805Y0211914D01*
X0177567Y0211793D01*
X0177667Y0211793D01*
X0177667Y0216407D01*
X0173053Y0216407D01*
X0173053Y0216307D01*
X0173173Y0215545D01*
X0173412Y0214812D01*
X0173762Y0214125D01*
X0174215Y0213501D01*
X0174761Y0212955D01*
X0175385Y0212502D01*
X0176072Y0212152D01*
X0175321Y0212548D02*
X0171021Y0212548D01*
X0172219Y0213747D02*
X0174036Y0213747D01*
X0173368Y0214945D02*
X0172749Y0214945D01*
X0173053Y0216144D02*
X0173079Y0216144D01*
X0173053Y0217342D02*
X0173095Y0217342D01*
X0173401Y0218541D02*
X0172707Y0218541D01*
X0172119Y0219739D02*
X0174109Y0219739D01*
X0177667Y0216144D02*
X0178239Y0216144D01*
X0178239Y0216407D02*
X0178239Y0211793D01*
X0178338Y0211793D01*
X0179100Y0211914D01*
X0179834Y0212152D01*
X0180521Y0212502D01*
X0181145Y0212955D01*
X0181690Y0213501D01*
X0182144Y0214125D01*
X0182494Y0214812D01*
X0182732Y0215545D01*
X0182853Y0216307D01*
X0182853Y0216407D01*
X0178239Y0216407D01*
X0178239Y0214945D02*
X0177667Y0214945D01*
X0177667Y0213747D02*
X0178239Y0213747D01*
X0178239Y0212548D02*
X0177667Y0212548D01*
X0180037Y0211350D02*
X0185869Y0211350D01*
X0184885Y0212548D02*
X0180585Y0212548D01*
X0181869Y0213747D02*
X0183686Y0213747D01*
X0183156Y0214945D02*
X0182537Y0214945D01*
X0182827Y0216144D02*
X0182853Y0216144D01*
X0182811Y0217342D02*
X0182853Y0217342D01*
X0183198Y0218541D02*
X0182504Y0218541D01*
X0181796Y0219739D02*
X0183787Y0219739D01*
X0191758Y0220100D02*
X0192276Y0219582D01*
X0193053Y0217707D01*
X0193053Y0215678D01*
X0192276Y0213804D01*
X0190842Y0212369D01*
X0189209Y0211693D01*
X0190842Y0211016D01*
X0192276Y0209582D01*
X0192953Y0207949D01*
X0193629Y0209582D01*
X0195064Y0211016D01*
X0196938Y0211793D01*
X0198967Y0211793D01*
X0200842Y0211016D01*
X0202276Y0209582D01*
X0202953Y0207949D01*
X0203629Y0209582D01*
X0205064Y0211016D01*
X0206697Y0211693D01*
X0205064Y0212369D01*
X0203629Y0213804D01*
X0202853Y0215678D01*
X0202853Y0217707D01*
X0203629Y0219582D01*
X0204147Y0220100D01*
X0201475Y0220100D01*
X0201690Y0219885D01*
X0202144Y0219261D01*
X0202494Y0218574D01*
X0202732Y0217840D01*
X0202853Y0217079D01*
X0202853Y0216979D01*
X0198239Y0216979D01*
X0198239Y0216407D01*
X0202853Y0216407D01*
X0202853Y0216307D01*
X0202732Y0215545D01*
X0202494Y0214812D01*
X0202144Y0214125D01*
X0201690Y0213501D01*
X0201145Y0212955D01*
X0200521Y0212502D01*
X0199834Y0212152D01*
X0199100Y0211914D01*
X0198338Y0211793D01*
X0198239Y0211793D01*
X0198239Y0216407D01*
X0197667Y0216407D01*
X0197667Y0211793D01*
X0197567Y0211793D01*
X0196805Y0211914D01*
X0196072Y0212152D01*
X0195385Y0212502D01*
X0194761Y0212955D01*
X0194215Y0213501D01*
X0193762Y0214125D01*
X0193412Y0214812D01*
X0193173Y0215545D01*
X0193053Y0216307D01*
X0193053Y0216407D01*
X0197667Y0216407D01*
X0197667Y0216979D01*
X0193053Y0216979D01*
X0193053Y0217079D01*
X0193173Y0217840D01*
X0193412Y0218574D01*
X0193762Y0219261D01*
X0194215Y0219885D01*
X0194430Y0220100D01*
X0191758Y0220100D01*
X0192119Y0219739D02*
X0194109Y0219739D01*
X0193401Y0218541D02*
X0192707Y0218541D01*
X0193053Y0217342D02*
X0193095Y0217342D01*
X0193053Y0216144D02*
X0193079Y0216144D01*
X0193368Y0214945D02*
X0192749Y0214945D01*
X0192219Y0213747D02*
X0194036Y0213747D01*
X0195321Y0212548D02*
X0191021Y0212548D01*
X0190037Y0211350D02*
X0195869Y0211350D01*
X0194199Y0210151D02*
X0191707Y0210151D01*
X0192537Y0208953D02*
X0193369Y0208953D01*
X0197667Y0212548D02*
X0198239Y0212548D01*
X0198239Y0213747D02*
X0197667Y0213747D01*
X0197667Y0214945D02*
X0198239Y0214945D01*
X0198239Y0216144D02*
X0197667Y0216144D01*
X0200585Y0212548D02*
X0204885Y0212548D01*
X0205869Y0211350D02*
X0200037Y0211350D01*
X0201707Y0210151D02*
X0204199Y0210151D01*
X0203369Y0208953D02*
X0202537Y0208953D01*
X0202920Y0205357D02*
X0202986Y0205357D01*
X0203482Y0204159D02*
X0202423Y0204159D01*
X0201433Y0202960D02*
X0204473Y0202960D01*
X0206531Y0201762D02*
X0199375Y0201762D01*
X0196531Y0201762D02*
X0189375Y0201762D01*
X0191433Y0202960D02*
X0194473Y0202960D01*
X0193482Y0204159D02*
X0192423Y0204159D01*
X0192920Y0205357D02*
X0192986Y0205357D01*
X0186531Y0201762D02*
X0179375Y0201762D01*
X0181433Y0202960D02*
X0184473Y0202960D01*
X0183482Y0204159D02*
X0182423Y0204159D01*
X0182920Y0205357D02*
X0182986Y0205357D01*
X0183369Y0208953D02*
X0182537Y0208953D01*
X0181707Y0210151D02*
X0184199Y0210151D01*
X0176531Y0201762D02*
X0169375Y0201762D01*
X0171433Y0202960D02*
X0174473Y0202960D01*
X0173482Y0204159D02*
X0172423Y0204159D01*
X0172920Y0205357D02*
X0172986Y0205357D01*
X0173369Y0208953D02*
X0172537Y0208953D01*
X0171707Y0210151D02*
X0174199Y0210151D01*
X0201869Y0213747D02*
X0203686Y0213747D01*
X0203156Y0214945D02*
X0202537Y0214945D01*
X0202827Y0216144D02*
X0202853Y0216144D01*
X0202811Y0217342D02*
X0202853Y0217342D01*
X0203198Y0218541D02*
X0202504Y0218541D01*
X0201796Y0219739D02*
X0203787Y0219739D01*
X0223790Y0224534D02*
X0253662Y0224534D01*
X0255311Y0223335D02*
X0224520Y0223335D01*
X0225016Y0222137D02*
X0256589Y0222137D01*
X0257460Y0220938D02*
X0230920Y0220938D01*
X0232119Y0219739D02*
X0258156Y0219739D01*
X0258545Y0218541D02*
X0249700Y0218541D01*
X0248580Y0219005D02*
X0251268Y0217892D01*
X0253325Y0215835D01*
X0254438Y0213147D01*
X0254438Y0210238D01*
X0253325Y0207551D01*
X0251268Y0205494D01*
X0248580Y0204381D01*
X0245672Y0204381D01*
X0242984Y0205494D01*
X0240927Y0207551D01*
X0239814Y0210238D01*
X0239814Y0213147D01*
X0240927Y0215835D01*
X0242984Y0217892D01*
X0245672Y0219005D01*
X0248580Y0219005D01*
X0244552Y0218541D02*
X0232707Y0218541D01*
X0233053Y0217342D02*
X0242435Y0217342D01*
X0241237Y0216144D02*
X0233053Y0216144D01*
X0232749Y0214945D02*
X0240559Y0214945D01*
X0240063Y0213747D02*
X0232219Y0213747D01*
X0231021Y0212548D02*
X0239814Y0212548D01*
X0239814Y0211350D02*
X0229477Y0211350D01*
X0228239Y0211350D02*
X0227667Y0211350D01*
X0227667Y0210151D02*
X0228239Y0210151D01*
X0228239Y0208953D02*
X0227667Y0208953D01*
X0227667Y0207754D02*
X0228239Y0207754D01*
X0228239Y0206556D02*
X0241923Y0206556D01*
X0240843Y0207754D02*
X0232746Y0207754D01*
X0232301Y0208953D02*
X0240347Y0208953D01*
X0239850Y0210151D02*
X0231424Y0210151D01*
X0232671Y0205357D02*
X0243315Y0205357D01*
X0250937Y0205357D02*
X0259106Y0205357D01*
X0259106Y0204159D02*
X0232161Y0204159D01*
X0231150Y0202960D02*
X0259106Y0202960D01*
X0259106Y0201762D02*
X0226438Y0201762D01*
X0227665Y0200563D02*
X0259106Y0200563D01*
X0259106Y0199365D02*
X0235417Y0199365D01*
X0238255Y0198166D02*
X0259106Y0198166D01*
X0259106Y0196968D02*
X0239453Y0196968D01*
X0240625Y0195769D02*
X0259106Y0195769D01*
X0259106Y0194571D02*
X0241121Y0194571D01*
X0243145Y0193372D02*
X0259106Y0193372D01*
X0259106Y0192174D02*
X0243900Y0192174D01*
X0243900Y0190975D02*
X0259106Y0190975D01*
X0259106Y0189777D02*
X0243900Y0189777D01*
X0243900Y0188578D02*
X0259106Y0188578D01*
X0259106Y0187380D02*
X0243900Y0187380D01*
X0243900Y0186181D02*
X0259106Y0186181D01*
X0259106Y0184983D02*
X0243500Y0184983D01*
X0241900Y0183784D02*
X0259106Y0183784D01*
X0259106Y0182586D02*
X0241900Y0182586D01*
X0241900Y0181387D02*
X0259106Y0181387D01*
X0259106Y0180189D02*
X0241900Y0180189D01*
X0241900Y0178990D02*
X0259106Y0178990D01*
X0259106Y0177792D02*
X0241900Y0177792D01*
X0241900Y0176593D02*
X0259106Y0176593D01*
X0259106Y0175395D02*
X0241943Y0175395D01*
X0242731Y0174196D02*
X0259106Y0174196D01*
X0259106Y0172998D02*
X0242950Y0172998D01*
X0242729Y0171799D02*
X0259106Y0171799D01*
X0259106Y0170601D02*
X0257715Y0170601D01*
X0258400Y0169402D02*
X0259106Y0169402D01*
X0259106Y0168203D02*
X0258400Y0168203D01*
X0258400Y0167005D02*
X0259106Y0167005D01*
X0259106Y0165806D02*
X0258400Y0165806D01*
X0258400Y0165691D02*
X0258400Y0165691D01*
X0257751Y0164608D02*
X0259106Y0164608D01*
X0259106Y0163409D02*
X0258400Y0163409D01*
X0258400Y0162211D02*
X0259106Y0162211D01*
X0259106Y0161012D02*
X0258400Y0161012D01*
X0258189Y0159814D02*
X0259106Y0159814D01*
X0259106Y0158615D02*
X0258400Y0158615D01*
X0258400Y0157417D02*
X0259106Y0157417D01*
X0259106Y0156218D02*
X0258400Y0156218D01*
X0258041Y0155020D02*
X0259106Y0155020D01*
X0259106Y0153821D02*
X0258400Y0153821D01*
X0258400Y0152623D02*
X0259106Y0152623D01*
X0259106Y0151424D02*
X0258400Y0151424D01*
X0258649Y0145432D02*
X0259106Y0145432D01*
X0259106Y0144233D02*
X0258400Y0144233D01*
X0258015Y0143035D02*
X0259106Y0143035D01*
X0259106Y0141836D02*
X0258400Y0141836D01*
X0258210Y0140638D02*
X0259106Y0140638D01*
X0259106Y0139439D02*
X0258400Y0139439D01*
X0258400Y0138241D02*
X0259106Y0138241D01*
X0259106Y0137042D02*
X0258400Y0137042D01*
X0257772Y0135844D02*
X0259106Y0135844D01*
X0259106Y0134645D02*
X0258400Y0134645D01*
X0258400Y0133447D02*
X0259106Y0133447D01*
X0259106Y0132248D02*
X0258400Y0132248D01*
X0258400Y0131050D02*
X0259106Y0131050D01*
X0259106Y0129851D02*
X0257736Y0129851D01*
X0259106Y0128653D02*
X0241331Y0128653D01*
X0241827Y0129851D02*
X0249859Y0129851D01*
X0249196Y0131050D02*
X0241900Y0131050D01*
X0241900Y0132248D02*
X0249196Y0132248D01*
X0250305Y0133447D02*
X0241900Y0133447D01*
X0241900Y0134645D02*
X0250797Y0134645D01*
X0251425Y0135844D02*
X0241900Y0135844D01*
X0241900Y0137042D02*
X0250797Y0137042D01*
X0250797Y0138241D02*
X0241900Y0138241D01*
X0241900Y0139439D02*
X0250797Y0139439D01*
X0251539Y0140638D02*
X0241900Y0140638D01*
X0241900Y0141836D02*
X0250797Y0141836D01*
X0250797Y0143035D02*
X0241900Y0143035D01*
X0241900Y0144233D02*
X0250797Y0144233D01*
X0250797Y0145432D02*
X0241900Y0145432D01*
X0241900Y0146630D02*
X0250797Y0146630D01*
X0250797Y0147829D02*
X0241900Y0147829D01*
X0241900Y0149027D02*
X0250797Y0149027D01*
X0250815Y0150226D02*
X0241900Y0150226D01*
X0241900Y0151424D02*
X0248794Y0151424D01*
X0248395Y0152623D02*
X0241900Y0152623D01*
X0241900Y0153821D02*
X0248571Y0153821D01*
X0250797Y0155020D02*
X0241900Y0155020D01*
X0241900Y0156218D02*
X0250797Y0156218D01*
X0250797Y0157417D02*
X0241900Y0157417D01*
X0241900Y0158615D02*
X0250797Y0158615D01*
X0251518Y0159814D02*
X0241900Y0159814D01*
X0241900Y0161012D02*
X0250797Y0161012D01*
X0250797Y0162211D02*
X0241900Y0162211D01*
X0241900Y0163409D02*
X0250797Y0163409D01*
X0250279Y0164608D02*
X0241900Y0164608D01*
X0241900Y0165806D02*
X0249196Y0165806D01*
X0249196Y0167005D02*
X0241900Y0167005D01*
X0241900Y0168203D02*
X0249196Y0168203D01*
X0249196Y0169402D02*
X0241900Y0169402D01*
X0241938Y0170601D02*
X0249880Y0170601D01*
X0227100Y0182586D02*
X0175055Y0182586D01*
X0180300Y0168203D02*
X0214266Y0168203D01*
X0213356Y0167005D02*
X0180300Y0167005D01*
X0180300Y0165806D02*
X0213050Y0165806D01*
X0213185Y0164608D02*
X0180300Y0164608D01*
X0180300Y0163409D02*
X0213608Y0163409D01*
X0212897Y0162211D02*
X0180300Y0162211D01*
X0213237Y0192174D02*
X0075500Y0192174D01*
X0075500Y0193372D02*
X0212366Y0193372D01*
X0211644Y0194571D02*
X0075500Y0194571D01*
X0075500Y0195769D02*
X0211255Y0195769D01*
X0210865Y0196968D02*
X0075500Y0196968D01*
X0075500Y0198166D02*
X0210700Y0198166D01*
X0210700Y0199365D02*
X0075500Y0199365D01*
X0075500Y0200563D02*
X0210700Y0200563D01*
X0210700Y0201762D02*
X0209375Y0201762D01*
X0214391Y0190975D02*
X0075500Y0190975D01*
X0075500Y0189777D02*
X0216041Y0189777D01*
X0219066Y0188578D02*
X0075500Y0188578D01*
X0075500Y0187380D02*
X0225100Y0187380D01*
X0225100Y0186181D02*
X0075500Y0186181D01*
X0075216Y0184983D02*
X0225500Y0184983D01*
X0227100Y0183784D02*
X0074719Y0183784D01*
X0075500Y0201762D02*
X0086531Y0201762D01*
X0084473Y0202960D02*
X0081150Y0202960D01*
X0082161Y0204159D02*
X0083482Y0204159D01*
X0082986Y0205357D02*
X0082671Y0205357D01*
X0078239Y0205357D02*
X0077667Y0205357D01*
X0077667Y0204159D02*
X0078239Y0204159D01*
X0078239Y0202960D02*
X0077667Y0202960D01*
X0089375Y0201762D02*
X0096531Y0201762D01*
X0094473Y0202960D02*
X0091433Y0202960D01*
X0092423Y0204159D02*
X0093482Y0204159D01*
X0092986Y0205357D02*
X0092920Y0205357D01*
X0092537Y0208953D02*
X0093369Y0208953D01*
X0094199Y0210151D02*
X0091707Y0210151D01*
X0075100Y0103484D02*
X0152861Y0103484D01*
X0152169Y0102285D02*
X0074781Y0102285D01*
X0073582Y0101087D02*
X0151139Y0101087D01*
X0149941Y0099888D02*
X0072384Y0099888D01*
X0070200Y0099888D02*
X0069400Y0099888D01*
X0160857Y0019588D02*
X0163533Y0019588D01*
X0166516Y0015993D02*
X0178807Y0015993D01*
X0178916Y0015884D02*
X0178916Y0015884D01*
X0177609Y0017191D02*
X0167715Y0017191D01*
X0168254Y0018390D02*
X0176933Y0018390D01*
X0177302Y0017498D02*
X0177302Y0017498D01*
X0176436Y0019588D02*
X0168751Y0019588D01*
X0168900Y0020787D02*
X0176428Y0020787D01*
X0176428Y0021985D02*
X0168900Y0021985D01*
X0168900Y0023184D02*
X0176428Y0023184D01*
X0176428Y0024382D02*
X0168900Y0024382D01*
X0168900Y0025581D02*
X0176428Y0025581D01*
X0176428Y0026779D02*
X0168900Y0026779D01*
X0168900Y0027978D02*
X0176428Y0027978D01*
X0176428Y0029176D02*
X0168900Y0029176D01*
X0168900Y0030375D02*
X0176428Y0030375D01*
X0176428Y0031573D02*
X0168900Y0031573D01*
X0168900Y0032772D02*
X0176428Y0032772D01*
X0176428Y0033970D02*
X0168900Y0033970D01*
X0168900Y0035169D02*
X0176428Y0035169D01*
X0176428Y0036367D02*
X0168900Y0036367D01*
X0168900Y0037566D02*
X0176428Y0037566D01*
X0176428Y0038764D02*
X0168900Y0038764D01*
X0168900Y0039963D02*
X0176428Y0039963D01*
X0176428Y0041161D02*
X0168900Y0041161D01*
X0168900Y0042360D02*
X0176428Y0042360D01*
X0176428Y0043558D02*
X0168900Y0043558D01*
X0168900Y0044757D02*
X0176428Y0044757D01*
X0176428Y0045955D02*
X0168900Y0045955D01*
X0168900Y0047154D02*
X0176428Y0047154D01*
X0176428Y0048352D02*
X0168900Y0048352D01*
X0168900Y0049551D02*
X0176428Y0049551D01*
X0176428Y0050749D02*
X0168900Y0050749D01*
X0168900Y0051948D02*
X0176428Y0051948D01*
X0176428Y0053146D02*
X0168900Y0053146D01*
X0168900Y0054345D02*
X0176428Y0054345D01*
X0176428Y0055543D02*
X0168900Y0055543D01*
X0168900Y0056742D02*
X0176428Y0056742D01*
X0176428Y0057940D02*
X0168900Y0057940D01*
X0168900Y0059139D02*
X0176428Y0059139D01*
X0176428Y0060337D02*
X0168900Y0060337D01*
X0210757Y0061536D02*
X0246843Y0061536D01*
X0246516Y0067529D02*
X0211084Y0067529D01*
X0248652Y0075918D02*
X0249732Y0075918D01*
X0249196Y0077117D02*
X0248972Y0077117D01*
X0248887Y0078315D02*
X0249196Y0078315D01*
X0249773Y0079514D02*
X0248337Y0079514D01*
X0257660Y0120263D02*
X0259106Y0120263D01*
X0259106Y0121462D02*
X0258400Y0121462D01*
X0258400Y0122660D02*
X0259106Y0122660D01*
X0259106Y0123859D02*
X0258400Y0123859D01*
X0258400Y0125057D02*
X0259106Y0125057D01*
X0259106Y0126256D02*
X0257372Y0126256D01*
X0259106Y0127454D02*
X0240598Y0127454D01*
X0228239Y0202960D02*
X0227667Y0202960D01*
X0227667Y0204159D02*
X0228239Y0204159D01*
X0228239Y0205357D02*
X0227667Y0205357D01*
X0226429Y0211350D02*
X0225300Y0211350D01*
X0251817Y0217342D02*
X0258935Y0217342D01*
X0259065Y0216144D02*
X0253015Y0216144D01*
X0253693Y0214945D02*
X0259106Y0214945D01*
X0259106Y0213747D02*
X0254189Y0213747D01*
X0254438Y0212548D02*
X0259106Y0212548D01*
X0259106Y0211350D02*
X0254438Y0211350D01*
X0254402Y0210151D02*
X0259106Y0210151D01*
X0259106Y0208953D02*
X0253905Y0208953D01*
X0253409Y0207754D02*
X0259106Y0207754D01*
X0259106Y0206556D02*
X0252329Y0206556D01*
M02*
